<?xml version="1.0" encoding="utf-8"?>
<svg xmlns="http://www.w3.org/2000/svg" xmlns:xlink="http://www.w3.org/1999/xlink" width="600" height="400" viewBox="0 0 2400 1600">
<defs>
  <clipPath id="clip280">
    <rect x="0" y="0" width="2400" height="1600"/>
  </clipPath>
</defs>
<path clip-path="url(#clip280)" d="M0 1600 L2400 1600 L2400 0 L0 0  Z" fill="#ffffff" fill-rule="evenodd" fill-opacity="1"/>
<defs>
  <clipPath id="clip281">
    <rect x="480" y="0" width="1681" height="1600"/>
  </clipPath>
</defs>
<path clip-path="url(#clip280)" d="M175.445 1423.18 L2352.76 1423.18 L2352.76 47.2441 L175.445 47.2441  Z" fill="#ffffff" fill-rule="evenodd" fill-opacity="1"/>
<defs>
  <clipPath id="clip282">
    <rect x="175" y="47" width="2178" height="1377"/>
  </clipPath>
</defs>
<polyline clip-path="url(#clip282)" style="stroke:#000000; stroke-linecap:round; stroke-linejoin:round; stroke-width:2; stroke-opacity:0.1; fill:none" points="530.505,1423.18 530.505,47.2441 "/>
<polyline clip-path="url(#clip282)" style="stroke:#000000; stroke-linecap:round; stroke-linejoin:round; stroke-width:2; stroke-opacity:0.1; fill:none" points="1117.38,1423.18 1117.38,47.2441 "/>
<polyline clip-path="url(#clip282)" style="stroke:#000000; stroke-linecap:round; stroke-linejoin:round; stroke-width:2; stroke-opacity:0.1; fill:none" points="1704.26,1423.18 1704.26,47.2441 "/>
<polyline clip-path="url(#clip282)" style="stroke:#000000; stroke-linecap:round; stroke-linejoin:round; stroke-width:2; stroke-opacity:0.1; fill:none" points="2291.13,1423.18 2291.13,47.2441 "/>
<polyline clip-path="url(#clip282)" style="stroke:#000000; stroke-linecap:round; stroke-linejoin:round; stroke-width:2; stroke-opacity:0.1; fill:none" points="530.505,1423.18 530.505,47.2441 "/>
<polyline clip-path="url(#clip282)" style="stroke:#000000; stroke-linecap:round; stroke-linejoin:round; stroke-width:2; stroke-opacity:0.1; fill:none" points="1117.38,1423.18 1117.38,47.2441 "/>
<polyline clip-path="url(#clip282)" style="stroke:#000000; stroke-linecap:round; stroke-linejoin:round; stroke-width:2; stroke-opacity:0.1; fill:none" points="1704.26,1423.18 1704.26,47.2441 "/>
<polyline clip-path="url(#clip282)" style="stroke:#000000; stroke-linecap:round; stroke-linejoin:round; stroke-width:2; stroke-opacity:0.1; fill:none" points="2291.13,1423.18 2291.13,47.2441 "/>
<polyline clip-path="url(#clip282)" style="stroke:#000000; stroke-linecap:round; stroke-linejoin:round; stroke-width:2; stroke-opacity:0.1; fill:none" points="175.445,1423.18 2352.76,1423.18 "/>
<polyline clip-path="url(#clip282)" style="stroke:#000000; stroke-linecap:round; stroke-linejoin:round; stroke-width:2; stroke-opacity:0.1; fill:none" points="175.445,1147.99 2352.76,1147.99 "/>
<polyline clip-path="url(#clip282)" style="stroke:#000000; stroke-linecap:round; stroke-linejoin:round; stroke-width:2; stroke-opacity:0.1; fill:none" points="175.445,872.806 2352.76,872.806 "/>
<polyline clip-path="url(#clip282)" style="stroke:#000000; stroke-linecap:round; stroke-linejoin:round; stroke-width:2; stroke-opacity:0.1; fill:none" points="175.445,597.618 2352.76,597.618 "/>
<polyline clip-path="url(#clip282)" style="stroke:#000000; stroke-linecap:round; stroke-linejoin:round; stroke-width:2; stroke-opacity:0.1; fill:none" points="175.445,322.431 2352.76,322.431 "/>
<polyline clip-path="url(#clip282)" style="stroke:#000000; stroke-linecap:round; stroke-linejoin:round; stroke-width:2; stroke-opacity:0.1; fill:none" points="175.445,47.2441 2352.76,47.2441 "/>
<polyline clip-path="url(#clip282)" style="stroke:#000000; stroke-linecap:round; stroke-linejoin:round; stroke-width:2; stroke-opacity:0.1; fill:none" points="175.445,1423.18 2352.76,1423.18 "/>
<polyline clip-path="url(#clip282)" style="stroke:#000000; stroke-linecap:round; stroke-linejoin:round; stroke-width:2; stroke-opacity:0.1; fill:none" points="175.445,1147.99 2352.76,1147.99 "/>
<polyline clip-path="url(#clip282)" style="stroke:#000000; stroke-linecap:round; stroke-linejoin:round; stroke-width:2; stroke-opacity:0.1; fill:none" points="175.445,872.806 2352.76,872.806 "/>
<polyline clip-path="url(#clip282)" style="stroke:#000000; stroke-linecap:round; stroke-linejoin:round; stroke-width:2; stroke-opacity:0.1; fill:none" points="175.445,597.618 2352.76,597.618 "/>
<polyline clip-path="url(#clip282)" style="stroke:#000000; stroke-linecap:round; stroke-linejoin:round; stroke-width:2; stroke-opacity:0.1; fill:none" points="175.445,322.431 2352.76,322.431 "/>
<polyline clip-path="url(#clip282)" style="stroke:#000000; stroke-linecap:round; stroke-linejoin:round; stroke-width:2; stroke-opacity:0.1; fill:none" points="175.445,47.2441 2352.76,47.2441 "/>
<polyline clip-path="url(#clip280)" style="stroke:#000000; stroke-linecap:round; stroke-linejoin:round; stroke-width:4; stroke-opacity:1; fill:none" points="175.445,1423.18 2352.76,1423.18 "/>
<polyline clip-path="url(#clip280)" style="stroke:#000000; stroke-linecap:round; stroke-linejoin:round; stroke-width:4; stroke-opacity:1; fill:none" points="175.445,47.2441 2352.76,47.2441 "/>
<polyline clip-path="url(#clip280)" style="stroke:#000000; stroke-linecap:round; stroke-linejoin:round; stroke-width:4; stroke-opacity:1; fill:none" points="530.505,1423.18 530.505,1404.28 "/>
<polyline clip-path="url(#clip280)" style="stroke:#000000; stroke-linecap:round; stroke-linejoin:round; stroke-width:4; stroke-opacity:1; fill:none" points="1117.38,1423.18 1117.38,1404.28 "/>
<polyline clip-path="url(#clip280)" style="stroke:#000000; stroke-linecap:round; stroke-linejoin:round; stroke-width:4; stroke-opacity:1; fill:none" points="1704.26,1423.18 1704.26,1404.28 "/>
<polyline clip-path="url(#clip280)" style="stroke:#000000; stroke-linecap:round; stroke-linejoin:round; stroke-width:4; stroke-opacity:1; fill:none" points="2291.13,1423.18 2291.13,1404.28 "/>
<polyline clip-path="url(#clip280)" style="stroke:#000000; stroke-linecap:round; stroke-linejoin:round; stroke-width:4; stroke-opacity:1; fill:none" points="530.505,47.2441 530.505,66.1417 "/>
<polyline clip-path="url(#clip280)" style="stroke:#000000; stroke-linecap:round; stroke-linejoin:round; stroke-width:4; stroke-opacity:1; fill:none" points="1117.38,47.2441 1117.38,66.1417 "/>
<polyline clip-path="url(#clip280)" style="stroke:#000000; stroke-linecap:round; stroke-linejoin:round; stroke-width:4; stroke-opacity:1; fill:none" points="1704.26,47.2441 1704.26,66.1417 "/>
<polyline clip-path="url(#clip280)" style="stroke:#000000; stroke-linecap:round; stroke-linejoin:round; stroke-width:4; stroke-opacity:1; fill:none" points="2291.13,47.2441 2291.13,66.1417 "/>
<path clip-path="url(#clip280)" d="M525.158 1481.64 L541.477 1481.64 L541.477 1485.58 L519.533 1485.58 L519.533 1481.64 Q522.195 1478.89 526.778 1474.26 Q531.385 1469.61 532.565 1468.27 Q534.811 1465.74 535.69 1464.01 Q536.593 1462.25 536.593 1460.56 Q536.593 1457.8 534.649 1456.07 Q532.728 1454.33 529.626 1454.33 Q527.427 1454.33 524.973 1455.09 Q522.542 1455.86 519.765 1457.41 L519.765 1452.69 Q522.589 1451.55 525.042 1450.97 Q527.496 1450.39 529.533 1450.39 Q534.903 1450.39 538.098 1453.08 Q541.292 1455.77 541.292 1460.26 Q541.292 1462.39 540.482 1464.31 Q539.695 1466.2 537.589 1468.8 Q537.01 1469.47 533.908 1472.69 Q530.806 1475.88 525.158 1481.64 Z" fill="#000000" fill-rule="nonzero" fill-opacity="1" /><path clip-path="url(#clip280)" d="M1120.39 1455.09 L1108.59 1473.54 L1120.39 1473.54 L1120.39 1455.09 M1119.16 1451.02 L1125.04 1451.02 L1125.04 1473.54 L1129.97 1473.54 L1129.97 1477.43 L1125.04 1477.43 L1125.04 1485.58 L1120.39 1485.58 L1120.39 1477.43 L1104.79 1477.43 L1104.79 1472.92 L1119.16 1451.02 Z" fill="#000000" fill-rule="nonzero" fill-opacity="1" /><path clip-path="url(#clip280)" d="M1704.66 1466.44 Q1701.51 1466.44 1699.66 1468.59 Q1697.83 1470.74 1697.83 1474.49 Q1697.83 1478.22 1699.66 1480.39 Q1701.51 1482.55 1704.66 1482.55 Q1707.81 1482.55 1709.64 1480.39 Q1711.49 1478.22 1711.49 1474.49 Q1711.49 1470.74 1709.64 1468.59 Q1707.81 1466.44 1704.66 1466.44 M1713.95 1451.78 L1713.95 1456.04 Q1712.19 1455.21 1710.38 1454.77 Q1708.6 1454.33 1706.84 1454.33 Q1702.21 1454.33 1699.76 1457.45 Q1697.32 1460.58 1696.98 1466.9 Q1698.34 1464.89 1700.4 1463.82 Q1702.46 1462.73 1704.94 1462.73 Q1710.15 1462.73 1713.16 1465.9 Q1716.19 1469.05 1716.19 1474.49 Q1716.19 1479.82 1713.04 1483.03 Q1709.89 1486.25 1704.66 1486.25 Q1698.67 1486.25 1695.5 1481.67 Q1692.32 1477.06 1692.32 1468.33 Q1692.32 1460.14 1696.21 1455.28 Q1700.1 1450.39 1706.65 1450.39 Q1708.41 1450.39 1710.2 1450.74 Q1712 1451.09 1713.95 1451.78 Z" fill="#000000" fill-rule="nonzero" fill-opacity="1" /><path clip-path="url(#clip280)" d="M2291.13 1469.17 Q2287.8 1469.17 2285.88 1470.95 Q2283.98 1472.73 2283.98 1475.86 Q2283.98 1478.98 2285.88 1480.77 Q2287.8 1482.55 2291.13 1482.55 Q2294.47 1482.55 2296.39 1480.77 Q2298.31 1478.96 2298.31 1475.86 Q2298.31 1472.73 2296.39 1470.95 Q2294.49 1469.17 2291.13 1469.17 M2286.46 1467.18 Q2283.45 1466.44 2281.76 1464.38 Q2280.09 1462.32 2280.09 1459.35 Q2280.09 1455.21 2283.03 1452.8 Q2286 1450.39 2291.13 1450.39 Q2296.3 1450.39 2299.24 1452.8 Q2302.18 1455.21 2302.18 1459.35 Q2302.18 1462.32 2300.49 1464.38 Q2298.82 1466.44 2295.83 1467.18 Q2299.21 1467.96 2301.09 1470.26 Q2302.99 1472.55 2302.99 1475.86 Q2302.99 1480.88 2299.91 1483.57 Q2296.85 1486.25 2291.13 1486.25 Q2285.42 1486.25 2282.34 1483.57 Q2279.28 1480.88 2279.28 1475.86 Q2279.28 1472.55 2281.18 1470.26 Q2283.08 1467.96 2286.46 1467.18 M2284.75 1459.79 Q2284.75 1462.48 2286.41 1463.98 Q2288.1 1465.49 2291.13 1465.49 Q2294.14 1465.49 2295.83 1463.98 Q2297.55 1462.48 2297.55 1459.79 Q2297.55 1457.11 2295.83 1455.6 Q2294.14 1454.1 2291.13 1454.1 Q2288.1 1454.1 2286.41 1455.6 Q2284.75 1457.11 2284.75 1459.79 Z" fill="#000000" fill-rule="nonzero" fill-opacity="1" /><path clip-path="url(#clip280)" d="M1083.27 1539.37 L1074 1539.37 L1071.33 1550 L1080.66 1550 L1083.27 1539.37 M1078.49 1521.26 L1075.18 1534.46 L1084.48 1534.46 L1087.82 1521.26 L1092.91 1521.26 L1089.63 1534.46 L1099.56 1534.46 L1099.56 1539.37 L1088.39 1539.37 L1085.78 1550 L1095.9 1550 L1095.9 1554.87 L1084.54 1554.87 L1081.23 1568.04 L1076.14 1568.04 L1079.42 1554.87 L1070.09 1554.87 L1066.81 1568.04 L1061.69 1568.04 L1065 1554.87 L1054.97 1554.87 L1054.97 1550 L1066.17 1550 L1068.85 1539.37 L1058.6 1539.37 L1058.6 1534.46 L1070.09 1534.46 L1073.34 1521.26 L1078.49 1521.26 Z" fill="#000000" fill-rule="nonzero" fill-opacity="1" /><path clip-path="url(#clip280)" d="M1137.09 1562.7 L1137.09 1581.6 L1131.2 1581.6 L1131.2 1532.4 L1137.09 1532.4 L1137.09 1537.81 Q1138.93 1534.62 1141.74 1533.1 Q1144.57 1531.54 1148.48 1531.54 Q1154.98 1531.54 1159.02 1536.69 Q1163.09 1541.85 1163.09 1550.25 Q1163.09 1558.65 1159.02 1563.81 Q1154.98 1568.97 1148.48 1568.97 Q1144.57 1568.97 1141.74 1567.44 Q1138.93 1565.88 1137.09 1562.7 M1157.01 1550.25 Q1157.01 1543.79 1154.34 1540.13 Q1151.7 1536.44 1147.05 1536.44 Q1142.4 1536.44 1139.73 1540.13 Q1137.09 1543.79 1137.09 1550.25 Q1137.09 1556.71 1139.73 1560.4 Q1142.4 1564.07 1147.05 1564.07 Q1151.7 1564.07 1154.34 1560.4 Q1157.01 1556.71 1157.01 1550.25 Z" fill="#000000" fill-rule="nonzero" fill-opacity="1" /><path clip-path="url(#clip280)" d="M1193.46 1537.87 Q1192.47 1537.3 1191.29 1537.04 Q1190.15 1536.76 1188.75 1536.76 Q1183.78 1536.76 1181.11 1540 Q1178.47 1543.22 1178.47 1549.27 L1178.47 1568.04 L1172.58 1568.04 L1172.58 1532.4 L1178.47 1532.4 L1178.47 1537.93 Q1180.31 1534.69 1183.27 1533.13 Q1186.23 1531.54 1190.47 1531.54 Q1191.07 1531.54 1191.8 1531.63 Q1192.53 1531.7 1193.43 1531.85 L1193.46 1537.87 Z" fill="#000000" fill-rule="nonzero" fill-opacity="1" /><path clip-path="url(#clip280)" d="M1211.98 1536.5 Q1207.27 1536.5 1204.53 1540.19 Q1201.8 1543.85 1201.8 1550.25 Q1201.8 1556.65 1204.5 1560.34 Q1207.24 1564 1211.98 1564 Q1216.66 1564 1219.4 1560.31 Q1222.13 1556.62 1222.13 1550.25 Q1222.13 1543.92 1219.4 1540.23 Q1216.66 1536.5 1211.98 1536.5 M1211.98 1531.54 Q1219.62 1531.54 1223.98 1536.5 Q1228.34 1541.47 1228.34 1550.25 Q1228.34 1559 1223.98 1564 Q1219.62 1568.97 1211.98 1568.97 Q1204.31 1568.97 1199.95 1564 Q1195.62 1559 1195.62 1550.25 Q1195.62 1541.47 1199.95 1536.5 Q1204.31 1531.54 1211.98 1531.54 Z" fill="#000000" fill-rule="nonzero" fill-opacity="1" /><path clip-path="url(#clip280)" d="M1263.7 1533.76 L1263.7 1539.24 Q1261.22 1537.87 1258.71 1537.2 Q1256.22 1536.5 1253.68 1536.5 Q1247.98 1536.5 1244.83 1540.13 Q1241.68 1543.73 1241.68 1550.25 Q1241.68 1556.78 1244.83 1560.4 Q1247.98 1564 1253.68 1564 Q1256.22 1564 1258.71 1563.33 Q1261.22 1562.63 1263.7 1561.26 L1263.7 1566.68 Q1261.25 1567.82 1258.61 1568.39 Q1256 1568.97 1253.04 1568.97 Q1244.99 1568.97 1240.25 1563.91 Q1235.5 1558.85 1235.5 1550.25 Q1235.5 1541.53 1240.28 1536.53 Q1245.08 1531.54 1253.42 1531.54 Q1256.13 1531.54 1258.71 1532.11 Q1261.28 1532.65 1263.7 1533.76 Z" fill="#000000" fill-rule="nonzero" fill-opacity="1" /><path clip-path="url(#clip280)" d="M1304.38 1548.76 L1304.38 1551.62 L1277.45 1551.62 Q1277.83 1557.67 1281.08 1560.85 Q1284.36 1564 1290.18 1564 Q1293.56 1564 1296.71 1563.17 Q1299.89 1562.35 1303.01 1560.69 L1303.01 1566.23 Q1299.86 1567.57 1296.55 1568.27 Q1293.24 1568.97 1289.83 1568.97 Q1281.3 1568.97 1276.31 1564 Q1271.34 1559.04 1271.34 1550.57 Q1271.34 1541.82 1276.05 1536.69 Q1280.79 1531.54 1288.82 1531.54 Q1296.01 1531.54 1300.18 1536.18 Q1304.38 1540.8 1304.38 1548.76 M1298.52 1547.04 Q1298.46 1542.23 1295.82 1539.37 Q1293.21 1536.5 1288.88 1536.5 Q1283.98 1536.5 1281.02 1539.27 Q1278.09 1542.04 1277.64 1547.07 L1298.52 1547.04 Z" fill="#000000" fill-rule="nonzero" fill-opacity="1" /><path clip-path="url(#clip280)" d="M1336.72 1533.45 L1336.72 1538.98 Q1334.23 1537.71 1331.56 1537.07 Q1328.89 1536.44 1326.02 1536.44 Q1321.66 1536.44 1319.47 1537.77 Q1317.3 1539.11 1317.3 1541.79 Q1317.3 1543.82 1318.86 1545 Q1320.42 1546.15 1325.13 1547.2 L1327.14 1547.64 Q1333.38 1548.98 1335.99 1551.43 Q1338.63 1553.85 1338.63 1558.21 Q1338.63 1563.17 1334.68 1566.07 Q1330.77 1568.97 1323.89 1568.97 Q1321.03 1568.97 1317.91 1568.39 Q1314.82 1567.85 1311.38 1566.74 L1311.38 1560.69 Q1314.63 1562.38 1317.78 1563.24 Q1320.93 1564.07 1324.02 1564.07 Q1328.16 1564.07 1330.38 1562.66 Q1332.61 1561.23 1332.61 1558.65 Q1332.61 1556.27 1330.99 1554.99 Q1329.4 1553.72 1323.95 1552.54 L1321.92 1552.07 Q1316.47 1550.92 1314.06 1548.56 Q1311.64 1546.18 1311.64 1542.04 Q1311.64 1537.01 1315.2 1534.27 Q1318.77 1531.54 1325.32 1531.54 Q1328.57 1531.54 1331.43 1532.01 Q1334.3 1532.49 1336.72 1533.45 Z" fill="#000000" fill-rule="nonzero" fill-opacity="1" /><path clip-path="url(#clip280)" d="M1370.68 1533.45 L1370.68 1538.98 Q1368.2 1537.71 1365.52 1537.07 Q1362.85 1536.44 1359.98 1536.44 Q1355.62 1536.44 1353.43 1537.77 Q1351.26 1539.11 1351.26 1541.79 Q1351.26 1543.82 1352.82 1545 Q1354.38 1546.15 1359.09 1547.2 L1361.1 1547.64 Q1367.34 1548.98 1369.95 1551.43 Q1372.59 1553.85 1372.59 1558.21 Q1372.59 1563.17 1368.64 1566.07 Q1364.73 1568.97 1357.85 1568.97 Q1354.99 1568.97 1351.87 1568.39 Q1348.78 1567.85 1345.34 1566.74 L1345.34 1560.69 Q1348.59 1562.38 1351.74 1563.24 Q1354.89 1564.07 1357.98 1564.07 Q1362.12 1564.07 1364.34 1562.66 Q1366.57 1561.23 1366.57 1558.65 Q1366.57 1556.27 1364.95 1554.99 Q1363.36 1553.72 1357.92 1552.54 L1355.88 1552.07 Q1350.44 1550.92 1348.02 1548.56 Q1345.6 1546.18 1345.6 1542.04 Q1345.6 1537.01 1349.16 1534.27 Q1352.73 1531.54 1359.28 1531.54 Q1362.53 1531.54 1365.39 1532.01 Q1368.26 1532.49 1370.68 1533.45 Z" fill="#000000" fill-rule="nonzero" fill-opacity="1" /><path clip-path="url(#clip280)" d="M1395.73 1536.5 Q1391.02 1536.5 1388.28 1540.19 Q1385.54 1543.85 1385.54 1550.25 Q1385.54 1556.65 1388.25 1560.34 Q1390.99 1564 1395.73 1564 Q1400.41 1564 1403.14 1560.31 Q1405.88 1556.62 1405.88 1550.25 Q1405.88 1543.92 1403.14 1540.23 Q1400.41 1536.5 1395.73 1536.5 M1395.73 1531.54 Q1403.37 1531.54 1407.73 1536.5 Q1412.09 1541.47 1412.09 1550.25 Q1412.09 1559 1407.73 1564 Q1403.37 1568.97 1395.73 1568.97 Q1388.06 1568.97 1383.7 1564 Q1379.37 1559 1379.37 1550.25 Q1379.37 1541.47 1383.7 1536.5 Q1388.06 1531.54 1395.73 1531.54 Z" fill="#000000" fill-rule="nonzero" fill-opacity="1" /><path clip-path="url(#clip280)" d="M1442.45 1537.87 Q1441.47 1537.3 1440.29 1537.04 Q1439.14 1536.76 1437.74 1536.76 Q1432.78 1536.76 1430.1 1540 Q1427.46 1543.22 1427.46 1549.27 L1427.46 1568.04 L1421.57 1568.04 L1421.57 1532.4 L1427.46 1532.4 L1427.46 1537.93 Q1429.31 1534.69 1432.27 1533.13 Q1435.23 1531.54 1439.46 1531.54 Q1440.06 1531.54 1440.8 1531.63 Q1441.53 1531.7 1442.42 1531.85 L1442.45 1537.87 Z" fill="#000000" fill-rule="nonzero" fill-opacity="1" /><path clip-path="url(#clip280)" d="M1471.32 1533.45 L1471.32 1538.98 Q1468.84 1537.71 1466.16 1537.07 Q1463.49 1536.44 1460.63 1536.44 Q1456.27 1536.44 1454.07 1537.77 Q1451.9 1539.11 1451.9 1541.79 Q1451.9 1543.82 1453.46 1545 Q1455.02 1546.15 1459.73 1547.2 L1461.74 1547.64 Q1467.98 1548.98 1470.59 1551.43 Q1473.23 1553.85 1473.23 1558.21 Q1473.23 1563.17 1469.28 1566.07 Q1465.37 1568.97 1458.49 1568.97 Q1455.63 1568.97 1452.51 1568.39 Q1449.42 1567.85 1445.98 1566.74 L1445.98 1560.69 Q1449.23 1562.38 1452.38 1563.24 Q1455.53 1564.07 1458.62 1564.07 Q1462.76 1564.07 1464.99 1562.66 Q1467.21 1561.23 1467.21 1558.65 Q1467.21 1556.27 1465.59 1554.99 Q1464 1553.72 1458.56 1552.54 L1456.52 1552.07 Q1451.08 1550.92 1448.66 1548.56 Q1446.24 1546.18 1446.24 1542.04 Q1446.24 1537.01 1449.8 1534.27 Q1453.37 1531.54 1459.93 1531.54 Q1463.17 1531.54 1466.04 1532.01 Q1468.9 1532.49 1471.32 1533.45 Z" fill="#000000" fill-rule="nonzero" fill-opacity="1" /><polyline clip-path="url(#clip280)" style="stroke:#000000; stroke-linecap:round; stroke-linejoin:round; stroke-width:4; stroke-opacity:1; fill:none" points="175.445,1423.18 175.445,47.2441 "/>
<polyline clip-path="url(#clip280)" style="stroke:#000000; stroke-linecap:round; stroke-linejoin:round; stroke-width:4; stroke-opacity:1; fill:none" points="2352.76,1423.18 2352.76,47.2441 "/>
<polyline clip-path="url(#clip280)" style="stroke:#000000; stroke-linecap:round; stroke-linejoin:round; stroke-width:4; stroke-opacity:1; fill:none" points="175.445,1423.18 194.343,1423.18 "/>
<polyline clip-path="url(#clip280)" style="stroke:#000000; stroke-linecap:round; stroke-linejoin:round; stroke-width:4; stroke-opacity:1; fill:none" points="175.445,1147.99 194.343,1147.99 "/>
<polyline clip-path="url(#clip280)" style="stroke:#000000; stroke-linecap:round; stroke-linejoin:round; stroke-width:4; stroke-opacity:1; fill:none" points="175.445,872.806 194.343,872.806 "/>
<polyline clip-path="url(#clip280)" style="stroke:#000000; stroke-linecap:round; stroke-linejoin:round; stroke-width:4; stroke-opacity:1; fill:none" points="175.445,597.618 194.343,597.618 "/>
<polyline clip-path="url(#clip280)" style="stroke:#000000; stroke-linecap:round; stroke-linejoin:round; stroke-width:4; stroke-opacity:1; fill:none" points="175.445,322.431 194.343,322.431 "/>
<polyline clip-path="url(#clip280)" style="stroke:#000000; stroke-linecap:round; stroke-linejoin:round; stroke-width:4; stroke-opacity:1; fill:none" points="175.445,47.2441 194.343,47.2441 "/>
<polyline clip-path="url(#clip280)" style="stroke:#000000; stroke-linecap:round; stroke-linejoin:round; stroke-width:4; stroke-opacity:1; fill:none" points="2352.76,1423.18 2333.86,1423.18 "/>
<polyline clip-path="url(#clip280)" style="stroke:#000000; stroke-linecap:round; stroke-linejoin:round; stroke-width:4; stroke-opacity:1; fill:none" points="2352.76,1147.99 2333.86,1147.99 "/>
<polyline clip-path="url(#clip280)" style="stroke:#000000; stroke-linecap:round; stroke-linejoin:round; stroke-width:4; stroke-opacity:1; fill:none" points="2352.76,872.806 2333.86,872.806 "/>
<polyline clip-path="url(#clip280)" style="stroke:#000000; stroke-linecap:round; stroke-linejoin:round; stroke-width:4; stroke-opacity:1; fill:none" points="2352.76,597.618 2333.86,597.618 "/>
<polyline clip-path="url(#clip280)" style="stroke:#000000; stroke-linecap:round; stroke-linejoin:round; stroke-width:4; stroke-opacity:1; fill:none" points="2352.76,322.431 2333.86,322.431 "/>
<polyline clip-path="url(#clip280)" style="stroke:#000000; stroke-linecap:round; stroke-linejoin:round; stroke-width:4; stroke-opacity:1; fill:none" points="2352.76,47.2441 2333.86,47.2441 "/>
<path clip-path="url(#clip280)" d="M119.538 1436.52 L127.177 1436.52 L127.177 1410.16 L118.867 1411.83 L118.867 1407.57 L127.13 1405.9 L131.806 1405.9 L131.806 1436.52 L139.445 1436.52 L139.445 1440.46 L119.538 1440.46 L119.538 1436.52 Z" fill="#000000" fill-rule="nonzero" fill-opacity="1" /><path clip-path="url(#clip280)" d="M123.126 1161.34 L139.445 1161.34 L139.445 1165.27 L117.501 1165.27 L117.501 1161.34 Q120.163 1158.58 124.746 1153.95 Q129.353 1149.3 130.533 1147.96 Q132.779 1145.43 133.658 1143.7 Q134.561 1141.94 134.561 1140.25 Q134.561 1137.5 132.617 1135.76 Q130.695 1134.02 127.593 1134.02 Q125.394 1134.02 122.941 1134.79 Q120.51 1135.55 117.732 1137.1 L117.732 1132.38 Q120.556 1131.25 123.01 1130.67 Q125.464 1130.09 127.501 1130.09 Q132.871 1130.09 136.066 1132.77 Q139.26 1135.46 139.26 1139.95 Q139.26 1142.08 138.45 1144 Q137.663 1145.9 135.556 1148.49 Q134.978 1149.16 131.876 1152.38 Q128.774 1155.57 123.126 1161.34 Z" fill="#000000" fill-rule="nonzero" fill-opacity="1" /><path clip-path="url(#clip280)" d="M132.316 871.451 Q135.672 872.169 137.547 874.437 Q139.445 876.706 139.445 880.039 Q139.445 885.155 135.927 887.956 Q132.408 890.757 125.927 890.757 Q123.751 890.757 121.436 890.317 Q119.144 889.9 116.691 889.044 L116.691 884.53 Q118.635 885.664 120.95 886.243 Q123.265 886.822 125.788 886.822 Q130.186 886.822 132.478 885.086 Q134.792 883.349 134.792 880.039 Q134.792 876.984 132.64 875.271 Q130.51 873.535 126.691 873.535 L122.663 873.535 L122.663 869.692 L126.876 869.692 Q130.325 869.692 132.154 868.326 Q133.982 866.938 133.982 864.345 Q133.982 861.683 132.084 860.271 Q130.209 858.836 126.691 858.836 Q124.769 858.836 122.57 859.252 Q120.371 859.669 117.732 860.549 L117.732 856.382 Q120.394 855.641 122.709 855.271 Q125.047 854.901 127.107 854.901 Q132.431 854.901 135.533 857.331 Q138.635 859.738 138.635 863.859 Q138.635 866.729 136.992 868.72 Q135.348 870.687 132.316 871.451 Z" fill="#000000" fill-rule="nonzero" fill-opacity="1" /><path clip-path="url(#clip280)" d="M129.862 584.412 L118.056 602.861 L129.862 602.861 L129.862 584.412 M128.635 580.338 L134.515 580.338 L134.515 602.861 L139.445 602.861 L139.445 606.75 L134.515 606.75 L134.515 614.898 L129.862 614.898 L129.862 606.75 L114.26 606.75 L114.26 602.236 L128.635 580.338 Z" fill="#000000" fill-rule="nonzero" fill-opacity="1" /><path clip-path="url(#clip280)" d="M118.543 305.151 L136.899 305.151 L136.899 309.086 L122.825 309.086 L122.825 317.559 Q123.843 317.211 124.862 317.049 Q125.88 316.864 126.899 316.864 Q132.686 316.864 136.066 320.035 Q139.445 323.207 139.445 328.623 Q139.445 334.202 135.973 337.304 Q132.501 340.383 126.181 340.383 Q124.005 340.383 121.737 340.012 Q119.492 339.642 117.084 338.901 L117.084 334.202 Q119.168 335.336 121.39 335.892 Q123.612 336.447 126.089 336.447 Q130.093 336.447 132.431 334.341 Q134.769 332.234 134.769 328.623 Q134.769 325.012 132.431 322.906 Q130.093 320.799 126.089 320.799 Q124.214 320.799 122.339 321.216 Q120.487 321.633 118.543 322.512 L118.543 305.151 Z" fill="#000000" fill-rule="nonzero" fill-opacity="1" /><path clip-path="url(#clip280)" d="M127.917 45.3807 Q124.769 45.3807 122.918 47.5334 Q121.089 49.6862 121.089 53.4362 Q121.089 57.163 122.918 59.3389 Q124.769 61.4917 127.917 61.4917 Q131.066 61.4917 132.894 59.3389 Q134.746 57.163 134.746 53.4362 Q134.746 49.6862 132.894 47.5334 Q131.066 45.3807 127.917 45.3807 M137.2 30.728 L137.2 34.9872 Q135.441 34.1539 133.635 33.7141 Q131.853 33.2743 130.093 33.2743 Q125.464 33.2743 123.01 36.3992 Q120.58 39.5242 120.232 45.8436 Q121.598 43.8298 123.658 42.765 Q125.718 41.677 128.195 41.677 Q133.404 41.677 136.413 44.8483 Q139.445 47.9964 139.445 53.4362 Q139.445 58.7602 136.297 61.9778 Q133.149 65.1954 127.917 65.1954 Q121.922 65.1954 118.751 60.6121 Q115.58 56.0056 115.58 47.2788 Q115.58 39.0844 119.468 34.2233 Q123.357 29.3391 129.908 29.3391 Q131.667 29.3391 133.45 29.6863 Q135.255 30.0335 137.2 30.728 Z" fill="#000000" fill-rule="nonzero" fill-opacity="1" /><path clip-path="url(#clip280)" d="M21.7677 966.064 L39.6235 966.064 L39.6235 957.98 Q39.6235 953.492 37.3 951.041 Q34.9765 948.59 30.6797 948.59 Q26.4147 948.59 24.0912 951.041 Q21.7677 953.492 21.7677 957.98 L21.7677 966.064 M16.4842 972.494 L16.4842 957.98 Q16.4842 949.991 20.1126 945.917 Q23.7092 941.811 30.6797 941.811 Q37.7138 941.811 41.3104 945.917 Q44.907 949.991 44.907 957.98 L44.907 966.064 L64.0042 966.064 L64.0042 972.494 L16.4842 972.494 Z" fill="#000000" fill-rule="nonzero" fill-opacity="1" /><path clip-path="url(#clip280)" d="M46.0847 920.168 Q46.0847 927.265 47.7079 930.003 Q49.3312 932.74 53.2461 932.74 Q56.3653 932.74 58.2114 930.703 Q60.0256 928.634 60.0256 925.101 Q60.0256 920.231 56.5881 917.303 Q53.1188 914.343 47.3897 914.343 L46.0847 914.343 L46.0847 920.168 M43.6657 908.487 L64.0042 908.487 L64.0042 914.343 L58.5933 914.343 Q61.8398 916.348 63.3994 919.34 Q64.9272 922.332 64.9272 926.661 Q64.9272 932.135 61.8716 935.382 Q58.7843 938.596 53.6281 938.596 Q47.6125 938.596 44.5569 934.586 Q41.5014 930.544 41.5014 922.555 L41.5014 914.343 L40.9285 914.343 Q36.8862 914.343 34.6901 917.017 Q32.4621 919.658 32.4621 924.464 Q32.4621 927.52 33.1941 930.416 Q33.9262 933.313 35.3903 935.986 L29.9795 935.986 Q28.7381 932.772 28.1334 929.748 Q27.4968 926.724 27.4968 923.86 Q27.4968 916.125 31.5072 912.306 Q35.5176 908.487 43.6657 908.487 Z" fill="#000000" fill-rule="nonzero" fill-opacity="1" /><path clip-path="url(#clip280)" d="M33.8307 875.767 Q33.2578 876.753 33.0032 877.931 Q32.7167 879.077 32.7167 880.477 Q32.7167 885.443 35.9632 888.116 Q39.1779 890.758 45.2253 890.758 L64.0042 890.758 L64.0042 896.646 L28.3562 896.646 L28.3562 890.758 L33.8944 890.758 Q30.6479 888.912 29.0883 885.952 Q27.4968 882.992 27.4968 878.759 Q27.4968 878.154 27.5923 877.422 Q27.656 876.69 27.8151 875.799 L33.8307 875.767 Z" fill="#000000" fill-rule="nonzero" fill-opacity="1" /><path clip-path="url(#clip280)" d="M46.0847 853.423 Q46.0847 860.521 47.7079 863.258 Q49.3312 865.995 53.2461 865.995 Q56.3653 865.995 58.2114 863.958 Q60.0256 861.89 60.0256 858.357 Q60.0256 853.487 56.5881 850.559 Q53.1188 847.599 47.3897 847.599 L46.0847 847.599 L46.0847 853.423 M43.6657 841.742 L64.0042 841.742 L64.0042 847.599 L58.5933 847.599 Q61.8398 849.604 63.3994 852.596 Q64.9272 855.587 64.9272 859.916 Q64.9272 865.391 61.8716 868.637 Q58.7843 871.852 53.6281 871.852 Q47.6125 871.852 44.5569 867.841 Q41.5014 863.799 41.5014 855.81 L41.5014 847.599 L40.9285 847.599 Q36.8862 847.599 34.6901 850.272 Q32.4621 852.914 32.4621 857.72 Q32.4621 860.776 33.1941 863.672 Q33.9262 866.568 35.3903 869.242 L29.9795 869.242 Q28.7381 866.027 28.1334 863.004 Q27.4968 859.98 27.4968 857.115 Q27.4968 849.381 31.5072 845.561 Q35.5176 841.742 43.6657 841.742 Z" fill="#000000" fill-rule="nonzero" fill-opacity="1" /><path clip-path="url(#clip280)" d="M14.479 829.679 L14.479 823.823 L64.0042 823.823 L64.0042 829.679 L14.479 829.679 Z" fill="#000000" fill-rule="nonzero" fill-opacity="1" /><path clip-path="url(#clip280)" d="M14.479 811.569 L14.479 805.712 L64.0042 805.712 L64.0042 811.569 L14.479 811.569 Z" fill="#000000" fill-rule="nonzero" fill-opacity="1" /><path clip-path="url(#clip280)" d="M44.7161 762.966 L47.5806 762.966 L47.5806 789.893 Q53.6281 789.511 56.8109 786.265 Q59.9619 782.987 59.9619 777.162 Q59.9619 773.788 59.1344 770.637 Q58.3069 767.454 56.6518 764.335 L62.1899 764.335 Q63.5267 767.486 64.227 770.796 Q64.9272 774.106 64.9272 777.512 Q64.9272 786.042 59.9619 791.039 Q54.9967 796.004 46.5303 796.004 Q37.7774 796.004 32.6531 791.294 Q27.4968 786.551 27.4968 778.531 Q27.4968 771.337 32.1438 767.168 Q36.7589 762.966 44.7161 762.966 M42.9973 768.823 Q38.1912 768.887 35.3266 771.528 Q32.4621 774.138 32.4621 778.467 Q32.4621 783.369 35.2312 786.329 Q38.0002 789.257 43.0292 789.702 L42.9973 768.823 Z" fill="#000000" fill-rule="nonzero" fill-opacity="1" /><path clip-path="url(#clip280)" d="M14.479 753.354 L14.479 747.498 L64.0042 747.498 L64.0042 753.354 L14.479 753.354 Z" fill="#000000" fill-rule="nonzero" fill-opacity="1" /><path clip-path="url(#clip280)" d="M29.4065 691.798 L34.9447 691.798 Q33.6716 694.28 33.035 696.954 Q32.3984 699.628 32.3984 702.492 Q32.3984 706.853 33.7352 709.049 Q35.072 711.213 37.7456 711.213 Q39.7826 711.213 40.9603 709.654 Q42.1061 708.094 43.1565 703.383 L43.6021 701.378 Q44.9389 695.14 47.3897 692.53 Q49.8086 689.888 54.1691 689.888 Q59.1344 689.888 62.0308 693.835 Q64.9272 697.75 64.9272 704.625 Q64.9272 707.489 64.3543 710.609 Q63.8132 713.696 62.6992 717.133 L56.6518 717.133 Q58.3387 713.887 59.198 710.736 Q60.0256 707.585 60.0256 704.497 Q60.0256 700.36 58.6251 698.132 Q57.1929 695.904 54.6147 695.904 Q52.2276 695.904 50.9545 697.527 Q49.6813 699.118 48.5037 704.561 L48.0262 706.598 Q46.8804 712.041 44.5251 714.46 Q42.138 716.879 38.0002 716.879 Q32.9713 716.879 30.2341 713.314 Q27.4968 709.749 27.4968 703.192 Q27.4968 699.946 27.9743 697.081 Q28.4517 694.217 29.4065 691.798 Z" fill="#000000" fill-rule="nonzero" fill-opacity="1" /><path clip-path="url(#clip280)" d="M29.7248 654.909 L35.1993 654.909 Q33.8307 657.391 33.1623 659.906 Q32.4621 662.388 32.4621 664.935 Q32.4621 670.632 36.0905 673.783 Q39.6872 676.934 46.212 676.934 Q52.7369 676.934 56.3653 673.783 Q59.9619 670.632 59.9619 664.935 Q59.9619 662.388 59.2935 659.906 Q58.5933 657.391 57.2247 654.909 L62.6355 654.909 Q63.7814 657.359 64.3543 660.001 Q64.9272 662.611 64.9272 665.571 Q64.9272 673.624 59.8664 678.366 Q54.8057 683.109 46.212 683.109 Q37.491 683.109 32.4939 678.334 Q27.4968 673.528 27.4968 665.189 Q27.4968 662.484 28.0697 659.906 Q28.6108 657.328 29.7248 654.909 Z" fill="#000000" fill-rule="nonzero" fill-opacity="1" /><path clip-path="url(#clip280)" d="M46.0847 628.523 Q46.0847 635.62 47.7079 638.358 Q49.3312 641.095 53.2461 641.095 Q56.3653 641.095 58.2114 639.058 Q60.0256 636.989 60.0256 633.456 Q60.0256 628.586 56.5881 625.658 Q53.1188 622.698 47.3897 622.698 L46.0847 622.698 L46.0847 628.523 M43.6657 616.842 L64.0042 616.842 L64.0042 622.698 L58.5933 622.698 Q61.8398 624.703 63.3994 627.695 Q64.9272 630.687 64.9272 635.016 Q64.9272 640.49 61.8716 643.737 Q58.7843 646.951 53.6281 646.951 Q47.6125 646.951 44.5569 642.941 Q41.5014 638.899 41.5014 630.91 L41.5014 622.698 L40.9285 622.698 Q36.8862 622.698 34.6901 625.372 Q32.4621 628.013 32.4621 632.82 Q32.4621 635.875 33.1941 638.772 Q33.9262 641.668 35.3903 644.342 L29.9795 644.342 Q28.7381 641.127 28.1334 638.103 Q27.4968 635.079 27.4968 632.215 Q27.4968 624.481 31.5072 620.661 Q35.5176 616.842 43.6657 616.842 Z" fill="#000000" fill-rule="nonzero" fill-opacity="1" /><path clip-path="url(#clip280)" d="M14.479 604.779 L14.479 598.922 L64.0042 598.922 L64.0042 604.779 L14.479 604.779 Z" fill="#000000" fill-rule="nonzero" fill-opacity="1" /><path clip-path="url(#clip280)" d="M28.3562 586.668 L28.3562 580.812 L64.0042 580.812 L64.0042 586.668 L28.3562 586.668 M14.479 586.668 L14.479 580.812 L21.895 580.812 L21.895 586.668 L14.479 586.668 Z" fill="#000000" fill-rule="nonzero" fill-opacity="1" /><path clip-path="url(#clip280)" d="M42.4881 538.925 L64.0042 538.925 L64.0042 544.782 L42.679 544.782 Q37.6183 544.782 35.1038 546.755 Q32.5894 548.729 32.5894 552.675 Q32.5894 557.418 35.6131 560.155 Q38.6368 562.892 43.8567 562.892 L64.0042 562.892 L64.0042 568.781 L28.3562 568.781 L28.3562 562.892 L33.8944 562.892 Q30.6797 560.792 29.0883 557.959 Q27.4968 555.094 27.4968 551.37 Q27.4968 545.227 31.3163 542.076 Q35.1038 538.925 42.4881 538.925 Z" fill="#000000" fill-rule="nonzero" fill-opacity="1" /><path clip-path="url(#clip280)" d="M45.7664 503.787 Q39.4007 503.787 35.8996 506.428 Q32.3984 509.038 32.3984 513.781 Q32.3984 518.491 35.8996 521.133 Q39.4007 523.743 45.7664 523.743 Q52.1003 523.743 55.6014 521.133 Q59.1026 518.491 59.1026 513.781 Q59.1026 509.038 55.6014 506.428 Q52.1003 503.787 45.7664 503.787 M59.58 497.93 Q68.683 497.93 73.1071 501.972 Q77.5631 506.015 77.5631 514.354 Q77.5631 517.441 77.0857 520.178 Q76.6401 522.916 75.6852 525.494 L69.9879 525.494 Q71.3884 522.916 72.0568 520.401 Q72.7252 517.887 72.7252 515.277 Q72.7252 509.516 69.7015 506.651 Q66.7096 503.787 60.6303 503.787 L57.7339 503.787 Q60.885 505.601 62.4446 508.434 Q64.0042 511.266 64.0042 515.213 Q64.0042 521.77 59.0071 525.78 Q54.01 529.791 45.7664 529.791 Q37.491 529.791 32.4939 525.78 Q27.4968 521.77 27.4968 515.213 Q27.4968 511.266 29.0564 508.434 Q30.616 505.601 33.7671 503.787 L28.3562 503.787 L28.3562 497.93 L59.58 497.93 Z" fill="#000000" fill-rule="nonzero" fill-opacity="1" /><polyline clip-path="url(#clip282)" style="stroke:#009af9; stroke-linecap:round; stroke-linejoin:round; stroke-width:8; stroke-opacity:1; fill:none" points="237.067,1423.18 530.505,1227.88 1117.38,686.592 1704.26,519.926 2291.13,325.33 "/>
<circle clip-path="url(#clip282)" cx="237.067" cy="1423.18" r="10.8" fill="#009af9" fill-rule="evenodd" fill-opacity="1" stroke="#000000" stroke-opacity="1" stroke-width="3.2"/>
<circle clip-path="url(#clip282)" cx="530.505" cy="1227.88" r="10.8" fill="#009af9" fill-rule="evenodd" fill-opacity="1" stroke="#000000" stroke-opacity="1" stroke-width="3.2"/>
<circle clip-path="url(#clip282)" cx="1117.38" cy="686.592" r="10.8" fill="#009af9" fill-rule="evenodd" fill-opacity="1" stroke="#000000" stroke-opacity="1" stroke-width="3.2"/>
<circle clip-path="url(#clip282)" cx="1704.26" cy="519.926" r="10.8" fill="#009af9" fill-rule="evenodd" fill-opacity="1" stroke="#000000" stroke-opacity="1" stroke-width="3.2"/>
<circle clip-path="url(#clip282)" cx="2291.13" cy="325.33" r="10.8" fill="#009af9" fill-rule="evenodd" fill-opacity="1" stroke="#000000" stroke-opacity="1" stroke-width="3.2"/>
<polyline clip-path="url(#clip282)" style="stroke:#e26f46; stroke-linecap:round; stroke-linejoin:round; stroke-width:8; stroke-opacity:1; fill:none" points="237.067,1423.18 530.505,1239.25 1117.38,899.604 1704.26,807.024 2291.13,747.307 "/>
<circle clip-path="url(#clip282)" cx="237.067" cy="1423.18" r="10.8" fill="#e26f46" fill-rule="evenodd" fill-opacity="1" stroke="#000000" stroke-opacity="1" stroke-width="3.2"/>
<circle clip-path="url(#clip282)" cx="530.505" cy="1239.25" r="10.8" fill="#e26f46" fill-rule="evenodd" fill-opacity="1" stroke="#000000" stroke-opacity="1" stroke-width="3.2"/>
<circle clip-path="url(#clip282)" cx="1117.38" cy="899.604" r="10.8" fill="#e26f46" fill-rule="evenodd" fill-opacity="1" stroke="#000000" stroke-opacity="1" stroke-width="3.2"/>
<circle clip-path="url(#clip282)" cx="1704.26" cy="807.024" r="10.8" fill="#e26f46" fill-rule="evenodd" fill-opacity="1" stroke="#000000" stroke-opacity="1" stroke-width="3.2"/>
<circle clip-path="url(#clip282)" cx="2291.13" cy="747.307" r="10.8" fill="#e26f46" fill-rule="evenodd" fill-opacity="1" stroke="#000000" stroke-opacity="1" stroke-width="3.2"/>
<polyline clip-path="url(#clip282)" style="stroke:#3da44d; stroke-linecap:round; stroke-linejoin:round; stroke-width:8; stroke-opacity:1; fill:none" points="237.067,1423.18 530.505,1268.74 1117.38,1074.95 1704.26,987.737 2291.13,935.436 "/>
<circle clip-path="url(#clip282)" cx="237.067" cy="1423.18" r="10.8" fill="#3da44d" fill-rule="evenodd" fill-opacity="1" stroke="#000000" stroke-opacity="1" stroke-width="3.2"/>
<circle clip-path="url(#clip282)" cx="530.505" cy="1268.74" r="10.8" fill="#3da44d" fill-rule="evenodd" fill-opacity="1" stroke="#000000" stroke-opacity="1" stroke-width="3.2"/>
<circle clip-path="url(#clip282)" cx="1117.38" cy="1074.95" r="10.8" fill="#3da44d" fill-rule="evenodd" fill-opacity="1" stroke="#000000" stroke-opacity="1" stroke-width="3.2"/>
<circle clip-path="url(#clip282)" cx="1704.26" cy="987.737" r="10.8" fill="#3da44d" fill-rule="evenodd" fill-opacity="1" stroke="#000000" stroke-opacity="1" stroke-width="3.2"/>
<circle clip-path="url(#clip282)" cx="2291.13" cy="935.436" r="10.8" fill="#3da44d" fill-rule="evenodd" fill-opacity="1" stroke="#000000" stroke-opacity="1" stroke-width="3.2"/>
<polyline clip-path="url(#clip282)" style="stroke:#c271d2; stroke-linecap:round; stroke-linejoin:round; stroke-width:8; stroke-opacity:1; fill:none" points="237.067,1423.18 530.505,1322.75 1117.38,1222.19 1704.26,1169.81 2291.13,1140.12 "/>
<circle clip-path="url(#clip282)" cx="237.067" cy="1423.18" r="10.8" fill="#c271d2" fill-rule="evenodd" fill-opacity="1" stroke="#000000" stroke-opacity="1" stroke-width="3.2"/>
<circle clip-path="url(#clip282)" cx="530.505" cy="1322.75" r="10.8" fill="#c271d2" fill-rule="evenodd" fill-opacity="1" stroke="#000000" stroke-opacity="1" stroke-width="3.2"/>
<circle clip-path="url(#clip282)" cx="1117.38" cy="1222.19" r="10.8" fill="#c271d2" fill-rule="evenodd" fill-opacity="1" stroke="#000000" stroke-opacity="1" stroke-width="3.2"/>
<circle clip-path="url(#clip282)" cx="1704.26" cy="1169.81" r="10.8" fill="#c271d2" fill-rule="evenodd" fill-opacity="1" stroke="#000000" stroke-opacity="1" stroke-width="3.2"/>
<circle clip-path="url(#clip282)" cx="2291.13" cy="1140.12" r="10.8" fill="#c271d2" fill-rule="evenodd" fill-opacity="1" stroke="#000000" stroke-opacity="1" stroke-width="3.2"/>
<polyline clip-path="url(#clip282)" style="stroke:#000000; stroke-linecap:round; stroke-linejoin:round; stroke-width:8; stroke-opacity:1; fill:none" points="237.067,1423.18 530.505,1147.99 823.943,872.806 1117.38,597.618 1410.82,322.431 1704.26,47.2441 1997.7,-227.943 2291.13,-503.13 "/>
<circle clip-path="url(#clip282)" cx="237.067" cy="1423.18" r="10.8" fill="#000000" fill-rule="evenodd" fill-opacity="1" stroke="none"/>
<circle clip-path="url(#clip282)" cx="530.505" cy="1147.99" r="10.8" fill="#000000" fill-rule="evenodd" fill-opacity="1" stroke="none"/>
<circle clip-path="url(#clip282)" cx="823.943" cy="872.806" r="10.8" fill="#000000" fill-rule="evenodd" fill-opacity="1" stroke="none"/>
<circle clip-path="url(#clip282)" cx="1117.38" cy="597.618" r="10.8" fill="#000000" fill-rule="evenodd" fill-opacity="1" stroke="none"/>
<circle clip-path="url(#clip282)" cx="1410.82" cy="322.431" r="10.8" fill="#000000" fill-rule="evenodd" fill-opacity="1" stroke="none"/>
<circle clip-path="url(#clip282)" cx="1704.26" cy="47.2441" r="10.8" fill="#000000" fill-rule="evenodd" fill-opacity="1" stroke="none"/>
<path clip-path="url(#clip280)" d="M248.022 404.149 L767.395 404.149 L767.395 93.1086 L248.022 93.1086  Z" fill="#000000" fill-rule="evenodd" fill-opacity="0"/>
<polyline clip-path="url(#clip280)" style="stroke:#000000; stroke-linecap:round; stroke-linejoin:round; stroke-width:4; stroke-opacity:0; fill:none" points="248.022,404.149 767.395,404.149 767.395,93.1086 248.022,93.1086 248.022,404.149 "/>
<polyline clip-path="url(#clip280)" style="stroke:#009af9; stroke-linecap:round; stroke-linejoin:round; stroke-width:8; stroke-opacity:1; fill:none" points="272.215,144.949 417.369,144.949 "/>
<circle clip-path="url(#clip280)" cx="344.792" cy="144.949" r="19.7486" fill="#009af9" fill-rule="evenodd" fill-opacity="1" stroke="#000000" stroke-opacity="1" stroke-width="5.85143"/>
<path clip-path="url(#clip280)" d="M457.579 130.84 Q452.487 130.84 449.478 134.636 Q446.491 138.432 446.491 144.983 Q446.491 151.511 449.478 155.307 Q452.487 159.104 457.579 159.104 Q462.672 159.104 465.635 155.307 Q468.621 151.511 468.621 144.983 Q468.621 138.432 465.635 134.636 Q462.672 130.84 457.579 130.84 M457.579 127.044 Q464.848 127.044 469.2 131.928 Q473.552 136.789 473.552 144.983 Q473.552 153.155 469.2 158.039 Q464.848 162.9 457.579 162.9 Q450.288 162.9 445.913 158.039 Q441.561 153.178 441.561 144.983 Q441.561 136.789 445.913 131.928 Q450.288 127.044 457.579 127.044 Z" fill="#000000" fill-rule="nonzero" fill-opacity="1" /><path clip-path="url(#clip280)" d="M480.866 127.669 L500.727 127.669 L500.727 131.604 L485.542 131.604 L485.542 141.789 L499.246 141.789 L499.246 145.724 L485.542 145.724 L485.542 162.229 L480.866 162.229 L480.866 127.669 Z" fill="#000000" fill-rule="nonzero" fill-opacity="1" /><path clip-path="url(#clip280)" d="M509.362 158.293 L517 158.293 L517 131.928 L508.69 133.595 L508.69 129.335 L516.954 127.669 L521.63 127.669 L521.63 158.293 L529.269 158.293 L529.269 162.229 L509.362 162.229 L509.362 158.293 Z" fill="#000000" fill-rule="nonzero" fill-opacity="1" /><path clip-path="url(#clip280)" d="M539.523 158.293 L547.162 158.293 L547.162 131.928 L538.852 133.595 L538.852 129.335 L547.116 127.669 L551.792 127.669 L551.792 158.293 L559.431 158.293 L559.431 162.229 L539.523 162.229 L539.523 158.293 Z" fill="#000000" fill-rule="nonzero" fill-opacity="1" /><path clip-path="url(#clip280)" d="M604.245 128.803 L604.245 133.363 Q601.583 132.09 599.222 131.465 Q596.861 130.84 594.662 130.84 Q590.843 130.84 588.759 132.321 Q586.699 133.803 586.699 136.534 Q586.699 138.826 588.065 140.007 Q589.454 141.164 593.296 141.882 L596.12 142.46 Q601.352 143.456 603.829 145.979 Q606.329 148.479 606.329 152.692 Q606.329 157.715 602.949 160.307 Q599.593 162.9 593.088 162.9 Q590.634 162.9 587.856 162.344 Q585.102 161.789 582.139 160.701 L582.139 155.886 Q584.986 157.483 587.718 158.293 Q590.449 159.104 593.088 159.104 Q597.093 159.104 599.268 157.53 Q601.444 155.956 601.444 153.039 Q601.444 150.493 599.87 149.057 Q598.319 147.622 594.755 146.905 L591.907 146.349 Q586.676 145.307 584.338 143.085 Q582 140.863 582 136.905 Q582 132.321 585.218 129.682 Q588.458 127.044 594.13 127.044 Q596.56 127.044 599.083 127.483 Q601.606 127.923 604.245 128.803 Z" fill="#000000" fill-rule="nonzero" fill-opacity="1" /><path clip-path="url(#clip280)" d="M613.435 136.303 L617.694 136.303 L617.694 162.229 L613.435 162.229 L613.435 136.303 M613.435 126.21 L617.694 126.21 L617.694 131.604 L613.435 131.604 L613.435 126.21 Z" fill="#000000" fill-rule="nonzero" fill-opacity="1" /><path clip-path="url(#clip280)" d="M646.791 141.28 Q648.389 138.409 650.611 137.044 Q652.833 135.678 655.842 135.678 Q659.893 135.678 662.092 138.525 Q664.291 141.349 664.291 146.581 L664.291 162.229 L660.009 162.229 L660.009 146.719 Q660.009 142.993 658.689 141.187 Q657.37 139.382 654.662 139.382 Q651.352 139.382 649.43 141.581 Q647.509 143.78 647.509 147.576 L647.509 162.229 L643.227 162.229 L643.227 146.719 Q643.227 142.969 641.907 141.187 Q640.588 139.382 637.833 139.382 Q634.569 139.382 632.648 141.604 Q630.727 143.803 630.727 147.576 L630.727 162.229 L626.444 162.229 L626.444 136.303 L630.727 136.303 L630.727 140.331 Q632.185 137.946 634.222 136.812 Q636.259 135.678 639.06 135.678 Q641.884 135.678 643.852 137.113 Q645.842 138.548 646.791 141.28 Z" fill="#000000" fill-rule="nonzero" fill-opacity="1" /><path clip-path="url(#clip280)" d="M672.787 136.303 L677.046 136.303 L677.046 162.229 L672.787 162.229 L672.787 136.303 M672.787 126.21 L677.046 126.21 L677.046 131.604 L672.787 131.604 L672.787 126.21 Z" fill="#000000" fill-rule="nonzero" fill-opacity="1" /><path clip-path="url(#clip280)" d="M685.958 126.21 L690.217 126.21 L690.217 162.229 L685.958 162.229 L685.958 126.21 Z" fill="#000000" fill-rule="nonzero" fill-opacity="1" /><path clip-path="url(#clip280)" d="M710.911 149.196 Q705.749 149.196 703.759 150.377 Q701.768 151.557 701.768 154.405 Q701.768 156.673 703.249 158.016 Q704.754 159.335 707.323 159.335 Q710.865 159.335 712.995 156.835 Q715.147 154.312 715.147 150.145 L715.147 149.196 L710.911 149.196 M719.407 147.437 L719.407 162.229 L715.147 162.229 L715.147 158.293 Q713.689 160.655 711.513 161.789 Q709.337 162.9 706.189 162.9 Q702.208 162.9 699.847 160.678 Q697.509 158.432 697.509 154.682 Q697.509 150.307 700.425 148.085 Q703.365 145.863 709.175 145.863 L715.147 145.863 L715.147 145.446 Q715.147 142.507 713.203 140.909 Q711.282 139.289 707.786 139.289 Q705.564 139.289 703.458 139.821 Q701.351 140.354 699.407 141.419 L699.407 137.483 Q701.745 136.581 703.944 136.141 Q706.143 135.678 708.226 135.678 Q713.851 135.678 716.629 138.594 Q719.407 141.511 719.407 147.437 Z" fill="#000000" fill-rule="nonzero" fill-opacity="1" /><path clip-path="url(#clip280)" d="M743.203 140.284 Q742.485 139.868 741.629 139.682 Q740.795 139.474 739.777 139.474 Q736.166 139.474 734.221 141.835 Q732.3 144.173 732.3 148.571 L732.3 162.229 L728.018 162.229 L728.018 136.303 L732.3 136.303 L732.3 140.331 Q733.643 137.969 735.795 136.835 Q737.948 135.678 741.027 135.678 Q741.467 135.678 741.999 135.747 Q742.532 135.794 743.18 135.909 L743.203 140.284 Z" fill="#000000" fill-rule="nonzero" fill-opacity="1" /><polyline clip-path="url(#clip280)" style="stroke:#e26f46; stroke-linecap:round; stroke-linejoin:round; stroke-width:8; stroke-opacity:1; fill:none" points="272.215,196.789 417.369,196.789 "/>
<circle clip-path="url(#clip280)" cx="344.792" cy="196.789" r="19.7486" fill="#e26f46" fill-rule="evenodd" fill-opacity="1" stroke="#000000" stroke-opacity="1" stroke-width="5.85143"/>
<path clip-path="url(#clip280)" d="M457.579 182.68 Q452.487 182.68 449.478 186.476 Q446.491 190.272 446.491 196.823 Q446.491 203.351 449.478 207.147 Q452.487 210.944 457.579 210.944 Q462.672 210.944 465.635 207.147 Q468.621 203.351 468.621 196.823 Q468.621 190.272 465.635 186.476 Q462.672 182.68 457.579 182.68 M457.579 178.884 Q464.848 178.884 469.2 183.768 Q473.552 188.629 473.552 196.823 Q473.552 204.995 469.2 209.879 Q464.848 214.74 457.579 214.74 Q450.288 214.74 445.913 209.879 Q441.561 205.018 441.561 196.823 Q441.561 188.629 445.913 183.768 Q450.288 178.884 457.579 178.884 Z" fill="#000000" fill-rule="nonzero" fill-opacity="1" /><path clip-path="url(#clip280)" d="M480.866 179.509 L500.727 179.509 L500.727 183.444 L485.542 183.444 L485.542 193.629 L499.246 193.629 L499.246 197.564 L485.542 197.564 L485.542 214.069 L480.866 214.069 L480.866 179.509 Z" fill="#000000" fill-rule="nonzero" fill-opacity="1" /><path clip-path="url(#clip280)" d="M509.362 210.133 L517 210.133 L517 183.768 L508.69 185.435 L508.69 181.175 L516.954 179.509 L521.63 179.509 L521.63 210.133 L529.269 210.133 L529.269 214.069 L509.362 214.069 L509.362 210.133 Z" fill="#000000" fill-rule="nonzero" fill-opacity="1" /><path clip-path="url(#clip280)" d="M539.523 210.133 L547.162 210.133 L547.162 183.768 L538.852 185.435 L538.852 181.175 L547.116 179.509 L551.792 179.509 L551.792 210.133 L559.431 210.133 L559.431 214.069 L539.523 214.069 L539.523 210.133 Z" fill="#000000" fill-rule="nonzero" fill-opacity="1" /><path clip-path="url(#clip280)" d="M588.204 197.564 L588.204 210.226 L595.704 210.226 Q599.477 210.226 601.282 208.675 Q603.111 207.101 603.111 203.883 Q603.111 200.643 601.282 199.115 Q599.477 197.564 595.704 197.564 L588.204 197.564 M588.204 183.351 L588.204 193.768 L595.125 193.768 Q598.551 193.768 600.218 192.495 Q601.907 191.198 601.907 188.559 Q601.907 185.944 600.218 184.647 Q598.551 183.351 595.125 183.351 L588.204 183.351 M583.528 179.509 L595.472 179.509 Q600.819 179.509 603.713 181.731 Q606.606 183.953 606.606 188.05 Q606.606 191.222 605.125 193.097 Q603.643 194.971 600.773 195.434 Q604.222 196.175 606.12 198.536 Q608.042 200.874 608.042 204.393 Q608.042 209.022 604.893 211.545 Q601.745 214.069 595.935 214.069 L583.528 214.069 L583.528 179.509 Z" fill="#000000" fill-rule="nonzero" fill-opacity="1" /><path clip-path="url(#clip280)" d="M638.041 200.041 L638.041 202.124 L618.458 202.124 Q618.736 206.522 621.097 208.837 Q623.481 211.129 627.717 211.129 Q630.171 211.129 632.463 210.527 Q634.778 209.925 637.046 208.721 L637.046 212.749 Q634.754 213.721 632.347 214.231 Q629.94 214.74 627.463 214.74 Q621.259 214.74 617.625 211.129 Q614.014 207.518 614.014 201.36 Q614.014 194.995 617.44 191.268 Q620.889 187.518 626.722 187.518 Q631.953 187.518 634.986 190.897 Q638.041 194.254 638.041 200.041 M633.782 198.791 Q633.736 195.296 631.815 193.212 Q629.916 191.129 626.768 191.129 Q623.204 191.129 621.051 193.143 Q618.921 195.157 618.597 198.814 L633.782 198.791 Z" fill="#000000" fill-rule="nonzero" fill-opacity="1" /><path clip-path="url(#clip280)" d="M661.56 188.907 L661.56 192.934 Q659.754 192.009 657.81 191.546 Q655.865 191.083 653.782 191.083 Q650.611 191.083 649.014 192.055 Q647.439 193.027 647.439 194.971 Q647.439 196.453 648.574 197.309 Q649.708 198.143 653.134 198.907 L654.592 199.231 Q659.129 200.203 661.027 201.985 Q662.949 203.745 662.949 206.916 Q662.949 210.527 660.078 212.633 Q657.231 214.74 652.231 214.74 Q650.148 214.74 647.879 214.323 Q645.634 213.93 643.134 213.12 L643.134 208.721 Q645.495 209.948 647.787 210.573 Q650.078 211.175 652.324 211.175 Q655.333 211.175 656.953 210.157 Q658.574 209.115 658.574 207.24 Q658.574 205.504 657.393 204.578 Q656.236 203.652 652.277 202.796 L650.796 202.448 Q646.838 201.615 645.078 199.902 Q643.319 198.166 643.319 195.157 Q643.319 191.499 645.912 189.509 Q648.504 187.518 653.273 187.518 Q655.634 187.518 657.717 187.865 Q659.801 188.212 661.56 188.907 Z" fill="#000000" fill-rule="nonzero" fill-opacity="1" /><path clip-path="url(#clip280)" d="M673.944 180.782 L673.944 188.143 L682.717 188.143 L682.717 191.453 L673.944 191.453 L673.944 205.527 Q673.944 208.698 674.8 209.601 Q675.68 210.504 678.342 210.504 L682.717 210.504 L682.717 214.069 L678.342 214.069 Q673.412 214.069 671.537 212.24 Q669.662 210.388 669.662 205.527 L669.662 191.453 L666.537 191.453 L666.537 188.143 L669.662 188.143 L669.662 180.782 L673.944 180.782 Z" fill="#000000" fill-rule="nonzero" fill-opacity="1" /><polyline clip-path="url(#clip280)" style="stroke:#3da44d; stroke-linecap:round; stroke-linejoin:round; stroke-width:8; stroke-opacity:1; fill:none" points="272.215,248.629 417.369,248.629 "/>
<circle clip-path="url(#clip280)" cx="344.792" cy="248.629" r="19.7486" fill="#3da44d" fill-rule="evenodd" fill-opacity="1" stroke="#000000" stroke-opacity="1" stroke-width="5.85143"/>
<path clip-path="url(#clip280)" d="M441.561 239.983 L446.075 239.983 L454.177 261.742 L462.278 239.983 L466.792 239.983 L457.07 265.909 L451.283 265.909 L441.561 239.983 Z" fill="#000000" fill-rule="nonzero" fill-opacity="1" /><path clip-path="url(#clip280)" d="M483.274 234.427 Q479.663 234.427 477.834 237.992 Q476.028 241.534 476.028 248.663 Q476.028 255.77 477.834 259.335 Q479.663 262.876 483.274 262.876 Q486.908 262.876 488.713 259.335 Q490.542 255.77 490.542 248.663 Q490.542 241.534 488.713 237.992 Q486.908 234.427 483.274 234.427 M483.274 230.724 Q489.084 230.724 492.139 235.33 Q495.218 239.913 495.218 248.663 Q495.218 257.39 492.139 261.997 Q489.084 266.58 483.274 266.58 Q477.464 266.58 474.385 261.997 Q471.329 257.39 471.329 248.663 Q471.329 239.913 474.385 235.33 Q477.464 230.724 483.274 230.724 Z" fill="#000000" fill-rule="nonzero" fill-opacity="1" /><path clip-path="url(#clip280)" d="M503.436 260.029 L508.32 260.029 L508.32 265.909 L503.436 265.909 L503.436 260.029 Z" fill="#000000" fill-rule="nonzero" fill-opacity="1" /><path clip-path="url(#clip280)" d="M532.672 247.274 Q536.028 247.992 537.903 250.261 Q539.801 252.529 539.801 255.862 Q539.801 260.978 536.283 263.779 Q532.764 266.58 526.283 266.58 Q524.107 266.58 521.792 266.14 Q519.5 265.723 517.047 264.867 L517.047 260.353 Q518.991 261.487 521.306 262.066 Q523.621 262.645 526.144 262.645 Q530.542 262.645 532.834 260.909 Q535.148 259.173 535.148 255.862 Q535.148 252.807 532.996 251.094 Q530.866 249.358 527.047 249.358 L523.019 249.358 L523.019 245.515 L527.232 245.515 Q530.681 245.515 532.51 244.149 Q534.338 242.761 534.338 240.168 Q534.338 237.506 532.44 236.094 Q530.565 234.659 527.047 234.659 Q525.125 234.659 522.926 235.075 Q520.727 235.492 518.088 236.372 L518.088 232.205 Q520.75 231.464 523.065 231.094 Q525.403 230.724 527.463 230.724 Q532.787 230.724 535.889 233.154 Q538.991 235.562 538.991 239.682 Q538.991 242.552 537.347 244.543 Q535.704 246.511 532.672 247.274 Z" fill="#000000" fill-rule="nonzero" fill-opacity="1" /><path clip-path="url(#clip280)" d="M548.667 260.029 L553.551 260.029 L553.551 265.909 L548.667 265.909 L548.667 260.029 Z" fill="#000000" fill-rule="nonzero" fill-opacity="1" /><path clip-path="url(#clip280)" d="M577.903 247.274 Q581.259 247.992 583.134 250.261 Q585.032 252.529 585.032 255.862 Q585.032 260.978 581.514 263.779 Q577.995 266.58 571.514 266.58 Q569.338 266.58 567.023 266.14 Q564.732 265.723 562.278 264.867 L562.278 260.353 Q564.222 261.487 566.537 262.066 Q568.852 262.645 571.375 262.645 Q575.773 262.645 578.065 260.909 Q580.38 259.173 580.38 255.862 Q580.38 252.807 578.227 251.094 Q576.097 249.358 572.278 249.358 L568.25 249.358 L568.25 245.515 L572.463 245.515 Q575.912 245.515 577.741 244.149 Q579.569 242.761 579.569 240.168 Q579.569 237.506 577.671 236.094 Q575.796 234.659 572.278 234.659 Q570.357 234.659 568.158 235.075 Q565.958 235.492 563.32 236.372 L563.32 232.205 Q565.982 231.464 568.296 231.094 Q570.634 230.724 572.695 230.724 Q578.019 230.724 581.12 233.154 Q584.222 235.562 584.222 239.682 Q584.222 242.552 582.579 244.543 Q580.935 246.511 577.903 247.274 Z" fill="#000000" fill-rule="nonzero" fill-opacity="1" /><polyline clip-path="url(#clip280)" style="stroke:#c271d2; stroke-linecap:round; stroke-linejoin:round; stroke-width:8; stroke-opacity:1; fill:none" points="272.215,300.469 417.369,300.469 "/>
<circle clip-path="url(#clip280)" cx="344.792" cy="300.469" r="19.7486" fill="#c271d2" fill-rule="evenodd" fill-opacity="1" stroke="#000000" stroke-opacity="1" stroke-width="5.85143"/>
<path clip-path="url(#clip280)" d="M441.561 291.823 L446.075 291.823 L454.177 313.582 L462.278 291.823 L466.792 291.823 L457.07 317.749 L451.283 317.749 L441.561 291.823 Z" fill="#000000" fill-rule="nonzero" fill-opacity="1" /><path clip-path="url(#clip280)" d="M483.274 286.267 Q479.663 286.267 477.834 289.832 Q476.028 293.374 476.028 300.503 Q476.028 307.61 477.834 311.175 Q479.663 314.716 483.274 314.716 Q486.908 314.716 488.713 311.175 Q490.542 307.61 490.542 300.503 Q490.542 293.374 488.713 289.832 Q486.908 286.267 483.274 286.267 M483.274 282.564 Q489.084 282.564 492.139 287.17 Q495.218 291.753 495.218 300.503 Q495.218 309.23 492.139 313.837 Q489.084 318.42 483.274 318.42 Q477.464 318.42 474.385 313.837 Q471.329 309.23 471.329 300.503 Q471.329 291.753 474.385 287.17 Q477.464 282.564 483.274 282.564 Z" fill="#000000" fill-rule="nonzero" fill-opacity="1" /><path clip-path="url(#clip280)" d="M503.436 311.869 L508.32 311.869 L508.32 317.749 L503.436 317.749 L503.436 311.869 Z" fill="#000000" fill-rule="nonzero" fill-opacity="1" /><path clip-path="url(#clip280)" d="M532.672 299.114 Q536.028 299.832 537.903 302.101 Q539.801 304.369 539.801 307.702 Q539.801 312.818 536.283 315.619 Q532.764 318.42 526.283 318.42 Q524.107 318.42 521.792 317.98 Q519.5 317.563 517.047 316.707 L517.047 312.193 Q518.991 313.327 521.306 313.906 Q523.621 314.485 526.144 314.485 Q530.542 314.485 532.834 312.749 Q535.148 311.013 535.148 307.702 Q535.148 304.647 532.996 302.934 Q530.866 301.198 527.047 301.198 L523.019 301.198 L523.019 297.355 L527.232 297.355 Q530.681 297.355 532.51 295.989 Q534.338 294.601 534.338 292.008 Q534.338 289.346 532.44 287.934 Q530.565 286.499 527.047 286.499 Q525.125 286.499 522.926 286.915 Q520.727 287.332 518.088 288.212 L518.088 284.045 Q520.75 283.304 523.065 282.934 Q525.403 282.564 527.463 282.564 Q532.787 282.564 535.889 284.994 Q538.991 287.402 538.991 291.522 Q538.991 294.392 537.347 296.383 Q535.704 298.351 532.672 299.114 Z" fill="#000000" fill-rule="nonzero" fill-opacity="1" /><path clip-path="url(#clip280)" d="M548.667 311.869 L553.551 311.869 L553.551 317.749 L548.667 317.749 L548.667 311.869 Z" fill="#000000" fill-rule="nonzero" fill-opacity="1" /><path clip-path="url(#clip280)" d="M567.764 313.813 L584.083 313.813 L584.083 317.749 L562.139 317.749 L562.139 313.813 Q564.801 311.059 569.384 306.429 Q573.991 301.776 575.171 300.434 Q577.417 297.911 578.296 296.175 Q579.199 294.415 579.199 292.726 Q579.199 289.971 577.255 288.235 Q575.333 286.499 572.232 286.499 Q570.032 286.499 567.579 287.263 Q565.148 288.027 562.37 289.577 L562.37 284.855 Q565.195 283.721 567.648 283.142 Q570.102 282.564 572.139 282.564 Q577.509 282.564 580.704 285.249 Q583.898 287.934 583.898 292.425 Q583.898 294.554 583.088 296.476 Q582.301 298.374 580.194 300.966 Q579.616 301.638 576.514 304.855 Q573.412 308.05 567.764 313.813 Z" fill="#000000" fill-rule="nonzero" fill-opacity="1" /><polyline clip-path="url(#clip280)" style="stroke:#000000; stroke-linecap:round; stroke-linejoin:round; stroke-width:8; stroke-opacity:1; fill:none" points="272.215,352.309 417.369,352.309 "/>
<circle clip-path="url(#clip280)" cx="344.792" cy="352.309" r="19.7486" fill="#000000" fill-rule="evenodd" fill-opacity="1" stroke="none"/>
<path clip-path="url(#clip280)" d="M441.561 335.029 L446.237 335.029 L446.237 369.589 L441.561 369.589 L441.561 335.029 Z" fill="#000000" fill-rule="nonzero" fill-opacity="1" /><path clip-path="url(#clip280)" d="M472.417 347.598 L472.417 333.57 L476.677 333.57 L476.677 369.589 L472.417 369.589 L472.417 365.7 Q471.075 368.015 469.015 369.149 Q466.977 370.26 464.107 370.26 Q459.408 370.26 456.445 366.51 Q453.505 362.76 453.505 356.649 Q453.505 350.538 456.445 346.788 Q459.408 343.038 464.107 343.038 Q466.977 343.038 469.015 344.172 Q471.075 345.283 472.417 347.598 M457.903 356.649 Q457.903 361.348 459.825 364.033 Q461.769 366.695 465.149 366.695 Q468.528 366.695 470.473 364.033 Q472.417 361.348 472.417 356.649 Q472.417 351.95 470.473 349.288 Q468.528 346.603 465.149 346.603 Q461.769 346.603 459.825 349.288 Q457.903 351.95 457.903 356.649 Z" fill="#000000" fill-rule="nonzero" fill-opacity="1" /><path clip-path="url(#clip280)" d="M507.625 355.561 L507.625 357.644 L488.042 357.644 Q488.32 362.042 490.681 364.357 Q493.065 366.649 497.301 366.649 Q499.755 366.649 502.047 366.047 Q504.362 365.445 506.63 364.241 L506.63 368.269 Q504.338 369.241 501.931 369.751 Q499.524 370.26 497.047 370.26 Q490.843 370.26 487.209 366.649 Q483.598 363.038 483.598 356.88 Q483.598 350.515 487.024 346.788 Q490.473 343.038 496.306 343.038 Q501.537 343.038 504.57 346.417 Q507.625 349.774 507.625 355.561 M503.366 354.311 Q503.32 350.816 501.399 348.732 Q499.5 346.649 496.352 346.649 Q492.788 346.649 490.635 348.663 Q488.505 350.677 488.181 354.334 L503.366 354.311 Z" fill="#000000" fill-rule="nonzero" fill-opacity="1" /><path clip-path="url(#clip280)" d="M526.398 356.556 Q521.236 356.556 519.246 357.737 Q517.255 358.917 517.255 361.765 Q517.255 364.033 518.736 365.376 Q520.241 366.695 522.811 366.695 Q526.352 366.695 528.482 364.195 Q530.635 361.672 530.635 357.505 L530.635 356.556 L526.398 356.556 M534.894 354.797 L534.894 369.589 L530.635 369.589 L530.635 365.653 Q529.176 368.015 527 369.149 Q524.824 370.26 521.676 370.26 Q517.695 370.26 515.334 368.038 Q512.996 365.792 512.996 362.042 Q512.996 357.667 515.912 355.445 Q518.852 353.223 524.662 353.223 L530.635 353.223 L530.635 352.806 Q530.635 349.867 528.69 348.269 Q526.769 346.649 523.273 346.649 Q521.051 346.649 518.945 347.181 Q516.838 347.714 514.894 348.779 L514.894 344.843 Q517.232 343.941 519.431 343.501 Q521.63 343.038 523.713 343.038 Q529.338 343.038 532.116 345.954 Q534.894 348.871 534.894 354.797 Z" fill="#000000" fill-rule="nonzero" fill-opacity="1" /><path clip-path="url(#clip280)" d="M543.667 333.57 L547.926 333.57 L547.926 369.589 L543.667 369.589 L543.667 333.57 Z" fill="#000000" fill-rule="nonzero" fill-opacity="1" /><path clip-path="url(#clip280)" d="M588.435 344.427 L588.435 348.454 Q586.63 347.529 584.685 347.066 Q582.741 346.603 580.657 346.603 Q577.486 346.603 575.889 347.575 Q574.315 348.547 574.315 350.491 Q574.315 351.973 575.449 352.829 Q576.583 353.663 580.009 354.427 L581.468 354.751 Q586.005 355.723 587.903 357.505 Q589.824 359.265 589.824 362.436 Q589.824 366.047 586.954 368.153 Q584.106 370.26 579.107 370.26 Q577.023 370.26 574.755 369.843 Q572.509 369.45 570.009 368.64 L570.009 364.241 Q572.37 365.468 574.662 366.093 Q576.954 366.695 579.199 366.695 Q582.208 366.695 583.829 365.677 Q585.449 364.635 585.449 362.76 Q585.449 361.024 584.269 360.098 Q583.111 359.172 579.153 358.316 L577.671 357.968 Q573.713 357.135 571.954 355.422 Q570.195 353.686 570.195 350.677 Q570.195 347.019 572.787 345.029 Q575.38 343.038 580.148 343.038 Q582.509 343.038 584.593 343.385 Q586.676 343.732 588.435 344.427 Z" fill="#000000" fill-rule="nonzero" fill-opacity="1" /><path clip-path="url(#clip280)" d="M615.264 344.658 L615.264 348.64 Q613.458 347.644 611.629 347.158 Q609.824 346.649 607.972 346.649 Q603.829 346.649 601.537 349.288 Q599.245 351.904 599.245 356.649 Q599.245 361.394 601.537 364.033 Q603.829 366.649 607.972 366.649 Q609.824 366.649 611.629 366.163 Q613.458 365.653 615.264 364.658 L615.264 368.593 Q613.481 369.427 611.56 369.843 Q609.662 370.26 607.509 370.26 Q601.653 370.26 598.204 366.579 Q594.755 362.899 594.755 356.649 Q594.755 350.306 598.227 346.672 Q601.722 343.038 607.787 343.038 Q609.755 343.038 611.629 343.455 Q613.504 343.848 615.264 344.658 Z" fill="#000000" fill-rule="nonzero" fill-opacity="1" /><path clip-path="url(#clip280)" d="M634.453 356.556 Q629.291 356.556 627.301 357.737 Q625.31 358.917 625.31 361.765 Q625.31 364.033 626.791 365.376 Q628.296 366.695 630.866 366.695 Q634.407 366.695 636.537 364.195 Q638.69 361.672 638.69 357.505 L638.69 356.556 L634.453 356.556 M642.949 354.797 L642.949 369.589 L638.69 369.589 L638.69 365.653 Q637.231 368.015 635.055 369.149 Q632.879 370.26 629.731 370.26 Q625.75 370.26 623.389 368.038 Q621.051 365.792 621.051 362.042 Q621.051 357.667 623.967 355.445 Q626.907 353.223 632.717 353.223 L638.69 353.223 L638.69 352.806 Q638.69 349.867 636.745 348.269 Q634.824 346.649 631.328 346.649 Q629.106 346.649 627 347.181 Q624.893 347.714 622.949 348.779 L622.949 344.843 Q625.287 343.941 627.486 343.501 Q629.685 343.038 631.768 343.038 Q637.393 343.038 640.171 345.954 Q642.949 348.871 642.949 354.797 Z" fill="#000000" fill-rule="nonzero" fill-opacity="1" /><path clip-path="url(#clip280)" d="M651.722 333.57 L655.981 333.57 L655.981 369.589 L651.722 369.589 L651.722 333.57 Z" fill="#000000" fill-rule="nonzero" fill-opacity="1" /><path clip-path="url(#clip280)" d="M664.893 343.663 L669.152 343.663 L669.152 369.589 L664.893 369.589 L664.893 343.663 M664.893 333.57 L669.152 333.57 L669.152 338.964 L664.893 338.964 L664.893 333.57 Z" fill="#000000" fill-rule="nonzero" fill-opacity="1" /><path clip-path="url(#clip280)" d="M699.615 353.941 L699.615 369.589 L695.356 369.589 L695.356 354.079 Q695.356 350.399 693.921 348.57 Q692.486 346.742 689.615 346.742 Q686.166 346.742 684.175 348.941 Q682.185 351.14 682.185 354.936 L682.185 369.589 L677.902 369.589 L677.902 343.663 L682.185 343.663 L682.185 347.691 Q683.712 345.353 685.773 344.195 Q687.856 343.038 690.564 343.038 Q695.032 343.038 697.323 345.816 Q699.615 348.57 699.615 353.941 Z" fill="#000000" fill-rule="nonzero" fill-opacity="1" /><path clip-path="url(#clip280)" d="M725.171 356.325 Q725.171 351.695 723.249 349.149 Q721.351 346.603 717.902 346.603 Q714.476 346.603 712.555 349.149 Q710.657 351.695 710.657 356.325 Q710.657 360.931 712.555 363.478 Q714.476 366.024 717.902 366.024 Q721.351 366.024 723.249 363.478 Q725.171 360.931 725.171 356.325 M729.43 366.371 Q729.43 372.991 726.49 376.209 Q723.55 379.45 717.485 379.45 Q715.24 379.45 713.249 379.102 Q711.259 378.778 709.384 378.084 L709.384 373.94 Q711.259 374.959 713.087 375.445 Q714.916 375.931 716.814 375.931 Q721.004 375.931 723.087 373.732 Q725.171 371.556 725.171 367.135 L725.171 365.028 Q723.851 367.32 721.791 368.454 Q719.731 369.589 716.86 369.589 Q712.092 369.589 709.175 365.954 Q706.259 362.32 706.259 356.325 Q706.259 350.306 709.175 346.672 Q712.092 343.038 716.86 343.038 Q719.731 343.038 721.791 344.172 Q723.851 345.306 725.171 347.598 L725.171 343.663 L729.43 343.663 L729.43 366.371 Z" fill="#000000" fill-rule="nonzero" fill-opacity="1" /></svg>
