<?xml version="1.0" encoding="utf-8"?>
<svg xmlns="http://www.w3.org/2000/svg" xmlns:xlink="http://www.w3.org/1999/xlink" width="600" height="400" viewBox="0 0 2400 1600">
<defs>
  <clipPath id="clip010">
    <rect x="0" y="0" width="2400" height="1600"/>
  </clipPath>
</defs>
<path clip-path="url(#clip010)" d="M0 1600 L2400 1600 L2400 0 L0 0  Z" fill="#ffffff" fill-rule="evenodd" fill-opacity="1"/>
<defs>
  <clipPath id="clip011">
    <rect x="480" y="0" width="1681" height="1600"/>
  </clipPath>
</defs>
<path clip-path="url(#clip010)" d="M175.445 1423.18 L2352.76 1423.18 L2352.76 47.2441 L175.445 47.2441  Z" fill="#ffffff" fill-rule="evenodd" fill-opacity="1"/>
<defs>
  <clipPath id="clip012">
    <rect x="175" y="47" width="2178" height="1377"/>
  </clipPath>
</defs>
<polyline clip-path="url(#clip012)" style="stroke:#000000; stroke-linecap:round; stroke-linejoin:round; stroke-width:2; stroke-opacity:0.1; fill:none" points="530.505,1423.18 530.505,47.2441 "/>
<polyline clip-path="url(#clip012)" style="stroke:#000000; stroke-linecap:round; stroke-linejoin:round; stroke-width:2; stroke-opacity:0.1; fill:none" points="1117.38,1423.18 1117.38,47.2441 "/>
<polyline clip-path="url(#clip012)" style="stroke:#000000; stroke-linecap:round; stroke-linejoin:round; stroke-width:2; stroke-opacity:0.1; fill:none" points="1704.26,1423.18 1704.26,47.2441 "/>
<polyline clip-path="url(#clip012)" style="stroke:#000000; stroke-linecap:round; stroke-linejoin:round; stroke-width:2; stroke-opacity:0.1; fill:none" points="2291.13,1423.18 2291.13,47.2441 "/>
<polyline clip-path="url(#clip012)" style="stroke:#000000; stroke-linecap:round; stroke-linejoin:round; stroke-width:2; stroke-opacity:0.1; fill:none" points="530.505,1423.18 530.505,47.2441 "/>
<polyline clip-path="url(#clip012)" style="stroke:#000000; stroke-linecap:round; stroke-linejoin:round; stroke-width:2; stroke-opacity:0.1; fill:none" points="1117.38,1423.18 1117.38,47.2441 "/>
<polyline clip-path="url(#clip012)" style="stroke:#000000; stroke-linecap:round; stroke-linejoin:round; stroke-width:2; stroke-opacity:0.1; fill:none" points="1704.26,1423.18 1704.26,47.2441 "/>
<polyline clip-path="url(#clip012)" style="stroke:#000000; stroke-linecap:round; stroke-linejoin:round; stroke-width:2; stroke-opacity:0.1; fill:none" points="2291.13,1423.18 2291.13,47.2441 "/>
<polyline clip-path="url(#clip012)" style="stroke:#000000; stroke-linecap:round; stroke-linejoin:round; stroke-width:2; stroke-opacity:0.1; fill:none" points="175.445,1423.18 2352.76,1423.18 "/>
<polyline clip-path="url(#clip012)" style="stroke:#000000; stroke-linecap:round; stroke-linejoin:round; stroke-width:2; stroke-opacity:0.1; fill:none" points="175.445,1147.99 2352.76,1147.99 "/>
<polyline clip-path="url(#clip012)" style="stroke:#000000; stroke-linecap:round; stroke-linejoin:round; stroke-width:2; stroke-opacity:0.1; fill:none" points="175.445,872.806 2352.76,872.806 "/>
<polyline clip-path="url(#clip012)" style="stroke:#000000; stroke-linecap:round; stroke-linejoin:round; stroke-width:2; stroke-opacity:0.1; fill:none" points="175.445,597.618 2352.76,597.618 "/>
<polyline clip-path="url(#clip012)" style="stroke:#000000; stroke-linecap:round; stroke-linejoin:round; stroke-width:2; stroke-opacity:0.1; fill:none" points="175.445,322.431 2352.76,322.431 "/>
<polyline clip-path="url(#clip012)" style="stroke:#000000; stroke-linecap:round; stroke-linejoin:round; stroke-width:2; stroke-opacity:0.1; fill:none" points="175.445,47.2441 2352.76,47.2441 "/>
<polyline clip-path="url(#clip012)" style="stroke:#000000; stroke-linecap:round; stroke-linejoin:round; stroke-width:2; stroke-opacity:0.1; fill:none" points="175.445,1423.18 2352.76,1423.18 "/>
<polyline clip-path="url(#clip012)" style="stroke:#000000; stroke-linecap:round; stroke-linejoin:round; stroke-width:2; stroke-opacity:0.1; fill:none" points="175.445,1147.99 2352.76,1147.99 "/>
<polyline clip-path="url(#clip012)" style="stroke:#000000; stroke-linecap:round; stroke-linejoin:round; stroke-width:2; stroke-opacity:0.1; fill:none" points="175.445,872.806 2352.76,872.806 "/>
<polyline clip-path="url(#clip012)" style="stroke:#000000; stroke-linecap:round; stroke-linejoin:round; stroke-width:2; stroke-opacity:0.1; fill:none" points="175.445,597.618 2352.76,597.618 "/>
<polyline clip-path="url(#clip012)" style="stroke:#000000; stroke-linecap:round; stroke-linejoin:round; stroke-width:2; stroke-opacity:0.1; fill:none" points="175.445,322.431 2352.76,322.431 "/>
<polyline clip-path="url(#clip012)" style="stroke:#000000; stroke-linecap:round; stroke-linejoin:round; stroke-width:2; stroke-opacity:0.1; fill:none" points="175.445,47.2441 2352.76,47.2441 "/>
<polyline clip-path="url(#clip010)" style="stroke:#000000; stroke-linecap:round; stroke-linejoin:round; stroke-width:4; stroke-opacity:1; fill:none" points="175.445,1423.18 2352.76,1423.18 "/>
<polyline clip-path="url(#clip010)" style="stroke:#000000; stroke-linecap:round; stroke-linejoin:round; stroke-width:4; stroke-opacity:1; fill:none" points="175.445,47.2441 2352.76,47.2441 "/>
<polyline clip-path="url(#clip010)" style="stroke:#000000; stroke-linecap:round; stroke-linejoin:round; stroke-width:4; stroke-opacity:1; fill:none" points="530.505,1423.18 530.505,1404.28 "/>
<polyline clip-path="url(#clip010)" style="stroke:#000000; stroke-linecap:round; stroke-linejoin:round; stroke-width:4; stroke-opacity:1; fill:none" points="1117.38,1423.18 1117.38,1404.28 "/>
<polyline clip-path="url(#clip010)" style="stroke:#000000; stroke-linecap:round; stroke-linejoin:round; stroke-width:4; stroke-opacity:1; fill:none" points="1704.26,1423.18 1704.26,1404.28 "/>
<polyline clip-path="url(#clip010)" style="stroke:#000000; stroke-linecap:round; stroke-linejoin:round; stroke-width:4; stroke-opacity:1; fill:none" points="2291.13,1423.18 2291.13,1404.28 "/>
<polyline clip-path="url(#clip010)" style="stroke:#000000; stroke-linecap:round; stroke-linejoin:round; stroke-width:4; stroke-opacity:1; fill:none" points="530.505,47.2441 530.505,66.1417 "/>
<polyline clip-path="url(#clip010)" style="stroke:#000000; stroke-linecap:round; stroke-linejoin:round; stroke-width:4; stroke-opacity:1; fill:none" points="1117.38,47.2441 1117.38,66.1417 "/>
<polyline clip-path="url(#clip010)" style="stroke:#000000; stroke-linecap:round; stroke-linejoin:round; stroke-width:4; stroke-opacity:1; fill:none" points="1704.26,47.2441 1704.26,66.1417 "/>
<polyline clip-path="url(#clip010)" style="stroke:#000000; stroke-linecap:round; stroke-linejoin:round; stroke-width:4; stroke-opacity:1; fill:none" points="2291.13,47.2441 2291.13,66.1417 "/>
<path clip-path="url(#clip010)" d="M525.158 1481.64 L541.477 1481.64 L541.477 1485.58 L519.533 1485.58 L519.533 1481.64 Q522.195 1478.89 526.778 1474.26 Q531.385 1469.61 532.565 1468.27 Q534.811 1465.74 535.69 1464.01 Q536.593 1462.25 536.593 1460.56 Q536.593 1457.8 534.649 1456.07 Q532.728 1454.33 529.626 1454.33 Q527.427 1454.33 524.973 1455.09 Q522.542 1455.86 519.765 1457.41 L519.765 1452.69 Q522.589 1451.55 525.042 1450.97 Q527.496 1450.39 529.533 1450.39 Q534.903 1450.39 538.098 1453.08 Q541.292 1455.77 541.292 1460.26 Q541.292 1462.39 540.482 1464.31 Q539.695 1466.2 537.589 1468.8 Q537.01 1469.47 533.908 1472.69 Q530.806 1475.88 525.158 1481.64 Z" fill="#000000" fill-rule="nonzero" fill-opacity="1" /><path clip-path="url(#clip010)" d="M1120.39 1455.09 L1108.59 1473.54 L1120.39 1473.54 L1120.39 1455.09 M1119.16 1451.02 L1125.04 1451.02 L1125.04 1473.54 L1129.97 1473.54 L1129.97 1477.43 L1125.04 1477.43 L1125.04 1485.58 L1120.39 1485.58 L1120.39 1477.43 L1104.79 1477.43 L1104.79 1472.92 L1119.16 1451.02 Z" fill="#000000" fill-rule="nonzero" fill-opacity="1" /><path clip-path="url(#clip010)" d="M1704.66 1466.44 Q1701.51 1466.44 1699.66 1468.59 Q1697.83 1470.74 1697.83 1474.49 Q1697.83 1478.22 1699.66 1480.39 Q1701.51 1482.55 1704.66 1482.55 Q1707.81 1482.55 1709.64 1480.39 Q1711.49 1478.22 1711.49 1474.49 Q1711.49 1470.74 1709.64 1468.59 Q1707.81 1466.44 1704.66 1466.44 M1713.95 1451.78 L1713.95 1456.04 Q1712.19 1455.21 1710.38 1454.77 Q1708.6 1454.33 1706.84 1454.33 Q1702.21 1454.33 1699.76 1457.45 Q1697.32 1460.58 1696.98 1466.9 Q1698.34 1464.89 1700.4 1463.82 Q1702.46 1462.73 1704.94 1462.73 Q1710.15 1462.73 1713.16 1465.9 Q1716.19 1469.05 1716.19 1474.49 Q1716.19 1479.82 1713.04 1483.03 Q1709.89 1486.25 1704.66 1486.25 Q1698.67 1486.25 1695.5 1481.67 Q1692.32 1477.06 1692.32 1468.33 Q1692.32 1460.14 1696.21 1455.28 Q1700.1 1450.39 1706.65 1450.39 Q1708.41 1450.39 1710.2 1450.74 Q1712 1451.09 1713.95 1451.78 Z" fill="#000000" fill-rule="nonzero" fill-opacity="1" /><path clip-path="url(#clip010)" d="M2291.13 1469.17 Q2287.8 1469.17 2285.88 1470.95 Q2283.98 1472.73 2283.98 1475.86 Q2283.98 1478.98 2285.88 1480.77 Q2287.8 1482.55 2291.13 1482.55 Q2294.47 1482.55 2296.39 1480.77 Q2298.31 1478.96 2298.31 1475.86 Q2298.31 1472.73 2296.39 1470.95 Q2294.49 1469.17 2291.13 1469.17 M2286.46 1467.18 Q2283.45 1466.44 2281.76 1464.38 Q2280.09 1462.32 2280.09 1459.35 Q2280.09 1455.21 2283.03 1452.8 Q2286 1450.39 2291.13 1450.39 Q2296.3 1450.39 2299.24 1452.8 Q2302.18 1455.21 2302.18 1459.35 Q2302.18 1462.32 2300.49 1464.38 Q2298.82 1466.44 2295.83 1467.18 Q2299.21 1467.96 2301.09 1470.26 Q2302.99 1472.55 2302.99 1475.86 Q2302.99 1480.88 2299.91 1483.57 Q2296.85 1486.25 2291.13 1486.25 Q2285.42 1486.25 2282.34 1483.57 Q2279.28 1480.88 2279.28 1475.86 Q2279.28 1472.55 2281.18 1470.26 Q2283.08 1467.96 2286.46 1467.18 M2284.75 1459.79 Q2284.75 1462.48 2286.41 1463.98 Q2288.1 1465.49 2291.13 1465.49 Q2294.14 1465.49 2295.83 1463.98 Q2297.55 1462.48 2297.55 1459.79 Q2297.55 1457.11 2295.83 1455.6 Q2294.14 1454.1 2291.13 1454.1 Q2288.1 1454.1 2286.41 1455.6 Q2284.75 1457.11 2284.75 1459.79 Z" fill="#000000" fill-rule="nonzero" fill-opacity="1" /><path clip-path="url(#clip010)" d="M1083.27 1539.37 L1074 1539.37 L1071.33 1550 L1080.66 1550 L1083.27 1539.37 M1078.49 1521.26 L1075.18 1534.46 L1084.48 1534.46 L1087.82 1521.26 L1092.91 1521.26 L1089.63 1534.46 L1099.56 1534.46 L1099.56 1539.37 L1088.39 1539.37 L1085.78 1550 L1095.9 1550 L1095.9 1554.87 L1084.54 1554.87 L1081.23 1568.04 L1076.14 1568.04 L1079.42 1554.87 L1070.09 1554.87 L1066.81 1568.04 L1061.69 1568.04 L1065 1554.87 L1054.97 1554.87 L1054.97 1550 L1066.17 1550 L1068.85 1539.37 L1058.6 1539.37 L1058.6 1534.46 L1070.09 1534.46 L1073.34 1521.26 L1078.49 1521.26 Z" fill="#000000" fill-rule="nonzero" fill-opacity="1" /><path clip-path="url(#clip010)" d="M1137.09 1562.7 L1137.09 1581.6 L1131.2 1581.6 L1131.2 1532.4 L1137.09 1532.4 L1137.09 1537.81 Q1138.93 1534.62 1141.74 1533.1 Q1144.57 1531.54 1148.48 1531.54 Q1154.98 1531.54 1159.02 1536.69 Q1163.09 1541.85 1163.09 1550.25 Q1163.09 1558.65 1159.02 1563.81 Q1154.98 1568.97 1148.48 1568.97 Q1144.57 1568.97 1141.74 1567.44 Q1138.93 1565.88 1137.09 1562.7 M1157.01 1550.25 Q1157.01 1543.79 1154.34 1540.13 Q1151.7 1536.44 1147.05 1536.44 Q1142.4 1536.44 1139.73 1540.13 Q1137.09 1543.79 1137.09 1550.25 Q1137.09 1556.71 1139.73 1560.4 Q1142.4 1564.07 1147.05 1564.07 Q1151.7 1564.07 1154.34 1560.4 Q1157.01 1556.71 1157.01 1550.25 Z" fill="#000000" fill-rule="nonzero" fill-opacity="1" /><path clip-path="url(#clip010)" d="M1193.46 1537.87 Q1192.47 1537.3 1191.29 1537.04 Q1190.15 1536.76 1188.75 1536.76 Q1183.78 1536.76 1181.11 1540 Q1178.47 1543.22 1178.47 1549.27 L1178.47 1568.04 L1172.58 1568.04 L1172.58 1532.4 L1178.47 1532.4 L1178.47 1537.93 Q1180.31 1534.69 1183.27 1533.13 Q1186.23 1531.54 1190.47 1531.54 Q1191.07 1531.54 1191.8 1531.63 Q1192.53 1531.7 1193.43 1531.85 L1193.46 1537.87 Z" fill="#000000" fill-rule="nonzero" fill-opacity="1" /><path clip-path="url(#clip010)" d="M1211.98 1536.5 Q1207.27 1536.5 1204.53 1540.19 Q1201.8 1543.85 1201.8 1550.25 Q1201.8 1556.65 1204.5 1560.34 Q1207.24 1564 1211.98 1564 Q1216.66 1564 1219.4 1560.31 Q1222.13 1556.62 1222.13 1550.25 Q1222.13 1543.92 1219.4 1540.23 Q1216.66 1536.5 1211.98 1536.5 M1211.98 1531.54 Q1219.62 1531.54 1223.98 1536.5 Q1228.34 1541.47 1228.34 1550.25 Q1228.34 1559 1223.98 1564 Q1219.62 1568.97 1211.98 1568.97 Q1204.31 1568.97 1199.95 1564 Q1195.62 1559 1195.62 1550.25 Q1195.62 1541.47 1199.95 1536.5 Q1204.31 1531.54 1211.98 1531.54 Z" fill="#000000" fill-rule="nonzero" fill-opacity="1" /><path clip-path="url(#clip010)" d="M1263.7 1533.76 L1263.7 1539.24 Q1261.22 1537.87 1258.71 1537.2 Q1256.22 1536.5 1253.68 1536.5 Q1247.98 1536.5 1244.83 1540.13 Q1241.68 1543.73 1241.68 1550.25 Q1241.68 1556.78 1244.83 1560.4 Q1247.98 1564 1253.68 1564 Q1256.22 1564 1258.71 1563.33 Q1261.22 1562.63 1263.7 1561.26 L1263.7 1566.68 Q1261.25 1567.82 1258.61 1568.39 Q1256 1568.97 1253.04 1568.97 Q1244.99 1568.97 1240.25 1563.91 Q1235.5 1558.85 1235.5 1550.25 Q1235.5 1541.53 1240.28 1536.53 Q1245.08 1531.54 1253.42 1531.54 Q1256.13 1531.54 1258.71 1532.11 Q1261.28 1532.65 1263.7 1533.76 Z" fill="#000000" fill-rule="nonzero" fill-opacity="1" /><path clip-path="url(#clip010)" d="M1304.38 1548.76 L1304.38 1551.62 L1277.45 1551.62 Q1277.83 1557.67 1281.08 1560.85 Q1284.36 1564 1290.18 1564 Q1293.56 1564 1296.71 1563.17 Q1299.89 1562.35 1303.01 1560.69 L1303.01 1566.23 Q1299.86 1567.57 1296.55 1568.27 Q1293.24 1568.97 1289.83 1568.97 Q1281.3 1568.97 1276.31 1564 Q1271.34 1559.04 1271.34 1550.57 Q1271.34 1541.82 1276.05 1536.69 Q1280.79 1531.54 1288.82 1531.54 Q1296.01 1531.54 1300.18 1536.18 Q1304.38 1540.8 1304.38 1548.76 M1298.52 1547.04 Q1298.46 1542.23 1295.82 1539.37 Q1293.21 1536.5 1288.88 1536.5 Q1283.98 1536.5 1281.02 1539.27 Q1278.09 1542.04 1277.64 1547.07 L1298.52 1547.04 Z" fill="#000000" fill-rule="nonzero" fill-opacity="1" /><path clip-path="url(#clip010)" d="M1336.72 1533.45 L1336.72 1538.98 Q1334.23 1537.71 1331.56 1537.07 Q1328.89 1536.44 1326.02 1536.44 Q1321.66 1536.44 1319.47 1537.77 Q1317.3 1539.11 1317.3 1541.79 Q1317.3 1543.82 1318.86 1545 Q1320.42 1546.15 1325.13 1547.2 L1327.14 1547.64 Q1333.38 1548.98 1335.99 1551.43 Q1338.63 1553.85 1338.63 1558.21 Q1338.63 1563.17 1334.68 1566.07 Q1330.77 1568.97 1323.89 1568.97 Q1321.03 1568.97 1317.91 1568.39 Q1314.82 1567.85 1311.38 1566.74 L1311.38 1560.69 Q1314.63 1562.38 1317.78 1563.24 Q1320.93 1564.07 1324.02 1564.07 Q1328.16 1564.07 1330.38 1562.66 Q1332.61 1561.23 1332.61 1558.65 Q1332.61 1556.27 1330.99 1554.99 Q1329.4 1553.72 1323.95 1552.54 L1321.92 1552.07 Q1316.47 1550.92 1314.06 1548.56 Q1311.64 1546.18 1311.64 1542.04 Q1311.64 1537.01 1315.2 1534.27 Q1318.77 1531.54 1325.32 1531.54 Q1328.57 1531.54 1331.43 1532.01 Q1334.3 1532.49 1336.72 1533.45 Z" fill="#000000" fill-rule="nonzero" fill-opacity="1" /><path clip-path="url(#clip010)" d="M1370.68 1533.45 L1370.68 1538.98 Q1368.2 1537.71 1365.52 1537.07 Q1362.85 1536.44 1359.98 1536.44 Q1355.62 1536.44 1353.43 1537.77 Q1351.26 1539.11 1351.26 1541.79 Q1351.26 1543.82 1352.82 1545 Q1354.38 1546.15 1359.09 1547.2 L1361.1 1547.64 Q1367.34 1548.98 1369.95 1551.43 Q1372.59 1553.85 1372.59 1558.21 Q1372.59 1563.17 1368.64 1566.07 Q1364.73 1568.97 1357.85 1568.97 Q1354.99 1568.97 1351.87 1568.39 Q1348.78 1567.85 1345.34 1566.74 L1345.34 1560.69 Q1348.59 1562.38 1351.74 1563.24 Q1354.89 1564.07 1357.98 1564.07 Q1362.12 1564.07 1364.34 1562.66 Q1366.57 1561.23 1366.57 1558.65 Q1366.57 1556.27 1364.95 1554.99 Q1363.36 1553.72 1357.92 1552.54 L1355.88 1552.07 Q1350.44 1550.92 1348.02 1548.56 Q1345.6 1546.18 1345.6 1542.04 Q1345.6 1537.01 1349.16 1534.27 Q1352.73 1531.54 1359.28 1531.54 Q1362.53 1531.54 1365.39 1532.01 Q1368.26 1532.49 1370.68 1533.45 Z" fill="#000000" fill-rule="nonzero" fill-opacity="1" /><path clip-path="url(#clip010)" d="M1395.73 1536.5 Q1391.02 1536.5 1388.28 1540.19 Q1385.54 1543.85 1385.54 1550.25 Q1385.54 1556.65 1388.25 1560.34 Q1390.99 1564 1395.73 1564 Q1400.41 1564 1403.14 1560.31 Q1405.88 1556.62 1405.88 1550.25 Q1405.88 1543.92 1403.14 1540.23 Q1400.41 1536.5 1395.73 1536.5 M1395.73 1531.54 Q1403.37 1531.54 1407.73 1536.5 Q1412.09 1541.47 1412.09 1550.25 Q1412.09 1559 1407.73 1564 Q1403.37 1568.97 1395.73 1568.97 Q1388.06 1568.97 1383.7 1564 Q1379.37 1559 1379.37 1550.25 Q1379.37 1541.47 1383.7 1536.5 Q1388.06 1531.54 1395.73 1531.54 Z" fill="#000000" fill-rule="nonzero" fill-opacity="1" /><path clip-path="url(#clip010)" d="M1442.45 1537.87 Q1441.47 1537.3 1440.29 1537.04 Q1439.14 1536.76 1437.74 1536.76 Q1432.78 1536.76 1430.1 1540 Q1427.46 1543.22 1427.46 1549.27 L1427.46 1568.04 L1421.57 1568.04 L1421.57 1532.4 L1427.46 1532.4 L1427.46 1537.93 Q1429.31 1534.69 1432.27 1533.13 Q1435.23 1531.54 1439.46 1531.54 Q1440.06 1531.54 1440.8 1531.63 Q1441.53 1531.7 1442.42 1531.85 L1442.45 1537.87 Z" fill="#000000" fill-rule="nonzero" fill-opacity="1" /><path clip-path="url(#clip010)" d="M1471.32 1533.45 L1471.32 1538.98 Q1468.84 1537.71 1466.16 1537.07 Q1463.49 1536.44 1460.63 1536.44 Q1456.27 1536.44 1454.07 1537.77 Q1451.9 1539.11 1451.9 1541.79 Q1451.9 1543.82 1453.46 1545 Q1455.02 1546.15 1459.73 1547.2 L1461.74 1547.64 Q1467.98 1548.98 1470.59 1551.43 Q1473.23 1553.85 1473.23 1558.21 Q1473.23 1563.17 1469.28 1566.07 Q1465.37 1568.97 1458.49 1568.97 Q1455.63 1568.97 1452.51 1568.39 Q1449.42 1567.85 1445.98 1566.74 L1445.98 1560.69 Q1449.23 1562.38 1452.38 1563.24 Q1455.53 1564.07 1458.62 1564.07 Q1462.76 1564.07 1464.99 1562.66 Q1467.21 1561.23 1467.21 1558.65 Q1467.21 1556.27 1465.59 1554.99 Q1464 1553.72 1458.56 1552.54 L1456.52 1552.07 Q1451.08 1550.92 1448.66 1548.56 Q1446.24 1546.18 1446.24 1542.04 Q1446.24 1537.01 1449.8 1534.27 Q1453.37 1531.54 1459.93 1531.54 Q1463.17 1531.54 1466.04 1532.01 Q1468.9 1532.49 1471.32 1533.45 Z" fill="#000000" fill-rule="nonzero" fill-opacity="1" /><polyline clip-path="url(#clip010)" style="stroke:#000000; stroke-linecap:round; stroke-linejoin:round; stroke-width:4; stroke-opacity:1; fill:none" points="175.445,1423.18 175.445,47.2441 "/>
<polyline clip-path="url(#clip010)" style="stroke:#000000; stroke-linecap:round; stroke-linejoin:round; stroke-width:4; stroke-opacity:1; fill:none" points="2352.76,1423.18 2352.76,47.2441 "/>
<polyline clip-path="url(#clip010)" style="stroke:#000000; stroke-linecap:round; stroke-linejoin:round; stroke-width:4; stroke-opacity:1; fill:none" points="175.445,1423.18 194.343,1423.18 "/>
<polyline clip-path="url(#clip010)" style="stroke:#000000; stroke-linecap:round; stroke-linejoin:round; stroke-width:4; stroke-opacity:1; fill:none" points="175.445,1147.99 194.343,1147.99 "/>
<polyline clip-path="url(#clip010)" style="stroke:#000000; stroke-linecap:round; stroke-linejoin:round; stroke-width:4; stroke-opacity:1; fill:none" points="175.445,872.806 194.343,872.806 "/>
<polyline clip-path="url(#clip010)" style="stroke:#000000; stroke-linecap:round; stroke-linejoin:round; stroke-width:4; stroke-opacity:1; fill:none" points="175.445,597.618 194.343,597.618 "/>
<polyline clip-path="url(#clip010)" style="stroke:#000000; stroke-linecap:round; stroke-linejoin:round; stroke-width:4; stroke-opacity:1; fill:none" points="175.445,322.431 194.343,322.431 "/>
<polyline clip-path="url(#clip010)" style="stroke:#000000; stroke-linecap:round; stroke-linejoin:round; stroke-width:4; stroke-opacity:1; fill:none" points="175.445,47.2441 194.343,47.2441 "/>
<polyline clip-path="url(#clip010)" style="stroke:#000000; stroke-linecap:round; stroke-linejoin:round; stroke-width:4; stroke-opacity:1; fill:none" points="2352.76,1423.18 2333.86,1423.18 "/>
<polyline clip-path="url(#clip010)" style="stroke:#000000; stroke-linecap:round; stroke-linejoin:round; stroke-width:4; stroke-opacity:1; fill:none" points="2352.76,1147.99 2333.86,1147.99 "/>
<polyline clip-path="url(#clip010)" style="stroke:#000000; stroke-linecap:round; stroke-linejoin:round; stroke-width:4; stroke-opacity:1; fill:none" points="2352.76,872.806 2333.86,872.806 "/>
<polyline clip-path="url(#clip010)" style="stroke:#000000; stroke-linecap:round; stroke-linejoin:round; stroke-width:4; stroke-opacity:1; fill:none" points="2352.76,597.618 2333.86,597.618 "/>
<polyline clip-path="url(#clip010)" style="stroke:#000000; stroke-linecap:round; stroke-linejoin:round; stroke-width:4; stroke-opacity:1; fill:none" points="2352.76,322.431 2333.86,322.431 "/>
<polyline clip-path="url(#clip010)" style="stroke:#000000; stroke-linecap:round; stroke-linejoin:round; stroke-width:4; stroke-opacity:1; fill:none" points="2352.76,47.2441 2333.86,47.2441 "/>
<path clip-path="url(#clip010)" d="M119.538 1436.52 L127.177 1436.52 L127.177 1410.16 L118.867 1411.83 L118.867 1407.57 L127.13 1405.9 L131.806 1405.9 L131.806 1436.52 L139.445 1436.52 L139.445 1440.46 L119.538 1440.46 L119.538 1436.52 Z" fill="#000000" fill-rule="nonzero" fill-opacity="1" /><path clip-path="url(#clip010)" d="M123.126 1161.34 L139.445 1161.34 L139.445 1165.27 L117.501 1165.27 L117.501 1161.34 Q120.163 1158.58 124.746 1153.95 Q129.353 1149.3 130.533 1147.96 Q132.779 1145.43 133.658 1143.7 Q134.561 1141.94 134.561 1140.25 Q134.561 1137.5 132.617 1135.76 Q130.695 1134.02 127.593 1134.02 Q125.394 1134.02 122.941 1134.79 Q120.51 1135.55 117.732 1137.1 L117.732 1132.38 Q120.556 1131.25 123.01 1130.67 Q125.464 1130.09 127.501 1130.09 Q132.871 1130.09 136.066 1132.77 Q139.26 1135.46 139.26 1139.95 Q139.26 1142.08 138.45 1144 Q137.663 1145.9 135.556 1148.49 Q134.978 1149.16 131.876 1152.38 Q128.774 1155.57 123.126 1161.34 Z" fill="#000000" fill-rule="nonzero" fill-opacity="1" /><path clip-path="url(#clip010)" d="M132.316 871.451 Q135.672 872.169 137.547 874.437 Q139.445 876.706 139.445 880.039 Q139.445 885.155 135.927 887.956 Q132.408 890.757 125.927 890.757 Q123.751 890.757 121.436 890.317 Q119.144 889.9 116.691 889.044 L116.691 884.53 Q118.635 885.664 120.95 886.243 Q123.265 886.822 125.788 886.822 Q130.186 886.822 132.478 885.086 Q134.792 883.349 134.792 880.039 Q134.792 876.984 132.64 875.271 Q130.51 873.535 126.691 873.535 L122.663 873.535 L122.663 869.692 L126.876 869.692 Q130.325 869.692 132.154 868.326 Q133.982 866.938 133.982 864.345 Q133.982 861.683 132.084 860.271 Q130.209 858.836 126.691 858.836 Q124.769 858.836 122.57 859.252 Q120.371 859.669 117.732 860.549 L117.732 856.382 Q120.394 855.641 122.709 855.271 Q125.047 854.901 127.107 854.901 Q132.431 854.901 135.533 857.331 Q138.635 859.738 138.635 863.859 Q138.635 866.729 136.992 868.72 Q135.348 870.687 132.316 871.451 Z" fill="#000000" fill-rule="nonzero" fill-opacity="1" /><path clip-path="url(#clip010)" d="M129.862 584.412 L118.056 602.861 L129.862 602.861 L129.862 584.412 M128.635 580.338 L134.515 580.338 L134.515 602.861 L139.445 602.861 L139.445 606.75 L134.515 606.75 L134.515 614.898 L129.862 614.898 L129.862 606.75 L114.26 606.75 L114.26 602.236 L128.635 580.338 Z" fill="#000000" fill-rule="nonzero" fill-opacity="1" /><path clip-path="url(#clip010)" d="M118.543 305.151 L136.899 305.151 L136.899 309.086 L122.825 309.086 L122.825 317.559 Q123.843 317.211 124.862 317.049 Q125.88 316.864 126.899 316.864 Q132.686 316.864 136.066 320.035 Q139.445 323.207 139.445 328.623 Q139.445 334.202 135.973 337.304 Q132.501 340.383 126.181 340.383 Q124.005 340.383 121.737 340.012 Q119.492 339.642 117.084 338.901 L117.084 334.202 Q119.168 335.336 121.39 335.892 Q123.612 336.447 126.089 336.447 Q130.093 336.447 132.431 334.341 Q134.769 332.234 134.769 328.623 Q134.769 325.012 132.431 322.906 Q130.093 320.799 126.089 320.799 Q124.214 320.799 122.339 321.216 Q120.487 321.633 118.543 322.512 L118.543 305.151 Z" fill="#000000" fill-rule="nonzero" fill-opacity="1" /><path clip-path="url(#clip010)" d="M127.917 45.3807 Q124.769 45.3807 122.918 47.5334 Q121.089 49.6862 121.089 53.4362 Q121.089 57.163 122.918 59.3389 Q124.769 61.4917 127.917 61.4917 Q131.066 61.4917 132.894 59.3389 Q134.746 57.163 134.746 53.4362 Q134.746 49.6862 132.894 47.5334 Q131.066 45.3807 127.917 45.3807 M137.2 30.728 L137.2 34.9872 Q135.441 34.1539 133.635 33.7141 Q131.853 33.2743 130.093 33.2743 Q125.464 33.2743 123.01 36.3992 Q120.58 39.5242 120.232 45.8436 Q121.598 43.8298 123.658 42.765 Q125.718 41.677 128.195 41.677 Q133.404 41.677 136.413 44.8483 Q139.445 47.9964 139.445 53.4362 Q139.445 58.7602 136.297 61.9778 Q133.149 65.1954 127.917 65.1954 Q121.922 65.1954 118.751 60.6121 Q115.58 56.0056 115.58 47.2788 Q115.58 39.0844 119.468 34.2233 Q123.357 29.3391 129.908 29.3391 Q131.667 29.3391 133.45 29.6863 Q135.255 30.0335 137.2 30.728 Z" fill="#000000" fill-rule="nonzero" fill-opacity="1" /><path clip-path="url(#clip010)" d="M21.7677 966.064 L39.6235 966.064 L39.6235 957.98 Q39.6235 953.492 37.3 951.041 Q34.9765 948.59 30.6797 948.59 Q26.4147 948.59 24.0912 951.041 Q21.7677 953.492 21.7677 957.98 L21.7677 966.064 M16.4842 972.494 L16.4842 957.98 Q16.4842 949.991 20.1126 945.917 Q23.7092 941.811 30.6797 941.811 Q37.7138 941.811 41.3104 945.917 Q44.907 949.991 44.907 957.98 L44.907 966.064 L64.0042 966.064 L64.0042 972.494 L16.4842 972.494 Z" fill="#000000" fill-rule="nonzero" fill-opacity="1" /><path clip-path="url(#clip010)" d="M46.0847 920.168 Q46.0847 927.265 47.7079 930.003 Q49.3312 932.74 53.2461 932.74 Q56.3653 932.74 58.2114 930.703 Q60.0256 928.634 60.0256 925.101 Q60.0256 920.231 56.5881 917.303 Q53.1188 914.343 47.3897 914.343 L46.0847 914.343 L46.0847 920.168 M43.6657 908.487 L64.0042 908.487 L64.0042 914.343 L58.5933 914.343 Q61.8398 916.348 63.3994 919.34 Q64.9272 922.332 64.9272 926.661 Q64.9272 932.135 61.8716 935.382 Q58.7843 938.596 53.6281 938.596 Q47.6125 938.596 44.5569 934.586 Q41.5014 930.544 41.5014 922.555 L41.5014 914.343 L40.9285 914.343 Q36.8862 914.343 34.6901 917.017 Q32.4621 919.658 32.4621 924.464 Q32.4621 927.52 33.1941 930.416 Q33.9262 933.313 35.3903 935.986 L29.9795 935.986 Q28.7381 932.772 28.1334 929.748 Q27.4968 926.724 27.4968 923.86 Q27.4968 916.125 31.5072 912.306 Q35.5176 908.487 43.6657 908.487 Z" fill="#000000" fill-rule="nonzero" fill-opacity="1" /><path clip-path="url(#clip010)" d="M33.8307 875.767 Q33.2578 876.753 33.0032 877.931 Q32.7167 879.077 32.7167 880.477 Q32.7167 885.443 35.9632 888.116 Q39.1779 890.758 45.2253 890.758 L64.0042 890.758 L64.0042 896.646 L28.3562 896.646 L28.3562 890.758 L33.8944 890.758 Q30.6479 888.912 29.0883 885.952 Q27.4968 882.992 27.4968 878.759 Q27.4968 878.154 27.5923 877.422 Q27.656 876.69 27.8151 875.799 L33.8307 875.767 Z" fill="#000000" fill-rule="nonzero" fill-opacity="1" /><path clip-path="url(#clip010)" d="M46.0847 853.423 Q46.0847 860.521 47.7079 863.258 Q49.3312 865.995 53.2461 865.995 Q56.3653 865.995 58.2114 863.958 Q60.0256 861.89 60.0256 858.357 Q60.0256 853.487 56.5881 850.559 Q53.1188 847.599 47.3897 847.599 L46.0847 847.599 L46.0847 853.423 M43.6657 841.742 L64.0042 841.742 L64.0042 847.599 L58.5933 847.599 Q61.8398 849.604 63.3994 852.596 Q64.9272 855.587 64.9272 859.916 Q64.9272 865.391 61.8716 868.637 Q58.7843 871.852 53.6281 871.852 Q47.6125 871.852 44.5569 867.841 Q41.5014 863.799 41.5014 855.81 L41.5014 847.599 L40.9285 847.599 Q36.8862 847.599 34.6901 850.272 Q32.4621 852.914 32.4621 857.72 Q32.4621 860.776 33.1941 863.672 Q33.9262 866.568 35.3903 869.242 L29.9795 869.242 Q28.7381 866.027 28.1334 863.004 Q27.4968 859.98 27.4968 857.115 Q27.4968 849.381 31.5072 845.561 Q35.5176 841.742 43.6657 841.742 Z" fill="#000000" fill-rule="nonzero" fill-opacity="1" /><path clip-path="url(#clip010)" d="M14.479 829.679 L14.479 823.823 L64.0042 823.823 L64.0042 829.679 L14.479 829.679 Z" fill="#000000" fill-rule="nonzero" fill-opacity="1" /><path clip-path="url(#clip010)" d="M14.479 811.569 L14.479 805.712 L64.0042 805.712 L64.0042 811.569 L14.479 811.569 Z" fill="#000000" fill-rule="nonzero" fill-opacity="1" /><path clip-path="url(#clip010)" d="M44.7161 762.966 L47.5806 762.966 L47.5806 789.893 Q53.6281 789.511 56.8109 786.265 Q59.9619 782.987 59.9619 777.162 Q59.9619 773.788 59.1344 770.637 Q58.3069 767.454 56.6518 764.335 L62.1899 764.335 Q63.5267 767.486 64.227 770.796 Q64.9272 774.106 64.9272 777.512 Q64.9272 786.042 59.9619 791.039 Q54.9967 796.004 46.5303 796.004 Q37.7774 796.004 32.6531 791.294 Q27.4968 786.551 27.4968 778.531 Q27.4968 771.337 32.1438 767.168 Q36.7589 762.966 44.7161 762.966 M42.9973 768.823 Q38.1912 768.887 35.3266 771.528 Q32.4621 774.138 32.4621 778.467 Q32.4621 783.369 35.2312 786.329 Q38.0002 789.257 43.0292 789.702 L42.9973 768.823 Z" fill="#000000" fill-rule="nonzero" fill-opacity="1" /><path clip-path="url(#clip010)" d="M14.479 753.354 L14.479 747.498 L64.0042 747.498 L64.0042 753.354 L14.479 753.354 Z" fill="#000000" fill-rule="nonzero" fill-opacity="1" /><path clip-path="url(#clip010)" d="M29.4065 691.798 L34.9447 691.798 Q33.6716 694.28 33.035 696.954 Q32.3984 699.628 32.3984 702.492 Q32.3984 706.853 33.7352 709.049 Q35.072 711.213 37.7456 711.213 Q39.7826 711.213 40.9603 709.654 Q42.1061 708.094 43.1565 703.383 L43.6021 701.378 Q44.9389 695.14 47.3897 692.53 Q49.8086 689.888 54.1691 689.888 Q59.1344 689.888 62.0308 693.835 Q64.9272 697.75 64.9272 704.625 Q64.9272 707.489 64.3543 710.609 Q63.8132 713.696 62.6992 717.133 L56.6518 717.133 Q58.3387 713.887 59.198 710.736 Q60.0256 707.585 60.0256 704.497 Q60.0256 700.36 58.6251 698.132 Q57.1929 695.904 54.6147 695.904 Q52.2276 695.904 50.9545 697.527 Q49.6813 699.118 48.5037 704.561 L48.0262 706.598 Q46.8804 712.041 44.5251 714.46 Q42.138 716.879 38.0002 716.879 Q32.9713 716.879 30.2341 713.314 Q27.4968 709.749 27.4968 703.192 Q27.4968 699.946 27.9743 697.081 Q28.4517 694.217 29.4065 691.798 Z" fill="#000000" fill-rule="nonzero" fill-opacity="1" /><path clip-path="url(#clip010)" d="M29.7248 654.909 L35.1993 654.909 Q33.8307 657.391 33.1623 659.906 Q32.4621 662.388 32.4621 664.935 Q32.4621 670.632 36.0905 673.783 Q39.6872 676.934 46.212 676.934 Q52.7369 676.934 56.3653 673.783 Q59.9619 670.632 59.9619 664.935 Q59.9619 662.388 59.2935 659.906 Q58.5933 657.391 57.2247 654.909 L62.6355 654.909 Q63.7814 657.359 64.3543 660.001 Q64.9272 662.611 64.9272 665.571 Q64.9272 673.624 59.8664 678.366 Q54.8057 683.109 46.212 683.109 Q37.491 683.109 32.4939 678.334 Q27.4968 673.528 27.4968 665.189 Q27.4968 662.484 28.0697 659.906 Q28.6108 657.328 29.7248 654.909 Z" fill="#000000" fill-rule="nonzero" fill-opacity="1" /><path clip-path="url(#clip010)" d="M46.0847 628.523 Q46.0847 635.62 47.7079 638.358 Q49.3312 641.095 53.2461 641.095 Q56.3653 641.095 58.2114 639.058 Q60.0256 636.989 60.0256 633.456 Q60.0256 628.586 56.5881 625.658 Q53.1188 622.698 47.3897 622.698 L46.0847 622.698 L46.0847 628.523 M43.6657 616.842 L64.0042 616.842 L64.0042 622.698 L58.5933 622.698 Q61.8398 624.703 63.3994 627.695 Q64.9272 630.687 64.9272 635.016 Q64.9272 640.49 61.8716 643.737 Q58.7843 646.951 53.6281 646.951 Q47.6125 646.951 44.5569 642.941 Q41.5014 638.899 41.5014 630.91 L41.5014 622.698 L40.9285 622.698 Q36.8862 622.698 34.6901 625.372 Q32.4621 628.013 32.4621 632.82 Q32.4621 635.875 33.1941 638.772 Q33.9262 641.668 35.3903 644.342 L29.9795 644.342 Q28.7381 641.127 28.1334 638.103 Q27.4968 635.079 27.4968 632.215 Q27.4968 624.481 31.5072 620.661 Q35.5176 616.842 43.6657 616.842 Z" fill="#000000" fill-rule="nonzero" fill-opacity="1" /><path clip-path="url(#clip010)" d="M14.479 604.779 L14.479 598.922 L64.0042 598.922 L64.0042 604.779 L14.479 604.779 Z" fill="#000000" fill-rule="nonzero" fill-opacity="1" /><path clip-path="url(#clip010)" d="M28.3562 586.668 L28.3562 580.812 L64.0042 580.812 L64.0042 586.668 L28.3562 586.668 M14.479 586.668 L14.479 580.812 L21.895 580.812 L21.895 586.668 L14.479 586.668 Z" fill="#000000" fill-rule="nonzero" fill-opacity="1" /><path clip-path="url(#clip010)" d="M42.4881 538.925 L64.0042 538.925 L64.0042 544.782 L42.679 544.782 Q37.6183 544.782 35.1038 546.755 Q32.5894 548.729 32.5894 552.675 Q32.5894 557.418 35.6131 560.155 Q38.6368 562.892 43.8567 562.892 L64.0042 562.892 L64.0042 568.781 L28.3562 568.781 L28.3562 562.892 L33.8944 562.892 Q30.6797 560.792 29.0883 557.959 Q27.4968 555.094 27.4968 551.37 Q27.4968 545.227 31.3163 542.076 Q35.1038 538.925 42.4881 538.925 Z" fill="#000000" fill-rule="nonzero" fill-opacity="1" /><path clip-path="url(#clip010)" d="M45.7664 503.787 Q39.4007 503.787 35.8996 506.428 Q32.3984 509.038 32.3984 513.781 Q32.3984 518.491 35.8996 521.133 Q39.4007 523.743 45.7664 523.743 Q52.1003 523.743 55.6014 521.133 Q59.1026 518.491 59.1026 513.781 Q59.1026 509.038 55.6014 506.428 Q52.1003 503.787 45.7664 503.787 M59.58 497.93 Q68.683 497.93 73.1071 501.972 Q77.5631 506.015 77.5631 514.354 Q77.5631 517.441 77.0857 520.178 Q76.6401 522.916 75.6852 525.494 L69.9879 525.494 Q71.3884 522.916 72.0568 520.401 Q72.7252 517.887 72.7252 515.277 Q72.7252 509.516 69.7015 506.651 Q66.7096 503.787 60.6303 503.787 L57.7339 503.787 Q60.885 505.601 62.4446 508.434 Q64.0042 511.266 64.0042 515.213 Q64.0042 521.77 59.0071 525.78 Q54.01 529.791 45.7664 529.791 Q37.491 529.791 32.4939 525.78 Q27.4968 521.77 27.4968 515.213 Q27.4968 511.266 29.0564 508.434 Q30.616 505.601 33.7671 503.787 L28.3562 503.787 L28.3562 497.93 L59.58 497.93 Z" fill="#000000" fill-rule="nonzero" fill-opacity="1" /><polyline clip-path="url(#clip012)" style="stroke:#009af9; stroke-linecap:round; stroke-linejoin:round; stroke-width:8; stroke-opacity:1; fill:none" points="237.067,1423.18 530.505,1227.88 1117.38,686.592 1704.26,519.926 2291.13,325.33 "/>
<circle clip-path="url(#clip012)" cx="237.067" cy="1423.18" r="10.8" fill="#009af9" fill-rule="evenodd" fill-opacity="1" stroke="#000000" stroke-opacity="1" stroke-width="3.2"/>
<circle clip-path="url(#clip012)" cx="530.505" cy="1227.88" r="10.8" fill="#009af9" fill-rule="evenodd" fill-opacity="1" stroke="#000000" stroke-opacity="1" stroke-width="3.2"/>
<circle clip-path="url(#clip012)" cx="1117.38" cy="686.592" r="10.8" fill="#009af9" fill-rule="evenodd" fill-opacity="1" stroke="#000000" stroke-opacity="1" stroke-width="3.2"/>
<circle clip-path="url(#clip012)" cx="1704.26" cy="519.926" r="10.8" fill="#009af9" fill-rule="evenodd" fill-opacity="1" stroke="#000000" stroke-opacity="1" stroke-width="3.2"/>
<circle clip-path="url(#clip012)" cx="2291.13" cy="325.33" r="10.8" fill="#009af9" fill-rule="evenodd" fill-opacity="1" stroke="#000000" stroke-opacity="1" stroke-width="3.2"/>
<polyline clip-path="url(#clip012)" style="stroke:#e26f46; stroke-linecap:round; stroke-linejoin:round; stroke-width:8; stroke-opacity:1; fill:none" points="237.067,1423.18 530.505,1239.25 1117.38,899.604 1704.26,807.024 2291.13,747.307 "/>
<circle clip-path="url(#clip012)" cx="237.067" cy="1423.18" r="10.8" fill="#e26f46" fill-rule="evenodd" fill-opacity="1" stroke="#000000" stroke-opacity="1" stroke-width="3.2"/>
<circle clip-path="url(#clip012)" cx="530.505" cy="1239.25" r="10.8" fill="#e26f46" fill-rule="evenodd" fill-opacity="1" stroke="#000000" stroke-opacity="1" stroke-width="3.2"/>
<circle clip-path="url(#clip012)" cx="1117.38" cy="899.604" r="10.8" fill="#e26f46" fill-rule="evenodd" fill-opacity="1" stroke="#000000" stroke-opacity="1" stroke-width="3.2"/>
<circle clip-path="url(#clip012)" cx="1704.26" cy="807.024" r="10.8" fill="#e26f46" fill-rule="evenodd" fill-opacity="1" stroke="#000000" stroke-opacity="1" stroke-width="3.2"/>
<circle clip-path="url(#clip012)" cx="2291.13" cy="747.307" r="10.8" fill="#e26f46" fill-rule="evenodd" fill-opacity="1" stroke="#000000" stroke-opacity="1" stroke-width="3.2"/>
<polyline clip-path="url(#clip012)" style="stroke:#3da44d; stroke-linecap:round; stroke-linejoin:round; stroke-width:8; stroke-opacity:1; fill:none" points="237.067,1423.18 530.505,1269.7 1117.38,1087.29 1704.26,986.129 2291.13,941.53 "/>
<circle clip-path="url(#clip012)" cx="237.067" cy="1423.18" r="10.8" fill="#3da44d" fill-rule="evenodd" fill-opacity="1" stroke="#000000" stroke-opacity="1" stroke-width="3.2"/>
<circle clip-path="url(#clip012)" cx="530.505" cy="1269.7" r="10.8" fill="#3da44d" fill-rule="evenodd" fill-opacity="1" stroke="#000000" stroke-opacity="1" stroke-width="3.2"/>
<circle clip-path="url(#clip012)" cx="1117.38" cy="1087.29" r="10.8" fill="#3da44d" fill-rule="evenodd" fill-opacity="1" stroke="#000000" stroke-opacity="1" stroke-width="3.2"/>
<circle clip-path="url(#clip012)" cx="1704.26" cy="986.129" r="10.8" fill="#3da44d" fill-rule="evenodd" fill-opacity="1" stroke="#000000" stroke-opacity="1" stroke-width="3.2"/>
<circle clip-path="url(#clip012)" cx="2291.13" cy="941.53" r="10.8" fill="#3da44d" fill-rule="evenodd" fill-opacity="1" stroke="#000000" stroke-opacity="1" stroke-width="3.2"/>
<polyline clip-path="url(#clip012)" style="stroke:#c271d2; stroke-linecap:round; stroke-linejoin:round; stroke-width:8; stroke-opacity:1; fill:none" points="237.067,1423.18 530.505,1336.16 1117.38,1255.47 1704.26,1239.36 2291.13,1179.3 "/>
<circle clip-path="url(#clip012)" cx="237.067" cy="1423.18" r="10.8" fill="#c271d2" fill-rule="evenodd" fill-opacity="1" stroke="#000000" stroke-opacity="1" stroke-width="3.2"/>
<circle clip-path="url(#clip012)" cx="530.505" cy="1336.16" r="10.8" fill="#c271d2" fill-rule="evenodd" fill-opacity="1" stroke="#000000" stroke-opacity="1" stroke-width="3.2"/>
<circle clip-path="url(#clip012)" cx="1117.38" cy="1255.47" r="10.8" fill="#c271d2" fill-rule="evenodd" fill-opacity="1" stroke="#000000" stroke-opacity="1" stroke-width="3.2"/>
<circle clip-path="url(#clip012)" cx="1704.26" cy="1239.36" r="10.8" fill="#c271d2" fill-rule="evenodd" fill-opacity="1" stroke="#000000" stroke-opacity="1" stroke-width="3.2"/>
<circle clip-path="url(#clip012)" cx="2291.13" cy="1179.3" r="10.8" fill="#c271d2" fill-rule="evenodd" fill-opacity="1" stroke="#000000" stroke-opacity="1" stroke-width="3.2"/>
<polyline clip-path="url(#clip012)" style="stroke:#000000; stroke-linecap:round; stroke-linejoin:round; stroke-width:8; stroke-opacity:1; fill:none" points="237.067,1423.18 530.505,1147.99 823.943,872.806 1117.38,597.618 1410.82,322.431 1704.26,47.2441 1997.7,-227.943 2291.13,-503.13 "/>
<circle clip-path="url(#clip012)" cx="237.067" cy="1423.18" r="10.8" fill="#000000" fill-rule="evenodd" fill-opacity="1" stroke="none"/>
<circle clip-path="url(#clip012)" cx="530.505" cy="1147.99" r="10.8" fill="#000000" fill-rule="evenodd" fill-opacity="1" stroke="none"/>
<circle clip-path="url(#clip012)" cx="823.943" cy="872.806" r="10.8" fill="#000000" fill-rule="evenodd" fill-opacity="1" stroke="none"/>
<circle clip-path="url(#clip012)" cx="1117.38" cy="597.618" r="10.8" fill="#000000" fill-rule="evenodd" fill-opacity="1" stroke="none"/>
<circle clip-path="url(#clip012)" cx="1410.82" cy="322.431" r="10.8" fill="#000000" fill-rule="evenodd" fill-opacity="1" stroke="none"/>
<circle clip-path="url(#clip012)" cx="1704.26" cy="47.2441" r="10.8" fill="#000000" fill-rule="evenodd" fill-opacity="1" stroke="none"/>
<path clip-path="url(#clip010)" d="M248.022 404.149 L1343.48 404.149 L1343.48 93.1086 L248.022 93.1086  Z" fill="#000000" fill-rule="evenodd" fill-opacity="0"/>
<polyline clip-path="url(#clip010)" style="stroke:#000000; stroke-linecap:round; stroke-linejoin:round; stroke-width:4; stroke-opacity:0; fill:none" points="248.022,404.149 1343.48,404.149 1343.48,93.1086 248.022,93.1086 248.022,404.149 "/>
<polyline clip-path="url(#clip010)" style="stroke:#009af9; stroke-linecap:round; stroke-linejoin:round; stroke-width:8; stroke-opacity:1; fill:none" points="272.215,144.949 417.369,144.949 "/>
<circle clip-path="url(#clip010)" cx="344.792" cy="144.949" r="19.7486" fill="#009af9" fill-rule="evenodd" fill-opacity="1" stroke="#000000" stroke-opacity="1" stroke-width="5.85143"/>
<path clip-path="url(#clip010)" d="M457.579 130.84 Q452.487 130.84 449.478 134.636 Q446.491 138.432 446.491 144.983 Q446.491 151.511 449.478 155.307 Q452.487 159.104 457.579 159.104 Q462.672 159.104 465.635 155.307 Q468.621 151.511 468.621 144.983 Q468.621 138.432 465.635 134.636 Q462.672 130.84 457.579 130.84 M457.579 127.044 Q464.848 127.044 469.2 131.928 Q473.552 136.789 473.552 144.983 Q473.552 153.155 469.2 158.039 Q464.848 162.9 457.579 162.9 Q450.288 162.9 445.913 158.039 Q441.561 153.178 441.561 144.983 Q441.561 136.789 445.913 131.928 Q450.288 127.044 457.579 127.044 Z" fill="#000000" fill-rule="nonzero" fill-opacity="1" /><path clip-path="url(#clip010)" d="M484.801 158.34 L484.801 172.09 L480.519 172.09 L480.519 136.303 L484.801 136.303 L484.801 140.238 Q486.144 137.923 488.181 136.812 Q490.241 135.678 493.088 135.678 Q497.811 135.678 500.75 139.428 Q503.713 143.178 503.713 149.289 Q503.713 155.4 500.75 159.15 Q497.811 162.9 493.088 162.9 Q490.241 162.9 488.181 161.789 Q486.144 160.655 484.801 158.34 M499.292 149.289 Q499.292 144.59 497.348 141.928 Q495.426 139.243 492.047 139.243 Q488.667 139.243 486.723 141.928 Q484.801 144.59 484.801 149.289 Q484.801 153.988 486.723 156.673 Q488.667 159.335 492.047 159.335 Q495.426 159.335 497.348 156.673 Q499.292 153.988 499.292 149.289 Z" fill="#000000" fill-rule="nonzero" fill-opacity="1" /><path clip-path="url(#clip010)" d="M532.949 148.201 L532.949 150.284 L513.366 150.284 Q513.644 154.682 516.005 156.997 Q518.389 159.289 522.625 159.289 Q525.079 159.289 527.371 158.687 Q529.685 158.085 531.954 156.881 L531.954 160.909 Q529.662 161.881 527.255 162.391 Q524.848 162.9 522.371 162.9 Q516.167 162.9 512.533 159.289 Q508.922 155.678 508.922 149.52 Q508.922 143.155 512.348 139.428 Q515.797 135.678 521.63 135.678 Q526.861 135.678 529.894 139.057 Q532.949 142.414 532.949 148.201 M528.69 146.951 Q528.644 143.456 526.723 141.372 Q524.824 139.289 521.676 139.289 Q518.111 139.289 515.959 141.303 Q513.829 143.317 513.505 146.974 L528.69 146.951 Z" fill="#000000" fill-rule="nonzero" fill-opacity="1" /><path clip-path="url(#clip010)" d="M561.491 146.581 L561.491 162.229 L557.232 162.229 L557.232 146.719 Q557.232 143.039 555.796 141.21 Q554.361 139.382 551.491 139.382 Q548.042 139.382 546.051 141.581 Q544.06 143.78 544.06 147.576 L544.06 162.229 L539.778 162.229 L539.778 136.303 L544.06 136.303 L544.06 140.331 Q545.588 137.993 547.648 136.835 Q549.732 135.678 552.44 135.678 Q556.908 135.678 559.199 138.456 Q561.491 141.21 561.491 146.581 Z" fill="#000000" fill-rule="nonzero" fill-opacity="1" /><path clip-path="url(#clip010)" d="M570.171 127.669 L590.032 127.669 L590.032 131.604 L574.847 131.604 L574.847 141.789 L588.551 141.789 L588.551 145.724 L574.847 145.724 L574.847 162.229 L570.171 162.229 L570.171 127.669 Z" fill="#000000" fill-rule="nonzero" fill-opacity="1" /><path clip-path="url(#clip010)" d="M611.467 130.84 Q606.375 130.84 603.366 134.636 Q600.38 138.432 600.38 144.983 Q600.38 151.511 603.366 155.307 Q606.375 159.104 611.467 159.104 Q616.56 159.104 619.523 155.307 Q622.509 151.511 622.509 144.983 Q622.509 138.432 619.523 134.636 Q616.56 130.84 611.467 130.84 M611.467 127.044 Q618.736 127.044 623.088 131.928 Q627.44 136.789 627.44 144.983 Q627.44 153.155 623.088 158.039 Q618.736 162.9 611.467 162.9 Q604.176 162.9 599.801 158.039 Q595.449 153.178 595.449 144.983 Q595.449 136.789 599.801 131.928 Q604.176 127.044 611.467 127.044 Z" fill="#000000" fill-rule="nonzero" fill-opacity="1" /><path clip-path="url(#clip010)" d="M645.472 132.275 L639.129 149.474 L651.838 149.474 L645.472 132.275 M642.833 127.669 L648.134 127.669 L661.305 162.229 L656.444 162.229 L653.296 153.363 L637.717 153.363 L634.569 162.229 L629.639 162.229 L642.833 127.669 Z" fill="#000000" fill-rule="nonzero" fill-opacity="1" /><path clip-path="url(#clip010)" d="M666.351 127.669 L673.319 127.669 L682.138 151.187 L691.004 127.669 L697.972 127.669 L697.972 162.229 L693.411 162.229 L693.411 131.882 L684.499 155.585 L679.8 155.585 L670.888 131.882 L670.888 162.229 L666.351 162.229 L666.351 127.669 Z" fill="#000000" fill-rule="nonzero" fill-opacity="1" /><path clip-path="url(#clip010)" d="M719.985 147.344 L732.462 147.344 L732.462 151.141 L719.985 151.141 L719.985 147.344 Z" fill="#000000" fill-rule="nonzero" fill-opacity="1" /><path clip-path="url(#clip010)" d="M759.175 131.511 L759.175 144.497 L765.055 144.497 Q768.318 144.497 770.101 142.807 Q771.883 141.118 771.883 137.993 Q771.883 134.891 770.101 133.201 Q768.318 131.511 765.055 131.511 L759.175 131.511 M754.499 127.669 L765.055 127.669 Q770.865 127.669 773.828 130.307 Q776.814 132.923 776.814 137.993 Q776.814 143.108 773.828 145.724 Q770.865 148.34 765.055 148.34 L759.175 148.34 L759.175 162.229 L754.499 162.229 L754.499 127.669 Z" fill="#000000" fill-rule="nonzero" fill-opacity="1" /><path clip-path="url(#clip010)" d="M806.652 157.298 L806.652 148.016 L799.013 148.016 L799.013 144.173 L811.281 144.173 L811.281 159.011 Q808.573 160.932 805.309 161.928 Q802.045 162.9 798.341 162.9 Q790.24 162.9 785.656 158.178 Q781.096 153.432 781.096 144.983 Q781.096 136.511 785.656 131.789 Q790.24 127.044 798.341 127.044 Q801.721 127.044 804.753 127.877 Q807.809 128.71 810.378 130.331 L810.378 135.307 Q807.786 133.108 804.869 131.997 Q801.953 130.886 798.735 130.886 Q792.392 130.886 789.198 134.428 Q786.027 137.969 786.027 144.983 Q786.027 151.974 789.198 155.516 Q792.392 159.057 798.735 159.057 Q801.212 159.057 803.156 158.641 Q805.101 158.201 806.652 157.298 Z" fill="#000000" fill-rule="nonzero" fill-opacity="1" /><path clip-path="url(#clip010)" d="M845.702 130.331 L845.702 135.261 Q843.341 133.062 840.656 131.974 Q837.994 130.886 834.985 130.886 Q829.059 130.886 825.911 134.52 Q822.763 138.132 822.763 144.983 Q822.763 151.812 825.911 155.446 Q829.059 159.057 834.985 159.057 Q837.994 159.057 840.656 157.969 Q843.341 156.881 845.702 154.682 L845.702 159.567 Q843.249 161.233 840.494 162.067 Q837.763 162.9 834.707 162.9 Q826.86 162.9 822.346 158.108 Q817.832 153.293 817.832 144.983 Q817.832 136.65 822.346 131.858 Q826.86 127.044 834.707 127.044 Q837.809 127.044 840.54 127.877 Q843.295 128.687 845.702 130.331 Z" fill="#000000" fill-rule="nonzero" fill-opacity="1" /><path clip-path="url(#clip010)" d="M872.67 145.724 L872.67 158.386 L880.17 158.386 Q883.943 158.386 885.748 156.835 Q887.577 155.261 887.577 152.043 Q887.577 148.803 885.748 147.275 Q883.943 145.724 880.17 145.724 L872.67 145.724 M872.67 131.511 L872.67 141.928 L879.591 141.928 Q883.017 141.928 884.684 140.655 Q886.373 139.358 886.373 136.719 Q886.373 134.104 884.684 132.807 Q883.017 131.511 879.591 131.511 L872.67 131.511 M867.994 127.669 L879.938 127.669 Q885.285 127.669 888.179 129.891 Q891.072 132.113 891.072 136.21 Q891.072 139.382 889.591 141.257 Q888.109 143.131 885.239 143.594 Q888.688 144.335 890.586 146.696 Q892.508 149.034 892.508 152.553 Q892.508 157.182 889.359 159.705 Q886.211 162.229 880.401 162.229 L867.994 162.229 L867.994 127.669 Z" fill="#000000" fill-rule="nonzero" fill-opacity="1" /><path clip-path="url(#clip010)" d="M900.332 136.303 L904.591 136.303 L904.591 162.229 L900.332 162.229 L900.332 136.303 M900.332 126.21 L904.591 126.21 L904.591 131.604 L900.332 131.604 L900.332 126.21 Z" fill="#000000" fill-rule="nonzero" fill-opacity="1" /><path clip-path="url(#clip010)" d="M932.16 137.298 L932.16 141.28 Q930.355 140.284 928.526 139.798 Q926.72 139.289 924.869 139.289 Q920.725 139.289 918.433 141.928 Q916.142 144.544 916.142 149.289 Q916.142 154.034 918.433 156.673 Q920.725 159.289 924.869 159.289 Q926.72 159.289 928.526 158.803 Q930.355 158.293 932.16 157.298 L932.16 161.233 Q930.378 162.067 928.456 162.483 Q926.558 162.9 924.406 162.9 Q918.549 162.9 915.1 159.219 Q911.651 155.539 911.651 149.289 Q911.651 142.946 915.123 139.312 Q918.619 135.678 924.683 135.678 Q926.651 135.678 928.526 136.095 Q930.401 136.488 932.16 137.298 Z" fill="#000000" fill-rule="nonzero" fill-opacity="1" /><path clip-path="url(#clip010)" d="M956.628 148.965 Q956.628 144.335 954.706 141.789 Q952.808 139.243 949.359 139.243 Q945.933 139.243 944.012 141.789 Q942.114 144.335 942.114 148.965 Q942.114 153.571 944.012 156.118 Q945.933 158.664 949.359 158.664 Q952.808 158.664 954.706 156.118 Q956.628 153.571 956.628 148.965 M960.887 159.011 Q960.887 165.631 957.947 168.849 Q955.007 172.09 948.943 172.09 Q946.697 172.09 944.706 171.742 Q942.716 171.418 940.841 170.724 L940.841 166.58 Q942.716 167.599 944.544 168.085 Q946.373 168.571 948.271 168.571 Q952.461 168.571 954.544 166.372 Q956.628 164.196 956.628 159.775 L956.628 157.668 Q955.308 159.96 953.248 161.094 Q951.188 162.229 948.318 162.229 Q943.549 162.229 940.632 158.594 Q937.716 154.96 937.716 148.965 Q937.716 142.946 940.632 139.312 Q943.549 135.678 948.318 135.678 Q951.188 135.678 953.248 136.812 Q955.308 137.946 956.628 140.238 L956.628 136.303 L960.887 136.303 L960.887 159.011 Z" fill="#000000" fill-rule="nonzero" fill-opacity="1" /><path clip-path="url(#clip010)" d="M986.188 137.067 L986.188 141.094 Q984.382 140.169 982.438 139.706 Q980.493 139.243 978.41 139.243 Q975.239 139.243 973.641 140.215 Q972.067 141.187 972.067 143.131 Q972.067 144.613 973.202 145.469 Q974.336 146.303 977.762 147.067 L979.22 147.391 Q983.757 148.363 985.655 150.145 Q987.577 151.905 987.577 155.076 Q987.577 158.687 984.706 160.793 Q981.859 162.9 976.859 162.9 Q974.776 162.9 972.507 162.483 Q970.262 162.09 967.762 161.28 L967.762 156.881 Q970.123 158.108 972.415 158.733 Q974.706 159.335 976.952 159.335 Q979.961 159.335 981.581 158.317 Q983.202 157.275 983.202 155.4 Q983.202 153.664 982.021 152.738 Q980.864 151.812 976.905 150.956 L975.424 150.608 Q971.466 149.775 969.706 148.062 Q967.947 146.326 967.947 143.317 Q967.947 139.659 970.54 137.669 Q973.132 135.678 977.901 135.678 Q980.262 135.678 982.345 136.025 Q984.428 136.372 986.188 137.067 Z" fill="#000000" fill-rule="nonzero" fill-opacity="1" /><path clip-path="url(#clip010)" d="M998.572 128.942 L998.572 136.303 L1007.34 136.303 L1007.34 139.613 L998.572 139.613 L998.572 153.687 Q998.572 156.858 999.428 157.761 Q1000.31 158.664 1002.97 158.664 L1007.34 158.664 L1007.34 162.229 L1002.97 162.229 Q998.039 162.229 996.164 160.4 Q994.289 158.548 994.289 153.687 L994.289 139.613 L991.164 139.613 L991.164 136.303 L994.289 136.303 L994.289 128.942 L998.572 128.942 Z" fill="#000000" fill-rule="nonzero" fill-opacity="1" /><path clip-path="url(#clip010)" d="M1024.73 149.196 Q1019.57 149.196 1017.58 150.377 Q1015.59 151.557 1015.59 154.405 Q1015.59 156.673 1017.07 158.016 Q1018.57 159.335 1021.14 159.335 Q1024.68 159.335 1026.81 156.835 Q1028.97 154.312 1028.97 150.145 L1028.97 149.196 L1024.73 149.196 M1033.22 147.437 L1033.22 162.229 L1028.97 162.229 L1028.97 158.293 Q1027.51 160.655 1025.33 161.789 Q1023.16 162.9 1020.01 162.9 Q1016.03 162.9 1013.66 160.678 Q1011.33 158.432 1011.33 154.682 Q1011.33 150.307 1014.24 148.085 Q1017.18 145.863 1022.99 145.863 L1028.97 145.863 L1028.97 145.446 Q1028.97 142.507 1027.02 140.909 Q1025.1 139.289 1021.6 139.289 Q1019.38 139.289 1017.28 139.821 Q1015.17 140.354 1013.22 141.419 L1013.22 137.483 Q1015.56 136.581 1017.76 136.141 Q1019.96 135.678 1022.04 135.678 Q1027.67 135.678 1030.45 138.594 Q1033.22 141.511 1033.22 147.437 Z" fill="#000000" fill-rule="nonzero" fill-opacity="1" /><path clip-path="url(#clip010)" d="M1060.61 149.289 Q1060.61 144.59 1058.66 141.928 Q1056.74 139.243 1053.36 139.243 Q1049.98 139.243 1048.04 141.928 Q1046.12 144.59 1046.12 149.289 Q1046.12 153.988 1048.04 156.673 Q1049.98 159.335 1053.36 159.335 Q1056.74 159.335 1058.66 156.673 Q1060.61 153.988 1060.61 149.289 M1046.12 140.238 Q1047.46 137.923 1049.5 136.812 Q1051.56 135.678 1054.4 135.678 Q1059.13 135.678 1062.07 139.428 Q1065.03 143.178 1065.03 149.289 Q1065.03 155.4 1062.07 159.15 Q1059.13 162.9 1054.4 162.9 Q1051.56 162.9 1049.5 161.789 Q1047.46 160.655 1046.12 158.34 L1046.12 162.229 L1041.84 162.229 L1041.84 126.21 L1046.12 126.21 L1046.12 140.238 Z" fill="#000000" fill-rule="nonzero" fill-opacity="1" /><path clip-path="url(#clip010)" d="M1097.39 126.257 Q1094.29 131.581 1092.78 136.789 Q1091.28 141.997 1091.28 147.344 Q1091.28 152.692 1092.78 157.946 Q1094.31 163.178 1097.39 168.479 L1093.69 168.479 Q1090.21 163.039 1088.48 157.784 Q1086.77 152.53 1086.77 147.344 Q1086.77 142.182 1088.48 136.951 Q1090.19 131.72 1093.69 126.257 L1097.39 126.257 Z" fill="#000000" fill-rule="nonzero" fill-opacity="1" /><path clip-path="url(#clip010)" d="M1122.71 140.238 L1122.71 126.21 L1126.97 126.21 L1126.97 162.229 L1122.71 162.229 L1122.71 158.34 Q1121.37 160.655 1119.31 161.789 Q1117.27 162.9 1114.4 162.9 Q1109.71 162.9 1106.74 159.15 Q1103.8 155.4 1103.8 149.289 Q1103.8 143.178 1106.74 139.428 Q1109.71 135.678 1114.4 135.678 Q1117.27 135.678 1119.31 136.812 Q1121.37 137.923 1122.71 140.238 M1108.2 149.289 Q1108.2 153.988 1110.12 156.673 Q1112.07 159.335 1115.45 159.335 Q1118.83 159.335 1120.77 156.673 Q1122.71 153.988 1122.71 149.289 Q1122.71 144.59 1120.77 141.928 Q1118.83 139.243 1115.45 139.243 Q1112.07 139.243 1110.12 141.928 Q1108.2 144.59 1108.2 149.289 Z" fill="#000000" fill-rule="nonzero" fill-opacity="1" /><path clip-path="url(#clip010)" d="M1135.75 136.303 L1140.01 136.303 L1140.01 162.229 L1135.75 162.229 L1135.75 136.303 M1135.75 126.21 L1140.01 126.21 L1140.01 131.604 L1135.75 131.604 L1135.75 126.21 Z" fill="#000000" fill-rule="nonzero" fill-opacity="1" /><path clip-path="url(#clip010)" d="M1160.7 149.196 Q1155.54 149.196 1153.55 150.377 Q1151.56 151.557 1151.56 154.405 Q1151.56 156.673 1153.04 158.016 Q1154.54 159.335 1157.11 159.335 Q1160.65 159.335 1162.78 156.835 Q1164.94 154.312 1164.94 150.145 L1164.94 149.196 L1160.7 149.196 M1169.2 147.437 L1169.2 162.229 L1164.94 162.229 L1164.94 158.293 Q1163.48 160.655 1161.3 161.789 Q1159.13 162.9 1155.98 162.9 Q1152 162.9 1149.64 160.678 Q1147.3 158.432 1147.3 154.682 Q1147.3 150.307 1150.21 148.085 Q1153.15 145.863 1158.96 145.863 L1164.94 145.863 L1164.94 145.446 Q1164.94 142.507 1162.99 140.909 Q1161.07 139.289 1157.58 139.289 Q1155.35 139.289 1153.25 139.821 Q1151.14 140.354 1149.2 141.419 L1149.2 137.483 Q1151.53 136.581 1153.73 136.141 Q1155.93 135.678 1158.02 135.678 Q1163.64 135.678 1166.42 138.594 Q1169.2 141.511 1169.2 147.437 Z" fill="#000000" fill-rule="nonzero" fill-opacity="1" /><path clip-path="url(#clip010)" d="M1195.03 148.965 Q1195.03 144.335 1193.11 141.789 Q1191.21 139.243 1187.76 139.243 Q1184.33 139.243 1182.41 141.789 Q1180.52 144.335 1180.52 148.965 Q1180.52 153.571 1182.41 156.118 Q1184.33 158.664 1187.76 158.664 Q1191.21 158.664 1193.11 156.118 Q1195.03 153.571 1195.03 148.965 M1199.29 159.011 Q1199.29 165.631 1196.35 168.849 Q1193.41 172.09 1187.34 172.09 Q1185.1 172.09 1183.11 171.742 Q1181.12 171.418 1179.24 170.724 L1179.24 166.58 Q1181.12 167.599 1182.95 168.085 Q1184.77 168.571 1186.67 168.571 Q1190.86 168.571 1192.95 166.372 Q1195.03 164.196 1195.03 159.775 L1195.03 157.668 Q1193.71 159.96 1191.65 161.094 Q1189.59 162.229 1186.72 162.229 Q1181.95 162.229 1179.03 158.594 Q1176.12 154.96 1176.12 148.965 Q1176.12 142.946 1179.03 139.312 Q1181.95 135.678 1186.72 135.678 Q1189.59 135.678 1191.65 136.812 Q1193.71 137.946 1195.03 140.238 L1195.03 136.303 L1199.29 136.303 L1199.29 159.011 Z" fill="#000000" fill-rule="nonzero" fill-opacity="1" /><path clip-path="url(#clip010)" d="M1218.11 139.289 Q1214.68 139.289 1212.69 141.974 Q1210.7 144.636 1210.7 149.289 Q1210.7 153.942 1212.67 156.627 Q1214.66 159.289 1218.11 159.289 Q1221.51 159.289 1223.5 156.604 Q1225.49 153.918 1225.49 149.289 Q1225.49 144.682 1223.5 141.997 Q1221.51 139.289 1218.11 139.289 M1218.11 135.678 Q1223.66 135.678 1226.83 139.289 Q1230.01 142.9 1230.01 149.289 Q1230.01 155.655 1226.83 159.289 Q1223.66 162.9 1218.11 162.9 Q1212.53 162.9 1209.36 159.289 Q1206.21 155.655 1206.21 149.289 Q1206.21 142.9 1209.36 139.289 Q1212.53 135.678 1218.11 135.678 Z" fill="#000000" fill-rule="nonzero" fill-opacity="1" /><path clip-path="url(#clip010)" d="M1258.62 146.581 L1258.62 162.229 L1254.36 162.229 L1254.36 146.719 Q1254.36 143.039 1252.92 141.21 Q1251.49 139.382 1248.62 139.382 Q1245.17 139.382 1243.18 141.581 Q1241.19 143.78 1241.19 147.576 L1241.19 162.229 L1236.9 162.229 L1236.9 136.303 L1241.19 136.303 L1241.19 140.331 Q1242.71 137.993 1244.77 136.835 Q1246.86 135.678 1249.57 135.678 Q1254.03 135.678 1256.33 138.456 Q1258.62 141.21 1258.62 146.581 Z" fill="#000000" fill-rule="nonzero" fill-opacity="1" /><path clip-path="url(#clip010)" d="M1278.89 149.196 Q1273.73 149.196 1271.74 150.377 Q1269.75 151.557 1269.75 154.405 Q1269.75 156.673 1271.23 158.016 Q1272.74 159.335 1275.31 159.335 Q1278.85 159.335 1280.98 156.835 Q1283.13 154.312 1283.13 150.145 L1283.13 149.196 L1278.89 149.196 M1287.39 147.437 L1287.39 162.229 L1283.13 162.229 L1283.13 158.293 Q1281.67 160.655 1279.5 161.789 Q1277.32 162.9 1274.17 162.9 Q1270.19 162.9 1267.83 160.678 Q1265.49 158.432 1265.49 154.682 Q1265.49 150.307 1268.41 148.085 Q1271.35 145.863 1277.16 145.863 L1283.13 145.863 L1283.13 145.446 Q1283.13 142.507 1281.19 140.909 Q1279.26 139.289 1275.77 139.289 Q1273.55 139.289 1271.44 139.821 Q1269.33 140.354 1267.39 141.419 L1267.39 137.483 Q1269.73 136.581 1271.93 136.141 Q1274.13 135.678 1276.21 135.678 Q1281.83 135.678 1284.61 138.594 Q1287.39 141.511 1287.39 147.437 Z" fill="#000000" fill-rule="nonzero" fill-opacity="1" /><path clip-path="url(#clip010)" d="M1296.16 126.21 L1300.42 126.21 L1300.42 162.229 L1296.16 162.229 L1296.16 126.21 Z" fill="#000000" fill-rule="nonzero" fill-opacity="1" /><path clip-path="url(#clip010)" d="M1308.66 126.257 L1312.37 126.257 Q1315.84 131.72 1317.55 136.951 Q1319.29 142.182 1319.29 147.344 Q1319.29 152.53 1317.55 157.784 Q1315.84 163.039 1312.37 168.479 L1308.66 168.479 Q1311.74 163.178 1313.25 157.946 Q1314.77 152.692 1314.77 147.344 Q1314.77 141.997 1313.25 136.789 Q1311.74 131.581 1308.66 126.257 Z" fill="#000000" fill-rule="nonzero" fill-opacity="1" /><polyline clip-path="url(#clip010)" style="stroke:#e26f46; stroke-linecap:round; stroke-linejoin:round; stroke-width:8; stroke-opacity:1; fill:none" points="272.215,196.789 417.369,196.789 "/>
<circle clip-path="url(#clip010)" cx="344.792" cy="196.789" r="19.7486" fill="#e26f46" fill-rule="evenodd" fill-opacity="1" stroke="#000000" stroke-opacity="1" stroke-width="5.85143"/>
<path clip-path="url(#clip010)" d="M457.579 182.68 Q452.487 182.68 449.478 186.476 Q446.491 190.272 446.491 196.823 Q446.491 203.351 449.478 207.147 Q452.487 210.944 457.579 210.944 Q462.672 210.944 465.635 207.147 Q468.621 203.351 468.621 196.823 Q468.621 190.272 465.635 186.476 Q462.672 182.68 457.579 182.68 M457.579 178.884 Q464.848 178.884 469.2 183.768 Q473.552 188.629 473.552 196.823 Q473.552 204.995 469.2 209.879 Q464.848 214.74 457.579 214.74 Q450.288 214.74 445.913 209.879 Q441.561 205.018 441.561 196.823 Q441.561 188.629 445.913 183.768 Q450.288 178.884 457.579 178.884 Z" fill="#000000" fill-rule="nonzero" fill-opacity="1" /><path clip-path="url(#clip010)" d="M484.801 210.18 L484.801 223.93 L480.519 223.93 L480.519 188.143 L484.801 188.143 L484.801 192.078 Q486.144 189.763 488.181 188.652 Q490.241 187.518 493.088 187.518 Q497.811 187.518 500.75 191.268 Q503.713 195.018 503.713 201.129 Q503.713 207.24 500.75 210.99 Q497.811 214.74 493.088 214.74 Q490.241 214.74 488.181 213.629 Q486.144 212.495 484.801 210.18 M499.292 201.129 Q499.292 196.43 497.348 193.768 Q495.426 191.083 492.047 191.083 Q488.667 191.083 486.723 193.768 Q484.801 196.43 484.801 201.129 Q484.801 205.828 486.723 208.513 Q488.667 211.175 492.047 211.175 Q495.426 211.175 497.348 208.513 Q499.292 205.828 499.292 201.129 Z" fill="#000000" fill-rule="nonzero" fill-opacity="1" /><path clip-path="url(#clip010)" d="M532.949 200.041 L532.949 202.124 L513.366 202.124 Q513.644 206.522 516.005 208.837 Q518.389 211.129 522.625 211.129 Q525.079 211.129 527.371 210.527 Q529.685 209.925 531.954 208.721 L531.954 212.749 Q529.662 213.721 527.255 214.231 Q524.848 214.74 522.371 214.74 Q516.167 214.74 512.533 211.129 Q508.922 207.518 508.922 201.36 Q508.922 194.995 512.348 191.268 Q515.797 187.518 521.63 187.518 Q526.861 187.518 529.894 190.897 Q532.949 194.254 532.949 200.041 M528.69 198.791 Q528.644 195.296 526.723 193.212 Q524.824 191.129 521.676 191.129 Q518.111 191.129 515.959 193.143 Q513.829 195.157 513.505 198.814 L528.69 198.791 Z" fill="#000000" fill-rule="nonzero" fill-opacity="1" /><path clip-path="url(#clip010)" d="M561.491 198.421 L561.491 214.069 L557.232 214.069 L557.232 198.559 Q557.232 194.879 555.796 193.05 Q554.361 191.222 551.491 191.222 Q548.042 191.222 546.051 193.421 Q544.06 195.62 544.06 199.416 L544.06 214.069 L539.778 214.069 L539.778 188.143 L544.06 188.143 L544.06 192.171 Q545.588 189.833 547.648 188.675 Q549.732 187.518 552.44 187.518 Q556.908 187.518 559.199 190.296 Q561.491 193.05 561.491 198.421 Z" fill="#000000" fill-rule="nonzero" fill-opacity="1" /><path clip-path="url(#clip010)" d="M570.171 179.509 L590.032 179.509 L590.032 183.444 L574.847 183.444 L574.847 193.629 L588.551 193.629 L588.551 197.564 L574.847 197.564 L574.847 214.069 L570.171 214.069 L570.171 179.509 Z" fill="#000000" fill-rule="nonzero" fill-opacity="1" /><path clip-path="url(#clip010)" d="M611.467 182.68 Q606.375 182.68 603.366 186.476 Q600.38 190.272 600.38 196.823 Q600.38 203.351 603.366 207.147 Q606.375 210.944 611.467 210.944 Q616.56 210.944 619.523 207.147 Q622.509 203.351 622.509 196.823 Q622.509 190.272 619.523 186.476 Q616.56 182.68 611.467 182.68 M611.467 178.884 Q618.736 178.884 623.088 183.768 Q627.44 188.629 627.44 196.823 Q627.44 204.995 623.088 209.879 Q618.736 214.74 611.467 214.74 Q604.176 214.74 599.801 209.879 Q595.449 205.018 595.449 196.823 Q595.449 188.629 599.801 183.768 Q604.176 178.884 611.467 178.884 Z" fill="#000000" fill-rule="nonzero" fill-opacity="1" /><path clip-path="url(#clip010)" d="M645.472 184.115 L639.129 201.314 L651.838 201.314 L645.472 184.115 M642.833 179.509 L648.134 179.509 L661.305 214.069 L656.444 214.069 L653.296 205.203 L637.717 205.203 L634.569 214.069 L629.639 214.069 L642.833 179.509 Z" fill="#000000" fill-rule="nonzero" fill-opacity="1" /><path clip-path="url(#clip010)" d="M666.351 179.509 L673.319 179.509 L682.138 203.027 L691.004 179.509 L697.972 179.509 L697.972 214.069 L693.411 214.069 L693.411 183.722 L684.499 207.425 L679.8 207.425 L670.888 183.722 L670.888 214.069 L666.351 214.069 L666.351 179.509 Z" fill="#000000" fill-rule="nonzero" fill-opacity="1" /><path clip-path="url(#clip010)" d="M719.985 199.184 L732.462 199.184 L732.462 202.981 L719.985 202.981 L719.985 199.184 Z" fill="#000000" fill-rule="nonzero" fill-opacity="1" /><path clip-path="url(#clip010)" d="M778.064 209.138 L778.064 199.856 L770.425 199.856 L770.425 196.013 L782.693 196.013 L782.693 210.851 Q779.985 212.772 776.721 213.768 Q773.457 214.74 769.754 214.74 Q761.652 214.74 757.069 210.018 Q752.508 205.272 752.508 196.823 Q752.508 188.351 757.069 183.629 Q761.652 178.884 769.754 178.884 Q773.133 178.884 776.166 179.717 Q779.221 180.55 781.791 182.171 L781.791 187.147 Q779.198 184.948 776.281 183.837 Q773.365 182.726 770.147 182.726 Q763.805 182.726 760.61 186.268 Q757.439 189.809 757.439 196.823 Q757.439 203.814 760.61 207.356 Q763.805 210.897 770.147 210.897 Q772.624 210.897 774.568 210.481 Q776.513 210.041 778.064 209.138 Z" fill="#000000" fill-rule="nonzero" fill-opacity="1" /><path clip-path="url(#clip010)" d="M802.786 184.115 L796.443 201.314 L809.152 201.314 L802.786 184.115 M800.147 179.509 L805.448 179.509 L818.619 214.069 L813.758 214.069 L810.61 205.203 L795.031 205.203 L791.883 214.069 L786.953 214.069 L800.147 179.509 Z" fill="#000000" fill-rule="nonzero" fill-opacity="1" /><path clip-path="url(#clip010)" d="M823.665 179.509 L830.633 179.509 L839.452 203.027 L848.318 179.509 L855.286 179.509 L855.286 214.069 L850.725 214.069 L850.725 183.722 L841.813 207.425 L837.114 207.425 L828.202 183.722 L828.202 214.069 L823.665 214.069 L823.665 179.509 Z" fill="#000000" fill-rule="nonzero" fill-opacity="1" /><path clip-path="url(#clip010)" d="M888.133 209.138 L888.133 199.856 L880.494 199.856 L880.494 196.013 L892.762 196.013 L892.762 210.851 Q890.054 212.772 886.79 213.768 Q883.526 214.74 879.823 214.74 Q871.721 214.74 867.137 210.018 Q862.577 205.272 862.577 196.823 Q862.577 188.351 867.137 183.629 Q871.721 178.884 879.823 178.884 Q883.202 178.884 886.235 179.717 Q889.29 180.55 891.859 182.171 L891.859 187.147 Q889.267 184.948 886.35 183.837 Q883.434 182.726 880.216 182.726 Q873.873 182.726 870.679 186.268 Q867.508 189.809 867.508 196.823 Q867.508 203.814 870.679 207.356 Q873.873 210.897 880.216 210.897 Q882.693 210.897 884.637 210.481 Q886.582 210.041 888.133 209.138 Z" fill="#000000" fill-rule="nonzero" fill-opacity="1" /><path clip-path="url(#clip010)" d="M921.049 197.564 L921.049 210.226 L928.549 210.226 Q932.322 210.226 934.128 208.675 Q935.956 207.101 935.956 203.883 Q935.956 200.643 934.128 199.115 Q932.322 197.564 928.549 197.564 L921.049 197.564 M921.049 183.351 L921.049 193.768 L927.97 193.768 Q931.396 193.768 933.063 192.495 Q934.753 191.198 934.753 188.559 Q934.753 185.944 933.063 184.647 Q931.396 183.351 927.97 183.351 L921.049 183.351 M916.373 179.509 L928.318 179.509 Q933.665 179.509 936.558 181.731 Q939.452 183.953 939.452 188.05 Q939.452 191.222 937.97 193.097 Q936.489 194.971 933.619 195.434 Q937.068 196.175 938.966 198.536 Q940.887 200.874 940.887 204.393 Q940.887 209.022 937.739 211.545 Q934.591 214.069 928.781 214.069 L916.373 214.069 L916.373 179.509 Z" fill="#000000" fill-rule="nonzero" fill-opacity="1" /><path clip-path="url(#clip010)" d="M948.711 188.143 L952.97 188.143 L952.97 214.069 L948.711 214.069 L948.711 188.143 M948.711 178.05 L952.97 178.05 L952.97 183.444 L948.711 183.444 L948.711 178.05 Z" fill="#000000" fill-rule="nonzero" fill-opacity="1" /><path clip-path="url(#clip010)" d="M980.54 189.138 L980.54 193.12 Q978.734 192.124 976.905 191.638 Q975.1 191.129 973.248 191.129 Q969.104 191.129 966.813 193.768 Q964.521 196.384 964.521 201.129 Q964.521 205.874 966.813 208.513 Q969.104 211.129 973.248 211.129 Q975.1 211.129 976.905 210.643 Q978.734 210.133 980.54 209.138 L980.54 213.073 Q978.757 213.907 976.836 214.323 Q974.938 214.74 972.785 214.74 Q966.929 214.74 963.479 211.059 Q960.03 207.379 960.03 201.129 Q960.03 194.786 963.503 191.152 Q966.998 187.518 973.063 187.518 Q975.03 187.518 976.905 187.935 Q978.78 188.328 980.54 189.138 Z" fill="#000000" fill-rule="nonzero" fill-opacity="1" /><path clip-path="url(#clip010)" d="M1005.01 200.805 Q1005.01 196.175 1003.09 193.629 Q1001.19 191.083 997.739 191.083 Q994.313 191.083 992.391 193.629 Q990.493 196.175 990.493 200.805 Q990.493 205.411 992.391 207.958 Q994.313 210.504 997.739 210.504 Q1001.19 210.504 1003.09 207.958 Q1005.01 205.411 1005.01 200.805 M1009.27 210.851 Q1009.27 217.471 1006.33 220.689 Q1003.39 223.93 997.322 223.93 Q995.077 223.93 993.086 223.582 Q991.095 223.258 989.22 222.564 L989.22 218.42 Q991.095 219.439 992.924 219.925 Q994.752 220.411 996.651 220.411 Q1000.84 220.411 1002.92 218.212 Q1005.01 216.036 1005.01 211.615 L1005.01 209.508 Q1003.69 211.8 1001.63 212.934 Q999.567 214.069 996.697 214.069 Q991.928 214.069 989.012 210.434 Q986.095 206.8 986.095 200.805 Q986.095 194.786 989.012 191.152 Q991.928 187.518 996.697 187.518 Q999.567 187.518 1001.63 188.652 Q1003.69 189.786 1005.01 192.078 L1005.01 188.143 L1009.27 188.143 L1009.27 210.851 Z" fill="#000000" fill-rule="nonzero" fill-opacity="1" /><path clip-path="url(#clip010)" d="M1034.57 188.907 L1034.57 192.934 Q1032.76 192.009 1030.82 191.546 Q1028.87 191.083 1026.79 191.083 Q1023.62 191.083 1022.02 192.055 Q1020.45 193.027 1020.45 194.971 Q1020.45 196.453 1021.58 197.309 Q1022.72 198.143 1026.14 198.907 L1027.6 199.231 Q1032.14 200.203 1034.03 201.985 Q1035.96 203.745 1035.96 206.916 Q1035.96 210.527 1033.09 212.633 Q1030.24 214.74 1025.24 214.74 Q1023.16 214.74 1020.89 214.323 Q1018.64 213.93 1016.14 213.12 L1016.14 208.721 Q1018.5 209.948 1020.79 210.573 Q1023.09 211.175 1025.33 211.175 Q1028.34 211.175 1029.96 210.157 Q1031.58 209.115 1031.58 207.24 Q1031.58 205.504 1030.4 204.578 Q1029.24 203.652 1025.28 202.796 L1023.8 202.448 Q1019.84 201.615 1018.09 199.902 Q1016.33 198.166 1016.33 195.157 Q1016.33 191.499 1018.92 189.509 Q1021.51 187.518 1026.28 187.518 Q1028.64 187.518 1030.72 187.865 Q1032.81 188.212 1034.57 188.907 Z" fill="#000000" fill-rule="nonzero" fill-opacity="1" /><path clip-path="url(#clip010)" d="M1046.95 180.782 L1046.95 188.143 L1055.72 188.143 L1055.72 191.453 L1046.95 191.453 L1046.95 205.527 Q1046.95 208.698 1047.81 209.601 Q1048.69 210.504 1051.35 210.504 L1055.72 210.504 L1055.72 214.069 L1051.35 214.069 Q1046.42 214.069 1044.54 212.24 Q1042.67 210.388 1042.67 205.527 L1042.67 191.453 L1039.54 191.453 L1039.54 188.143 L1042.67 188.143 L1042.67 180.782 L1046.95 180.782 Z" fill="#000000" fill-rule="nonzero" fill-opacity="1" /><path clip-path="url(#clip010)" d="M1073.11 201.036 Q1067.95 201.036 1065.96 202.217 Q1063.97 203.397 1063.97 206.245 Q1063.97 208.513 1065.45 209.856 Q1066.95 211.175 1069.52 211.175 Q1073.06 211.175 1075.19 208.675 Q1077.34 206.152 1077.34 201.985 L1077.34 201.036 L1073.11 201.036 M1081.6 199.277 L1081.6 214.069 L1077.34 214.069 L1077.34 210.133 Q1075.89 212.495 1073.71 213.629 Q1071.53 214.74 1068.39 214.74 Q1064.4 214.74 1062.04 212.518 Q1059.71 210.272 1059.71 206.522 Q1059.71 202.147 1062.62 199.925 Q1065.56 197.703 1071.37 197.703 L1077.34 197.703 L1077.34 197.286 Q1077.34 194.347 1075.4 192.749 Q1073.48 191.129 1069.98 191.129 Q1067.76 191.129 1065.65 191.661 Q1063.55 192.194 1061.6 193.259 L1061.6 189.323 Q1063.94 188.421 1066.14 187.981 Q1068.34 187.518 1070.42 187.518 Q1076.05 187.518 1078.83 190.434 Q1081.6 193.351 1081.6 199.277 Z" fill="#000000" fill-rule="nonzero" fill-opacity="1" /><path clip-path="url(#clip010)" d="M1108.99 201.129 Q1108.99 196.43 1107.04 193.768 Q1105.12 191.083 1101.74 191.083 Q1098.36 191.083 1096.42 193.768 Q1094.5 196.43 1094.5 201.129 Q1094.5 205.828 1096.42 208.513 Q1098.36 211.175 1101.74 211.175 Q1105.12 211.175 1107.04 208.513 Q1108.99 205.828 1108.99 201.129 M1094.5 192.078 Q1095.84 189.763 1097.88 188.652 Q1099.94 187.518 1102.78 187.518 Q1107.51 187.518 1110.45 191.268 Q1113.41 195.018 1113.41 201.129 Q1113.41 207.24 1110.45 210.99 Q1107.51 214.74 1102.78 214.74 Q1099.94 214.74 1097.88 213.629 Q1095.84 212.495 1094.5 210.18 L1094.5 214.069 L1090.21 214.069 L1090.21 178.05 L1094.5 178.05 L1094.5 192.078 Z" fill="#000000" fill-rule="nonzero" fill-opacity="1" /><path clip-path="url(#clip010)" d="M1145.77 178.097 Q1142.67 183.421 1141.16 188.629 Q1139.66 193.837 1139.66 199.184 Q1139.66 204.532 1141.16 209.786 Q1142.69 215.018 1145.77 220.319 L1142.07 220.319 Q1138.59 214.879 1136.86 209.624 Q1135.15 204.37 1135.15 199.184 Q1135.15 194.022 1136.86 188.791 Q1138.57 183.56 1142.07 178.097 L1145.77 178.097 Z" fill="#000000" fill-rule="nonzero" fill-opacity="1" /><path clip-path="url(#clip010)" d="M1158.9 183.351 L1158.9 210.226 L1164.54 210.226 Q1171.7 210.226 1175.01 206.985 Q1178.34 203.745 1178.34 196.754 Q1178.34 189.809 1175.01 186.592 Q1171.7 183.351 1164.54 183.351 L1158.9 183.351 M1154.22 179.509 L1163.83 179.509 Q1173.87 179.509 1178.57 183.698 Q1183.27 187.865 1183.27 196.754 Q1183.27 205.689 1178.55 209.879 Q1173.83 214.069 1163.83 214.069 L1154.22 214.069 L1154.22 179.509 Z" fill="#000000" fill-rule="nonzero" fill-opacity="1" /><path clip-path="url(#clip010)" d="M1190.72 179.509 L1195.4 179.509 L1195.4 214.069 L1190.72 214.069 L1190.72 179.509 Z" fill="#000000" fill-rule="nonzero" fill-opacity="1" /><path clip-path="url(#clip010)" d="M1204.71 179.509 L1209.38 179.509 L1209.38 210.133 L1226.21 210.133 L1226.21 214.069 L1204.71 214.069 L1204.71 179.509 Z" fill="#000000" fill-rule="nonzero" fill-opacity="1" /><path clip-path="url(#clip010)" d="M1228.22 179.509 L1232.92 179.509 L1232.92 200.504 Q1232.92 206.059 1234.94 208.513 Q1236.95 210.944 1241.46 210.944 Q1245.95 210.944 1247.97 208.513 Q1249.98 206.059 1249.98 200.504 L1249.98 179.509 L1254.68 179.509 L1254.68 201.083 Q1254.68 207.842 1251.33 211.291 Q1247.99 214.74 1241.46 214.74 Q1234.91 214.74 1231.56 211.291 Q1228.22 207.842 1228.22 201.083 L1228.22 179.509 Z" fill="#000000" fill-rule="nonzero" fill-opacity="1" /><path clip-path="url(#clip010)" d="M1262.6 178.097 L1266.3 178.097 Q1269.77 183.56 1271.49 188.791 Q1273.22 194.022 1273.22 199.184 Q1273.22 204.37 1271.49 209.624 Q1269.77 214.879 1266.3 220.319 L1262.6 220.319 Q1265.68 215.018 1267.18 209.786 Q1268.71 204.532 1268.71 199.184 Q1268.71 193.837 1267.18 188.629 Q1265.68 183.421 1262.6 178.097 Z" fill="#000000" fill-rule="nonzero" fill-opacity="1" /><polyline clip-path="url(#clip010)" style="stroke:#3da44d; stroke-linecap:round; stroke-linejoin:round; stroke-width:8; stroke-opacity:1; fill:none" points="272.215,248.629 417.369,248.629 "/>
<circle clip-path="url(#clip010)" cx="344.792" cy="248.629" r="19.7486" fill="#3da44d" fill-rule="evenodd" fill-opacity="1" stroke="#000000" stroke-opacity="1" stroke-width="5.85143"/>
<path clip-path="url(#clip010)" d="M443.135 231.349 L448.158 231.349 L456.746 244.196 L465.38 231.349 L470.403 231.349 L459.292 247.946 L471.144 265.909 L466.121 265.909 L456.399 251.21 L446.607 265.909 L441.561 265.909 L453.899 247.46 L443.135 231.349 Z" fill="#000000" fill-rule="nonzero" fill-opacity="1" /><path clip-path="url(#clip010)" d="M499.709 234.011 L499.709 238.941 Q497.348 236.742 494.663 235.654 Q492.001 234.566 488.991 234.566 Q483.065 234.566 479.917 238.2 Q476.769 241.812 476.769 248.663 Q476.769 255.492 479.917 259.126 Q483.065 262.737 488.991 262.737 Q492.001 262.737 494.663 261.649 Q497.348 260.561 499.709 258.362 L499.709 263.247 Q497.255 264.913 494.5 265.747 Q491.769 266.58 488.713 266.58 Q480.866 266.58 476.352 261.788 Q471.839 256.973 471.839 248.663 Q471.839 240.33 476.352 235.538 Q480.866 230.724 488.713 230.724 Q491.815 230.724 494.547 231.557 Q497.301 232.367 499.709 234.011 Z" fill="#000000" fill-rule="nonzero" fill-opacity="1" /><path clip-path="url(#clip010)" d="M518.482 235.955 L512.139 253.154 L524.848 253.154 L518.482 235.955 M515.843 231.349 L521.144 231.349 L534.315 265.909 L529.454 265.909 L526.306 257.043 L510.727 257.043 L507.579 265.909 L502.649 265.909 L515.843 231.349 Z" fill="#000000" fill-rule="nonzero" fill-opacity="1" /><path clip-path="url(#clip010)" d="M539.361 231.349 L544.037 231.349 L544.037 261.973 L560.866 261.973 L560.866 265.909 L539.361 265.909 L539.361 231.349 Z" fill="#000000" fill-rule="nonzero" fill-opacity="1" /><path clip-path="url(#clip010)" d="M565.588 239.983 L569.847 239.983 L569.847 265.909 L565.588 265.909 L565.588 239.983 M565.588 229.89 L569.847 229.89 L569.847 235.284 L565.588 235.284 L565.588 229.89 Z" fill="#000000" fill-rule="nonzero" fill-opacity="1" /><path clip-path="url(#clip010)" d="M597.37 252.969 Q597.37 248.27 595.426 245.608 Q593.505 242.923 590.125 242.923 Q586.745 242.923 584.801 245.608 Q582.88 248.27 582.88 252.969 Q582.88 257.668 584.801 260.353 Q586.745 263.015 590.125 263.015 Q593.505 263.015 595.426 260.353 Q597.37 257.668 597.37 252.969 M582.88 243.918 Q584.222 241.603 586.259 240.492 Q588.319 239.358 591.167 239.358 Q595.889 239.358 598.829 243.108 Q601.792 246.858 601.792 252.969 Q601.792 259.08 598.829 262.83 Q595.889 266.58 591.167 266.58 Q588.319 266.58 586.259 265.469 Q584.222 264.335 582.88 262.02 L582.88 265.909 L578.597 265.909 L578.597 229.89 L582.88 229.89 L582.88 243.918 Z" fill="#000000" fill-rule="nonzero" fill-opacity="1" /><path clip-path="url(#clip010)" d="M623.875 243.964 Q623.157 243.548 622.301 243.362 Q621.467 243.154 620.449 243.154 Q616.838 243.154 614.893 245.515 Q612.972 247.853 612.972 252.251 L612.972 265.909 L608.69 265.909 L608.69 239.983 L612.972 239.983 L612.972 244.011 Q614.315 241.649 616.467 240.515 Q618.62 239.358 621.699 239.358 Q622.139 239.358 622.671 239.427 Q623.204 239.474 623.852 239.589 L623.875 243.964 Z" fill="#000000" fill-rule="nonzero" fill-opacity="1" /><path clip-path="url(#clip010)" d="M649.477 251.881 L649.477 253.964 L629.893 253.964 Q630.171 258.362 632.532 260.677 Q634.916 262.969 639.152 262.969 Q641.606 262.969 643.898 262.367 Q646.213 261.765 648.481 260.561 L648.481 264.589 Q646.189 265.561 643.782 266.071 Q641.375 266.58 638.898 266.58 Q632.694 266.58 629.06 262.969 Q625.449 259.358 625.449 253.2 Q625.449 246.835 628.875 243.108 Q632.324 239.358 638.157 239.358 Q643.389 239.358 646.421 242.737 Q649.477 246.094 649.477 251.881 M645.217 250.631 Q645.171 247.136 643.25 245.052 Q641.352 242.969 638.203 242.969 Q634.639 242.969 632.486 244.983 Q630.356 246.997 630.032 250.654 L645.217 250.631 Z" fill="#000000" fill-rule="nonzero" fill-opacity="1" /><path clip-path="url(#clip010)" d="M682.138 234.427 Q678.527 234.427 676.699 237.992 Q674.893 241.534 674.893 248.663 Q674.893 255.77 676.699 259.335 Q678.527 262.876 682.138 262.876 Q685.773 262.876 687.578 259.335 Q689.407 255.77 689.407 248.663 Q689.407 241.534 687.578 237.992 Q685.773 234.427 682.138 234.427 M682.138 230.724 Q687.949 230.724 691.004 235.33 Q694.083 239.913 694.083 248.663 Q694.083 257.39 691.004 261.997 Q687.949 266.58 682.138 266.58 Q676.328 266.58 673.25 261.997 Q670.194 257.39 670.194 248.663 Q670.194 239.913 673.25 235.33 Q676.328 230.724 682.138 230.724 Z" fill="#000000" fill-rule="nonzero" fill-opacity="1" /><path clip-path="url(#clip010)" d="M702.3 260.029 L707.185 260.029 L707.185 265.909 L702.3 265.909 L702.3 260.029 Z" fill="#000000" fill-rule="nonzero" fill-opacity="1" /><path clip-path="url(#clip010)" d="M731.536 247.274 Q734.893 247.992 736.768 250.261 Q738.666 252.529 738.666 255.862 Q738.666 260.978 735.147 263.779 Q731.629 266.58 725.147 266.58 Q722.971 266.58 720.657 266.14 Q718.365 265.723 715.911 264.867 L715.911 260.353 Q717.856 261.487 720.171 262.066 Q722.485 262.645 725.009 262.645 Q729.407 262.645 731.698 260.909 Q734.013 259.173 734.013 255.862 Q734.013 252.807 731.86 251.094 Q729.731 249.358 725.911 249.358 L721.884 249.358 L721.884 245.515 L726.096 245.515 Q729.546 245.515 731.374 244.149 Q733.203 242.761 733.203 240.168 Q733.203 237.506 731.305 236.094 Q729.43 234.659 725.911 234.659 Q723.99 234.659 721.791 235.075 Q719.592 235.492 716.953 236.372 L716.953 232.205 Q719.615 231.464 721.93 231.094 Q724.268 230.724 726.328 230.724 Q731.652 230.724 734.754 233.154 Q737.856 235.562 737.856 239.682 Q737.856 242.552 736.212 244.543 Q734.569 246.511 731.536 247.274 Z" fill="#000000" fill-rule="nonzero" fill-opacity="1" /><path clip-path="url(#clip010)" d="M747.532 260.029 L752.416 260.029 L752.416 265.909 L747.532 265.909 L747.532 260.029 Z" fill="#000000" fill-rule="nonzero" fill-opacity="1" /><path clip-path="url(#clip010)" d="M776.767 247.274 Q780.124 247.992 781.999 250.261 Q783.897 252.529 783.897 255.862 Q783.897 260.978 780.379 263.779 Q776.86 266.58 770.379 266.58 Q768.203 266.58 765.888 266.14 Q763.596 265.723 761.143 264.867 L761.143 260.353 Q763.087 261.487 765.402 262.066 Q767.717 262.645 770.24 262.645 Q774.638 262.645 776.93 260.909 Q779.244 259.173 779.244 255.862 Q779.244 252.807 777.092 251.094 Q774.962 249.358 771.143 249.358 L767.115 249.358 L767.115 245.515 L771.328 245.515 Q774.777 245.515 776.605 244.149 Q778.434 242.761 778.434 240.168 Q778.434 237.506 776.536 236.094 Q774.661 234.659 771.143 234.659 Q769.221 234.659 767.022 235.075 Q764.823 235.492 762.184 236.372 L762.184 232.205 Q764.846 231.464 767.161 231.094 Q769.499 230.724 771.559 230.724 Q776.883 230.724 779.985 233.154 Q783.087 235.562 783.087 239.682 Q783.087 242.552 781.443 244.543 Q779.8 246.511 776.767 247.274 Z" fill="#000000" fill-rule="nonzero" fill-opacity="1" /><polyline clip-path="url(#clip010)" style="stroke:#c271d2; stroke-linecap:round; stroke-linejoin:round; stroke-width:8; stroke-opacity:1; fill:none" points="272.215,300.469 417.369,300.469 "/>
<circle clip-path="url(#clip010)" cx="344.792" cy="300.469" r="19.7486" fill="#c271d2" fill-rule="evenodd" fill-opacity="1" stroke="#000000" stroke-opacity="1" stroke-width="5.85143"/>
<path clip-path="url(#clip010)" d="M443.135 283.189 L448.158 283.189 L456.746 296.036 L465.38 283.189 L470.403 283.189 L459.292 299.786 L471.144 317.749 L466.121 317.749 L456.399 303.05 L446.607 317.749 L441.561 317.749 L453.899 299.3 L443.135 283.189 Z" fill="#000000" fill-rule="nonzero" fill-opacity="1" /><path clip-path="url(#clip010)" d="M499.709 285.851 L499.709 290.781 Q497.348 288.582 494.663 287.494 Q492.001 286.406 488.991 286.406 Q483.065 286.406 479.917 290.04 Q476.769 293.652 476.769 300.503 Q476.769 307.332 479.917 310.966 Q483.065 314.577 488.991 314.577 Q492.001 314.577 494.663 313.489 Q497.348 312.401 499.709 310.202 L499.709 315.087 Q497.255 316.753 494.5 317.587 Q491.769 318.42 488.713 318.42 Q480.866 318.42 476.352 313.628 Q471.839 308.813 471.839 300.503 Q471.839 292.17 476.352 287.378 Q480.866 282.564 488.713 282.564 Q491.815 282.564 494.547 283.397 Q497.301 284.207 499.709 285.851 Z" fill="#000000" fill-rule="nonzero" fill-opacity="1" /><path clip-path="url(#clip010)" d="M518.482 287.795 L512.139 304.994 L524.848 304.994 L518.482 287.795 M515.843 283.189 L521.144 283.189 L534.315 317.749 L529.454 317.749 L526.306 308.883 L510.727 308.883 L507.579 317.749 L502.649 317.749 L515.843 283.189 Z" fill="#000000" fill-rule="nonzero" fill-opacity="1" /><path clip-path="url(#clip010)" d="M539.361 283.189 L544.037 283.189 L544.037 313.813 L560.866 313.813 L560.866 317.749 L539.361 317.749 L539.361 283.189 Z" fill="#000000" fill-rule="nonzero" fill-opacity="1" /><path clip-path="url(#clip010)" d="M565.588 291.823 L569.847 291.823 L569.847 317.749 L565.588 317.749 L565.588 291.823 M565.588 281.73 L569.847 281.73 L569.847 287.124 L565.588 287.124 L565.588 281.73 Z" fill="#000000" fill-rule="nonzero" fill-opacity="1" /><path clip-path="url(#clip010)" d="M597.37 304.809 Q597.37 300.11 595.426 297.448 Q593.505 294.763 590.125 294.763 Q586.745 294.763 584.801 297.448 Q582.88 300.11 582.88 304.809 Q582.88 309.508 584.801 312.193 Q586.745 314.855 590.125 314.855 Q593.505 314.855 595.426 312.193 Q597.37 309.508 597.37 304.809 M582.88 295.758 Q584.222 293.443 586.259 292.332 Q588.319 291.198 591.167 291.198 Q595.889 291.198 598.829 294.948 Q601.792 298.698 601.792 304.809 Q601.792 310.92 598.829 314.67 Q595.889 318.42 591.167 318.42 Q588.319 318.42 586.259 317.309 Q584.222 316.175 582.88 313.86 L582.88 317.749 L578.597 317.749 L578.597 281.73 L582.88 281.73 L582.88 295.758 Z" fill="#000000" fill-rule="nonzero" fill-opacity="1" /><path clip-path="url(#clip010)" d="M623.875 295.804 Q623.157 295.388 622.301 295.202 Q621.467 294.994 620.449 294.994 Q616.838 294.994 614.893 297.355 Q612.972 299.693 612.972 304.091 L612.972 317.749 L608.69 317.749 L608.69 291.823 L612.972 291.823 L612.972 295.851 Q614.315 293.489 616.467 292.355 Q618.62 291.198 621.699 291.198 Q622.139 291.198 622.671 291.267 Q623.204 291.314 623.852 291.429 L623.875 295.804 Z" fill="#000000" fill-rule="nonzero" fill-opacity="1" /><path clip-path="url(#clip010)" d="M649.477 303.721 L649.477 305.804 L629.893 305.804 Q630.171 310.202 632.532 312.517 Q634.916 314.809 639.152 314.809 Q641.606 314.809 643.898 314.207 Q646.213 313.605 648.481 312.401 L648.481 316.429 Q646.189 317.401 643.782 317.911 Q641.375 318.42 638.898 318.42 Q632.694 318.42 629.06 314.809 Q625.449 311.198 625.449 305.04 Q625.449 298.675 628.875 294.948 Q632.324 291.198 638.157 291.198 Q643.389 291.198 646.421 294.577 Q649.477 297.934 649.477 303.721 M645.217 302.471 Q645.171 298.976 643.25 296.892 Q641.352 294.809 638.203 294.809 Q634.639 294.809 632.486 296.823 Q630.356 298.837 630.032 302.494 L645.217 302.471 Z" fill="#000000" fill-rule="nonzero" fill-opacity="1" /><path clip-path="url(#clip010)" d="M682.138 286.267 Q678.527 286.267 676.699 289.832 Q674.893 293.374 674.893 300.503 Q674.893 307.61 676.699 311.175 Q678.527 314.716 682.138 314.716 Q685.773 314.716 687.578 311.175 Q689.407 307.61 689.407 300.503 Q689.407 293.374 687.578 289.832 Q685.773 286.267 682.138 286.267 M682.138 282.564 Q687.949 282.564 691.004 287.17 Q694.083 291.753 694.083 300.503 Q694.083 309.23 691.004 313.837 Q687.949 318.42 682.138 318.42 Q676.328 318.42 673.25 313.837 Q670.194 309.23 670.194 300.503 Q670.194 291.753 673.25 287.17 Q676.328 282.564 682.138 282.564 Z" fill="#000000" fill-rule="nonzero" fill-opacity="1" /><path clip-path="url(#clip010)" d="M702.3 311.869 L707.185 311.869 L707.185 317.749 L702.3 317.749 L702.3 311.869 Z" fill="#000000" fill-rule="nonzero" fill-opacity="1" /><path clip-path="url(#clip010)" d="M731.536 299.114 Q734.893 299.832 736.768 302.101 Q738.666 304.369 738.666 307.702 Q738.666 312.818 735.147 315.619 Q731.629 318.42 725.147 318.42 Q722.971 318.42 720.657 317.98 Q718.365 317.563 715.911 316.707 L715.911 312.193 Q717.856 313.327 720.171 313.906 Q722.485 314.485 725.009 314.485 Q729.407 314.485 731.698 312.749 Q734.013 311.013 734.013 307.702 Q734.013 304.647 731.86 302.934 Q729.731 301.198 725.911 301.198 L721.884 301.198 L721.884 297.355 L726.096 297.355 Q729.546 297.355 731.374 295.989 Q733.203 294.601 733.203 292.008 Q733.203 289.346 731.305 287.934 Q729.43 286.499 725.911 286.499 Q723.99 286.499 721.791 286.915 Q719.592 287.332 716.953 288.212 L716.953 284.045 Q719.615 283.304 721.93 282.934 Q724.268 282.564 726.328 282.564 Q731.652 282.564 734.754 284.994 Q737.856 287.402 737.856 291.522 Q737.856 294.392 736.212 296.383 Q734.569 298.351 731.536 299.114 Z" fill="#000000" fill-rule="nonzero" fill-opacity="1" /><path clip-path="url(#clip010)" d="M747.532 311.869 L752.416 311.869 L752.416 317.749 L747.532 317.749 L747.532 311.869 Z" fill="#000000" fill-rule="nonzero" fill-opacity="1" /><path clip-path="url(#clip010)" d="M766.629 313.813 L782.948 313.813 L782.948 317.749 L761.004 317.749 L761.004 313.813 Q763.666 311.059 768.249 306.429 Q772.855 301.776 774.036 300.434 Q776.281 297.911 777.161 296.175 Q778.064 294.415 778.064 292.726 Q778.064 289.971 776.119 288.235 Q774.198 286.499 771.096 286.499 Q768.897 286.499 766.443 287.263 Q764.013 288.027 761.235 289.577 L761.235 284.855 Q764.059 283.721 766.513 283.142 Q768.967 282.564 771.004 282.564 Q776.374 282.564 779.568 285.249 Q782.763 287.934 782.763 292.425 Q782.763 294.554 781.953 296.476 Q781.166 298.374 779.059 300.966 Q778.48 301.638 775.379 304.855 Q772.277 308.05 766.629 313.813 Z" fill="#000000" fill-rule="nonzero" fill-opacity="1" /><polyline clip-path="url(#clip010)" style="stroke:#000000; stroke-linecap:round; stroke-linejoin:round; stroke-width:8; stroke-opacity:1; fill:none" points="272.215,352.309 417.369,352.309 "/>
<circle clip-path="url(#clip010)" cx="344.792" cy="352.309" r="19.7486" fill="#000000" fill-rule="evenodd" fill-opacity="1" stroke="none"/>
<path clip-path="url(#clip010)" d="M441.561 335.029 L446.237 335.029 L446.237 369.589 L441.561 369.589 L441.561 335.029 Z" fill="#000000" fill-rule="nonzero" fill-opacity="1" /><path clip-path="url(#clip010)" d="M472.417 347.598 L472.417 333.57 L476.677 333.57 L476.677 369.589 L472.417 369.589 L472.417 365.7 Q471.075 368.015 469.015 369.149 Q466.977 370.26 464.107 370.26 Q459.408 370.26 456.445 366.51 Q453.505 362.76 453.505 356.649 Q453.505 350.538 456.445 346.788 Q459.408 343.038 464.107 343.038 Q466.977 343.038 469.015 344.172 Q471.075 345.283 472.417 347.598 M457.903 356.649 Q457.903 361.348 459.825 364.033 Q461.769 366.695 465.149 366.695 Q468.528 366.695 470.473 364.033 Q472.417 361.348 472.417 356.649 Q472.417 351.95 470.473 349.288 Q468.528 346.603 465.149 346.603 Q461.769 346.603 459.825 349.288 Q457.903 351.95 457.903 356.649 Z" fill="#000000" fill-rule="nonzero" fill-opacity="1" /><path clip-path="url(#clip010)" d="M507.625 355.561 L507.625 357.644 L488.042 357.644 Q488.32 362.042 490.681 364.357 Q493.065 366.649 497.301 366.649 Q499.755 366.649 502.047 366.047 Q504.362 365.445 506.63 364.241 L506.63 368.269 Q504.338 369.241 501.931 369.751 Q499.524 370.26 497.047 370.26 Q490.843 370.26 487.209 366.649 Q483.598 363.038 483.598 356.88 Q483.598 350.515 487.024 346.788 Q490.473 343.038 496.306 343.038 Q501.537 343.038 504.57 346.417 Q507.625 349.774 507.625 355.561 M503.366 354.311 Q503.32 350.816 501.399 348.732 Q499.5 346.649 496.352 346.649 Q492.788 346.649 490.635 348.663 Q488.505 350.677 488.181 354.334 L503.366 354.311 Z" fill="#000000" fill-rule="nonzero" fill-opacity="1" /><path clip-path="url(#clip010)" d="M526.398 356.556 Q521.236 356.556 519.246 357.737 Q517.255 358.917 517.255 361.765 Q517.255 364.033 518.736 365.376 Q520.241 366.695 522.811 366.695 Q526.352 366.695 528.482 364.195 Q530.635 361.672 530.635 357.505 L530.635 356.556 L526.398 356.556 M534.894 354.797 L534.894 369.589 L530.635 369.589 L530.635 365.653 Q529.176 368.015 527 369.149 Q524.824 370.26 521.676 370.26 Q517.695 370.26 515.334 368.038 Q512.996 365.792 512.996 362.042 Q512.996 357.667 515.912 355.445 Q518.852 353.223 524.662 353.223 L530.635 353.223 L530.635 352.806 Q530.635 349.867 528.69 348.269 Q526.769 346.649 523.273 346.649 Q521.051 346.649 518.945 347.181 Q516.838 347.714 514.894 348.779 L514.894 344.843 Q517.232 343.941 519.431 343.501 Q521.63 343.038 523.713 343.038 Q529.338 343.038 532.116 345.954 Q534.894 348.871 534.894 354.797 Z" fill="#000000" fill-rule="nonzero" fill-opacity="1" /><path clip-path="url(#clip010)" d="M543.667 333.57 L547.926 333.57 L547.926 369.589 L543.667 369.589 L543.667 333.57 Z" fill="#000000" fill-rule="nonzero" fill-opacity="1" /><path clip-path="url(#clip010)" d="M588.435 344.427 L588.435 348.454 Q586.63 347.529 584.685 347.066 Q582.741 346.603 580.657 346.603 Q577.486 346.603 575.889 347.575 Q574.315 348.547 574.315 350.491 Q574.315 351.973 575.449 352.829 Q576.583 353.663 580.009 354.427 L581.468 354.751 Q586.005 355.723 587.903 357.505 Q589.824 359.265 589.824 362.436 Q589.824 366.047 586.954 368.153 Q584.106 370.26 579.107 370.26 Q577.023 370.26 574.755 369.843 Q572.509 369.45 570.009 368.64 L570.009 364.241 Q572.37 365.468 574.662 366.093 Q576.954 366.695 579.199 366.695 Q582.208 366.695 583.829 365.677 Q585.449 364.635 585.449 362.76 Q585.449 361.024 584.269 360.098 Q583.111 359.172 579.153 358.316 L577.671 357.968 Q573.713 357.135 571.954 355.422 Q570.195 353.686 570.195 350.677 Q570.195 347.019 572.787 345.029 Q575.38 343.038 580.148 343.038 Q582.509 343.038 584.593 343.385 Q586.676 343.732 588.435 344.427 Z" fill="#000000" fill-rule="nonzero" fill-opacity="1" /><path clip-path="url(#clip010)" d="M615.264 344.658 L615.264 348.64 Q613.458 347.644 611.629 347.158 Q609.824 346.649 607.972 346.649 Q603.829 346.649 601.537 349.288 Q599.245 351.904 599.245 356.649 Q599.245 361.394 601.537 364.033 Q603.829 366.649 607.972 366.649 Q609.824 366.649 611.629 366.163 Q613.458 365.653 615.264 364.658 L615.264 368.593 Q613.481 369.427 611.56 369.843 Q609.662 370.26 607.509 370.26 Q601.653 370.26 598.204 366.579 Q594.755 362.899 594.755 356.649 Q594.755 350.306 598.227 346.672 Q601.722 343.038 607.787 343.038 Q609.755 343.038 611.629 343.455 Q613.504 343.848 615.264 344.658 Z" fill="#000000" fill-rule="nonzero" fill-opacity="1" /><path clip-path="url(#clip010)" d="M634.453 356.556 Q629.291 356.556 627.301 357.737 Q625.31 358.917 625.31 361.765 Q625.31 364.033 626.791 365.376 Q628.296 366.695 630.866 366.695 Q634.407 366.695 636.537 364.195 Q638.69 361.672 638.69 357.505 L638.69 356.556 L634.453 356.556 M642.949 354.797 L642.949 369.589 L638.69 369.589 L638.69 365.653 Q637.231 368.015 635.055 369.149 Q632.879 370.26 629.731 370.26 Q625.75 370.26 623.389 368.038 Q621.051 365.792 621.051 362.042 Q621.051 357.667 623.967 355.445 Q626.907 353.223 632.717 353.223 L638.69 353.223 L638.69 352.806 Q638.69 349.867 636.745 348.269 Q634.824 346.649 631.328 346.649 Q629.106 346.649 627 347.181 Q624.893 347.714 622.949 348.779 L622.949 344.843 Q625.287 343.941 627.486 343.501 Q629.685 343.038 631.768 343.038 Q637.393 343.038 640.171 345.954 Q642.949 348.871 642.949 354.797 Z" fill="#000000" fill-rule="nonzero" fill-opacity="1" /><path clip-path="url(#clip010)" d="M651.722 333.57 L655.981 333.57 L655.981 369.589 L651.722 369.589 L651.722 333.57 Z" fill="#000000" fill-rule="nonzero" fill-opacity="1" /><path clip-path="url(#clip010)" d="M664.893 343.663 L669.152 343.663 L669.152 369.589 L664.893 369.589 L664.893 343.663 M664.893 333.57 L669.152 333.57 L669.152 338.964 L664.893 338.964 L664.893 333.57 Z" fill="#000000" fill-rule="nonzero" fill-opacity="1" /><path clip-path="url(#clip010)" d="M699.615 353.941 L699.615 369.589 L695.356 369.589 L695.356 354.079 Q695.356 350.399 693.921 348.57 Q692.486 346.742 689.615 346.742 Q686.166 346.742 684.175 348.941 Q682.185 351.14 682.185 354.936 L682.185 369.589 L677.902 369.589 L677.902 343.663 L682.185 343.663 L682.185 347.691 Q683.712 345.353 685.773 344.195 Q687.856 343.038 690.564 343.038 Q695.032 343.038 697.323 345.816 Q699.615 348.57 699.615 353.941 Z" fill="#000000" fill-rule="nonzero" fill-opacity="1" /><path clip-path="url(#clip010)" d="M725.171 356.325 Q725.171 351.695 723.249 349.149 Q721.351 346.603 717.902 346.603 Q714.476 346.603 712.555 349.149 Q710.657 351.695 710.657 356.325 Q710.657 360.931 712.555 363.478 Q714.476 366.024 717.902 366.024 Q721.351 366.024 723.249 363.478 Q725.171 360.931 725.171 356.325 M729.43 366.371 Q729.43 372.991 726.49 376.209 Q723.55 379.45 717.485 379.45 Q715.24 379.45 713.249 379.102 Q711.259 378.778 709.384 378.084 L709.384 373.94 Q711.259 374.959 713.087 375.445 Q714.916 375.931 716.814 375.931 Q721.004 375.931 723.087 373.732 Q725.171 371.556 725.171 367.135 L725.171 365.028 Q723.851 367.32 721.791 368.454 Q719.731 369.589 716.86 369.589 Q712.092 369.589 709.175 365.954 Q706.259 362.32 706.259 356.325 Q706.259 350.306 709.175 346.672 Q712.092 343.038 716.86 343.038 Q719.731 343.038 721.791 344.172 Q723.851 345.306 725.171 347.598 L725.171 343.663 L729.43 343.663 L729.43 366.371 Z" fill="#000000" fill-rule="nonzero" fill-opacity="1" /></svg>
