<?xml version="1.0" encoding="utf-8"?>
<svg xmlns="http://www.w3.org/2000/svg" xmlns:xlink="http://www.w3.org/1999/xlink" width="600" height="400" viewBox="0 0 2400 1600">
<defs>
  <clipPath id="clip520">
    <rect x="0" y="0" width="2400" height="1600"/>
  </clipPath>
</defs>
<path clip-path="url(#clip520)" d="M0 1600 L2400 1600 L2400 0 L0 0  Z" fill="#ffffff" fill-rule="evenodd" fill-opacity="1"/>
<defs>
  <clipPath id="clip521">
    <rect x="480" y="0" width="1681" height="1600"/>
  </clipPath>
</defs>
<path clip-path="url(#clip520)" d="M175.445 1423.18 L2352.76 1423.18 L2352.76 47.2441 L175.445 47.2441  Z" fill="#ffffff" fill-rule="evenodd" fill-opacity="1"/>
<defs>
  <clipPath id="clip522">
    <rect x="175" y="47" width="2178" height="1377"/>
  </clipPath>
</defs>
<polyline clip-path="url(#clip522)" style="stroke:#000000; stroke-linecap:round; stroke-linejoin:round; stroke-width:2; stroke-opacity:0.1; fill:none" points="175.445,1423.18 175.445,47.2441 "/>
<polyline clip-path="url(#clip522)" style="stroke:#000000; stroke-linecap:round; stroke-linejoin:round; stroke-width:2; stroke-opacity:0.1; fill:none" points="830.881,1423.18 830.881,47.2441 "/>
<polyline clip-path="url(#clip522)" style="stroke:#000000; stroke-linecap:round; stroke-linejoin:round; stroke-width:2; stroke-opacity:0.1; fill:none" points="1214.29,1423.18 1214.29,47.2441 "/>
<polyline clip-path="url(#clip522)" style="stroke:#000000; stroke-linecap:round; stroke-linejoin:round; stroke-width:2; stroke-opacity:0.1; fill:none" points="1486.32,1423.18 1486.32,47.2441 "/>
<polyline clip-path="url(#clip522)" style="stroke:#000000; stroke-linecap:round; stroke-linejoin:round; stroke-width:2; stroke-opacity:0.1; fill:none" points="1697.32,1423.18 1697.32,47.2441 "/>
<polyline clip-path="url(#clip522)" style="stroke:#000000; stroke-linecap:round; stroke-linejoin:round; stroke-width:2; stroke-opacity:0.1; fill:none" points="1869.72,1423.18 1869.72,47.2441 "/>
<polyline clip-path="url(#clip522)" style="stroke:#000000; stroke-linecap:round; stroke-linejoin:round; stroke-width:2; stroke-opacity:0.1; fill:none" points="2015.49,1423.18 2015.49,47.2441 "/>
<polyline clip-path="url(#clip522)" style="stroke:#000000; stroke-linecap:round; stroke-linejoin:round; stroke-width:2; stroke-opacity:0.1; fill:none" points="2141.75,1423.18 2141.75,47.2441 "/>
<polyline clip-path="url(#clip522)" style="stroke:#000000; stroke-linecap:round; stroke-linejoin:round; stroke-width:2; stroke-opacity:0.1; fill:none" points="2253.13,1423.18 2253.13,47.2441 "/>
<polyline clip-path="url(#clip522)" style="stroke:#000000; stroke-linecap:round; stroke-linejoin:round; stroke-width:2; stroke-opacity:0.1; fill:none" points="2352.76,1423.18 2352.76,47.2441 "/>
<polyline clip-path="url(#clip522)" style="stroke:#000000; stroke-linecap:round; stroke-linejoin:round; stroke-width:2; stroke-opacity:0.1; fill:none" points="175.445,1423.18 175.445,47.2441 "/>
<polyline clip-path="url(#clip522)" style="stroke:#000000; stroke-linecap:round; stroke-linejoin:round; stroke-width:2; stroke-opacity:0.1; fill:none" points="830.881,1423.18 830.881,47.2441 "/>
<polyline clip-path="url(#clip522)" style="stroke:#000000; stroke-linecap:round; stroke-linejoin:round; stroke-width:2; stroke-opacity:0.1; fill:none" points="1214.29,1423.18 1214.29,47.2441 "/>
<polyline clip-path="url(#clip522)" style="stroke:#000000; stroke-linecap:round; stroke-linejoin:round; stroke-width:2; stroke-opacity:0.1; fill:none" points="1486.32,1423.18 1486.32,47.2441 "/>
<polyline clip-path="url(#clip522)" style="stroke:#000000; stroke-linecap:round; stroke-linejoin:round; stroke-width:2; stroke-opacity:0.1; fill:none" points="1697.32,1423.18 1697.32,47.2441 "/>
<polyline clip-path="url(#clip522)" style="stroke:#000000; stroke-linecap:round; stroke-linejoin:round; stroke-width:2; stroke-opacity:0.1; fill:none" points="1869.72,1423.18 1869.72,47.2441 "/>
<polyline clip-path="url(#clip522)" style="stroke:#000000; stroke-linecap:round; stroke-linejoin:round; stroke-width:2; stroke-opacity:0.1; fill:none" points="2015.49,1423.18 2015.49,47.2441 "/>
<polyline clip-path="url(#clip522)" style="stroke:#000000; stroke-linecap:round; stroke-linejoin:round; stroke-width:2; stroke-opacity:0.1; fill:none" points="2141.75,1423.18 2141.75,47.2441 "/>
<polyline clip-path="url(#clip522)" style="stroke:#000000; stroke-linecap:round; stroke-linejoin:round; stroke-width:2; stroke-opacity:0.1; fill:none" points="2253.13,1423.18 2253.13,47.2441 "/>
<polyline clip-path="url(#clip522)" style="stroke:#000000; stroke-linecap:round; stroke-linejoin:round; stroke-width:2; stroke-opacity:0.1; fill:none" points="2352.76,1423.18 2352.76,47.2441 "/>
<polyline clip-path="url(#clip522)" style="stroke:#000000; stroke-linecap:round; stroke-linejoin:round; stroke-width:2; stroke-opacity:0.1; fill:none" points="175.445,1423.18 2352.76,1423.18 "/>
<polyline clip-path="url(#clip522)" style="stroke:#000000; stroke-linecap:round; stroke-linejoin:round; stroke-width:2; stroke-opacity:0.1; fill:none" points="175.445,964.535 2352.76,964.535 "/>
<polyline clip-path="url(#clip522)" style="stroke:#000000; stroke-linecap:round; stroke-linejoin:round; stroke-width:2; stroke-opacity:0.1; fill:none" points="175.445,696.244 2352.76,696.244 "/>
<polyline clip-path="url(#clip522)" style="stroke:#000000; stroke-linecap:round; stroke-linejoin:round; stroke-width:2; stroke-opacity:0.1; fill:none" points="175.445,505.889 2352.76,505.889 "/>
<polyline clip-path="url(#clip522)" style="stroke:#000000; stroke-linecap:round; stroke-linejoin:round; stroke-width:2; stroke-opacity:0.1; fill:none" points="175.445,358.239 2352.76,358.239 "/>
<polyline clip-path="url(#clip522)" style="stroke:#000000; stroke-linecap:round; stroke-linejoin:round; stroke-width:2; stroke-opacity:0.1; fill:none" points="175.445,237.599 2352.76,237.599 "/>
<polyline clip-path="url(#clip522)" style="stroke:#000000; stroke-linecap:round; stroke-linejoin:round; stroke-width:2; stroke-opacity:0.1; fill:none" points="175.445,135.6 2352.76,135.6 "/>
<polyline clip-path="url(#clip522)" style="stroke:#000000; stroke-linecap:round; stroke-linejoin:round; stroke-width:2; stroke-opacity:0.1; fill:none" points="175.445,47.2441 2352.76,47.2441 "/>
<polyline clip-path="url(#clip522)" style="stroke:#000000; stroke-linecap:round; stroke-linejoin:round; stroke-width:2; stroke-opacity:0.1; fill:none" points="175.445,1423.18 2352.76,1423.18 "/>
<polyline clip-path="url(#clip522)" style="stroke:#000000; stroke-linecap:round; stroke-linejoin:round; stroke-width:2; stroke-opacity:0.1; fill:none" points="175.445,964.535 2352.76,964.535 "/>
<polyline clip-path="url(#clip522)" style="stroke:#000000; stroke-linecap:round; stroke-linejoin:round; stroke-width:2; stroke-opacity:0.1; fill:none" points="175.445,696.244 2352.76,696.244 "/>
<polyline clip-path="url(#clip522)" style="stroke:#000000; stroke-linecap:round; stroke-linejoin:round; stroke-width:2; stroke-opacity:0.1; fill:none" points="175.445,505.889 2352.76,505.889 "/>
<polyline clip-path="url(#clip522)" style="stroke:#000000; stroke-linecap:round; stroke-linejoin:round; stroke-width:2; stroke-opacity:0.1; fill:none" points="175.445,358.239 2352.76,358.239 "/>
<polyline clip-path="url(#clip522)" style="stroke:#000000; stroke-linecap:round; stroke-linejoin:round; stroke-width:2; stroke-opacity:0.1; fill:none" points="175.445,237.599 2352.76,237.599 "/>
<polyline clip-path="url(#clip522)" style="stroke:#000000; stroke-linecap:round; stroke-linejoin:round; stroke-width:2; stroke-opacity:0.1; fill:none" points="175.445,135.6 2352.76,135.6 "/>
<polyline clip-path="url(#clip522)" style="stroke:#000000; stroke-linecap:round; stroke-linejoin:round; stroke-width:2; stroke-opacity:0.1; fill:none" points="175.445,47.2441 2352.76,47.2441 "/>
<polyline clip-path="url(#clip520)" style="stroke:#000000; stroke-linecap:round; stroke-linejoin:round; stroke-width:4; stroke-opacity:1; fill:none" points="175.445,1423.18 2352.76,1423.18 "/>
<polyline clip-path="url(#clip520)" style="stroke:#000000; stroke-linecap:round; stroke-linejoin:round; stroke-width:4; stroke-opacity:1; fill:none" points="175.445,47.2441 2352.76,47.2441 "/>
<polyline clip-path="url(#clip520)" style="stroke:#000000; stroke-linecap:round; stroke-linejoin:round; stroke-width:4; stroke-opacity:1; fill:none" points="175.445,1423.18 175.445,1404.28 "/>
<polyline clip-path="url(#clip520)" style="stroke:#000000; stroke-linecap:round; stroke-linejoin:round; stroke-width:4; stroke-opacity:1; fill:none" points="830.881,1423.18 830.881,1404.28 "/>
<polyline clip-path="url(#clip520)" style="stroke:#000000; stroke-linecap:round; stroke-linejoin:round; stroke-width:4; stroke-opacity:1; fill:none" points="1214.29,1423.18 1214.29,1404.28 "/>
<polyline clip-path="url(#clip520)" style="stroke:#000000; stroke-linecap:round; stroke-linejoin:round; stroke-width:4; stroke-opacity:1; fill:none" points="1486.32,1423.18 1486.32,1404.28 "/>
<polyline clip-path="url(#clip520)" style="stroke:#000000; stroke-linecap:round; stroke-linejoin:round; stroke-width:4; stroke-opacity:1; fill:none" points="1697.32,1423.18 1697.32,1404.28 "/>
<polyline clip-path="url(#clip520)" style="stroke:#000000; stroke-linecap:round; stroke-linejoin:round; stroke-width:4; stroke-opacity:1; fill:none" points="1869.72,1423.18 1869.72,1404.28 "/>
<polyline clip-path="url(#clip520)" style="stroke:#000000; stroke-linecap:round; stroke-linejoin:round; stroke-width:4; stroke-opacity:1; fill:none" points="2015.49,1423.18 2015.49,1404.28 "/>
<polyline clip-path="url(#clip520)" style="stroke:#000000; stroke-linecap:round; stroke-linejoin:round; stroke-width:4; stroke-opacity:1; fill:none" points="2141.75,1423.18 2141.75,1404.28 "/>
<polyline clip-path="url(#clip520)" style="stroke:#000000; stroke-linecap:round; stroke-linejoin:round; stroke-width:4; stroke-opacity:1; fill:none" points="2253.13,1423.18 2253.13,1404.28 "/>
<polyline clip-path="url(#clip520)" style="stroke:#000000; stroke-linecap:round; stroke-linejoin:round; stroke-width:4; stroke-opacity:1; fill:none" points="2352.76,1423.18 2352.76,1404.28 "/>
<polyline clip-path="url(#clip520)" style="stroke:#000000; stroke-linecap:round; stroke-linejoin:round; stroke-width:4; stroke-opacity:1; fill:none" points="175.445,47.2441 175.445,66.1417 "/>
<polyline clip-path="url(#clip520)" style="stroke:#000000; stroke-linecap:round; stroke-linejoin:round; stroke-width:4; stroke-opacity:1; fill:none" points="830.881,47.2441 830.881,66.1417 "/>
<polyline clip-path="url(#clip520)" style="stroke:#000000; stroke-linecap:round; stroke-linejoin:round; stroke-width:4; stroke-opacity:1; fill:none" points="1214.29,47.2441 1214.29,66.1417 "/>
<polyline clip-path="url(#clip520)" style="stroke:#000000; stroke-linecap:round; stroke-linejoin:round; stroke-width:4; stroke-opacity:1; fill:none" points="1486.32,47.2441 1486.32,66.1417 "/>
<polyline clip-path="url(#clip520)" style="stroke:#000000; stroke-linecap:round; stroke-linejoin:round; stroke-width:4; stroke-opacity:1; fill:none" points="1697.32,47.2441 1697.32,66.1417 "/>
<polyline clip-path="url(#clip520)" style="stroke:#000000; stroke-linecap:round; stroke-linejoin:round; stroke-width:4; stroke-opacity:1; fill:none" points="1869.72,47.2441 1869.72,66.1417 "/>
<polyline clip-path="url(#clip520)" style="stroke:#000000; stroke-linecap:round; stroke-linejoin:round; stroke-width:4; stroke-opacity:1; fill:none" points="2015.49,47.2441 2015.49,66.1417 "/>
<polyline clip-path="url(#clip520)" style="stroke:#000000; stroke-linecap:round; stroke-linejoin:round; stroke-width:4; stroke-opacity:1; fill:none" points="2141.75,47.2441 2141.75,66.1417 "/>
<polyline clip-path="url(#clip520)" style="stroke:#000000; stroke-linecap:round; stroke-linejoin:round; stroke-width:4; stroke-opacity:1; fill:none" points="2253.13,47.2441 2253.13,66.1417 "/>
<polyline clip-path="url(#clip520)" style="stroke:#000000; stroke-linecap:round; stroke-linejoin:round; stroke-width:4; stroke-opacity:1; fill:none" points="2352.76,47.2441 2352.76,66.1417 "/>
<path clip-path="url(#clip520)" d="M165.827 1481.64 L173.466 1481.64 L173.466 1455.28 L165.156 1456.95 L165.156 1452.69 L173.42 1451.02 L178.096 1451.02 L178.096 1481.64 L185.735 1481.64 L185.735 1485.58 L165.827 1485.58 L165.827 1481.64 Z" fill="#000000" fill-rule="nonzero" fill-opacity="1" /><path clip-path="url(#clip520)" d="M825.534 1481.64 L841.853 1481.64 L841.853 1485.58 L819.909 1485.58 L819.909 1481.64 Q822.571 1478.89 827.154 1474.26 Q831.761 1469.61 832.941 1468.27 Q835.187 1465.74 836.066 1464.01 Q836.969 1462.25 836.969 1460.56 Q836.969 1457.8 835.025 1456.07 Q833.103 1454.33 830.001 1454.33 Q827.802 1454.33 825.349 1455.09 Q822.918 1455.86 820.14 1457.41 L820.14 1452.69 Q822.964 1451.55 825.418 1450.97 Q827.872 1450.39 829.909 1450.39 Q835.279 1450.39 838.474 1453.08 Q841.668 1455.77 841.668 1460.26 Q841.668 1462.39 840.858 1464.31 Q840.071 1466.2 837.964 1468.8 Q837.386 1469.47 834.284 1472.69 Q831.182 1475.88 825.534 1481.64 Z" fill="#000000" fill-rule="nonzero" fill-opacity="1" /><path clip-path="url(#clip520)" d="M1218.53 1466.95 Q1221.89 1467.66 1223.77 1469.93 Q1225.66 1472.2 1225.66 1475.53 Q1225.66 1480.65 1222.15 1483.45 Q1218.63 1486.25 1212.15 1486.25 Q1209.97 1486.25 1207.65 1485.81 Q1205.36 1485.39 1202.91 1484.54 L1202.91 1480.02 Q1204.85 1481.16 1207.17 1481.74 Q1209.48 1482.32 1212.01 1482.32 Q1216.4 1482.32 1218.7 1480.58 Q1221.01 1478.84 1221.01 1475.53 Q1221.01 1472.48 1218.86 1470.77 Q1216.73 1469.03 1212.91 1469.03 L1208.88 1469.03 L1208.88 1465.19 L1213.09 1465.19 Q1216.54 1465.19 1218.37 1463.82 Q1220.2 1462.43 1220.2 1459.84 Q1220.2 1457.18 1218.3 1455.77 Q1216.43 1454.33 1212.91 1454.33 Q1210.99 1454.33 1208.79 1454.75 Q1206.59 1455.16 1203.95 1456.04 L1203.95 1451.88 Q1206.61 1451.14 1208.93 1450.77 Q1211.27 1450.39 1213.33 1450.39 Q1218.65 1450.39 1221.75 1452.83 Q1224.85 1455.23 1224.85 1459.35 Q1224.85 1462.22 1223.21 1464.21 Q1221.57 1466.18 1218.53 1466.95 Z" fill="#000000" fill-rule="nonzero" fill-opacity="1" /><path clip-path="url(#clip520)" d="M1489.33 1455.09 L1477.52 1473.54 L1489.33 1473.54 L1489.33 1455.09 M1488.1 1451.02 L1493.98 1451.02 L1493.98 1473.54 L1498.91 1473.54 L1498.91 1477.43 L1493.98 1477.43 L1493.98 1485.58 L1489.33 1485.58 L1489.33 1477.43 L1473.72 1477.43 L1473.72 1472.92 L1488.1 1451.02 Z" fill="#000000" fill-rule="nonzero" fill-opacity="1" /><path clip-path="url(#clip520)" d="M1687.6 1451.02 L1705.95 1451.02 L1705.95 1454.96 L1691.88 1454.96 L1691.88 1463.43 Q1692.9 1463.08 1693.92 1462.92 Q1694.94 1462.73 1695.95 1462.73 Q1701.74 1462.73 1705.12 1465.9 Q1708.5 1469.08 1708.5 1474.49 Q1708.5 1480.07 1705.03 1483.17 Q1701.56 1486.25 1695.24 1486.25 Q1693.06 1486.25 1690.79 1485.88 Q1688.55 1485.51 1686.14 1484.77 L1686.14 1480.07 Q1688.22 1481.2 1690.45 1481.76 Q1692.67 1482.32 1695.14 1482.32 Q1699.15 1482.32 1701.49 1480.21 Q1703.82 1478.1 1703.82 1474.49 Q1703.82 1470.88 1701.49 1468.77 Q1699.15 1466.67 1695.14 1466.67 Q1693.27 1466.67 1691.39 1467.08 Q1689.54 1467.5 1687.6 1468.38 L1687.6 1451.02 Z" fill="#000000" fill-rule="nonzero" fill-opacity="1" /><path clip-path="url(#clip520)" d="M1870.13 1466.44 Q1866.98 1466.44 1865.13 1468.59 Q1863.3 1470.74 1863.3 1474.49 Q1863.3 1478.22 1865.13 1480.39 Q1866.98 1482.55 1870.13 1482.55 Q1873.28 1482.55 1875.1 1480.39 Q1876.96 1478.22 1876.96 1474.49 Q1876.96 1470.74 1875.1 1468.59 Q1873.28 1466.44 1870.13 1466.44 M1879.41 1451.78 L1879.41 1456.04 Q1877.65 1455.21 1875.84 1454.77 Q1874.06 1454.33 1872.3 1454.33 Q1867.67 1454.33 1865.22 1457.45 Q1862.79 1460.58 1862.44 1466.9 Q1863.81 1464.89 1865.87 1463.82 Q1867.93 1462.73 1870.41 1462.73 Q1875.61 1462.73 1878.62 1465.9 Q1881.66 1469.05 1881.66 1474.49 Q1881.66 1479.82 1878.51 1483.03 Q1875.36 1486.25 1870.13 1486.25 Q1864.13 1486.25 1860.96 1481.67 Q1857.79 1477.06 1857.79 1468.33 Q1857.79 1460.14 1861.68 1455.28 Q1865.57 1450.39 1872.12 1450.39 Q1873.88 1450.39 1875.66 1450.74 Q1877.47 1451.09 1879.41 1451.78 Z" fill="#000000" fill-rule="nonzero" fill-opacity="1" /><path clip-path="url(#clip520)" d="M2004.38 1451.02 L2026.6 1451.02 L2026.6 1453.01 L2014.05 1485.58 L2009.17 1485.58 L2020.97 1454.96 L2004.38 1454.96 L2004.38 1451.02 Z" fill="#000000" fill-rule="nonzero" fill-opacity="1" /><path clip-path="url(#clip520)" d="M2141.75 1469.17 Q2138.42 1469.17 2136.5 1470.95 Q2134.6 1472.73 2134.6 1475.86 Q2134.6 1478.98 2136.5 1480.77 Q2138.42 1482.55 2141.75 1482.55 Q2145.09 1482.55 2147.01 1480.77 Q2148.93 1478.96 2148.93 1475.86 Q2148.93 1472.73 2147.01 1470.95 Q2145.11 1469.17 2141.75 1469.17 M2137.08 1467.18 Q2134.07 1466.44 2132.38 1464.38 Q2130.71 1462.32 2130.71 1459.35 Q2130.71 1455.21 2133.65 1452.8 Q2136.61 1450.39 2141.75 1450.39 Q2146.91 1450.39 2149.85 1452.8 Q2152.79 1455.21 2152.79 1459.35 Q2152.79 1462.32 2151.1 1464.38 Q2149.44 1466.44 2146.45 1467.18 Q2149.83 1467.96 2151.71 1470.26 Q2153.6 1472.55 2153.6 1475.86 Q2153.6 1480.88 2150.53 1483.57 Q2147.47 1486.25 2141.75 1486.25 Q2136.04 1486.25 2132.96 1483.57 Q2129.9 1480.88 2129.9 1475.86 Q2129.9 1472.55 2131.8 1470.26 Q2133.7 1467.96 2137.08 1467.18 M2135.36 1459.79 Q2135.36 1462.48 2137.03 1463.98 Q2138.72 1465.49 2141.75 1465.49 Q2144.76 1465.49 2146.45 1463.98 Q2148.16 1462.48 2148.16 1459.79 Q2148.16 1457.11 2146.45 1455.6 Q2144.76 1454.1 2141.75 1454.1 Q2138.72 1454.1 2137.03 1455.6 Q2135.36 1457.11 2135.36 1459.79 Z" fill="#000000" fill-rule="nonzero" fill-opacity="1" /><path clip-path="url(#clip520)" d="M2243.43 1484.86 L2243.43 1480.6 Q2245.19 1481.44 2246.99 1481.88 Q2248.8 1482.32 2250.54 1482.32 Q2255.16 1482.32 2257.6 1479.21 Q2260.05 1476.09 2260.4 1469.75 Q2259.05 1471.74 2256.99 1472.8 Q2254.93 1473.87 2252.43 1473.87 Q2247.25 1473.87 2244.22 1470.74 Q2241.21 1467.59 2241.21 1462.15 Q2241.21 1456.83 2244.35 1453.61 Q2247.5 1450.39 2252.73 1450.39 Q2258.73 1450.39 2261.88 1455 Q2265.05 1459.58 2265.05 1468.33 Q2265.05 1476.51 2261.16 1481.39 Q2257.29 1486.25 2250.74 1486.25 Q2248.98 1486.25 2247.18 1485.9 Q2245.37 1485.56 2243.43 1484.86 M2252.73 1470.21 Q2255.88 1470.21 2257.71 1468.06 Q2259.56 1465.9 2259.56 1462.15 Q2259.56 1458.43 2257.71 1456.27 Q2255.88 1454.1 2252.73 1454.1 Q2249.59 1454.1 2247.73 1456.27 Q2245.91 1458.43 2245.91 1462.15 Q2245.91 1465.9 2247.73 1468.06 Q2249.59 1470.21 2252.73 1470.21 Z" fill="#000000" fill-rule="nonzero" fill-opacity="1" /><path clip-path="url(#clip520)" d="M2327.44 1481.64 L2335.08 1481.64 L2335.08 1455.28 L2326.77 1456.95 L2326.77 1452.69 L2335.04 1451.02 L2339.71 1451.02 L2339.71 1481.64 L2347.35 1481.64 L2347.35 1485.58 L2327.44 1485.58 L2327.44 1481.64 Z" fill="#000000" fill-rule="nonzero" fill-opacity="1" /><path clip-path="url(#clip520)" d="M2366.8 1454.1 Q2363.18 1454.1 2361.36 1457.66 Q2359.55 1461.2 2359.55 1468.33 Q2359.55 1475.44 2361.36 1479.01 Q2363.18 1482.55 2366.8 1482.55 Q2370.43 1482.55 2372.23 1479.01 Q2374.06 1475.44 2374.06 1468.33 Q2374.06 1461.2 2372.23 1457.66 Q2370.43 1454.1 2366.8 1454.1 M2366.8 1450.39 Q2372.61 1450.39 2375.66 1455 Q2378.74 1459.58 2378.74 1468.33 Q2378.74 1477.06 2375.66 1481.67 Q2372.61 1486.25 2366.8 1486.25 Q2360.99 1486.25 2357.91 1481.67 Q2354.85 1477.06 2354.85 1468.33 Q2354.85 1459.58 2357.91 1455 Q2360.99 1450.39 2366.8 1450.39 Z" fill="#000000" fill-rule="nonzero" fill-opacity="1" /><path clip-path="url(#clip520)" d="M1083.27 1539.37 L1074 1539.37 L1071.33 1550 L1080.66 1550 L1083.27 1539.37 M1078.49 1521.26 L1075.18 1534.46 L1084.48 1534.46 L1087.82 1521.26 L1092.91 1521.26 L1089.63 1534.46 L1099.56 1534.46 L1099.56 1539.37 L1088.39 1539.37 L1085.78 1550 L1095.9 1550 L1095.9 1554.87 L1084.54 1554.87 L1081.23 1568.04 L1076.14 1568.04 L1079.42 1554.87 L1070.09 1554.87 L1066.81 1568.04 L1061.69 1568.04 L1065 1554.87 L1054.97 1554.87 L1054.97 1550 L1066.17 1550 L1068.85 1539.37 L1058.6 1539.37 L1058.6 1534.46 L1070.09 1534.46 L1073.34 1521.26 L1078.49 1521.26 Z" fill="#000000" fill-rule="nonzero" fill-opacity="1" /><path clip-path="url(#clip520)" d="M1137.09 1562.7 L1137.09 1581.6 L1131.2 1581.6 L1131.2 1532.4 L1137.09 1532.4 L1137.09 1537.81 Q1138.93 1534.62 1141.74 1533.1 Q1144.57 1531.54 1148.48 1531.54 Q1154.98 1531.54 1159.02 1536.69 Q1163.09 1541.85 1163.09 1550.25 Q1163.09 1558.65 1159.02 1563.81 Q1154.98 1568.97 1148.48 1568.97 Q1144.57 1568.97 1141.74 1567.44 Q1138.93 1565.88 1137.09 1562.7 M1157.01 1550.25 Q1157.01 1543.79 1154.34 1540.13 Q1151.7 1536.44 1147.05 1536.44 Q1142.4 1536.44 1139.73 1540.13 Q1137.09 1543.79 1137.09 1550.25 Q1137.09 1556.71 1139.73 1560.4 Q1142.4 1564.07 1147.05 1564.07 Q1151.7 1564.07 1154.34 1560.4 Q1157.01 1556.71 1157.01 1550.25 Z" fill="#000000" fill-rule="nonzero" fill-opacity="1" /><path clip-path="url(#clip520)" d="M1193.46 1537.87 Q1192.47 1537.3 1191.29 1537.04 Q1190.15 1536.76 1188.75 1536.76 Q1183.78 1536.76 1181.11 1540 Q1178.47 1543.22 1178.47 1549.27 L1178.47 1568.04 L1172.58 1568.04 L1172.58 1532.4 L1178.47 1532.4 L1178.47 1537.93 Q1180.31 1534.69 1183.27 1533.13 Q1186.23 1531.54 1190.47 1531.54 Q1191.07 1531.54 1191.8 1531.63 Q1192.53 1531.7 1193.43 1531.85 L1193.46 1537.87 Z" fill="#000000" fill-rule="nonzero" fill-opacity="1" /><path clip-path="url(#clip520)" d="M1211.98 1536.5 Q1207.27 1536.5 1204.53 1540.19 Q1201.8 1543.85 1201.8 1550.25 Q1201.8 1556.65 1204.5 1560.34 Q1207.24 1564 1211.98 1564 Q1216.66 1564 1219.4 1560.31 Q1222.13 1556.62 1222.13 1550.25 Q1222.13 1543.92 1219.4 1540.23 Q1216.66 1536.5 1211.98 1536.5 M1211.98 1531.54 Q1219.62 1531.54 1223.98 1536.5 Q1228.34 1541.47 1228.34 1550.25 Q1228.34 1559 1223.98 1564 Q1219.62 1568.97 1211.98 1568.97 Q1204.31 1568.97 1199.95 1564 Q1195.62 1559 1195.62 1550.25 Q1195.62 1541.47 1199.95 1536.5 Q1204.31 1531.54 1211.98 1531.54 Z" fill="#000000" fill-rule="nonzero" fill-opacity="1" /><path clip-path="url(#clip520)" d="M1263.7 1533.76 L1263.7 1539.24 Q1261.22 1537.87 1258.71 1537.2 Q1256.22 1536.5 1253.68 1536.5 Q1247.98 1536.5 1244.83 1540.13 Q1241.68 1543.73 1241.68 1550.25 Q1241.68 1556.78 1244.83 1560.4 Q1247.98 1564 1253.68 1564 Q1256.22 1564 1258.71 1563.33 Q1261.22 1562.63 1263.7 1561.26 L1263.7 1566.68 Q1261.25 1567.82 1258.61 1568.39 Q1256 1568.97 1253.04 1568.97 Q1244.99 1568.97 1240.25 1563.91 Q1235.5 1558.85 1235.5 1550.25 Q1235.5 1541.53 1240.28 1536.53 Q1245.08 1531.54 1253.42 1531.54 Q1256.13 1531.54 1258.71 1532.11 Q1261.28 1532.65 1263.7 1533.76 Z" fill="#000000" fill-rule="nonzero" fill-opacity="1" /><path clip-path="url(#clip520)" d="M1304.38 1548.76 L1304.38 1551.62 L1277.45 1551.62 Q1277.83 1557.67 1281.08 1560.85 Q1284.36 1564 1290.18 1564 Q1293.56 1564 1296.71 1563.17 Q1299.89 1562.35 1303.01 1560.69 L1303.01 1566.23 Q1299.86 1567.57 1296.55 1568.27 Q1293.24 1568.97 1289.83 1568.97 Q1281.3 1568.97 1276.31 1564 Q1271.34 1559.04 1271.34 1550.57 Q1271.34 1541.82 1276.05 1536.69 Q1280.79 1531.54 1288.82 1531.54 Q1296.01 1531.54 1300.18 1536.18 Q1304.38 1540.8 1304.38 1548.76 M1298.52 1547.04 Q1298.46 1542.23 1295.82 1539.37 Q1293.21 1536.5 1288.88 1536.5 Q1283.98 1536.5 1281.02 1539.27 Q1278.09 1542.04 1277.64 1547.07 L1298.52 1547.04 Z" fill="#000000" fill-rule="nonzero" fill-opacity="1" /><path clip-path="url(#clip520)" d="M1336.72 1533.45 L1336.72 1538.98 Q1334.23 1537.71 1331.56 1537.07 Q1328.89 1536.44 1326.02 1536.44 Q1321.66 1536.44 1319.47 1537.77 Q1317.3 1539.11 1317.3 1541.79 Q1317.3 1543.82 1318.86 1545 Q1320.42 1546.15 1325.13 1547.2 L1327.14 1547.64 Q1333.38 1548.98 1335.99 1551.43 Q1338.63 1553.85 1338.63 1558.21 Q1338.63 1563.17 1334.68 1566.07 Q1330.77 1568.97 1323.89 1568.97 Q1321.03 1568.97 1317.91 1568.39 Q1314.82 1567.85 1311.38 1566.74 L1311.38 1560.69 Q1314.63 1562.38 1317.78 1563.24 Q1320.93 1564.07 1324.02 1564.07 Q1328.16 1564.07 1330.38 1562.66 Q1332.61 1561.23 1332.61 1558.65 Q1332.61 1556.27 1330.99 1554.99 Q1329.4 1553.72 1323.95 1552.54 L1321.92 1552.07 Q1316.47 1550.92 1314.06 1548.56 Q1311.64 1546.18 1311.64 1542.04 Q1311.64 1537.01 1315.2 1534.27 Q1318.77 1531.54 1325.32 1531.54 Q1328.57 1531.54 1331.43 1532.01 Q1334.3 1532.49 1336.72 1533.45 Z" fill="#000000" fill-rule="nonzero" fill-opacity="1" /><path clip-path="url(#clip520)" d="M1370.68 1533.45 L1370.68 1538.98 Q1368.2 1537.71 1365.52 1537.07 Q1362.85 1536.44 1359.98 1536.44 Q1355.62 1536.44 1353.43 1537.77 Q1351.26 1539.11 1351.26 1541.79 Q1351.26 1543.82 1352.82 1545 Q1354.38 1546.15 1359.09 1547.2 L1361.1 1547.64 Q1367.34 1548.98 1369.95 1551.43 Q1372.59 1553.85 1372.59 1558.21 Q1372.59 1563.17 1368.64 1566.07 Q1364.73 1568.97 1357.85 1568.97 Q1354.99 1568.97 1351.87 1568.39 Q1348.78 1567.85 1345.34 1566.74 L1345.34 1560.69 Q1348.59 1562.38 1351.74 1563.24 Q1354.89 1564.07 1357.98 1564.07 Q1362.12 1564.07 1364.34 1562.66 Q1366.57 1561.23 1366.57 1558.65 Q1366.57 1556.27 1364.95 1554.99 Q1363.36 1553.72 1357.92 1552.54 L1355.88 1552.07 Q1350.44 1550.92 1348.02 1548.56 Q1345.6 1546.18 1345.6 1542.04 Q1345.6 1537.01 1349.16 1534.27 Q1352.73 1531.54 1359.28 1531.54 Q1362.53 1531.54 1365.39 1532.01 Q1368.26 1532.49 1370.68 1533.45 Z" fill="#000000" fill-rule="nonzero" fill-opacity="1" /><path clip-path="url(#clip520)" d="M1395.73 1536.5 Q1391.02 1536.5 1388.28 1540.19 Q1385.54 1543.85 1385.54 1550.25 Q1385.54 1556.65 1388.25 1560.34 Q1390.99 1564 1395.73 1564 Q1400.41 1564 1403.14 1560.31 Q1405.88 1556.62 1405.88 1550.25 Q1405.88 1543.92 1403.14 1540.23 Q1400.41 1536.5 1395.73 1536.5 M1395.73 1531.54 Q1403.37 1531.54 1407.73 1536.5 Q1412.09 1541.47 1412.09 1550.25 Q1412.09 1559 1407.73 1564 Q1403.37 1568.97 1395.73 1568.97 Q1388.06 1568.97 1383.7 1564 Q1379.37 1559 1379.37 1550.25 Q1379.37 1541.47 1383.7 1536.5 Q1388.06 1531.54 1395.73 1531.54 Z" fill="#000000" fill-rule="nonzero" fill-opacity="1" /><path clip-path="url(#clip520)" d="M1442.45 1537.87 Q1441.47 1537.3 1440.29 1537.04 Q1439.14 1536.76 1437.74 1536.76 Q1432.78 1536.76 1430.1 1540 Q1427.46 1543.22 1427.46 1549.27 L1427.46 1568.04 L1421.57 1568.04 L1421.57 1532.4 L1427.46 1532.4 L1427.46 1537.93 Q1429.31 1534.69 1432.27 1533.13 Q1435.23 1531.54 1439.46 1531.54 Q1440.06 1531.54 1440.8 1531.63 Q1441.53 1531.7 1442.42 1531.85 L1442.45 1537.87 Z" fill="#000000" fill-rule="nonzero" fill-opacity="1" /><path clip-path="url(#clip520)" d="M1471.32 1533.45 L1471.32 1538.98 Q1468.84 1537.71 1466.16 1537.07 Q1463.49 1536.44 1460.63 1536.44 Q1456.27 1536.44 1454.07 1537.77 Q1451.9 1539.11 1451.9 1541.79 Q1451.9 1543.82 1453.46 1545 Q1455.02 1546.15 1459.73 1547.2 L1461.74 1547.64 Q1467.98 1548.98 1470.59 1551.43 Q1473.23 1553.85 1473.23 1558.21 Q1473.23 1563.17 1469.28 1566.07 Q1465.37 1568.97 1458.49 1568.97 Q1455.63 1568.97 1452.51 1568.39 Q1449.42 1567.85 1445.98 1566.74 L1445.98 1560.69 Q1449.23 1562.38 1452.38 1563.24 Q1455.53 1564.07 1458.62 1564.07 Q1462.76 1564.07 1464.99 1562.66 Q1467.21 1561.23 1467.21 1558.65 Q1467.21 1556.27 1465.59 1554.99 Q1464 1553.72 1458.56 1552.54 L1456.52 1552.07 Q1451.08 1550.92 1448.66 1548.56 Q1446.24 1546.18 1446.24 1542.04 Q1446.24 1537.01 1449.8 1534.27 Q1453.37 1531.54 1459.93 1531.54 Q1463.17 1531.54 1466.04 1532.01 Q1468.9 1532.49 1471.32 1533.45 Z" fill="#000000" fill-rule="nonzero" fill-opacity="1" /><polyline clip-path="url(#clip520)" style="stroke:#000000; stroke-linecap:round; stroke-linejoin:round; stroke-width:4; stroke-opacity:1; fill:none" points="175.445,1423.18 175.445,47.2441 "/>
<polyline clip-path="url(#clip520)" style="stroke:#000000; stroke-linecap:round; stroke-linejoin:round; stroke-width:4; stroke-opacity:1; fill:none" points="2352.76,1423.18 2352.76,47.2441 "/>
<polyline clip-path="url(#clip520)" style="stroke:#000000; stroke-linecap:round; stroke-linejoin:round; stroke-width:4; stroke-opacity:1; fill:none" points="175.445,1423.18 194.343,1423.18 "/>
<polyline clip-path="url(#clip520)" style="stroke:#000000; stroke-linecap:round; stroke-linejoin:round; stroke-width:4; stroke-opacity:1; fill:none" points="175.445,964.535 194.343,964.535 "/>
<polyline clip-path="url(#clip520)" style="stroke:#000000; stroke-linecap:round; stroke-linejoin:round; stroke-width:4; stroke-opacity:1; fill:none" points="175.445,696.244 194.343,696.244 "/>
<polyline clip-path="url(#clip520)" style="stroke:#000000; stroke-linecap:round; stroke-linejoin:round; stroke-width:4; stroke-opacity:1; fill:none" points="175.445,505.889 194.343,505.889 "/>
<polyline clip-path="url(#clip520)" style="stroke:#000000; stroke-linecap:round; stroke-linejoin:round; stroke-width:4; stroke-opacity:1; fill:none" points="175.445,358.239 194.343,358.239 "/>
<polyline clip-path="url(#clip520)" style="stroke:#000000; stroke-linecap:round; stroke-linejoin:round; stroke-width:4; stroke-opacity:1; fill:none" points="175.445,237.599 194.343,237.599 "/>
<polyline clip-path="url(#clip520)" style="stroke:#000000; stroke-linecap:round; stroke-linejoin:round; stroke-width:4; stroke-opacity:1; fill:none" points="175.445,135.6 194.343,135.6 "/>
<polyline clip-path="url(#clip520)" style="stroke:#000000; stroke-linecap:round; stroke-linejoin:round; stroke-width:4; stroke-opacity:1; fill:none" points="175.445,47.2441 194.343,47.2441 "/>
<polyline clip-path="url(#clip520)" style="stroke:#000000; stroke-linecap:round; stroke-linejoin:round; stroke-width:4; stroke-opacity:1; fill:none" points="2352.76,1423.18 2333.86,1423.18 "/>
<polyline clip-path="url(#clip520)" style="stroke:#000000; stroke-linecap:round; stroke-linejoin:round; stroke-width:4; stroke-opacity:1; fill:none" points="2352.76,964.535 2333.86,964.535 "/>
<polyline clip-path="url(#clip520)" style="stroke:#000000; stroke-linecap:round; stroke-linejoin:round; stroke-width:4; stroke-opacity:1; fill:none" points="2352.76,696.244 2333.86,696.244 "/>
<polyline clip-path="url(#clip520)" style="stroke:#000000; stroke-linecap:round; stroke-linejoin:round; stroke-width:4; stroke-opacity:1; fill:none" points="2352.76,505.889 2333.86,505.889 "/>
<polyline clip-path="url(#clip520)" style="stroke:#000000; stroke-linecap:round; stroke-linejoin:round; stroke-width:4; stroke-opacity:1; fill:none" points="2352.76,358.239 2333.86,358.239 "/>
<polyline clip-path="url(#clip520)" style="stroke:#000000; stroke-linecap:round; stroke-linejoin:round; stroke-width:4; stroke-opacity:1; fill:none" points="2352.76,237.599 2333.86,237.599 "/>
<polyline clip-path="url(#clip520)" style="stroke:#000000; stroke-linecap:round; stroke-linejoin:round; stroke-width:4; stroke-opacity:1; fill:none" points="2352.76,135.6 2333.86,135.6 "/>
<polyline clip-path="url(#clip520)" style="stroke:#000000; stroke-linecap:round; stroke-linejoin:round; stroke-width:4; stroke-opacity:1; fill:none" points="2352.76,47.2441 2333.86,47.2441 "/>
<path clip-path="url(#clip520)" d="M119.538 1436.52 L127.177 1436.52 L127.177 1410.16 L118.867 1411.83 L118.867 1407.57 L127.13 1405.9 L131.806 1405.9 L131.806 1436.52 L139.445 1436.52 L139.445 1440.46 L119.538 1440.46 L119.538 1436.52 Z" fill="#000000" fill-rule="nonzero" fill-opacity="1" /><path clip-path="url(#clip520)" d="M123.126 977.879 L139.445 977.879 L139.445 981.815 L117.501 981.815 L117.501 977.879 Q120.163 975.125 124.746 970.495 Q129.353 965.842 130.533 964.5 Q132.779 961.977 133.658 960.241 Q134.561 958.481 134.561 956.792 Q134.561 954.037 132.617 952.301 Q130.695 950.565 127.593 950.565 Q125.394 950.565 122.941 951.329 Q120.51 952.093 117.732 953.643 L117.732 948.921 Q120.556 947.787 123.01 947.208 Q125.464 946.63 127.501 946.63 Q132.871 946.63 136.066 949.315 Q139.26 952 139.26 956.491 Q139.26 958.62 138.45 960.542 Q137.663 962.44 135.556 965.032 Q134.978 965.704 131.876 968.921 Q128.774 972.116 123.126 977.879 Z" fill="#000000" fill-rule="nonzero" fill-opacity="1" /><path clip-path="url(#clip520)" d="M132.316 694.89 Q135.672 695.608 137.547 697.876 Q139.445 700.145 139.445 703.478 Q139.445 708.594 135.927 711.395 Q132.408 714.196 125.927 714.196 Q123.751 714.196 121.436 713.756 Q119.144 713.339 116.691 712.483 L116.691 707.969 Q118.635 709.103 120.95 709.682 Q123.265 710.26 125.788 710.26 Q130.186 710.26 132.478 708.524 Q134.792 706.788 134.792 703.478 Q134.792 700.423 132.64 698.71 Q130.51 696.973 126.691 696.973 L122.663 696.973 L122.663 693.131 L126.876 693.131 Q130.325 693.131 132.154 691.765 Q133.982 690.376 133.982 687.784 Q133.982 685.122 132.084 683.71 Q130.209 682.274 126.691 682.274 Q124.769 682.274 122.57 682.691 Q120.371 683.108 117.732 683.987 L117.732 679.821 Q120.394 679.08 122.709 678.71 Q125.047 678.339 127.107 678.339 Q132.431 678.339 135.533 680.77 Q138.635 683.177 138.635 687.298 Q138.635 690.168 136.992 692.159 Q135.348 694.126 132.316 694.89 Z" fill="#000000" fill-rule="nonzero" fill-opacity="1" /><path clip-path="url(#clip520)" d="M129.862 492.683 L118.056 511.132 L129.862 511.132 L129.862 492.683 M128.635 488.609 L134.515 488.609 L134.515 511.132 L139.445 511.132 L139.445 515.021 L134.515 515.021 L134.515 523.169 L129.862 523.169 L129.862 515.021 L114.26 515.021 L114.26 510.507 L128.635 488.609 Z" fill="#000000" fill-rule="nonzero" fill-opacity="1" /><path clip-path="url(#clip520)" d="M118.543 340.959 L136.899 340.959 L136.899 344.894 L122.825 344.894 L122.825 353.366 Q123.843 353.019 124.862 352.857 Q125.88 352.671 126.899 352.671 Q132.686 352.671 136.066 355.843 Q139.445 359.014 139.445 364.431 Q139.445 370.009 135.973 373.111 Q132.501 376.19 126.181 376.19 Q124.005 376.19 121.737 375.819 Q119.492 375.449 117.084 374.708 L117.084 370.009 Q119.168 371.144 121.39 371.699 Q123.612 372.255 126.089 372.255 Q130.093 372.255 132.431 370.148 Q134.769 368.042 134.769 364.431 Q134.769 360.82 132.431 358.713 Q130.093 356.607 126.089 356.607 Q124.214 356.607 122.339 357.023 Q120.487 357.44 118.543 358.32 L118.543 340.959 Z" fill="#000000" fill-rule="nonzero" fill-opacity="1" /><path clip-path="url(#clip520)" d="M127.917 235.736 Q124.769 235.736 122.918 237.888 Q121.089 240.041 121.089 243.791 Q121.089 247.518 122.918 249.694 Q124.769 251.847 127.917 251.847 Q131.066 251.847 132.894 249.694 Q134.746 247.518 134.746 243.791 Q134.746 240.041 132.894 237.888 Q131.066 235.736 127.917 235.736 M137.2 221.083 L137.2 225.342 Q135.441 224.509 133.635 224.069 Q131.853 223.629 130.093 223.629 Q125.464 223.629 123.01 226.754 Q120.58 229.879 120.232 236.199 Q121.598 234.185 123.658 233.12 Q125.718 232.032 128.195 232.032 Q133.404 232.032 136.413 235.203 Q139.445 238.351 139.445 243.791 Q139.445 249.115 136.297 252.333 Q133.149 255.55 127.917 255.55 Q121.922 255.55 118.751 250.967 Q115.58 246.361 115.58 237.634 Q115.58 229.439 119.468 224.578 Q123.357 219.694 129.908 219.694 Q131.667 219.694 133.45 220.041 Q135.255 220.389 137.2 221.083 Z" fill="#000000" fill-rule="nonzero" fill-opacity="1" /><path clip-path="url(#clip520)" d="M117.223 118.32 L139.445 118.32 L139.445 120.311 L126.899 152.88 L122.015 152.88 L133.82 122.255 L117.223 122.255 L117.223 118.32 Z" fill="#000000" fill-rule="nonzero" fill-opacity="1" /><path clip-path="url(#clip520)" d="M127.593 48.1121 Q124.26 48.1121 122.339 49.8945 Q120.441 51.6769 120.441 54.8019 Q120.441 57.9269 122.339 59.7093 Q124.26 61.4917 127.593 61.4917 Q130.927 61.4917 132.848 59.7093 Q134.769 57.9038 134.769 54.8019 Q134.769 51.6769 132.848 49.8945 Q130.95 48.1121 127.593 48.1121 M122.918 46.1214 Q119.908 45.3807 118.218 43.3205 Q116.552 41.2603 116.552 38.2974 Q116.552 34.1539 119.492 31.7465 Q122.455 29.3391 127.593 29.3391 Q132.755 29.3391 135.695 31.7465 Q138.635 34.1539 138.635 38.2974 Q138.635 41.2603 136.945 43.3205 Q135.279 45.3807 132.292 46.1214 Q135.672 46.9084 137.547 49.2001 Q139.445 51.4918 139.445 54.8019 Q139.445 59.825 136.367 62.5102 Q133.311 65.1954 127.593 65.1954 Q121.876 65.1954 118.797 62.5102 Q115.742 59.825 115.742 54.8019 Q115.742 51.4918 117.64 49.2001 Q119.538 46.9084 122.918 46.1214 M121.205 38.7372 Q121.205 41.4224 122.871 42.927 Q124.561 44.4316 127.593 44.4316 Q130.603 44.4316 132.292 42.927 Q134.005 41.4224 134.005 38.7372 Q134.005 36.052 132.292 34.5474 Q130.603 33.0428 127.593 33.0428 Q124.561 33.0428 122.871 34.5474 Q121.205 36.052 121.205 38.7372 Z" fill="#000000" fill-rule="nonzero" fill-opacity="1" /><path clip-path="url(#clip520)" d="M21.7677 966.064 L39.6235 966.064 L39.6235 957.98 Q39.6235 953.492 37.3 951.041 Q34.9765 948.59 30.6797 948.59 Q26.4147 948.59 24.0912 951.041 Q21.7677 953.492 21.7677 957.98 L21.7677 966.064 M16.4842 972.494 L16.4842 957.98 Q16.4842 949.991 20.1126 945.917 Q23.7092 941.811 30.6797 941.811 Q37.7138 941.811 41.3104 945.917 Q44.907 949.991 44.907 957.98 L44.907 966.064 L64.0042 966.064 L64.0042 972.494 L16.4842 972.494 Z" fill="#000000" fill-rule="nonzero" fill-opacity="1" /><path clip-path="url(#clip520)" d="M46.0847 920.168 Q46.0847 927.265 47.7079 930.003 Q49.3312 932.74 53.2461 932.74 Q56.3653 932.74 58.2114 930.703 Q60.0256 928.634 60.0256 925.101 Q60.0256 920.231 56.5881 917.303 Q53.1188 914.343 47.3897 914.343 L46.0847 914.343 L46.0847 920.168 M43.6657 908.487 L64.0042 908.487 L64.0042 914.343 L58.5933 914.343 Q61.8398 916.348 63.3994 919.34 Q64.9272 922.332 64.9272 926.661 Q64.9272 932.135 61.8716 935.382 Q58.7843 938.596 53.6281 938.596 Q47.6125 938.596 44.5569 934.586 Q41.5014 930.544 41.5014 922.555 L41.5014 914.343 L40.9285 914.343 Q36.8862 914.343 34.6901 917.017 Q32.4621 919.658 32.4621 924.464 Q32.4621 927.52 33.1941 930.416 Q33.9262 933.313 35.3903 935.986 L29.9795 935.986 Q28.7381 932.772 28.1334 929.748 Q27.4968 926.724 27.4968 923.86 Q27.4968 916.125 31.5072 912.306 Q35.5176 908.487 43.6657 908.487 Z" fill="#000000" fill-rule="nonzero" fill-opacity="1" /><path clip-path="url(#clip520)" d="M33.8307 875.767 Q33.2578 876.753 33.0032 877.931 Q32.7167 879.077 32.7167 880.477 Q32.7167 885.443 35.9632 888.116 Q39.1779 890.758 45.2253 890.758 L64.0042 890.758 L64.0042 896.646 L28.3562 896.646 L28.3562 890.758 L33.8944 890.758 Q30.6479 888.912 29.0883 885.952 Q27.4968 882.992 27.4968 878.759 Q27.4968 878.154 27.5923 877.422 Q27.656 876.69 27.8151 875.799 L33.8307 875.767 Z" fill="#000000" fill-rule="nonzero" fill-opacity="1" /><path clip-path="url(#clip520)" d="M46.0847 853.423 Q46.0847 860.521 47.7079 863.258 Q49.3312 865.995 53.2461 865.995 Q56.3653 865.995 58.2114 863.958 Q60.0256 861.89 60.0256 858.357 Q60.0256 853.487 56.5881 850.559 Q53.1188 847.599 47.3897 847.599 L46.0847 847.599 L46.0847 853.423 M43.6657 841.742 L64.0042 841.742 L64.0042 847.599 L58.5933 847.599 Q61.8398 849.604 63.3994 852.596 Q64.9272 855.587 64.9272 859.916 Q64.9272 865.391 61.8716 868.637 Q58.7843 871.852 53.6281 871.852 Q47.6125 871.852 44.5569 867.841 Q41.5014 863.799 41.5014 855.81 L41.5014 847.599 L40.9285 847.599 Q36.8862 847.599 34.6901 850.272 Q32.4621 852.914 32.4621 857.72 Q32.4621 860.776 33.1941 863.672 Q33.9262 866.568 35.3903 869.242 L29.9795 869.242 Q28.7381 866.027 28.1334 863.004 Q27.4968 859.98 27.4968 857.115 Q27.4968 849.381 31.5072 845.561 Q35.5176 841.742 43.6657 841.742 Z" fill="#000000" fill-rule="nonzero" fill-opacity="1" /><path clip-path="url(#clip520)" d="M14.479 829.679 L14.479 823.823 L64.0042 823.823 L64.0042 829.679 L14.479 829.679 Z" fill="#000000" fill-rule="nonzero" fill-opacity="1" /><path clip-path="url(#clip520)" d="M14.479 811.569 L14.479 805.712 L64.0042 805.712 L64.0042 811.569 L14.479 811.569 Z" fill="#000000" fill-rule="nonzero" fill-opacity="1" /><path clip-path="url(#clip520)" d="M44.7161 762.966 L47.5806 762.966 L47.5806 789.893 Q53.6281 789.511 56.8109 786.265 Q59.9619 782.987 59.9619 777.162 Q59.9619 773.788 59.1344 770.637 Q58.3069 767.454 56.6518 764.335 L62.1899 764.335 Q63.5267 767.486 64.227 770.796 Q64.9272 774.106 64.9272 777.512 Q64.9272 786.042 59.9619 791.039 Q54.9967 796.004 46.5303 796.004 Q37.7774 796.004 32.6531 791.294 Q27.4968 786.551 27.4968 778.531 Q27.4968 771.337 32.1438 767.168 Q36.7589 762.966 44.7161 762.966 M42.9973 768.823 Q38.1912 768.887 35.3266 771.528 Q32.4621 774.138 32.4621 778.467 Q32.4621 783.369 35.2312 786.329 Q38.0002 789.257 43.0292 789.702 L42.9973 768.823 Z" fill="#000000" fill-rule="nonzero" fill-opacity="1" /><path clip-path="url(#clip520)" d="M14.479 753.354 L14.479 747.498 L64.0042 747.498 L64.0042 753.354 L14.479 753.354 Z" fill="#000000" fill-rule="nonzero" fill-opacity="1" /><path clip-path="url(#clip520)" d="M29.4065 691.798 L34.9447 691.798 Q33.6716 694.28 33.035 696.954 Q32.3984 699.628 32.3984 702.492 Q32.3984 706.853 33.7352 709.049 Q35.072 711.213 37.7456 711.213 Q39.7826 711.213 40.9603 709.654 Q42.1061 708.094 43.1565 703.383 L43.6021 701.378 Q44.9389 695.14 47.3897 692.53 Q49.8086 689.888 54.1691 689.888 Q59.1344 689.888 62.0308 693.835 Q64.9272 697.75 64.9272 704.625 Q64.9272 707.489 64.3543 710.609 Q63.8132 713.696 62.6992 717.133 L56.6518 717.133 Q58.3387 713.887 59.198 710.736 Q60.0256 707.585 60.0256 704.497 Q60.0256 700.36 58.6251 698.132 Q57.1929 695.904 54.6147 695.904 Q52.2276 695.904 50.9545 697.527 Q49.6813 699.118 48.5037 704.561 L48.0262 706.598 Q46.8804 712.041 44.5251 714.46 Q42.138 716.879 38.0002 716.879 Q32.9713 716.879 30.2341 713.314 Q27.4968 709.749 27.4968 703.192 Q27.4968 699.946 27.9743 697.081 Q28.4517 694.217 29.4065 691.798 Z" fill="#000000" fill-rule="nonzero" fill-opacity="1" /><path clip-path="url(#clip520)" d="M29.7248 654.909 L35.1993 654.909 Q33.8307 657.391 33.1623 659.906 Q32.4621 662.388 32.4621 664.935 Q32.4621 670.632 36.0905 673.783 Q39.6872 676.934 46.212 676.934 Q52.7369 676.934 56.3653 673.783 Q59.9619 670.632 59.9619 664.935 Q59.9619 662.388 59.2935 659.906 Q58.5933 657.391 57.2247 654.909 L62.6355 654.909 Q63.7814 657.359 64.3543 660.001 Q64.9272 662.611 64.9272 665.571 Q64.9272 673.624 59.8664 678.366 Q54.8057 683.109 46.212 683.109 Q37.491 683.109 32.4939 678.334 Q27.4968 673.528 27.4968 665.189 Q27.4968 662.484 28.0697 659.906 Q28.6108 657.328 29.7248 654.909 Z" fill="#000000" fill-rule="nonzero" fill-opacity="1" /><path clip-path="url(#clip520)" d="M46.0847 628.523 Q46.0847 635.62 47.7079 638.358 Q49.3312 641.095 53.2461 641.095 Q56.3653 641.095 58.2114 639.058 Q60.0256 636.989 60.0256 633.456 Q60.0256 628.586 56.5881 625.658 Q53.1188 622.698 47.3897 622.698 L46.0847 622.698 L46.0847 628.523 M43.6657 616.842 L64.0042 616.842 L64.0042 622.698 L58.5933 622.698 Q61.8398 624.703 63.3994 627.695 Q64.9272 630.687 64.9272 635.016 Q64.9272 640.49 61.8716 643.737 Q58.7843 646.951 53.6281 646.951 Q47.6125 646.951 44.5569 642.941 Q41.5014 638.899 41.5014 630.91 L41.5014 622.698 L40.9285 622.698 Q36.8862 622.698 34.6901 625.372 Q32.4621 628.013 32.4621 632.82 Q32.4621 635.875 33.1941 638.772 Q33.9262 641.668 35.3903 644.342 L29.9795 644.342 Q28.7381 641.127 28.1334 638.103 Q27.4968 635.079 27.4968 632.215 Q27.4968 624.481 31.5072 620.661 Q35.5176 616.842 43.6657 616.842 Z" fill="#000000" fill-rule="nonzero" fill-opacity="1" /><path clip-path="url(#clip520)" d="M14.479 604.779 L14.479 598.922 L64.0042 598.922 L64.0042 604.779 L14.479 604.779 Z" fill="#000000" fill-rule="nonzero" fill-opacity="1" /><path clip-path="url(#clip520)" d="M28.3562 586.668 L28.3562 580.812 L64.0042 580.812 L64.0042 586.668 L28.3562 586.668 M14.479 586.668 L14.479 580.812 L21.895 580.812 L21.895 586.668 L14.479 586.668 Z" fill="#000000" fill-rule="nonzero" fill-opacity="1" /><path clip-path="url(#clip520)" d="M42.4881 538.925 L64.0042 538.925 L64.0042 544.782 L42.679 544.782 Q37.6183 544.782 35.1038 546.755 Q32.5894 548.729 32.5894 552.675 Q32.5894 557.418 35.6131 560.155 Q38.6368 562.892 43.8567 562.892 L64.0042 562.892 L64.0042 568.781 L28.3562 568.781 L28.3562 562.892 L33.8944 562.892 Q30.6797 560.792 29.0883 557.959 Q27.4968 555.094 27.4968 551.37 Q27.4968 545.227 31.3163 542.076 Q35.1038 538.925 42.4881 538.925 Z" fill="#000000" fill-rule="nonzero" fill-opacity="1" /><path clip-path="url(#clip520)" d="M45.7664 503.787 Q39.4007 503.787 35.8996 506.428 Q32.3984 509.038 32.3984 513.781 Q32.3984 518.491 35.8996 521.133 Q39.4007 523.743 45.7664 523.743 Q52.1003 523.743 55.6014 521.133 Q59.1026 518.491 59.1026 513.781 Q59.1026 509.038 55.6014 506.428 Q52.1003 503.787 45.7664 503.787 M59.58 497.93 Q68.683 497.93 73.1071 501.972 Q77.5631 506.015 77.5631 514.354 Q77.5631 517.441 77.0857 520.178 Q76.6401 522.916 75.6852 525.494 L69.9879 525.494 Q71.3884 522.916 72.0568 520.401 Q72.7252 517.887 72.7252 515.277 Q72.7252 509.516 69.7015 506.651 Q66.7096 503.787 60.6303 503.787 L57.7339 503.787 Q60.885 505.601 62.4446 508.434 Q64.0042 511.266 64.0042 515.213 Q64.0042 521.77 59.0071 525.78 Q54.01 529.791 45.7664 529.791 Q37.491 529.791 32.4939 525.78 Q27.4968 521.77 27.4968 515.213 Q27.4968 511.266 29.0564 508.434 Q30.616 505.601 33.7671 503.787 L28.3562 503.787 L28.3562 497.93 L59.58 497.93 Z" fill="#000000" fill-rule="nonzero" fill-opacity="1" /><polyline clip-path="url(#clip522)" style="stroke:#009af9; stroke-linecap:round; stroke-linejoin:round; stroke-width:8; stroke-opacity:1; fill:none" points="175.445,1423.18 830.881,1068.3 1486.32,561.659 1869.72,460.761 2141.75,359.634 "/>
<circle clip-path="url(#clip522)" cx="175.445" cy="1423.18" r="10.8" fill="#009af9" fill-rule="evenodd" fill-opacity="1" stroke="#000000" stroke-opacity="1" stroke-width="3.2"/>
<circle clip-path="url(#clip522)" cx="830.881" cy="1068.3" r="10.8" fill="#009af9" fill-rule="evenodd" fill-opacity="1" stroke="#000000" stroke-opacity="1" stroke-width="3.2"/>
<circle clip-path="url(#clip522)" cx="1486.32" cy="561.659" r="10.8" fill="#009af9" fill-rule="evenodd" fill-opacity="1" stroke="#000000" stroke-opacity="1" stroke-width="3.2"/>
<circle clip-path="url(#clip522)" cx="1869.72" cy="460.761" r="10.8" fill="#009af9" fill-rule="evenodd" fill-opacity="1" stroke="#000000" stroke-opacity="1" stroke-width="3.2"/>
<circle clip-path="url(#clip522)" cx="2141.75" cy="359.634" r="10.8" fill="#009af9" fill-rule="evenodd" fill-opacity="1" stroke="#000000" stroke-opacity="1" stroke-width="3.2"/>
<polyline clip-path="url(#clip522)" style="stroke:#e26f46; stroke-linecap:round; stroke-linejoin:round; stroke-width:8; stroke-opacity:1; fill:none" points="175.445,1423.18 830.881,1084.49 1486.32,718.08 1869.72,645.516 2141.75,602.607 "/>
<circle clip-path="url(#clip522)" cx="175.445" cy="1423.18" r="10.8" fill="#e26f46" fill-rule="evenodd" fill-opacity="1" stroke="#000000" stroke-opacity="1" stroke-width="3.2"/>
<circle clip-path="url(#clip522)" cx="830.881" cy="1084.49" r="10.8" fill="#e26f46" fill-rule="evenodd" fill-opacity="1" stroke="#000000" stroke-opacity="1" stroke-width="3.2"/>
<circle clip-path="url(#clip522)" cx="1486.32" cy="718.08" r="10.8" fill="#e26f46" fill-rule="evenodd" fill-opacity="1" stroke="#000000" stroke-opacity="1" stroke-width="3.2"/>
<circle clip-path="url(#clip522)" cx="1869.72" cy="645.516" r="10.8" fill="#e26f46" fill-rule="evenodd" fill-opacity="1" stroke="#000000" stroke-opacity="1" stroke-width="3.2"/>
<circle clip-path="url(#clip522)" cx="2141.75" cy="602.607" r="10.8" fill="#e26f46" fill-rule="evenodd" fill-opacity="1" stroke="#000000" stroke-opacity="1" stroke-width="3.2"/>
<polyline clip-path="url(#clip522)" style="stroke:#3da44d; stroke-linecap:round; stroke-linejoin:round; stroke-width:8; stroke-opacity:1; fill:none" points="175.445,1423.18 830.881,1241.37 1486.32,1108.29 1869.72,1084.65 2141.75,1003.28 "/>
<circle clip-path="url(#clip522)" cx="175.445" cy="1423.18" r="10.8" fill="#3da44d" fill-rule="evenodd" fill-opacity="1" stroke="#000000" stroke-opacity="1" stroke-width="3.2"/>
<circle clip-path="url(#clip522)" cx="830.881" cy="1241.37" r="10.8" fill="#3da44d" fill-rule="evenodd" fill-opacity="1" stroke="#000000" stroke-opacity="1" stroke-width="3.2"/>
<circle clip-path="url(#clip522)" cx="1486.32" cy="1108.29" r="10.8" fill="#3da44d" fill-rule="evenodd" fill-opacity="1" stroke="#000000" stroke-opacity="1" stroke-width="3.2"/>
<circle clip-path="url(#clip522)" cx="1869.72" cy="1084.65" r="10.8" fill="#3da44d" fill-rule="evenodd" fill-opacity="1" stroke="#000000" stroke-opacity="1" stroke-width="3.2"/>
<circle clip-path="url(#clip522)" cx="2141.75" cy="1003.28" r="10.8" fill="#3da44d" fill-rule="evenodd" fill-opacity="1" stroke="#000000" stroke-opacity="1" stroke-width="3.2"/>
<polyline clip-path="url(#clip522)" style="stroke:#c271d2; stroke-linecap:round; stroke-linejoin:round; stroke-width:8; stroke-opacity:1; fill:none" points="175.445,1423.18 830.881,1129.38 1486.32,893.605 1869.72,796.777 2141.75,759.248 "/>
<circle clip-path="url(#clip522)" cx="175.445" cy="1423.18" r="10.8" fill="#c271d2" fill-rule="evenodd" fill-opacity="1" stroke="#000000" stroke-opacity="1" stroke-width="3.2"/>
<circle clip-path="url(#clip522)" cx="830.881" cy="1129.38" r="10.8" fill="#c271d2" fill-rule="evenodd" fill-opacity="1" stroke="#000000" stroke-opacity="1" stroke-width="3.2"/>
<circle clip-path="url(#clip522)" cx="1486.32" cy="893.605" r="10.8" fill="#c271d2" fill-rule="evenodd" fill-opacity="1" stroke="#000000" stroke-opacity="1" stroke-width="3.2"/>
<circle clip-path="url(#clip522)" cx="1869.72" cy="796.777" r="10.8" fill="#c271d2" fill-rule="evenodd" fill-opacity="1" stroke="#000000" stroke-opacity="1" stroke-width="3.2"/>
<circle clip-path="url(#clip522)" cx="2141.75" cy="759.248" r="10.8" fill="#c271d2" fill-rule="evenodd" fill-opacity="1" stroke="#000000" stroke-opacity="1" stroke-width="3.2"/>
<polyline clip-path="url(#clip522)" style="stroke:#ac8d18; stroke-linecap:round; stroke-linejoin:round; stroke-width:8; stroke-opacity:1; fill:none" points="175.445,1423.18 830.881,1108.95 1486.32,857.05 1869.72,770.813 2141.75,722.127 "/>
<circle clip-path="url(#clip522)" cx="175.445" cy="1423.18" r="10.8" fill="#ac8d18" fill-rule="evenodd" fill-opacity="1" stroke="#000000" stroke-opacity="1" stroke-width="3.2"/>
<circle clip-path="url(#clip522)" cx="830.881" cy="1108.95" r="10.8" fill="#ac8d18" fill-rule="evenodd" fill-opacity="1" stroke="#000000" stroke-opacity="1" stroke-width="3.2"/>
<circle clip-path="url(#clip522)" cx="1486.32" cy="857.05" r="10.8" fill="#ac8d18" fill-rule="evenodd" fill-opacity="1" stroke="#000000" stroke-opacity="1" stroke-width="3.2"/>
<circle clip-path="url(#clip522)" cx="1869.72" cy="770.813" r="10.8" fill="#ac8d18" fill-rule="evenodd" fill-opacity="1" stroke="#000000" stroke-opacity="1" stroke-width="3.2"/>
<circle clip-path="url(#clip522)" cx="2141.75" cy="722.127" r="10.8" fill="#ac8d18" fill-rule="evenodd" fill-opacity="1" stroke="#000000" stroke-opacity="1" stroke-width="3.2"/>
<polyline clip-path="url(#clip522)" style="stroke:#000000; stroke-linecap:round; stroke-linejoin:round; stroke-width:8; stroke-opacity:1; fill:none" points="175.445,1423.18 830.881,964.535 1214.29,696.244 1486.32,505.889 1697.32,358.239 1869.72,237.599 2015.49,135.6 2141.75,47.2441 "/>
<circle clip-path="url(#clip522)" cx="175.445" cy="1423.18" r="10.8" fill="#000000" fill-rule="evenodd" fill-opacity="1" stroke="none"/>
<circle clip-path="url(#clip522)" cx="830.881" cy="964.535" r="10.8" fill="#000000" fill-rule="evenodd" fill-opacity="1" stroke="none"/>
<circle clip-path="url(#clip522)" cx="1214.29" cy="696.244" r="10.8" fill="#000000" fill-rule="evenodd" fill-opacity="1" stroke="none"/>
<circle clip-path="url(#clip522)" cx="1486.32" cy="505.889" r="10.8" fill="#000000" fill-rule="evenodd" fill-opacity="1" stroke="none"/>
<circle clip-path="url(#clip522)" cx="1697.32" cy="358.239" r="10.8" fill="#000000" fill-rule="evenodd" fill-opacity="1" stroke="none"/>
<circle clip-path="url(#clip522)" cx="1869.72" cy="237.599" r="10.8" fill="#000000" fill-rule="evenodd" fill-opacity="1" stroke="none"/>
<circle clip-path="url(#clip522)" cx="2015.49" cy="135.6" r="10.8" fill="#000000" fill-rule="evenodd" fill-opacity="1" stroke="none"/>
<circle clip-path="url(#clip522)" cx="2141.75" cy="47.2441" r="10.8" fill="#000000" fill-rule="evenodd" fill-opacity="1" stroke="none"/>
<path clip-path="url(#clip520)" d="M248.022 455.989 L767.395 455.989 L767.395 93.1086 L248.022 93.1086  Z" fill="#000000" fill-rule="evenodd" fill-opacity="0"/>
<polyline clip-path="url(#clip520)" style="stroke:#000000; stroke-linecap:round; stroke-linejoin:round; stroke-width:4; stroke-opacity:0; fill:none" points="248.022,455.989 767.395,455.989 767.395,93.1086 248.022,93.1086 248.022,455.989 "/>
<polyline clip-path="url(#clip520)" style="stroke:#009af9; stroke-linecap:round; stroke-linejoin:round; stroke-width:8; stroke-opacity:1; fill:none" points="272.215,144.949 417.369,144.949 "/>
<circle clip-path="url(#clip520)" cx="344.792" cy="144.949" r="19.7486" fill="#009af9" fill-rule="evenodd" fill-opacity="1" stroke="#000000" stroke-opacity="1" stroke-width="5.85143"/>
<path clip-path="url(#clip520)" d="M457.579 130.84 Q452.487 130.84 449.478 134.636 Q446.491 138.432 446.491 144.983 Q446.491 151.511 449.478 155.307 Q452.487 159.104 457.579 159.104 Q462.672 159.104 465.635 155.307 Q468.621 151.511 468.621 144.983 Q468.621 138.432 465.635 134.636 Q462.672 130.84 457.579 130.84 M457.579 127.044 Q464.848 127.044 469.2 131.928 Q473.552 136.789 473.552 144.983 Q473.552 153.155 469.2 158.039 Q464.848 162.9 457.579 162.9 Q450.288 162.9 445.913 158.039 Q441.561 153.178 441.561 144.983 Q441.561 136.789 445.913 131.928 Q450.288 127.044 457.579 127.044 Z" fill="#000000" fill-rule="nonzero" fill-opacity="1" /><path clip-path="url(#clip520)" d="M480.866 127.669 L500.727 127.669 L500.727 131.604 L485.542 131.604 L485.542 141.789 L499.246 141.789 L499.246 145.724 L485.542 145.724 L485.542 162.229 L480.866 162.229 L480.866 127.669 Z" fill="#000000" fill-rule="nonzero" fill-opacity="1" /><path clip-path="url(#clip520)" d="M509.362 158.293 L517 158.293 L517 131.928 L508.69 133.595 L508.69 129.335 L516.954 127.669 L521.63 127.669 L521.63 158.293 L529.269 158.293 L529.269 162.229 L509.362 162.229 L509.362 158.293 Z" fill="#000000" fill-rule="nonzero" fill-opacity="1" /><path clip-path="url(#clip520)" d="M539.523 158.293 L547.162 158.293 L547.162 131.928 L538.852 133.595 L538.852 129.335 L547.116 127.669 L551.792 127.669 L551.792 158.293 L559.431 158.293 L559.431 162.229 L539.523 162.229 L539.523 158.293 Z" fill="#000000" fill-rule="nonzero" fill-opacity="1" /><path clip-path="url(#clip520)" d="M604.245 128.803 L604.245 133.363 Q601.583 132.09 599.222 131.465 Q596.861 130.84 594.662 130.84 Q590.843 130.84 588.759 132.321 Q586.699 133.803 586.699 136.534 Q586.699 138.826 588.065 140.007 Q589.454 141.164 593.296 141.882 L596.12 142.46 Q601.352 143.456 603.829 145.979 Q606.329 148.479 606.329 152.692 Q606.329 157.715 602.949 160.307 Q599.593 162.9 593.088 162.9 Q590.634 162.9 587.856 162.344 Q585.102 161.789 582.139 160.701 L582.139 155.886 Q584.986 157.483 587.718 158.293 Q590.449 159.104 593.088 159.104 Q597.093 159.104 599.268 157.53 Q601.444 155.956 601.444 153.039 Q601.444 150.493 599.87 149.057 Q598.319 147.622 594.755 146.905 L591.907 146.349 Q586.676 145.307 584.338 143.085 Q582 140.863 582 136.905 Q582 132.321 585.218 129.682 Q588.458 127.044 594.13 127.044 Q596.56 127.044 599.083 127.483 Q601.606 127.923 604.245 128.803 Z" fill="#000000" fill-rule="nonzero" fill-opacity="1" /><path clip-path="url(#clip520)" d="M613.435 136.303 L617.694 136.303 L617.694 162.229 L613.435 162.229 L613.435 136.303 M613.435 126.21 L617.694 126.21 L617.694 131.604 L613.435 131.604 L613.435 126.21 Z" fill="#000000" fill-rule="nonzero" fill-opacity="1" /><path clip-path="url(#clip520)" d="M646.791 141.28 Q648.389 138.409 650.611 137.044 Q652.833 135.678 655.842 135.678 Q659.893 135.678 662.092 138.525 Q664.291 141.349 664.291 146.581 L664.291 162.229 L660.009 162.229 L660.009 146.719 Q660.009 142.993 658.689 141.187 Q657.37 139.382 654.662 139.382 Q651.352 139.382 649.43 141.581 Q647.509 143.78 647.509 147.576 L647.509 162.229 L643.227 162.229 L643.227 146.719 Q643.227 142.969 641.907 141.187 Q640.588 139.382 637.833 139.382 Q634.569 139.382 632.648 141.604 Q630.727 143.803 630.727 147.576 L630.727 162.229 L626.444 162.229 L626.444 136.303 L630.727 136.303 L630.727 140.331 Q632.185 137.946 634.222 136.812 Q636.259 135.678 639.06 135.678 Q641.884 135.678 643.852 137.113 Q645.842 138.548 646.791 141.28 Z" fill="#000000" fill-rule="nonzero" fill-opacity="1" /><path clip-path="url(#clip520)" d="M672.787 136.303 L677.046 136.303 L677.046 162.229 L672.787 162.229 L672.787 136.303 M672.787 126.21 L677.046 126.21 L677.046 131.604 L672.787 131.604 L672.787 126.21 Z" fill="#000000" fill-rule="nonzero" fill-opacity="1" /><path clip-path="url(#clip520)" d="M685.958 126.21 L690.217 126.21 L690.217 162.229 L685.958 162.229 L685.958 126.21 Z" fill="#000000" fill-rule="nonzero" fill-opacity="1" /><path clip-path="url(#clip520)" d="M710.911 149.196 Q705.749 149.196 703.759 150.377 Q701.768 151.557 701.768 154.405 Q701.768 156.673 703.249 158.016 Q704.754 159.335 707.323 159.335 Q710.865 159.335 712.995 156.835 Q715.147 154.312 715.147 150.145 L715.147 149.196 L710.911 149.196 M719.407 147.437 L719.407 162.229 L715.147 162.229 L715.147 158.293 Q713.689 160.655 711.513 161.789 Q709.337 162.9 706.189 162.9 Q702.208 162.9 699.847 160.678 Q697.509 158.432 697.509 154.682 Q697.509 150.307 700.425 148.085 Q703.365 145.863 709.175 145.863 L715.147 145.863 L715.147 145.446 Q715.147 142.507 713.203 140.909 Q711.282 139.289 707.786 139.289 Q705.564 139.289 703.458 139.821 Q701.351 140.354 699.407 141.419 L699.407 137.483 Q701.745 136.581 703.944 136.141 Q706.143 135.678 708.226 135.678 Q713.851 135.678 716.629 138.594 Q719.407 141.511 719.407 147.437 Z" fill="#000000" fill-rule="nonzero" fill-opacity="1" /><path clip-path="url(#clip520)" d="M743.203 140.284 Q742.485 139.868 741.629 139.682 Q740.795 139.474 739.777 139.474 Q736.166 139.474 734.221 141.835 Q732.3 144.173 732.3 148.571 L732.3 162.229 L728.018 162.229 L728.018 136.303 L732.3 136.303 L732.3 140.331 Q733.643 137.969 735.795 136.835 Q737.948 135.678 741.027 135.678 Q741.467 135.678 741.999 135.747 Q742.532 135.794 743.18 135.909 L743.203 140.284 Z" fill="#000000" fill-rule="nonzero" fill-opacity="1" /><polyline clip-path="url(#clip520)" style="stroke:#e26f46; stroke-linecap:round; stroke-linejoin:round; stroke-width:8; stroke-opacity:1; fill:none" points="272.215,196.789 417.369,196.789 "/>
<circle clip-path="url(#clip520)" cx="344.792" cy="196.789" r="19.7486" fill="#e26f46" fill-rule="evenodd" fill-opacity="1" stroke="#000000" stroke-opacity="1" stroke-width="5.85143"/>
<path clip-path="url(#clip520)" d="M457.579 182.68 Q452.487 182.68 449.478 186.476 Q446.491 190.272 446.491 196.823 Q446.491 203.351 449.478 207.147 Q452.487 210.944 457.579 210.944 Q462.672 210.944 465.635 207.147 Q468.621 203.351 468.621 196.823 Q468.621 190.272 465.635 186.476 Q462.672 182.68 457.579 182.68 M457.579 178.884 Q464.848 178.884 469.2 183.768 Q473.552 188.629 473.552 196.823 Q473.552 204.995 469.2 209.879 Q464.848 214.74 457.579 214.74 Q450.288 214.74 445.913 209.879 Q441.561 205.018 441.561 196.823 Q441.561 188.629 445.913 183.768 Q450.288 178.884 457.579 178.884 Z" fill="#000000" fill-rule="nonzero" fill-opacity="1" /><path clip-path="url(#clip520)" d="M480.866 179.509 L500.727 179.509 L500.727 183.444 L485.542 183.444 L485.542 193.629 L499.246 193.629 L499.246 197.564 L485.542 197.564 L485.542 214.069 L480.866 214.069 L480.866 179.509 Z" fill="#000000" fill-rule="nonzero" fill-opacity="1" /><path clip-path="url(#clip520)" d="M509.362 210.133 L517 210.133 L517 183.768 L508.69 185.435 L508.69 181.175 L516.954 179.509 L521.63 179.509 L521.63 210.133 L529.269 210.133 L529.269 214.069 L509.362 214.069 L509.362 210.133 Z" fill="#000000" fill-rule="nonzero" fill-opacity="1" /><path clip-path="url(#clip520)" d="M539.523 210.133 L547.162 210.133 L547.162 183.768 L538.852 185.435 L538.852 181.175 L547.116 179.509 L551.792 179.509 L551.792 210.133 L559.431 210.133 L559.431 214.069 L539.523 214.069 L539.523 210.133 Z" fill="#000000" fill-rule="nonzero" fill-opacity="1" /><path clip-path="url(#clip520)" d="M588.204 197.564 L588.204 210.226 L595.704 210.226 Q599.477 210.226 601.282 208.675 Q603.111 207.101 603.111 203.883 Q603.111 200.643 601.282 199.115 Q599.477 197.564 595.704 197.564 L588.204 197.564 M588.204 183.351 L588.204 193.768 L595.125 193.768 Q598.551 193.768 600.218 192.495 Q601.907 191.198 601.907 188.559 Q601.907 185.944 600.218 184.647 Q598.551 183.351 595.125 183.351 L588.204 183.351 M583.528 179.509 L595.472 179.509 Q600.819 179.509 603.713 181.731 Q606.606 183.953 606.606 188.05 Q606.606 191.222 605.125 193.097 Q603.643 194.971 600.773 195.434 Q604.222 196.175 606.12 198.536 Q608.042 200.874 608.042 204.393 Q608.042 209.022 604.893 211.545 Q601.745 214.069 595.935 214.069 L583.528 214.069 L583.528 179.509 Z" fill="#000000" fill-rule="nonzero" fill-opacity="1" /><path clip-path="url(#clip520)" d="M638.041 200.041 L638.041 202.124 L618.458 202.124 Q618.736 206.522 621.097 208.837 Q623.481 211.129 627.717 211.129 Q630.171 211.129 632.463 210.527 Q634.778 209.925 637.046 208.721 L637.046 212.749 Q634.754 213.721 632.347 214.231 Q629.94 214.74 627.463 214.74 Q621.259 214.74 617.625 211.129 Q614.014 207.518 614.014 201.36 Q614.014 194.995 617.44 191.268 Q620.889 187.518 626.722 187.518 Q631.953 187.518 634.986 190.897 Q638.041 194.254 638.041 200.041 M633.782 198.791 Q633.736 195.296 631.815 193.212 Q629.916 191.129 626.768 191.129 Q623.204 191.129 621.051 193.143 Q618.921 195.157 618.597 198.814 L633.782 198.791 Z" fill="#000000" fill-rule="nonzero" fill-opacity="1" /><path clip-path="url(#clip520)" d="M661.56 188.907 L661.56 192.934 Q659.754 192.009 657.81 191.546 Q655.865 191.083 653.782 191.083 Q650.611 191.083 649.014 192.055 Q647.439 193.027 647.439 194.971 Q647.439 196.453 648.574 197.309 Q649.708 198.143 653.134 198.907 L654.592 199.231 Q659.129 200.203 661.027 201.985 Q662.949 203.745 662.949 206.916 Q662.949 210.527 660.078 212.633 Q657.231 214.74 652.231 214.74 Q650.148 214.74 647.879 214.323 Q645.634 213.93 643.134 213.12 L643.134 208.721 Q645.495 209.948 647.787 210.573 Q650.078 211.175 652.324 211.175 Q655.333 211.175 656.953 210.157 Q658.574 209.115 658.574 207.24 Q658.574 205.504 657.393 204.578 Q656.236 203.652 652.277 202.796 L650.796 202.448 Q646.838 201.615 645.078 199.902 Q643.319 198.166 643.319 195.157 Q643.319 191.499 645.912 189.509 Q648.504 187.518 653.273 187.518 Q655.634 187.518 657.717 187.865 Q659.801 188.212 661.56 188.907 Z" fill="#000000" fill-rule="nonzero" fill-opacity="1" /><path clip-path="url(#clip520)" d="M673.944 180.782 L673.944 188.143 L682.717 188.143 L682.717 191.453 L673.944 191.453 L673.944 205.527 Q673.944 208.698 674.8 209.601 Q675.68 210.504 678.342 210.504 L682.717 210.504 L682.717 214.069 L678.342 214.069 Q673.412 214.069 671.537 212.24 Q669.662 210.388 669.662 205.527 L669.662 191.453 L666.537 191.453 L666.537 188.143 L669.662 188.143 L669.662 180.782 L673.944 180.782 Z" fill="#000000" fill-rule="nonzero" fill-opacity="1" /><polyline clip-path="url(#clip520)" style="stroke:#3da44d; stroke-linecap:round; stroke-linejoin:round; stroke-width:8; stroke-opacity:1; fill:none" points="272.215,248.629 417.369,248.629 "/>
<circle clip-path="url(#clip520)" cx="344.792" cy="248.629" r="19.7486" fill="#3da44d" fill-rule="evenodd" fill-opacity="1" stroke="#000000" stroke-opacity="1" stroke-width="5.85143"/>
<path clip-path="url(#clip520)" d="M441.561 239.983 L446.075 239.983 L454.177 261.742 L462.278 239.983 L466.792 239.983 L457.07 265.909 L451.283 265.909 L441.561 239.983 Z" fill="#000000" fill-rule="nonzero" fill-opacity="1" /><path clip-path="url(#clip520)" d="M483.274 234.427 Q479.663 234.427 477.834 237.992 Q476.028 241.534 476.028 248.663 Q476.028 255.77 477.834 259.335 Q479.663 262.876 483.274 262.876 Q486.908 262.876 488.713 259.335 Q490.542 255.77 490.542 248.663 Q490.542 241.534 488.713 237.992 Q486.908 234.427 483.274 234.427 M483.274 230.724 Q489.084 230.724 492.139 235.33 Q495.218 239.913 495.218 248.663 Q495.218 257.39 492.139 261.997 Q489.084 266.58 483.274 266.58 Q477.464 266.58 474.385 261.997 Q471.329 257.39 471.329 248.663 Q471.329 239.913 474.385 235.33 Q477.464 230.724 483.274 230.724 Z" fill="#000000" fill-rule="nonzero" fill-opacity="1" /><path clip-path="url(#clip520)" d="M503.436 260.029 L508.32 260.029 L508.32 265.909 L503.436 265.909 L503.436 260.029 Z" fill="#000000" fill-rule="nonzero" fill-opacity="1" /><path clip-path="url(#clip520)" d="M532.672 247.274 Q536.028 247.992 537.903 250.261 Q539.801 252.529 539.801 255.862 Q539.801 260.978 536.283 263.779 Q532.764 266.58 526.283 266.58 Q524.107 266.58 521.792 266.14 Q519.5 265.723 517.047 264.867 L517.047 260.353 Q518.991 261.487 521.306 262.066 Q523.621 262.645 526.144 262.645 Q530.542 262.645 532.834 260.909 Q535.148 259.173 535.148 255.862 Q535.148 252.807 532.996 251.094 Q530.866 249.358 527.047 249.358 L523.019 249.358 L523.019 245.515 L527.232 245.515 Q530.681 245.515 532.51 244.149 Q534.338 242.761 534.338 240.168 Q534.338 237.506 532.44 236.094 Q530.565 234.659 527.047 234.659 Q525.125 234.659 522.926 235.075 Q520.727 235.492 518.088 236.372 L518.088 232.205 Q520.75 231.464 523.065 231.094 Q525.403 230.724 527.463 230.724 Q532.787 230.724 535.889 233.154 Q538.991 235.562 538.991 239.682 Q538.991 242.552 537.347 244.543 Q535.704 246.511 532.672 247.274 Z" fill="#000000" fill-rule="nonzero" fill-opacity="1" /><path clip-path="url(#clip520)" d="M548.667 260.029 L553.551 260.029 L553.551 265.909 L548.667 265.909 L548.667 260.029 Z" fill="#000000" fill-rule="nonzero" fill-opacity="1" /><path clip-path="url(#clip520)" d="M567.764 261.973 L584.083 261.973 L584.083 265.909 L562.139 265.909 L562.139 261.973 Q564.801 259.219 569.384 254.589 Q573.991 249.936 575.171 248.594 Q577.417 246.071 578.296 244.335 Q579.199 242.575 579.199 240.886 Q579.199 238.131 577.255 236.395 Q575.333 234.659 572.232 234.659 Q570.032 234.659 567.579 235.423 Q565.148 236.187 562.37 237.737 L562.37 233.015 Q565.195 231.881 567.648 231.302 Q570.102 230.724 572.139 230.724 Q577.509 230.724 580.704 233.409 Q583.898 236.094 583.898 240.585 Q583.898 242.714 583.088 244.636 Q582.301 246.534 580.194 249.126 Q579.616 249.798 576.514 253.015 Q573.412 256.21 567.764 261.973 Z" fill="#000000" fill-rule="nonzero" fill-opacity="1" /><polyline clip-path="url(#clip520)" style="stroke:#c271d2; stroke-linecap:round; stroke-linejoin:round; stroke-width:8; stroke-opacity:1; fill:none" points="272.215,300.469 417.369,300.469 "/>
<circle clip-path="url(#clip520)" cx="344.792" cy="300.469" r="19.7486" fill="#c271d2" fill-rule="evenodd" fill-opacity="1" stroke="#000000" stroke-opacity="1" stroke-width="5.85143"/>
<path clip-path="url(#clip520)" d="M441.561 291.823 L446.075 291.823 L454.177 313.582 L462.278 291.823 L466.792 291.823 L457.07 317.749 L451.283 317.749 L441.561 291.823 Z" fill="#000000" fill-rule="nonzero" fill-opacity="1" /><path clip-path="url(#clip520)" d="M483.274 286.267 Q479.663 286.267 477.834 289.832 Q476.028 293.374 476.028 300.503 Q476.028 307.61 477.834 311.175 Q479.663 314.716 483.274 314.716 Q486.908 314.716 488.713 311.175 Q490.542 307.61 490.542 300.503 Q490.542 293.374 488.713 289.832 Q486.908 286.267 483.274 286.267 M483.274 282.564 Q489.084 282.564 492.139 287.17 Q495.218 291.753 495.218 300.503 Q495.218 309.23 492.139 313.837 Q489.084 318.42 483.274 318.42 Q477.464 318.42 474.385 313.837 Q471.329 309.23 471.329 300.503 Q471.329 291.753 474.385 287.17 Q477.464 282.564 483.274 282.564 Z" fill="#000000" fill-rule="nonzero" fill-opacity="1" /><path clip-path="url(#clip520)" d="M503.436 311.869 L508.32 311.869 L508.32 317.749 L503.436 317.749 L503.436 311.869 Z" fill="#000000" fill-rule="nonzero" fill-opacity="1" /><path clip-path="url(#clip520)" d="M532.672 299.114 Q536.028 299.832 537.903 302.101 Q539.801 304.369 539.801 307.702 Q539.801 312.818 536.283 315.619 Q532.764 318.42 526.283 318.42 Q524.107 318.42 521.792 317.98 Q519.5 317.563 517.047 316.707 L517.047 312.193 Q518.991 313.327 521.306 313.906 Q523.621 314.485 526.144 314.485 Q530.542 314.485 532.834 312.749 Q535.148 311.013 535.148 307.702 Q535.148 304.647 532.996 302.934 Q530.866 301.198 527.047 301.198 L523.019 301.198 L523.019 297.355 L527.232 297.355 Q530.681 297.355 532.51 295.989 Q534.338 294.601 534.338 292.008 Q534.338 289.346 532.44 287.934 Q530.565 286.499 527.047 286.499 Q525.125 286.499 522.926 286.915 Q520.727 287.332 518.088 288.212 L518.088 284.045 Q520.75 283.304 523.065 282.934 Q525.403 282.564 527.463 282.564 Q532.787 282.564 535.889 284.994 Q538.991 287.402 538.991 291.522 Q538.991 294.392 537.347 296.383 Q535.704 298.351 532.672 299.114 Z" fill="#000000" fill-rule="nonzero" fill-opacity="1" /><path clip-path="url(#clip520)" d="M548.667 311.869 L553.551 311.869 L553.551 317.749 L548.667 317.749 L548.667 311.869 Z" fill="#000000" fill-rule="nonzero" fill-opacity="1" /><path clip-path="url(#clip520)" d="M577.903 299.114 Q581.259 299.832 583.134 302.101 Q585.032 304.369 585.032 307.702 Q585.032 312.818 581.514 315.619 Q577.995 318.42 571.514 318.42 Q569.338 318.42 567.023 317.98 Q564.732 317.563 562.278 316.707 L562.278 312.193 Q564.222 313.327 566.537 313.906 Q568.852 314.485 571.375 314.485 Q575.773 314.485 578.065 312.749 Q580.38 311.013 580.38 307.702 Q580.38 304.647 578.227 302.934 Q576.097 301.198 572.278 301.198 L568.25 301.198 L568.25 297.355 L572.463 297.355 Q575.912 297.355 577.741 295.989 Q579.569 294.601 579.569 292.008 Q579.569 289.346 577.671 287.934 Q575.796 286.499 572.278 286.499 Q570.357 286.499 568.158 286.915 Q565.958 287.332 563.32 288.212 L563.32 284.045 Q565.982 283.304 568.296 282.934 Q570.634 282.564 572.695 282.564 Q578.019 282.564 581.12 284.994 Q584.222 287.402 584.222 291.522 Q584.222 294.392 582.579 296.383 Q580.935 298.351 577.903 299.114 Z" fill="#000000" fill-rule="nonzero" fill-opacity="1" /><polyline clip-path="url(#clip520)" style="stroke:#ac8d18; stroke-linecap:round; stroke-linejoin:round; stroke-width:8; stroke-opacity:1; fill:none" points="272.215,352.309 417.369,352.309 "/>
<circle clip-path="url(#clip520)" cx="344.792" cy="352.309" r="19.7486" fill="#ac8d18" fill-rule="evenodd" fill-opacity="1" stroke="#000000" stroke-opacity="1" stroke-width="5.85143"/>
<path clip-path="url(#clip520)" d="M441.561 343.663 L446.075 343.663 L454.177 365.422 L462.278 343.663 L466.792 343.663 L457.07 369.589 L451.283 369.589 L441.561 343.663 Z" fill="#000000" fill-rule="nonzero" fill-opacity="1" /><path clip-path="url(#clip520)" d="M483.274 338.107 Q479.663 338.107 477.834 341.672 Q476.028 345.214 476.028 352.343 Q476.028 359.45 477.834 363.015 Q479.663 366.556 483.274 366.556 Q486.908 366.556 488.713 363.015 Q490.542 359.45 490.542 352.343 Q490.542 345.214 488.713 341.672 Q486.908 338.107 483.274 338.107 M483.274 334.404 Q489.084 334.404 492.139 339.01 Q495.218 343.593 495.218 352.343 Q495.218 361.07 492.139 365.677 Q489.084 370.26 483.274 370.26 Q477.464 370.26 474.385 365.677 Q471.329 361.07 471.329 352.343 Q471.329 343.593 474.385 339.01 Q477.464 334.404 483.274 334.404 Z" fill="#000000" fill-rule="nonzero" fill-opacity="1" /><path clip-path="url(#clip520)" d="M503.436 363.709 L508.32 363.709 L508.32 369.589 L503.436 369.589 L503.436 363.709 Z" fill="#000000" fill-rule="nonzero" fill-opacity="1" /><path clip-path="url(#clip520)" d="M518.551 335.029 L536.908 335.029 L536.908 338.964 L522.834 338.964 L522.834 347.436 Q523.852 347.089 524.871 346.927 Q525.889 346.742 526.908 346.742 Q532.695 346.742 536.074 349.913 Q539.454 353.084 539.454 358.501 Q539.454 364.079 535.982 367.181 Q532.51 370.26 526.19 370.26 Q524.014 370.26 521.746 369.89 Q519.5 369.519 517.093 368.778 L517.093 364.079 Q519.176 365.214 521.398 365.769 Q523.621 366.325 526.098 366.325 Q530.102 366.325 532.44 364.218 Q534.778 362.112 534.778 358.501 Q534.778 354.89 532.44 352.783 Q530.102 350.677 526.098 350.677 Q524.223 350.677 522.348 351.093 Q520.496 351.51 518.551 352.39 L518.551 335.029 Z" fill="#000000" fill-rule="nonzero" fill-opacity="1" /><path clip-path="url(#clip520)" d="M548.667 363.709 L553.551 363.709 L553.551 369.589 L548.667 369.589 L548.667 363.709 Z" fill="#000000" fill-rule="nonzero" fill-opacity="1" /><path clip-path="url(#clip520)" d="M573.736 338.107 Q570.125 338.107 568.296 341.672 Q566.491 345.214 566.491 352.343 Q566.491 359.45 568.296 363.015 Q570.125 366.556 573.736 366.556 Q577.37 366.556 579.176 363.015 Q581.005 359.45 581.005 352.343 Q581.005 345.214 579.176 341.672 Q577.37 338.107 573.736 338.107 M573.736 334.404 Q579.546 334.404 582.602 339.01 Q585.681 343.593 585.681 352.343 Q585.681 361.07 582.602 365.677 Q579.546 370.26 573.736 370.26 Q567.926 370.26 564.847 365.677 Q561.792 361.07 561.792 352.343 Q561.792 343.593 564.847 339.01 Q567.926 334.404 573.736 334.404 Z" fill="#000000" fill-rule="nonzero" fill-opacity="1" /><polyline clip-path="url(#clip520)" style="stroke:#000000; stroke-linecap:round; stroke-linejoin:round; stroke-width:8; stroke-opacity:1; fill:none" points="272.215,404.149 417.369,404.149 "/>
<circle clip-path="url(#clip520)" cx="344.792" cy="404.149" r="19.7486" fill="#000000" fill-rule="evenodd" fill-opacity="1" stroke="none"/>
<path clip-path="url(#clip520)" d="M441.561 386.869 L446.237 386.869 L446.237 421.429 L441.561 421.429 L441.561 386.869 Z" fill="#000000" fill-rule="nonzero" fill-opacity="1" /><path clip-path="url(#clip520)" d="M472.417 399.438 L472.417 385.41 L476.677 385.41 L476.677 421.429 L472.417 421.429 L472.417 417.54 Q471.075 419.855 469.015 420.989 Q466.977 422.1 464.107 422.1 Q459.408 422.1 456.445 418.35 Q453.505 414.6 453.505 408.489 Q453.505 402.378 456.445 398.628 Q459.408 394.878 464.107 394.878 Q466.977 394.878 469.015 396.012 Q471.075 397.123 472.417 399.438 M457.903 408.489 Q457.903 413.188 459.825 415.873 Q461.769 418.535 465.149 418.535 Q468.528 418.535 470.473 415.873 Q472.417 413.188 472.417 408.489 Q472.417 403.79 470.473 401.128 Q468.528 398.443 465.149 398.443 Q461.769 398.443 459.825 401.128 Q457.903 403.79 457.903 408.489 Z" fill="#000000" fill-rule="nonzero" fill-opacity="1" /><path clip-path="url(#clip520)" d="M507.625 407.401 L507.625 409.484 L488.042 409.484 Q488.32 413.882 490.681 416.197 Q493.065 418.489 497.301 418.489 Q499.755 418.489 502.047 417.887 Q504.362 417.285 506.63 416.081 L506.63 420.109 Q504.338 421.081 501.931 421.591 Q499.524 422.1 497.047 422.1 Q490.843 422.1 487.209 418.489 Q483.598 414.878 483.598 408.72 Q483.598 402.355 487.024 398.628 Q490.473 394.878 496.306 394.878 Q501.537 394.878 504.57 398.257 Q507.625 401.614 507.625 407.401 M503.366 406.151 Q503.32 402.656 501.399 400.572 Q499.5 398.489 496.352 398.489 Q492.788 398.489 490.635 400.503 Q488.505 402.517 488.181 406.174 L503.366 406.151 Z" fill="#000000" fill-rule="nonzero" fill-opacity="1" /><path clip-path="url(#clip520)" d="M526.398 408.396 Q521.236 408.396 519.246 409.577 Q517.255 410.757 517.255 413.605 Q517.255 415.873 518.736 417.216 Q520.241 418.535 522.811 418.535 Q526.352 418.535 528.482 416.035 Q530.635 413.512 530.635 409.345 L530.635 408.396 L526.398 408.396 M534.894 406.637 L534.894 421.429 L530.635 421.429 L530.635 417.493 Q529.176 419.855 527 420.989 Q524.824 422.1 521.676 422.1 Q517.695 422.1 515.334 419.878 Q512.996 417.632 512.996 413.882 Q512.996 409.507 515.912 407.285 Q518.852 405.063 524.662 405.063 L530.635 405.063 L530.635 404.646 Q530.635 401.707 528.69 400.109 Q526.769 398.489 523.273 398.489 Q521.051 398.489 518.945 399.021 Q516.838 399.554 514.894 400.619 L514.894 396.683 Q517.232 395.781 519.431 395.341 Q521.63 394.878 523.713 394.878 Q529.338 394.878 532.116 397.794 Q534.894 400.711 534.894 406.637 Z" fill="#000000" fill-rule="nonzero" fill-opacity="1" /><path clip-path="url(#clip520)" d="M543.667 385.41 L547.926 385.41 L547.926 421.429 L543.667 421.429 L543.667 385.41 Z" fill="#000000" fill-rule="nonzero" fill-opacity="1" /><path clip-path="url(#clip520)" d="M588.435 396.267 L588.435 400.294 Q586.63 399.369 584.685 398.906 Q582.741 398.443 580.657 398.443 Q577.486 398.443 575.889 399.415 Q574.315 400.387 574.315 402.331 Q574.315 403.813 575.449 404.669 Q576.583 405.503 580.009 406.267 L581.468 406.591 Q586.005 407.563 587.903 409.345 Q589.824 411.105 589.824 414.276 Q589.824 417.887 586.954 419.993 Q584.106 422.1 579.107 422.1 Q577.023 422.1 574.755 421.683 Q572.509 421.29 570.009 420.48 L570.009 416.081 Q572.37 417.308 574.662 417.933 Q576.954 418.535 579.199 418.535 Q582.208 418.535 583.829 417.517 Q585.449 416.475 585.449 414.6 Q585.449 412.864 584.269 411.938 Q583.111 411.012 579.153 410.156 L577.671 409.808 Q573.713 408.975 571.954 407.262 Q570.195 405.526 570.195 402.517 Q570.195 398.859 572.787 396.869 Q575.38 394.878 580.148 394.878 Q582.509 394.878 584.593 395.225 Q586.676 395.572 588.435 396.267 Z" fill="#000000" fill-rule="nonzero" fill-opacity="1" /><path clip-path="url(#clip520)" d="M615.264 396.498 L615.264 400.48 Q613.458 399.484 611.629 398.998 Q609.824 398.489 607.972 398.489 Q603.829 398.489 601.537 401.128 Q599.245 403.744 599.245 408.489 Q599.245 413.234 601.537 415.873 Q603.829 418.489 607.972 418.489 Q609.824 418.489 611.629 418.003 Q613.458 417.493 615.264 416.498 L615.264 420.433 Q613.481 421.267 611.56 421.683 Q609.662 422.1 607.509 422.1 Q601.653 422.1 598.204 418.419 Q594.755 414.739 594.755 408.489 Q594.755 402.146 598.227 398.512 Q601.722 394.878 607.787 394.878 Q609.755 394.878 611.629 395.295 Q613.504 395.688 615.264 396.498 Z" fill="#000000" fill-rule="nonzero" fill-opacity="1" /><path clip-path="url(#clip520)" d="M634.453 408.396 Q629.291 408.396 627.301 409.577 Q625.31 410.757 625.31 413.605 Q625.31 415.873 626.791 417.216 Q628.296 418.535 630.866 418.535 Q634.407 418.535 636.537 416.035 Q638.69 413.512 638.69 409.345 L638.69 408.396 L634.453 408.396 M642.949 406.637 L642.949 421.429 L638.69 421.429 L638.69 417.493 Q637.231 419.855 635.055 420.989 Q632.879 422.1 629.731 422.1 Q625.75 422.1 623.389 419.878 Q621.051 417.632 621.051 413.882 Q621.051 409.507 623.967 407.285 Q626.907 405.063 632.717 405.063 L638.69 405.063 L638.69 404.646 Q638.69 401.707 636.745 400.109 Q634.824 398.489 631.328 398.489 Q629.106 398.489 627 399.021 Q624.893 399.554 622.949 400.619 L622.949 396.683 Q625.287 395.781 627.486 395.341 Q629.685 394.878 631.768 394.878 Q637.393 394.878 640.171 397.794 Q642.949 400.711 642.949 406.637 Z" fill="#000000" fill-rule="nonzero" fill-opacity="1" /><path clip-path="url(#clip520)" d="M651.722 385.41 L655.981 385.41 L655.981 421.429 L651.722 421.429 L651.722 385.41 Z" fill="#000000" fill-rule="nonzero" fill-opacity="1" /><path clip-path="url(#clip520)" d="M664.893 395.503 L669.152 395.503 L669.152 421.429 L664.893 421.429 L664.893 395.503 M664.893 385.41 L669.152 385.41 L669.152 390.804 L664.893 390.804 L664.893 385.41 Z" fill="#000000" fill-rule="nonzero" fill-opacity="1" /><path clip-path="url(#clip520)" d="M699.615 405.781 L699.615 421.429 L695.356 421.429 L695.356 405.919 Q695.356 402.239 693.921 400.41 Q692.486 398.582 689.615 398.582 Q686.166 398.582 684.175 400.781 Q682.185 402.98 682.185 406.776 L682.185 421.429 L677.902 421.429 L677.902 395.503 L682.185 395.503 L682.185 399.531 Q683.712 397.193 685.773 396.035 Q687.856 394.878 690.564 394.878 Q695.032 394.878 697.323 397.656 Q699.615 400.41 699.615 405.781 Z" fill="#000000" fill-rule="nonzero" fill-opacity="1" /><path clip-path="url(#clip520)" d="M725.171 408.165 Q725.171 403.535 723.249 400.989 Q721.351 398.443 717.902 398.443 Q714.476 398.443 712.555 400.989 Q710.657 403.535 710.657 408.165 Q710.657 412.771 712.555 415.318 Q714.476 417.864 717.902 417.864 Q721.351 417.864 723.249 415.318 Q725.171 412.771 725.171 408.165 M729.43 418.211 Q729.43 424.831 726.49 428.049 Q723.55 431.29 717.485 431.29 Q715.24 431.29 713.249 430.942 Q711.259 430.618 709.384 429.924 L709.384 425.78 Q711.259 426.799 713.087 427.285 Q714.916 427.771 716.814 427.771 Q721.004 427.771 723.087 425.572 Q725.171 423.396 725.171 418.975 L725.171 416.868 Q723.851 419.16 721.791 420.294 Q719.731 421.429 716.86 421.429 Q712.092 421.429 709.175 417.794 Q706.259 414.16 706.259 408.165 Q706.259 402.146 709.175 398.512 Q712.092 394.878 716.86 394.878 Q719.731 394.878 721.791 396.012 Q723.851 397.146 725.171 399.438 L725.171 395.503 L729.43 395.503 L729.43 418.211 Z" fill="#000000" fill-rule="nonzero" fill-opacity="1" /></svg>
