<?xml version="1.0" encoding="utf-8"?>
<svg xmlns="http://www.w3.org/2000/svg" xmlns:xlink="http://www.w3.org/1999/xlink" width="600" height="400" viewBox="0 0 2400 1600">
<defs>
  <clipPath id="clip660">
    <rect x="0" y="0" width="2400" height="1600"/>
  </clipPath>
</defs>
<path clip-path="url(#clip660)" d="M0 1600 L2400 1600 L2400 0 L0 0  Z" fill="#ffffff" fill-rule="evenodd" fill-opacity="1"/>
<defs>
  <clipPath id="clip661">
    <rect x="480" y="0" width="1681" height="1600"/>
  </clipPath>
</defs>
<path clip-path="url(#clip660)" d="M264.287 1423.18 L2352.76 1423.18 L2352.76 47.2441 L264.287 47.2441  Z" fill="#ffffff" fill-rule="evenodd" fill-opacity="1"/>
<defs>
  <clipPath id="clip662">
    <rect x="264" y="47" width="2089" height="1377"/>
  </clipPath>
</defs>
<polyline clip-path="url(#clip662)" style="stroke:#000000; stroke-linecap:round; stroke-linejoin:round; stroke-width:2; stroke-opacity:0.1; fill:none" points="604.86,1423.18 604.86,47.2441 "/>
<polyline clip-path="url(#clip662)" style="stroke:#000000; stroke-linecap:round; stroke-linejoin:round; stroke-width:2; stroke-opacity:0.1; fill:none" points="1167.79,1423.18 1167.79,47.2441 "/>
<polyline clip-path="url(#clip662)" style="stroke:#000000; stroke-linecap:round; stroke-linejoin:round; stroke-width:2; stroke-opacity:0.1; fill:none" points="1730.72,1423.18 1730.72,47.2441 "/>
<polyline clip-path="url(#clip662)" style="stroke:#000000; stroke-linecap:round; stroke-linejoin:round; stroke-width:2; stroke-opacity:0.1; fill:none" points="2293.65,1423.18 2293.65,47.2441 "/>
<polyline clip-path="url(#clip662)" style="stroke:#000000; stroke-linecap:round; stroke-linejoin:round; stroke-width:2; stroke-opacity:0.1; fill:none" points="604.86,1423.18 604.86,47.2441 "/>
<polyline clip-path="url(#clip662)" style="stroke:#000000; stroke-linecap:round; stroke-linejoin:round; stroke-width:2; stroke-opacity:0.1; fill:none" points="1167.79,1423.18 1167.79,47.2441 "/>
<polyline clip-path="url(#clip662)" style="stroke:#000000; stroke-linecap:round; stroke-linejoin:round; stroke-width:2; stroke-opacity:0.1; fill:none" points="1730.72,1423.18 1730.72,47.2441 "/>
<polyline clip-path="url(#clip662)" style="stroke:#000000; stroke-linecap:round; stroke-linejoin:round; stroke-width:2; stroke-opacity:0.1; fill:none" points="2293.65,1423.18 2293.65,47.2441 "/>
<polyline clip-path="url(#clip662)" style="stroke:#000000; stroke-linecap:round; stroke-linejoin:round; stroke-width:2; stroke-opacity:0.1; fill:none" points="264.287,1105.66 2352.76,1105.66 "/>
<polyline clip-path="url(#clip662)" style="stroke:#000000; stroke-linecap:round; stroke-linejoin:round; stroke-width:2; stroke-opacity:0.1; fill:none" points="264.287,752.852 2352.76,752.852 "/>
<polyline clip-path="url(#clip662)" style="stroke:#000000; stroke-linecap:round; stroke-linejoin:round; stroke-width:2; stroke-opacity:0.1; fill:none" points="264.287,400.048 2352.76,400.048 "/>
<polyline clip-path="url(#clip662)" style="stroke:#000000; stroke-linecap:round; stroke-linejoin:round; stroke-width:2; stroke-opacity:0.1; fill:none" points="264.287,47.2441 2352.76,47.2441 "/>
<polyline clip-path="url(#clip662)" style="stroke:#000000; stroke-linecap:round; stroke-linejoin:round; stroke-width:2; stroke-opacity:0.1; fill:none" points="264.287,1105.66 2352.76,1105.66 "/>
<polyline clip-path="url(#clip662)" style="stroke:#000000; stroke-linecap:round; stroke-linejoin:round; stroke-width:2; stroke-opacity:0.1; fill:none" points="264.287,752.852 2352.76,752.852 "/>
<polyline clip-path="url(#clip662)" style="stroke:#000000; stroke-linecap:round; stroke-linejoin:round; stroke-width:2; stroke-opacity:0.1; fill:none" points="264.287,400.048 2352.76,400.048 "/>
<polyline clip-path="url(#clip662)" style="stroke:#000000; stroke-linecap:round; stroke-linejoin:round; stroke-width:2; stroke-opacity:0.1; fill:none" points="264.287,47.2441 2352.76,47.2441 "/>
<polyline clip-path="url(#clip660)" style="stroke:#000000; stroke-linecap:round; stroke-linejoin:round; stroke-width:4; stroke-opacity:1; fill:none" points="264.287,1423.18 2352.76,1423.18 "/>
<polyline clip-path="url(#clip660)" style="stroke:#000000; stroke-linecap:round; stroke-linejoin:round; stroke-width:4; stroke-opacity:1; fill:none" points="264.287,47.2441 2352.76,47.2441 "/>
<polyline clip-path="url(#clip660)" style="stroke:#000000; stroke-linecap:round; stroke-linejoin:round; stroke-width:4; stroke-opacity:1; fill:none" points="604.86,1423.18 604.86,1404.28 "/>
<polyline clip-path="url(#clip660)" style="stroke:#000000; stroke-linecap:round; stroke-linejoin:round; stroke-width:4; stroke-opacity:1; fill:none" points="1167.79,1423.18 1167.79,1404.28 "/>
<polyline clip-path="url(#clip660)" style="stroke:#000000; stroke-linecap:round; stroke-linejoin:round; stroke-width:4; stroke-opacity:1; fill:none" points="1730.72,1423.18 1730.72,1404.28 "/>
<polyline clip-path="url(#clip660)" style="stroke:#000000; stroke-linecap:round; stroke-linejoin:round; stroke-width:4; stroke-opacity:1; fill:none" points="2293.65,1423.18 2293.65,1404.28 "/>
<polyline clip-path="url(#clip660)" style="stroke:#000000; stroke-linecap:round; stroke-linejoin:round; stroke-width:4; stroke-opacity:1; fill:none" points="604.86,47.2441 604.86,66.1417 "/>
<polyline clip-path="url(#clip660)" style="stroke:#000000; stroke-linecap:round; stroke-linejoin:round; stroke-width:4; stroke-opacity:1; fill:none" points="1167.79,47.2441 1167.79,66.1417 "/>
<polyline clip-path="url(#clip660)" style="stroke:#000000; stroke-linecap:round; stroke-linejoin:round; stroke-width:4; stroke-opacity:1; fill:none" points="1730.72,47.2441 1730.72,66.1417 "/>
<polyline clip-path="url(#clip660)" style="stroke:#000000; stroke-linecap:round; stroke-linejoin:round; stroke-width:4; stroke-opacity:1; fill:none" points="2293.65,47.2441 2293.65,66.1417 "/>
<path clip-path="url(#clip660)" d="M599.513 1481.64 L615.832 1481.64 L615.832 1485.58 L593.888 1485.58 L593.888 1481.64 Q596.55 1478.89 601.133 1474.26 Q605.739 1469.61 606.92 1468.27 Q609.165 1465.74 610.045 1464.01 Q610.948 1462.25 610.948 1460.56 Q610.948 1457.8 609.003 1456.07 Q607.082 1454.33 603.98 1454.33 Q601.781 1454.33 599.327 1455.09 Q596.897 1455.86 594.119 1457.41 L594.119 1452.69 Q596.943 1451.55 599.397 1450.97 Q601.85 1450.39 603.887 1450.39 Q609.258 1450.39 612.452 1453.08 Q615.647 1455.77 615.647 1460.26 Q615.647 1462.39 614.836 1464.31 Q614.049 1466.2 611.943 1468.8 Q611.364 1469.47 608.262 1472.69 Q605.161 1475.88 599.513 1481.64 Z" fill="#000000" fill-rule="nonzero" fill-opacity="1" /><path clip-path="url(#clip660)" d="M1170.8 1455.09 L1158.99 1473.54 L1170.8 1473.54 L1170.8 1455.09 M1169.57 1451.02 L1175.45 1451.02 L1175.45 1473.54 L1180.38 1473.54 L1180.38 1477.43 L1175.45 1477.43 L1175.45 1485.58 L1170.8 1485.58 L1170.8 1477.43 L1155.2 1477.43 L1155.2 1472.92 L1169.57 1451.02 Z" fill="#000000" fill-rule="nonzero" fill-opacity="1" /><path clip-path="url(#clip660)" d="M1731.12 1466.44 Q1727.98 1466.44 1726.12 1468.59 Q1724.3 1470.74 1724.3 1474.49 Q1724.3 1478.22 1726.12 1480.39 Q1727.98 1482.55 1731.12 1482.55 Q1734.27 1482.55 1736.1 1480.39 Q1737.95 1478.22 1737.95 1474.49 Q1737.95 1470.74 1736.1 1468.59 Q1734.27 1466.44 1731.12 1466.44 M1740.41 1451.78 L1740.41 1456.04 Q1738.65 1455.21 1736.84 1454.77 Q1735.06 1454.33 1733.3 1454.33 Q1728.67 1454.33 1726.22 1457.45 Q1723.79 1460.58 1723.44 1466.9 Q1724.8 1464.89 1726.86 1463.82 Q1728.92 1462.73 1731.4 1462.73 Q1736.61 1462.73 1739.62 1465.9 Q1742.65 1469.05 1742.65 1474.49 Q1742.65 1479.82 1739.5 1483.03 Q1736.36 1486.25 1731.12 1486.25 Q1725.13 1486.25 1721.96 1481.67 Q1718.79 1477.06 1718.79 1468.33 Q1718.79 1460.14 1722.67 1455.28 Q1726.56 1450.39 1733.11 1450.39 Q1734.87 1450.39 1736.66 1450.74 Q1738.46 1451.09 1740.41 1451.78 Z" fill="#000000" fill-rule="nonzero" fill-opacity="1" /><path clip-path="url(#clip660)" d="M2293.65 1469.17 Q2290.31 1469.17 2288.39 1470.95 Q2286.5 1472.73 2286.5 1475.86 Q2286.5 1478.98 2288.39 1480.77 Q2290.31 1482.55 2293.65 1482.55 Q2296.98 1482.55 2298.9 1480.77 Q2300.82 1478.96 2300.82 1475.86 Q2300.82 1472.73 2298.9 1470.95 Q2297 1469.17 2293.65 1469.17 M2288.97 1467.18 Q2285.96 1466.44 2284.27 1464.38 Q2282.61 1462.32 2282.61 1459.35 Q2282.61 1455.21 2285.55 1452.8 Q2288.51 1450.39 2293.65 1450.39 Q2298.81 1450.39 2301.75 1452.8 Q2304.69 1455.21 2304.69 1459.35 Q2304.69 1462.32 2303 1464.38 Q2301.33 1466.44 2298.35 1467.18 Q2301.73 1467.96 2303.6 1470.26 Q2305.5 1472.55 2305.5 1475.86 Q2305.5 1480.88 2302.42 1483.57 Q2299.37 1486.25 2293.65 1486.25 Q2287.93 1486.25 2284.85 1483.57 Q2281.8 1480.88 2281.8 1475.86 Q2281.8 1472.55 2283.69 1470.26 Q2285.59 1467.96 2288.97 1467.18 M2287.26 1459.79 Q2287.26 1462.48 2288.93 1463.98 Q2290.62 1465.49 2293.65 1465.49 Q2296.66 1465.49 2298.35 1463.98 Q2300.06 1462.48 2300.06 1459.79 Q2300.06 1457.11 2298.35 1455.6 Q2296.66 1454.1 2293.65 1454.1 Q2290.62 1454.1 2288.93 1455.6 Q2287.26 1457.11 2287.26 1459.79 Z" fill="#000000" fill-rule="nonzero" fill-opacity="1" /><path clip-path="url(#clip660)" d="M1127.69 1539.37 L1118.43 1539.37 L1115.75 1550 L1125.08 1550 L1127.69 1539.37 M1122.91 1521.26 L1119.6 1534.46 L1128.9 1534.46 L1132.24 1521.26 L1137.33 1521.26 L1134.05 1534.46 L1143.98 1534.46 L1143.98 1539.37 L1132.81 1539.37 L1130.2 1550 L1140.32 1550 L1140.32 1554.87 L1128.96 1554.87 L1125.65 1568.04 L1120.56 1568.04 L1123.84 1554.87 L1114.51 1554.87 L1111.23 1568.04 L1106.11 1568.04 L1109.42 1554.87 L1099.39 1554.87 L1099.39 1550 L1110.6 1550 L1113.27 1539.37 L1103.02 1539.37 L1103.02 1534.46 L1114.51 1534.46 L1117.76 1521.26 L1122.91 1521.26 Z" fill="#000000" fill-rule="nonzero" fill-opacity="1" /><path clip-path="url(#clip660)" d="M1181.51 1562.7 L1181.51 1581.6 L1175.62 1581.6 L1175.62 1532.4 L1181.51 1532.4 L1181.51 1537.81 Q1183.36 1534.62 1186.16 1533.1 Q1188.99 1531.54 1192.9 1531.54 Q1199.4 1531.54 1203.44 1536.69 Q1207.51 1541.85 1207.51 1550.25 Q1207.51 1558.65 1203.44 1563.81 Q1199.4 1568.97 1192.9 1568.97 Q1188.99 1568.97 1186.16 1567.44 Q1183.36 1565.88 1181.51 1562.7 M1201.43 1550.25 Q1201.43 1543.79 1198.76 1540.13 Q1196.12 1536.44 1191.47 1536.44 Q1186.83 1536.44 1184.15 1540.13 Q1181.51 1543.79 1181.51 1550.25 Q1181.51 1556.71 1184.15 1560.4 Q1186.83 1564.07 1191.47 1564.07 Q1196.12 1564.07 1198.76 1560.4 Q1201.43 1556.71 1201.43 1550.25 Z" fill="#000000" fill-rule="nonzero" fill-opacity="1" /><path clip-path="url(#clip660)" d="M1237.88 1537.87 Q1236.89 1537.3 1235.71 1537.04 Q1234.57 1536.76 1233.17 1536.76 Q1228.2 1536.76 1225.53 1540 Q1222.89 1543.22 1222.89 1549.27 L1222.89 1568.04 L1217 1568.04 L1217 1532.4 L1222.89 1532.4 L1222.89 1537.93 Q1224.73 1534.69 1227.69 1533.13 Q1230.65 1531.54 1234.89 1531.54 Q1235.49 1531.54 1236.22 1531.63 Q1236.96 1531.7 1237.85 1531.85 L1237.88 1537.87 Z" fill="#000000" fill-rule="nonzero" fill-opacity="1" /><path clip-path="url(#clip660)" d="M1256.4 1536.5 Q1251.69 1536.5 1248.95 1540.19 Q1246.22 1543.85 1246.22 1550.25 Q1246.22 1556.65 1248.92 1560.34 Q1251.66 1564 1256.4 1564 Q1261.08 1564 1263.82 1560.31 Q1266.56 1556.62 1266.56 1550.25 Q1266.56 1543.92 1263.82 1540.23 Q1261.08 1536.5 1256.4 1536.5 M1256.4 1531.54 Q1264.04 1531.54 1268.4 1536.5 Q1272.76 1541.47 1272.76 1550.25 Q1272.76 1559 1268.4 1564 Q1264.04 1568.97 1256.4 1568.97 Q1248.73 1568.97 1244.37 1564 Q1240.04 1559 1240.04 1550.25 Q1240.04 1541.47 1244.37 1536.5 Q1248.73 1531.54 1256.4 1531.54 Z" fill="#000000" fill-rule="nonzero" fill-opacity="1" /><path clip-path="url(#clip660)" d="M1308.12 1533.76 L1308.12 1539.24 Q1305.64 1537.87 1303.13 1537.2 Q1300.64 1536.5 1298.1 1536.5 Q1292.4 1536.5 1289.25 1540.13 Q1286.1 1543.73 1286.1 1550.25 Q1286.1 1556.78 1289.25 1560.4 Q1292.4 1564 1298.1 1564 Q1300.64 1564 1303.13 1563.33 Q1305.64 1562.63 1308.12 1561.26 L1308.12 1566.68 Q1305.67 1567.82 1303.03 1568.39 Q1300.42 1568.97 1297.46 1568.97 Q1289.41 1568.97 1284.67 1563.91 Q1279.92 1558.85 1279.92 1550.25 Q1279.92 1541.53 1284.7 1536.53 Q1289.5 1531.54 1297.84 1531.54 Q1300.55 1531.54 1303.13 1532.11 Q1305.7 1532.65 1308.12 1533.76 Z" fill="#000000" fill-rule="nonzero" fill-opacity="1" /><path clip-path="url(#clip660)" d="M1348.8 1548.76 L1348.8 1551.62 L1321.87 1551.62 Q1322.26 1557.67 1325.5 1560.85 Q1328.78 1564 1334.61 1564 Q1337.98 1564 1341.13 1563.17 Q1344.31 1562.35 1347.43 1560.69 L1347.43 1566.23 Q1344.28 1567.57 1340.97 1568.27 Q1337.66 1568.97 1334.25 1568.97 Q1325.72 1568.97 1320.73 1564 Q1315.76 1559.04 1315.76 1550.57 Q1315.76 1541.82 1320.47 1536.69 Q1325.22 1531.54 1333.24 1531.54 Q1340.43 1531.54 1344.6 1536.18 Q1348.8 1540.8 1348.8 1548.76 M1342.94 1547.04 Q1342.88 1542.23 1340.24 1539.37 Q1337.63 1536.5 1333.3 1536.5 Q1328.4 1536.5 1325.44 1539.27 Q1322.51 1542.04 1322.06 1547.07 L1342.94 1547.04 Z" fill="#000000" fill-rule="nonzero" fill-opacity="1" /><path clip-path="url(#clip660)" d="M1381.14 1533.45 L1381.14 1538.98 Q1378.66 1537.71 1375.98 1537.07 Q1373.31 1536.44 1370.44 1536.44 Q1366.08 1536.44 1363.89 1537.77 Q1361.72 1539.11 1361.72 1541.79 Q1361.72 1543.82 1363.28 1545 Q1364.84 1546.15 1369.55 1547.2 L1371.56 1547.64 Q1377.8 1548.98 1380.41 1551.43 Q1383.05 1553.85 1383.05 1558.21 Q1383.05 1563.17 1379.1 1566.07 Q1375.19 1568.97 1368.31 1568.97 Q1365.45 1568.97 1362.33 1568.39 Q1359.24 1567.85 1355.8 1566.74 L1355.8 1560.69 Q1359.05 1562.38 1362.2 1563.24 Q1365.35 1564.07 1368.44 1564.07 Q1372.58 1564.07 1374.8 1562.66 Q1377.03 1561.23 1377.03 1558.65 Q1377.03 1556.27 1375.41 1554.99 Q1373.82 1553.72 1368.38 1552.54 L1366.34 1552.07 Q1360.9 1550.92 1358.48 1548.56 Q1356.06 1546.18 1356.06 1542.04 Q1356.06 1537.01 1359.62 1534.27 Q1363.19 1531.54 1369.74 1531.54 Q1372.99 1531.54 1375.85 1532.01 Q1378.72 1532.49 1381.14 1533.45 Z" fill="#000000" fill-rule="nonzero" fill-opacity="1" /><path clip-path="url(#clip660)" d="M1415.1 1533.45 L1415.1 1538.98 Q1412.62 1537.71 1409.94 1537.07 Q1407.27 1536.44 1404.41 1536.44 Q1400.04 1536.44 1397.85 1537.77 Q1395.68 1539.11 1395.68 1541.79 Q1395.68 1543.82 1397.24 1545 Q1398.8 1546.15 1403.51 1547.2 L1405.52 1547.64 Q1411.76 1548.98 1414.37 1551.43 Q1417.01 1553.85 1417.01 1558.21 Q1417.01 1563.17 1413.06 1566.07 Q1409.15 1568.97 1402.27 1568.97 Q1399.41 1568.97 1396.29 1568.39 Q1393.2 1567.85 1389.76 1566.74 L1389.76 1560.69 Q1393.01 1562.38 1396.16 1563.24 Q1399.31 1564.07 1402.4 1564.07 Q1406.54 1564.07 1408.77 1562.66 Q1410.99 1561.23 1410.99 1558.65 Q1410.99 1556.27 1409.37 1554.99 Q1407.78 1553.72 1402.34 1552.54 L1400.3 1552.07 Q1394.86 1550.92 1392.44 1548.56 Q1390.02 1546.18 1390.02 1542.04 Q1390.02 1537.01 1393.58 1534.27 Q1397.15 1531.54 1403.7 1531.54 Q1406.95 1531.54 1409.82 1532.01 Q1412.68 1532.49 1415.1 1533.45 Z" fill="#000000" fill-rule="nonzero" fill-opacity="1" /><path clip-path="url(#clip660)" d="M1440.15 1536.5 Q1435.44 1536.5 1432.7 1540.19 Q1429.96 1543.85 1429.96 1550.25 Q1429.96 1556.65 1432.67 1560.34 Q1435.41 1564 1440.15 1564 Q1444.83 1564 1447.56 1560.31 Q1450.3 1556.62 1450.3 1550.25 Q1450.3 1543.92 1447.56 1540.23 Q1444.83 1536.5 1440.15 1536.5 M1440.15 1531.54 Q1447.79 1531.54 1452.15 1536.5 Q1456.51 1541.47 1456.51 1550.25 Q1456.51 1559 1452.15 1564 Q1447.79 1568.97 1440.15 1568.97 Q1432.48 1568.97 1428.12 1564 Q1423.79 1559 1423.79 1550.25 Q1423.79 1541.47 1428.12 1536.5 Q1432.48 1531.54 1440.15 1531.54 Z" fill="#000000" fill-rule="nonzero" fill-opacity="1" /><path clip-path="url(#clip660)" d="M1486.87 1537.87 Q1485.89 1537.3 1484.71 1537.04 Q1483.56 1536.76 1482.16 1536.76 Q1477.2 1536.76 1474.52 1540 Q1471.88 1543.22 1471.88 1549.27 L1471.88 1568.04 L1465.99 1568.04 L1465.99 1532.4 L1471.88 1532.4 L1471.88 1537.93 Q1473.73 1534.69 1476.69 1533.13 Q1479.65 1531.54 1483.88 1531.54 Q1484.49 1531.54 1485.22 1531.63 Q1485.95 1531.7 1486.84 1531.85 L1486.87 1537.87 Z" fill="#000000" fill-rule="nonzero" fill-opacity="1" /><path clip-path="url(#clip660)" d="M1515.74 1533.45 L1515.74 1538.98 Q1513.26 1537.71 1510.59 1537.07 Q1507.91 1536.44 1505.05 1536.44 Q1500.69 1536.44 1498.49 1537.77 Q1496.33 1539.11 1496.33 1541.79 Q1496.33 1543.82 1497.89 1545 Q1499.45 1546.15 1504.16 1547.2 L1506.16 1547.64 Q1512.4 1548.98 1515.01 1551.43 Q1517.65 1553.85 1517.65 1558.21 Q1517.65 1563.17 1513.7 1566.07 Q1509.79 1568.97 1502.91 1568.97 Q1500.05 1568.97 1496.93 1568.39 Q1493.84 1567.85 1490.41 1566.74 L1490.41 1560.69 Q1493.65 1562.38 1496.8 1563.24 Q1499.95 1564.07 1503.04 1564.07 Q1507.18 1564.07 1509.41 1562.66 Q1511.64 1561.23 1511.64 1558.65 Q1511.64 1556.27 1510.01 1554.99 Q1508.42 1553.72 1502.98 1552.54 L1500.94 1552.07 Q1495.5 1550.92 1493.08 1548.56 Q1490.66 1546.18 1490.66 1542.04 Q1490.66 1537.01 1494.23 1534.27 Q1497.79 1531.54 1504.35 1531.54 Q1507.59 1531.54 1510.46 1532.01 Q1513.32 1532.49 1515.74 1533.45 Z" fill="#000000" fill-rule="nonzero" fill-opacity="1" /><polyline clip-path="url(#clip660)" style="stroke:#000000; stroke-linecap:round; stroke-linejoin:round; stroke-width:4; stroke-opacity:1; fill:none" points="264.287,1423.18 264.287,47.2441 "/>
<polyline clip-path="url(#clip660)" style="stroke:#000000; stroke-linecap:round; stroke-linejoin:round; stroke-width:4; stroke-opacity:1; fill:none" points="2352.76,1423.18 2352.76,47.2441 "/>
<polyline clip-path="url(#clip660)" style="stroke:#000000; stroke-linecap:round; stroke-linejoin:round; stroke-width:4; stroke-opacity:1; fill:none" points="264.287,1105.66 283.185,1105.66 "/>
<polyline clip-path="url(#clip660)" style="stroke:#000000; stroke-linecap:round; stroke-linejoin:round; stroke-width:4; stroke-opacity:1; fill:none" points="264.287,752.852 283.185,752.852 "/>
<polyline clip-path="url(#clip660)" style="stroke:#000000; stroke-linecap:round; stroke-linejoin:round; stroke-width:4; stroke-opacity:1; fill:none" points="264.287,400.048 283.185,400.048 "/>
<polyline clip-path="url(#clip660)" style="stroke:#000000; stroke-linecap:round; stroke-linejoin:round; stroke-width:4; stroke-opacity:1; fill:none" points="264.287,47.2441 283.185,47.2441 "/>
<polyline clip-path="url(#clip660)" style="stroke:#000000; stroke-linecap:round; stroke-linejoin:round; stroke-width:4; stroke-opacity:1; fill:none" points="2352.76,1105.66 2333.86,1105.66 "/>
<polyline clip-path="url(#clip660)" style="stroke:#000000; stroke-linecap:round; stroke-linejoin:round; stroke-width:4; stroke-opacity:1; fill:none" points="2352.76,752.852 2333.86,752.852 "/>
<polyline clip-path="url(#clip660)" style="stroke:#000000; stroke-linecap:round; stroke-linejoin:round; stroke-width:4; stroke-opacity:1; fill:none" points="2352.76,400.048 2333.86,400.048 "/>
<polyline clip-path="url(#clip660)" style="stroke:#000000; stroke-linecap:round; stroke-linejoin:round; stroke-width:4; stroke-opacity:1; fill:none" points="2352.76,47.2441 2333.86,47.2441 "/>
<path clip-path="url(#clip660)" d="M146.066 1088.38 L164.422 1088.38 L164.422 1092.31 L150.348 1092.31 L150.348 1100.78 Q151.366 1100.44 152.385 1100.27 Q153.403 1100.09 154.422 1100.09 Q160.209 1100.09 163.589 1103.26 Q166.968 1106.43 166.968 1111.85 Q166.968 1117.43 163.496 1120.53 Q160.024 1123.61 153.704 1123.61 Q151.528 1123.61 149.26 1123.24 Q147.015 1122.87 144.607 1122.13 L144.607 1117.43 Q146.691 1118.56 148.913 1119.12 Q151.135 1119.67 153.612 1119.67 Q157.616 1119.67 159.954 1117.57 Q162.292 1115.46 162.292 1111.85 Q162.292 1108.24 159.954 1106.13 Q157.616 1104.02 153.612 1104.02 Q151.737 1104.02 149.862 1104.44 Q148.01 1104.86 146.066 1105.74 L146.066 1088.38 Z" fill="#000000" fill-rule="nonzero" fill-opacity="1" /><path clip-path="url(#clip660)" d="M186.181 1091.45 Q182.57 1091.45 180.741 1095.02 Q178.936 1098.56 178.936 1105.69 Q178.936 1112.8 180.741 1116.36 Q182.57 1119.9 186.181 1119.9 Q189.815 1119.9 191.621 1116.36 Q193.45 1112.8 193.45 1105.69 Q193.45 1098.56 191.621 1095.02 Q189.815 1091.45 186.181 1091.45 M186.181 1087.75 Q191.991 1087.75 195.047 1092.36 Q198.125 1096.94 198.125 1105.69 Q198.125 1114.42 195.047 1119.02 Q191.991 1123.61 186.181 1123.61 Q180.371 1123.61 177.292 1119.02 Q174.237 1114.42 174.237 1105.69 Q174.237 1096.94 177.292 1092.36 Q180.371 1087.75 186.181 1087.75 Z" fill="#000000" fill-rule="nonzero" fill-opacity="1" /><path clip-path="url(#clip660)" d="M216.343 1091.45 Q212.732 1091.45 210.903 1095.02 Q209.098 1098.56 209.098 1105.69 Q209.098 1112.8 210.903 1116.36 Q212.732 1119.9 216.343 1119.9 Q219.977 1119.9 221.783 1116.36 Q223.611 1112.8 223.611 1105.69 Q223.611 1098.56 221.783 1095.02 Q219.977 1091.45 216.343 1091.45 M216.343 1087.75 Q222.153 1087.75 225.209 1092.36 Q228.287 1096.94 228.287 1105.69 Q228.287 1114.42 225.209 1119.02 Q222.153 1123.61 216.343 1123.61 Q210.533 1123.61 207.454 1119.02 Q204.399 1114.42 204.399 1105.69 Q204.399 1096.94 207.454 1092.36 Q210.533 1087.75 216.343 1087.75 Z" fill="#000000" fill-rule="nonzero" fill-opacity="1" /><path clip-path="url(#clip660)" d="M116.668 766.197 L124.306 766.197 L124.306 739.831 L115.996 741.498 L115.996 737.239 L124.26 735.572 L128.936 735.572 L128.936 766.197 L136.575 766.197 L136.575 770.132 L116.668 770.132 L116.668 766.197 Z" fill="#000000" fill-rule="nonzero" fill-opacity="1" /><path clip-path="url(#clip660)" d="M156.019 738.651 Q152.408 738.651 150.579 742.216 Q148.774 745.757 148.774 752.887 Q148.774 759.993 150.579 763.558 Q152.408 767.1 156.019 767.1 Q159.653 767.1 161.459 763.558 Q163.288 759.993 163.288 752.887 Q163.288 745.757 161.459 742.216 Q159.653 738.651 156.019 738.651 M156.019 734.947 Q161.829 734.947 164.885 739.554 Q167.964 744.137 167.964 752.887 Q167.964 761.614 164.885 766.22 Q161.829 770.803 156.019 770.803 Q150.209 770.803 147.13 766.22 Q144.075 761.614 144.075 752.887 Q144.075 744.137 147.13 739.554 Q150.209 734.947 156.019 734.947 Z" fill="#000000" fill-rule="nonzero" fill-opacity="1" /><path clip-path="url(#clip660)" d="M186.181 738.651 Q182.57 738.651 180.741 742.216 Q178.936 745.757 178.936 752.887 Q178.936 759.993 180.741 763.558 Q182.57 767.1 186.181 767.1 Q189.815 767.1 191.621 763.558 Q193.45 759.993 193.45 752.887 Q193.45 745.757 191.621 742.216 Q189.815 738.651 186.181 738.651 M186.181 734.947 Q191.991 734.947 195.047 739.554 Q198.125 744.137 198.125 752.887 Q198.125 761.614 195.047 766.22 Q191.991 770.803 186.181 770.803 Q180.371 770.803 177.292 766.22 Q174.237 761.614 174.237 752.887 Q174.237 744.137 177.292 739.554 Q180.371 734.947 186.181 734.947 Z" fill="#000000" fill-rule="nonzero" fill-opacity="1" /><path clip-path="url(#clip660)" d="M216.343 738.651 Q212.732 738.651 210.903 742.216 Q209.098 745.757 209.098 752.887 Q209.098 759.993 210.903 763.558 Q212.732 767.1 216.343 767.1 Q219.977 767.1 221.783 763.558 Q223.611 759.993 223.611 752.887 Q223.611 745.757 221.783 742.216 Q219.977 738.651 216.343 738.651 M216.343 734.947 Q222.153 734.947 225.209 739.554 Q228.287 744.137 228.287 752.887 Q228.287 761.614 225.209 766.22 Q222.153 770.803 216.343 770.803 Q210.533 770.803 207.454 766.22 Q204.399 761.614 204.399 752.887 Q204.399 744.137 207.454 739.554 Q210.533 734.947 216.343 734.947 Z" fill="#000000" fill-rule="nonzero" fill-opacity="1" /><path clip-path="url(#clip660)" d="M116.668 413.393 L124.306 413.393 L124.306 387.027 L115.996 388.694 L115.996 384.435 L124.26 382.768 L128.936 382.768 L128.936 413.393 L136.575 413.393 L136.575 417.328 L116.668 417.328 L116.668 413.393 Z" fill="#000000" fill-rule="nonzero" fill-opacity="1" /><path clip-path="url(#clip660)" d="M146.066 382.768 L164.422 382.768 L164.422 386.703 L150.348 386.703 L150.348 395.175 Q151.366 394.828 152.385 394.666 Q153.403 394.481 154.422 394.481 Q160.209 394.481 163.589 397.652 Q166.968 400.824 166.968 406.24 Q166.968 411.819 163.496 414.921 Q160.024 417.999 153.704 417.999 Q151.528 417.999 149.26 417.629 Q147.015 417.259 144.607 416.518 L144.607 411.819 Q146.691 412.953 148.913 413.509 Q151.135 414.064 153.612 414.064 Q157.616 414.064 159.954 411.958 Q162.292 409.851 162.292 406.24 Q162.292 402.629 159.954 400.523 Q157.616 398.416 153.612 398.416 Q151.737 398.416 149.862 398.833 Q148.01 399.25 146.066 400.129 L146.066 382.768 Z" fill="#000000" fill-rule="nonzero" fill-opacity="1" /><path clip-path="url(#clip660)" d="M186.181 385.847 Q182.57 385.847 180.741 389.412 Q178.936 392.953 178.936 400.083 Q178.936 407.189 180.741 410.754 Q182.57 414.296 186.181 414.296 Q189.815 414.296 191.621 410.754 Q193.45 407.189 193.45 400.083 Q193.45 392.953 191.621 389.412 Q189.815 385.847 186.181 385.847 M186.181 382.143 Q191.991 382.143 195.047 386.75 Q198.125 391.333 198.125 400.083 Q198.125 408.81 195.047 413.416 Q191.991 417.999 186.181 417.999 Q180.371 417.999 177.292 413.416 Q174.237 408.81 174.237 400.083 Q174.237 391.333 177.292 386.75 Q180.371 382.143 186.181 382.143 Z" fill="#000000" fill-rule="nonzero" fill-opacity="1" /><path clip-path="url(#clip660)" d="M216.343 385.847 Q212.732 385.847 210.903 389.412 Q209.098 392.953 209.098 400.083 Q209.098 407.189 210.903 410.754 Q212.732 414.296 216.343 414.296 Q219.977 414.296 221.783 410.754 Q223.611 407.189 223.611 400.083 Q223.611 392.953 221.783 389.412 Q219.977 385.847 216.343 385.847 M216.343 382.143 Q222.153 382.143 225.209 386.75 Q228.287 391.333 228.287 400.083 Q228.287 408.81 225.209 413.416 Q222.153 417.999 216.343 417.999 Q210.533 417.999 207.454 413.416 Q204.399 408.81 204.399 400.083 Q204.399 391.333 207.454 386.75 Q210.533 382.143 216.343 382.143 Z" fill="#000000" fill-rule="nonzero" fill-opacity="1" /><path clip-path="url(#clip660)" d="M119.885 60.5889 L136.204 60.5889 L136.204 64.5241 L114.26 64.5241 L114.26 60.5889 Q116.922 57.8343 121.505 53.2047 Q126.112 48.552 127.292 47.2094 Q129.538 44.6862 130.417 42.9501 Q131.32 41.1909 131.32 39.5011 Q131.32 36.7465 129.376 35.0104 Q127.455 33.2743 124.353 33.2743 Q122.154 33.2743 119.7 34.0381 Q117.269 34.802 114.492 36.3529 L114.492 31.6308 Q117.316 30.4965 119.769 29.9178 Q122.223 29.3391 124.26 29.3391 Q129.63 29.3391 132.825 32.0243 Q136.019 34.7094 136.019 39.2002 Q136.019 41.3298 135.209 43.2511 Q134.422 45.1492 132.316 47.7418 Q131.737 48.4131 128.635 51.6306 Q125.533 54.8251 119.885 60.5889 Z" fill="#000000" fill-rule="nonzero" fill-opacity="1" /><path clip-path="url(#clip660)" d="M156.019 33.0428 Q152.408 33.0428 150.579 36.6076 Q148.774 40.1492 148.774 47.2788 Q148.774 54.3853 150.579 57.9501 Q152.408 61.4917 156.019 61.4917 Q159.653 61.4917 161.459 57.9501 Q163.288 54.3853 163.288 47.2788 Q163.288 40.1492 161.459 36.6076 Q159.653 33.0428 156.019 33.0428 M156.019 29.3391 Q161.829 29.3391 164.885 33.9456 Q167.964 38.5289 167.964 47.2788 Q167.964 56.0056 164.885 60.6121 Q161.829 65.1954 156.019 65.1954 Q150.209 65.1954 147.13 60.6121 Q144.075 56.0056 144.075 47.2788 Q144.075 38.5289 147.13 33.9456 Q150.209 29.3391 156.019 29.3391 Z" fill="#000000" fill-rule="nonzero" fill-opacity="1" /><path clip-path="url(#clip660)" d="M186.181 33.0428 Q182.57 33.0428 180.741 36.6076 Q178.936 40.1492 178.936 47.2788 Q178.936 54.3853 180.741 57.9501 Q182.57 61.4917 186.181 61.4917 Q189.815 61.4917 191.621 57.9501 Q193.45 54.3853 193.45 47.2788 Q193.45 40.1492 191.621 36.6076 Q189.815 33.0428 186.181 33.0428 M186.181 29.3391 Q191.991 29.3391 195.047 33.9456 Q198.125 38.5289 198.125 47.2788 Q198.125 56.0056 195.047 60.6121 Q191.991 65.1954 186.181 65.1954 Q180.371 65.1954 177.292 60.6121 Q174.237 56.0056 174.237 47.2788 Q174.237 38.5289 177.292 33.9456 Q180.371 29.3391 186.181 29.3391 Z" fill="#000000" fill-rule="nonzero" fill-opacity="1" /><path clip-path="url(#clip660)" d="M216.343 33.0428 Q212.732 33.0428 210.903 36.6076 Q209.098 40.1492 209.098 47.2788 Q209.098 54.3853 210.903 57.9501 Q212.732 61.4917 216.343 61.4917 Q219.977 61.4917 221.783 57.9501 Q223.611 54.3853 223.611 47.2788 Q223.611 40.1492 221.783 36.6076 Q219.977 33.0428 216.343 33.0428 M216.343 29.3391 Q222.153 29.3391 225.209 33.9456 Q228.287 38.5289 228.287 47.2788 Q228.287 56.0056 225.209 60.6121 Q222.153 65.1954 216.343 65.1954 Q210.533 65.1954 207.454 60.6121 Q204.399 56.0056 204.399 47.2788 Q204.399 38.5289 207.454 33.9456 Q210.533 29.3391 216.343 29.3391 Z" fill="#000000" fill-rule="nonzero" fill-opacity="1" /><path clip-path="url(#clip660)" d="M16.4842 1025.92 L16.4842 995.872 L21.895 995.872 L21.895 1019.49 L35.9632 1019.49 L35.9632 996.858 L41.3741 996.858 L41.3741 1019.49 L58.5933 1019.49 L58.5933 995.299 L64.0042 995.299 L64.0042 1025.92 L16.4842 1025.92 Z" fill="#000000" fill-rule="nonzero" fill-opacity="1" /><path clip-path="url(#clip660)" d="M28.3562 955.354 L45.7028 968.245 L64.0042 954.686 L64.0042 961.592 L49.9996 971.969 L64.0042 982.345 L64.0042 989.251 L45.3526 975.406 L28.3562 988.074 L28.3562 981.167 L41.0558 971.714 L28.3562 962.261 L28.3562 955.354 Z" fill="#000000" fill-rule="nonzero" fill-opacity="1" /><path clip-path="url(#clip660)" d="M44.7161 917.924 L47.5806 917.924 L47.5806 944.851 Q53.6281 944.469 56.8109 941.222 Q59.9619 937.944 59.9619 932.119 Q59.9619 928.745 59.1344 925.594 Q58.3069 922.411 56.6518 919.292 L62.1899 919.292 Q63.5267 922.443 64.227 925.753 Q64.9272 929.064 64.9272 932.469 Q64.9272 940.999 59.9619 945.996 Q54.9967 950.962 46.5303 950.962 Q37.7774 950.962 32.6531 946.251 Q27.4968 941.509 27.4968 933.488 Q27.4968 926.295 32.1438 922.125 Q36.7589 917.924 44.7161 917.924 M42.9973 923.78 Q38.1912 923.844 35.3266 926.486 Q32.4621 929.095 32.4621 933.424 Q32.4621 938.326 35.2312 941.286 Q38.0002 944.214 43.0292 944.66 L42.9973 923.78 Z" fill="#000000" fill-rule="nonzero" fill-opacity="1" /><path clip-path="url(#clip660)" d="M29.7248 882.658 L35.1993 882.658 Q33.8307 885.14 33.1623 887.655 Q32.4621 890.137 32.4621 892.684 Q32.4621 898.381 36.0905 901.532 Q39.6872 904.683 46.212 904.683 Q52.7369 904.683 56.3653 901.532 Q59.9619 898.381 59.9619 892.684 Q59.9619 890.137 59.2935 887.655 Q58.5933 885.14 57.2247 882.658 L62.6355 882.658 Q63.7814 885.108 64.3543 887.75 Q64.9272 890.36 64.9272 893.32 Q64.9272 901.373 59.8664 906.115 Q54.8057 910.858 46.212 910.858 Q37.491 910.858 32.4939 906.083 Q27.4968 901.277 27.4968 892.938 Q27.4968 890.233 28.0697 887.655 Q28.6108 885.077 29.7248 882.658 Z" fill="#000000" fill-rule="nonzero" fill-opacity="1" /><path clip-path="url(#clip660)" d="M49.9359 873.077 L28.3562 873.077 L28.3562 867.221 L49.7131 867.221 Q54.7739 867.221 57.3202 865.247 Q59.8346 863.274 59.8346 859.327 Q59.8346 854.585 56.8109 851.848 Q53.7872 849.079 48.5673 849.079 L28.3562 849.079 L28.3562 843.222 L64.0042 843.222 L64.0042 849.079 L58.5296 849.079 Q61.7762 851.211 63.3676 854.044 Q64.9272 856.845 64.9272 860.569 Q64.9272 866.712 61.1078 869.894 Q57.2883 873.077 49.9359 873.077 M27.4968 858.341 L27.4968 858.341 Z" fill="#000000" fill-rule="nonzero" fill-opacity="1" /><path clip-path="url(#clip660)" d="M18.2347 825.366 L28.3562 825.366 L28.3562 813.303 L32.9077 813.303 L32.9077 825.366 L52.2594 825.366 Q56.6199 825.366 57.8613 824.189 Q59.1026 822.979 59.1026 819.319 L59.1026 813.303 L64.0042 813.303 L64.0042 819.319 Q64.0042 826.098 61.4897 828.676 Q58.9434 831.255 52.2594 831.255 L32.9077 831.255 L32.9077 835.551 L28.3562 835.551 L28.3562 831.255 L18.2347 831.255 L18.2347 825.366 Z" fill="#000000" fill-rule="nonzero" fill-opacity="1" /><path clip-path="url(#clip660)" d="M28.3562 805.601 L28.3562 799.744 L64.0042 799.744 L64.0042 805.601 L28.3562 805.601 M14.479 805.601 L14.479 799.744 L21.895 799.744 L21.895 805.601 L14.479 805.601 Z" fill="#000000" fill-rule="nonzero" fill-opacity="1" /><path clip-path="url(#clip660)" d="M32.4621 773.677 Q32.4621 778.387 36.1542 781.125 Q39.8145 783.862 46.212 783.862 Q52.6095 783.862 56.3017 781.156 Q59.9619 778.419 59.9619 773.677 Q59.9619 768.998 56.2698 766.261 Q52.5777 763.523 46.212 763.523 Q39.8781 763.523 36.186 766.261 Q32.4621 768.998 32.4621 773.677 M27.4968 773.677 Q27.4968 766.038 32.4621 761.677 Q37.4273 757.317 46.212 757.317 Q54.9649 757.317 59.9619 761.677 Q64.9272 766.038 64.9272 773.677 Q64.9272 781.347 59.9619 785.708 Q54.9649 790.037 46.212 790.037 Q37.4273 790.037 32.4621 785.708 Q27.4968 781.347 27.4968 773.677 Z" fill="#000000" fill-rule="nonzero" fill-opacity="1" /><path clip-path="url(#clip660)" d="M42.4881 717.977 L64.0042 717.977 L64.0042 723.833 L42.679 723.833 Q37.6183 723.833 35.1038 725.807 Q32.5894 727.78 32.5894 731.727 Q32.5894 736.469 35.6131 739.206 Q38.6368 741.944 43.8567 741.944 L64.0042 741.944 L64.0042 747.832 L28.3562 747.832 L28.3562 741.944 L33.8944 741.944 Q30.6797 739.843 29.0883 737.01 Q27.4968 734.146 27.4968 730.422 Q27.4968 724.279 31.3163 721.128 Q35.1038 717.977 42.4881 717.977 Z" fill="#000000" fill-rule="nonzero" fill-opacity="1" /><path clip-path="url(#clip660)" d="M18.2347 679.783 L28.3562 679.783 L28.3562 667.72 L32.9077 667.72 L32.9077 679.783 L52.2594 679.783 Q56.6199 679.783 57.8613 678.605 Q59.1026 677.395 59.1026 673.735 L59.1026 667.72 L64.0042 667.72 L64.0042 673.735 Q64.0042 680.515 61.4897 683.093 Q58.9434 685.671 52.2594 685.671 L32.9077 685.671 L32.9077 689.968 L28.3562 689.968 L28.3562 685.671 L18.2347 685.671 L18.2347 679.783 Z" fill="#000000" fill-rule="nonzero" fill-opacity="1" /><path clip-path="url(#clip660)" d="M28.3562 660.017 L28.3562 654.161 L64.0042 654.161 L64.0042 660.017 L28.3562 660.017 M14.479 660.017 L14.479 654.161 L21.895 654.161 L21.895 660.017 L14.479 660.017 Z" fill="#000000" fill-rule="nonzero" fill-opacity="1" /><path clip-path="url(#clip660)" d="M35.1993 614.152 Q31.2526 611.956 29.3747 608.9 Q27.4968 605.845 27.4968 601.707 Q27.4968 596.137 31.4117 593.113 Q35.2948 590.09 42.4881 590.09 L64.0042 590.09 L64.0042 595.978 L42.679 595.978 Q37.5546 595.978 35.072 597.792 Q32.5894 599.607 32.5894 603.33 Q32.5894 607.882 35.6131 610.524 Q38.6368 613.165 43.8567 613.165 L64.0042 613.165 L64.0042 619.054 L42.679 619.054 Q37.5228 619.054 35.072 620.868 Q32.5894 622.682 32.5894 626.47 Q32.5894 630.958 35.6449 633.599 Q38.6686 636.241 43.8567 636.241 L64.0042 636.241 L64.0042 642.129 L28.3562 642.129 L28.3562 636.241 L33.8944 636.241 Q30.616 634.236 29.0564 631.435 Q27.4968 628.634 27.4968 624.783 Q27.4968 620.9 29.4702 618.194 Q31.4436 615.457 35.1993 614.152 Z" fill="#000000" fill-rule="nonzero" fill-opacity="1" /><path clip-path="url(#clip660)" d="M44.7161 547.917 L47.5806 547.917 L47.5806 574.844 Q53.6281 574.462 56.8109 571.215 Q59.9619 567.937 59.9619 562.112 Q59.9619 558.739 59.1344 555.588 Q58.3069 552.405 56.6518 549.286 L62.1899 549.286 Q63.5267 552.437 64.227 555.747 Q64.9272 559.057 64.9272 562.463 Q64.9272 570.993 59.9619 575.99 Q54.9967 580.955 46.5303 580.955 Q37.7774 580.955 32.6531 576.244 Q27.4968 571.502 27.4968 563.481 Q27.4968 556.288 32.1438 552.118 Q36.7589 547.917 44.7161 547.917 M42.9973 553.773 Q38.1912 553.837 35.3266 556.479 Q32.4621 559.089 32.4621 563.417 Q32.4621 568.319 35.2312 571.279 Q38.0002 574.207 43.0292 574.653 L42.9973 553.773 Z" fill="#000000" fill-rule="nonzero" fill-opacity="1" /><path clip-path="url(#clip660)" d="M14.5426 503.516 Q21.8632 507.781 29.0246 509.85 Q36.186 511.919 43.5384 511.919 Q50.8908 511.919 58.1159 509.85 Q65.3091 507.749 72.5979 503.516 L72.5979 508.609 Q65.1182 513.383 57.8931 515.77 Q50.668 518.125 43.5384 518.125 Q36.4406 518.125 29.2474 515.77 Q22.0542 513.415 14.5426 508.609 L14.5426 503.516 Z" fill="#000000" fill-rule="nonzero" fill-opacity="1" /><path clip-path="url(#clip660)" d="M29.4065 469.428 L34.9447 469.428 Q33.6716 471.91 33.035 474.584 Q32.3984 477.258 32.3984 480.122 Q32.3984 484.483 33.7352 486.679 Q35.072 488.843 37.7456 488.843 Q39.7826 488.843 40.9603 487.284 Q42.1061 485.724 43.1565 481.013 L43.6021 479.008 Q44.9389 472.77 47.3897 470.16 Q49.8086 467.518 54.1691 467.518 Q59.1344 467.518 62.0308 471.465 Q64.9272 475.38 64.9272 482.255 Q64.9272 485.119 64.3543 488.238 Q63.8132 491.326 62.6992 494.763 L56.6518 494.763 Q58.3387 491.517 59.198 488.366 Q60.0256 485.215 60.0256 482.127 Q60.0256 477.99 58.6251 475.762 Q57.1929 473.534 54.6147 473.534 Q52.2276 473.534 50.9545 475.157 Q49.6813 476.748 48.5037 482.191 L48.0262 484.228 Q46.8804 489.671 44.5251 492.09 Q42.138 494.509 38.0002 494.509 Q32.9713 494.509 30.2341 490.944 Q27.4968 487.379 27.4968 480.822 Q27.4968 477.576 27.9743 474.711 Q28.4517 471.847 29.4065 469.428 Z" fill="#000000" fill-rule="nonzero" fill-opacity="1" /><path clip-path="url(#clip660)" d="M14.5426 459.115 L14.5426 454.023 Q22.0542 449.249 29.2474 446.893 Q36.4406 444.506 43.5384 444.506 Q50.668 444.506 57.8931 446.893 Q65.1182 449.249 72.5979 454.023 L72.5979 459.115 Q65.3091 454.882 58.1159 452.813 Q50.8908 450.713 43.5384 450.713 Q36.186 450.713 29.0246 452.813 Q21.8632 454.882 14.5426 459.115 Z" fill="#000000" fill-rule="nonzero" fill-opacity="1" /><polyline clip-path="url(#clip662)" style="stroke:#009af9; stroke-linecap:round; stroke-linejoin:round; stroke-width:8; stroke-opacity:1; fill:none" points="323.395,124.797 604.86,678.411 1167.79,1095.72 1730.72,1147.03 2293.65,1191.16 "/>
<circle clip-path="url(#clip662)" cx="323.395" cy="124.797" r="10.8" fill="#009af9" fill-rule="evenodd" fill-opacity="1" stroke="#000000" stroke-opacity="1" stroke-width="3.2"/>
<circle clip-path="url(#clip662)" cx="604.86" cy="678.411" r="10.8" fill="#009af9" fill-rule="evenodd" fill-opacity="1" stroke="#000000" stroke-opacity="1" stroke-width="3.2"/>
<circle clip-path="url(#clip662)" cx="1167.79" cy="1095.72" r="10.8" fill="#009af9" fill-rule="evenodd" fill-opacity="1" stroke="#000000" stroke-opacity="1" stroke-width="3.2"/>
<circle clip-path="url(#clip662)" cx="1730.72" cy="1147.03" r="10.8" fill="#009af9" fill-rule="evenodd" fill-opacity="1" stroke="#000000" stroke-opacity="1" stroke-width="3.2"/>
<circle clip-path="url(#clip662)" cx="2293.65" cy="1191.16" r="10.8" fill="#009af9" fill-rule="evenodd" fill-opacity="1" stroke="#000000" stroke-opacity="1" stroke-width="3.2"/>
<polyline clip-path="url(#clip662)" style="stroke:#e26f46; stroke-linecap:round; stroke-linejoin:round; stroke-width:8; stroke-opacity:1; fill:none" points="323.395,1078.42 604.86,1230.67 1167.79,1327.53 1730.72,1341.13 2293.65,1348.5 "/>
<circle clip-path="url(#clip662)" cx="323.395" cy="1078.42" r="10.8" fill="#e26f46" fill-rule="evenodd" fill-opacity="1" stroke="#000000" stroke-opacity="1" stroke-width="3.2"/>
<circle clip-path="url(#clip662)" cx="604.86" cy="1230.67" r="10.8" fill="#e26f46" fill-rule="evenodd" fill-opacity="1" stroke="#000000" stroke-opacity="1" stroke-width="3.2"/>
<circle clip-path="url(#clip662)" cx="1167.79" cy="1327.53" r="10.8" fill="#e26f46" fill-rule="evenodd" fill-opacity="1" stroke="#000000" stroke-opacity="1" stroke-width="3.2"/>
<circle clip-path="url(#clip662)" cx="1730.72" cy="1341.13" r="10.8" fill="#e26f46" fill-rule="evenodd" fill-opacity="1" stroke="#000000" stroke-opacity="1" stroke-width="3.2"/>
<circle clip-path="url(#clip662)" cx="2293.65" cy="1348.5" r="10.8" fill="#e26f46" fill-rule="evenodd" fill-opacity="1" stroke="#000000" stroke-opacity="1" stroke-width="3.2"/>
<polyline clip-path="url(#clip662)" style="stroke:#3da44d; stroke-linecap:round; stroke-linejoin:round; stroke-width:8; stroke-opacity:1; fill:none" points="323.395,968.473 604.86,1144.61 1167.79,1242.17 1730.72,1268.72 2293.65,1281.72 "/>
<circle clip-path="url(#clip662)" cx="323.395" cy="968.473" r="10.8" fill="#3da44d" fill-rule="evenodd" fill-opacity="1" stroke="#000000" stroke-opacity="1" stroke-width="3.2"/>
<circle clip-path="url(#clip662)" cx="604.86" cy="1144.61" r="10.8" fill="#3da44d" fill-rule="evenodd" fill-opacity="1" stroke="#000000" stroke-opacity="1" stroke-width="3.2"/>
<circle clip-path="url(#clip662)" cx="1167.79" cy="1242.17" r="10.8" fill="#3da44d" fill-rule="evenodd" fill-opacity="1" stroke="#000000" stroke-opacity="1" stroke-width="3.2"/>
<circle clip-path="url(#clip662)" cx="1730.72" cy="1268.72" r="10.8" fill="#3da44d" fill-rule="evenodd" fill-opacity="1" stroke="#000000" stroke-opacity="1" stroke-width="3.2"/>
<circle clip-path="url(#clip662)" cx="2293.65" cy="1281.72" r="10.8" fill="#3da44d" fill-rule="evenodd" fill-opacity="1" stroke="#000000" stroke-opacity="1" stroke-width="3.2"/>
<polyline clip-path="url(#clip662)" style="stroke:#c271d2; stroke-linecap:round; stroke-linejoin:round; stroke-width:8; stroke-opacity:1; fill:none" points="323.395,607.995 604.86,835.386 1167.79,966.972 1730.72,1015.68 2293.65,1039.23 "/>
<circle clip-path="url(#clip662)" cx="323.395" cy="607.995" r="10.8" fill="#c271d2" fill-rule="evenodd" fill-opacity="1" stroke="#000000" stroke-opacity="1" stroke-width="3.2"/>
<circle clip-path="url(#clip662)" cx="604.86" cy="835.386" r="10.8" fill="#c271d2" fill-rule="evenodd" fill-opacity="1" stroke="#000000" stroke-opacity="1" stroke-width="3.2"/>
<circle clip-path="url(#clip662)" cx="1167.79" cy="966.972" r="10.8" fill="#c271d2" fill-rule="evenodd" fill-opacity="1" stroke="#000000" stroke-opacity="1" stroke-width="3.2"/>
<circle clip-path="url(#clip662)" cx="1730.72" cy="1015.68" r="10.8" fill="#c271d2" fill-rule="evenodd" fill-opacity="1" stroke="#000000" stroke-opacity="1" stroke-width="3.2"/>
<circle clip-path="url(#clip662)" cx="2293.65" cy="1039.23" r="10.8" fill="#c271d2" fill-rule="evenodd" fill-opacity="1" stroke="#000000" stroke-opacity="1" stroke-width="3.2"/>
<polyline clip-path="url(#clip662)" style="stroke:#3da44d; stroke-linecap:round; stroke-linejoin:round; stroke-width:8; stroke-opacity:1; fill:none" points="323.395,1409.76 2293.65,1409.76 "/>
<polyline clip-path="url(#clip662)" style="stroke:#c271d2; stroke-linecap:round; stroke-linejoin:round; stroke-width:8; stroke-opacity:1; fill:none" points="323.395,1374.65 2293.65,1374.65 "/>
<path clip-path="url(#clip660)" d="M1772.65 455.989 L2283.14 455.989 L2283.14 93.1086 L1772.65 93.1086  Z" fill="#000000" fill-rule="evenodd" fill-opacity="0"/>
<polyline clip-path="url(#clip660)" style="stroke:#000000; stroke-linecap:round; stroke-linejoin:round; stroke-width:4; stroke-opacity:0; fill:none" points="1772.65,455.989 2283.14,455.989 2283.14,93.1086 1772.65,93.1086 1772.65,455.989 "/>
<polyline clip-path="url(#clip660)" style="stroke:#009af9; stroke-linecap:round; stroke-linejoin:round; stroke-width:8; stroke-opacity:1; fill:none" points="1795.86,144.949 1935.09,144.949 "/>
<circle clip-path="url(#clip660)" cx="1865.47" cy="144.949" r="19.3377" fill="#009af9" fill-rule="evenodd" fill-opacity="1" stroke="#000000" stroke-opacity="1" stroke-width="5.85143"/>
<path clip-path="url(#clip660)" d="M1974.31 130.84 Q1969.22 130.84 1966.21 134.636 Q1963.22 138.432 1963.22 144.983 Q1963.22 151.511 1966.21 155.307 Q1969.22 159.104 1974.31 159.104 Q1979.4 159.104 1982.37 155.307 Q1985.35 151.511 1985.35 144.983 Q1985.35 138.432 1982.37 134.636 Q1979.4 130.84 1974.31 130.84 M1974.31 127.044 Q1981.58 127.044 1985.93 131.928 Q1990.28 136.789 1990.28 144.983 Q1990.28 153.155 1985.93 158.039 Q1981.58 162.9 1974.31 162.9 Q1967.02 162.9 1962.65 158.039 Q1958.29 153.178 1958.29 144.983 Q1958.29 136.789 1962.65 131.928 Q1967.02 127.044 1974.31 127.044 Z" fill="#000000" fill-rule="nonzero" fill-opacity="1" /><path clip-path="url(#clip660)" d="M1997.6 127.669 L2017.46 127.669 L2017.46 131.604 L2002.27 131.604 L2002.27 141.789 L2015.98 141.789 L2015.98 145.724 L2002.27 145.724 L2002.27 162.229 L1997.6 162.229 L1997.6 127.669 Z" fill="#000000" fill-rule="nonzero" fill-opacity="1" /><path clip-path="url(#clip660)" d="M2026.09 158.293 L2033.73 158.293 L2033.73 131.928 L2025.42 133.595 L2025.42 129.335 L2033.69 127.669 L2038.36 127.669 L2038.36 158.293 L2046 158.293 L2046 162.229 L2026.09 162.229 L2026.09 158.293 Z" fill="#000000" fill-rule="nonzero" fill-opacity="1" /><path clip-path="url(#clip660)" d="M2056.26 158.293 L2063.89 158.293 L2063.89 131.928 L2055.58 133.595 L2055.58 129.335 L2063.85 127.669 L2068.52 127.669 L2068.52 158.293 L2076.16 158.293 L2076.16 162.229 L2056.26 162.229 L2056.26 158.293 Z" fill="#000000" fill-rule="nonzero" fill-opacity="1" /><path clip-path="url(#clip660)" d="M2120.98 128.803 L2120.98 133.363 Q2118.32 132.09 2115.95 131.465 Q2113.59 130.84 2111.39 130.84 Q2107.57 130.84 2105.49 132.321 Q2103.43 133.803 2103.43 136.534 Q2103.43 138.826 2104.8 140.007 Q2106.19 141.164 2110.03 141.882 L2112.85 142.46 Q2118.08 143.456 2120.56 145.979 Q2123.06 148.479 2123.06 152.692 Q2123.06 157.715 2119.68 160.307 Q2116.32 162.9 2109.82 162.9 Q2107.37 162.9 2104.59 162.344 Q2101.83 161.789 2098.87 160.701 L2098.87 155.886 Q2101.72 157.483 2104.45 158.293 Q2107.18 159.104 2109.82 159.104 Q2113.82 159.104 2116 157.53 Q2118.18 155.956 2118.18 153.039 Q2118.18 150.493 2116.6 149.057 Q2115.05 147.622 2111.49 146.905 L2108.64 146.349 Q2103.41 145.307 2101.07 143.085 Q2098.73 140.863 2098.73 136.905 Q2098.73 132.321 2101.95 129.682 Q2105.19 127.044 2110.86 127.044 Q2113.29 127.044 2115.82 127.483 Q2118.34 127.923 2120.98 128.803 Z" fill="#000000" fill-rule="nonzero" fill-opacity="1" /><path clip-path="url(#clip660)" d="M2130.17 136.303 L2134.43 136.303 L2134.43 162.229 L2130.17 162.229 L2130.17 136.303 M2130.17 126.21 L2134.43 126.21 L2134.43 131.604 L2130.17 131.604 L2130.17 126.21 Z" fill="#000000" fill-rule="nonzero" fill-opacity="1" /><path clip-path="url(#clip660)" d="M2163.52 141.28 Q2165.12 138.409 2167.34 137.044 Q2169.57 135.678 2172.57 135.678 Q2176.63 135.678 2178.82 138.525 Q2181.02 141.349 2181.02 146.581 L2181.02 162.229 L2176.74 162.229 L2176.74 146.719 Q2176.74 142.993 2175.42 141.187 Q2174.1 139.382 2171.39 139.382 Q2168.08 139.382 2166.16 141.581 Q2164.24 143.78 2164.24 147.576 L2164.24 162.229 L2159.96 162.229 L2159.96 146.719 Q2159.96 142.969 2158.64 141.187 Q2157.32 139.382 2154.57 139.382 Q2151.3 139.382 2149.38 141.604 Q2147.46 143.803 2147.46 147.576 L2147.46 162.229 L2143.18 162.229 L2143.18 136.303 L2147.46 136.303 L2147.46 140.331 Q2148.92 137.946 2150.95 136.812 Q2152.99 135.678 2155.79 135.678 Q2158.62 135.678 2160.58 137.113 Q2162.57 138.548 2163.52 141.28 Z" fill="#000000" fill-rule="nonzero" fill-opacity="1" /><path clip-path="url(#clip660)" d="M2189.52 136.303 L2193.78 136.303 L2193.78 162.229 L2189.52 162.229 L2189.52 136.303 M2189.52 126.21 L2193.78 126.21 L2193.78 131.604 L2189.52 131.604 L2189.52 126.21 Z" fill="#000000" fill-rule="nonzero" fill-opacity="1" /><path clip-path="url(#clip660)" d="M2202.69 126.21 L2206.95 126.21 L2206.95 162.229 L2202.69 162.229 L2202.69 126.21 Z" fill="#000000" fill-rule="nonzero" fill-opacity="1" /><path clip-path="url(#clip660)" d="M2227.64 149.196 Q2222.48 149.196 2220.49 150.377 Q2218.5 151.557 2218.5 154.405 Q2218.5 156.673 2219.98 158.016 Q2221.49 159.335 2224.06 159.335 Q2227.6 159.335 2229.73 156.835 Q2231.88 154.312 2231.88 150.145 L2231.88 149.196 L2227.64 149.196 M2236.14 147.437 L2236.14 162.229 L2231.88 162.229 L2231.88 158.293 Q2230.42 160.655 2228.25 161.789 Q2226.07 162.9 2222.92 162.9 Q2218.94 162.9 2216.58 160.678 Q2214.24 158.432 2214.24 154.682 Q2214.24 150.307 2217.16 148.085 Q2220.1 145.863 2225.91 145.863 L2231.88 145.863 L2231.88 145.446 Q2231.88 142.507 2229.94 140.909 Q2228.01 139.289 2224.52 139.289 Q2222.3 139.289 2220.19 139.821 Q2218.08 140.354 2216.14 141.419 L2216.14 137.483 Q2218.48 136.581 2220.68 136.141 Q2222.88 135.678 2224.96 135.678 Q2230.58 135.678 2233.36 138.594 Q2236.14 141.511 2236.14 147.437 Z" fill="#000000" fill-rule="nonzero" fill-opacity="1" /><path clip-path="url(#clip660)" d="M2259.94 140.284 Q2259.22 139.868 2258.36 139.682 Q2257.53 139.474 2256.51 139.474 Q2252.9 139.474 2250.95 141.835 Q2249.03 144.173 2249.03 148.571 L2249.03 162.229 L2244.75 162.229 L2244.75 136.303 L2249.03 136.303 L2249.03 140.331 Q2250.37 137.969 2252.53 136.835 Q2254.68 135.678 2257.76 135.678 Q2258.2 135.678 2258.73 135.747 Q2259.26 135.794 2259.91 135.909 L2259.94 140.284 Z" fill="#000000" fill-rule="nonzero" fill-opacity="1" /><polyline clip-path="url(#clip660)" style="stroke:#e26f46; stroke-linecap:round; stroke-linejoin:round; stroke-width:8; stroke-opacity:1; fill:none" points="1795.86,196.789 1935.09,196.789 "/>
<circle clip-path="url(#clip660)" cx="1865.47" cy="196.789" r="19.3377" fill="#e26f46" fill-rule="evenodd" fill-opacity="1" stroke="#000000" stroke-opacity="1" stroke-width="5.85143"/>
<path clip-path="url(#clip660)" d="M1974.31 182.68 Q1969.22 182.68 1966.21 186.476 Q1963.22 190.272 1963.22 196.823 Q1963.22 203.351 1966.21 207.147 Q1969.22 210.944 1974.31 210.944 Q1979.4 210.944 1982.37 207.147 Q1985.35 203.351 1985.35 196.823 Q1985.35 190.272 1982.37 186.476 Q1979.4 182.68 1974.31 182.68 M1974.31 178.884 Q1981.58 178.884 1985.93 183.768 Q1990.28 188.629 1990.28 196.823 Q1990.28 204.995 1985.93 209.879 Q1981.58 214.74 1974.31 214.74 Q1967.02 214.74 1962.65 209.879 Q1958.29 205.018 1958.29 196.823 Q1958.29 188.629 1962.65 183.768 Q1967.02 178.884 1974.31 178.884 Z" fill="#000000" fill-rule="nonzero" fill-opacity="1" /><path clip-path="url(#clip660)" d="M1997.6 179.509 L2017.46 179.509 L2017.46 183.444 L2002.27 183.444 L2002.27 193.629 L2015.98 193.629 L2015.98 197.564 L2002.27 197.564 L2002.27 214.069 L1997.6 214.069 L1997.6 179.509 Z" fill="#000000" fill-rule="nonzero" fill-opacity="1" /><path clip-path="url(#clip660)" d="M2026.09 210.133 L2033.73 210.133 L2033.73 183.768 L2025.42 185.435 L2025.42 181.175 L2033.69 179.509 L2038.36 179.509 L2038.36 210.133 L2046 210.133 L2046 214.069 L2026.09 214.069 L2026.09 210.133 Z" fill="#000000" fill-rule="nonzero" fill-opacity="1" /><path clip-path="url(#clip660)" d="M2056.26 210.133 L2063.89 210.133 L2063.89 183.768 L2055.58 185.435 L2055.58 181.175 L2063.85 179.509 L2068.52 179.509 L2068.52 210.133 L2076.16 210.133 L2076.16 214.069 L2056.26 214.069 L2056.26 210.133 Z" fill="#000000" fill-rule="nonzero" fill-opacity="1" /><path clip-path="url(#clip660)" d="M2104.94 197.564 L2104.94 210.226 L2112.44 210.226 Q2116.21 210.226 2118.01 208.675 Q2119.84 207.101 2119.84 203.883 Q2119.84 200.643 2118.01 199.115 Q2116.21 197.564 2112.44 197.564 L2104.94 197.564 M2104.94 183.351 L2104.94 193.768 L2111.86 193.768 Q2115.28 193.768 2116.95 192.495 Q2118.64 191.198 2118.64 188.559 Q2118.64 185.944 2116.95 184.647 Q2115.28 183.351 2111.86 183.351 L2104.94 183.351 M2100.26 179.509 L2112.2 179.509 Q2117.55 179.509 2120.45 181.731 Q2123.34 183.953 2123.34 188.05 Q2123.34 191.222 2121.86 193.097 Q2120.38 194.971 2117.51 195.434 Q2120.95 196.175 2122.85 198.536 Q2124.77 200.874 2124.77 204.393 Q2124.77 209.022 2121.63 211.545 Q2118.48 214.069 2112.67 214.069 L2100.26 214.069 L2100.26 179.509 Z" fill="#000000" fill-rule="nonzero" fill-opacity="1" /><path clip-path="url(#clip660)" d="M2154.77 200.041 L2154.77 202.124 L2135.19 202.124 Q2135.47 206.522 2137.83 208.837 Q2140.21 211.129 2144.45 211.129 Q2146.9 211.129 2149.19 210.527 Q2151.51 209.925 2153.78 208.721 L2153.78 212.749 Q2151.49 213.721 2149.08 214.231 Q2146.67 214.74 2144.19 214.74 Q2137.99 214.74 2134.36 211.129 Q2130.75 207.518 2130.75 201.36 Q2130.75 194.995 2134.17 191.268 Q2137.62 187.518 2143.45 187.518 Q2148.69 187.518 2151.72 190.897 Q2154.77 194.254 2154.77 200.041 M2150.51 198.791 Q2150.47 195.296 2148.55 193.212 Q2146.65 191.129 2143.5 191.129 Q2139.94 191.129 2137.78 193.143 Q2135.65 195.157 2135.33 198.814 L2150.51 198.791 Z" fill="#000000" fill-rule="nonzero" fill-opacity="1" /><path clip-path="url(#clip660)" d="M2178.29 188.907 L2178.29 192.934 Q2176.49 192.009 2174.54 191.546 Q2172.6 191.083 2170.51 191.083 Q2167.34 191.083 2165.75 192.055 Q2164.17 193.027 2164.17 194.971 Q2164.17 196.453 2165.31 197.309 Q2166.44 198.143 2169.87 198.907 L2171.32 199.231 Q2175.86 200.203 2177.76 201.985 Q2179.68 203.745 2179.68 206.916 Q2179.68 210.527 2176.81 212.633 Q2173.96 214.74 2168.96 214.74 Q2166.88 214.74 2164.61 214.323 Q2162.37 213.93 2159.87 213.12 L2159.87 208.721 Q2162.23 209.948 2164.52 210.573 Q2166.81 211.175 2169.06 211.175 Q2172.07 211.175 2173.69 210.157 Q2175.31 209.115 2175.31 207.24 Q2175.31 205.504 2174.13 204.578 Q2172.97 203.652 2169.01 202.796 L2167.53 202.448 Q2163.57 201.615 2161.81 199.902 Q2160.05 198.166 2160.05 195.157 Q2160.05 191.499 2162.64 189.509 Q2165.24 187.518 2170.01 187.518 Q2172.37 187.518 2174.45 187.865 Q2176.53 188.212 2178.29 188.907 Z" fill="#000000" fill-rule="nonzero" fill-opacity="1" /><path clip-path="url(#clip660)" d="M2190.68 180.782 L2190.68 188.143 L2199.45 188.143 L2199.45 191.453 L2190.68 191.453 L2190.68 205.527 Q2190.68 208.698 2191.53 209.601 Q2192.41 210.504 2195.07 210.504 L2199.45 210.504 L2199.45 214.069 L2195.07 214.069 Q2190.14 214.069 2188.27 212.24 Q2186.39 210.388 2186.39 205.527 L2186.39 191.453 L2183.27 191.453 L2183.27 188.143 L2186.39 188.143 L2186.39 180.782 L2190.68 180.782 Z" fill="#000000" fill-rule="nonzero" fill-opacity="1" /><polyline clip-path="url(#clip660)" style="stroke:#3da44d; stroke-linecap:round; stroke-linejoin:round; stroke-width:8; stroke-opacity:1; fill:none" points="1795.86,248.629 1935.09,248.629 "/>
<circle clip-path="url(#clip660)" cx="1865.47" cy="248.629" r="19.3377" fill="#3da44d" fill-rule="evenodd" fill-opacity="1" stroke="#000000" stroke-opacity="1" stroke-width="5.85143"/>
<path clip-path="url(#clip660)" d="M1958.29 239.983 L1962.81 239.983 L1970.91 261.742 L1979.01 239.983 L1983.52 239.983 L1973.8 265.909 L1968.02 265.909 L1958.29 239.983 Z" fill="#000000" fill-rule="nonzero" fill-opacity="1" /><path clip-path="url(#clip660)" d="M2000.01 234.427 Q1996.39 234.427 1994.57 237.992 Q1992.76 241.534 1992.76 248.663 Q1992.76 255.77 1994.57 259.335 Q1996.39 262.876 2000.01 262.876 Q2003.64 262.876 2005.45 259.335 Q2007.27 255.77 2007.27 248.663 Q2007.27 241.534 2005.45 237.992 Q2003.64 234.427 2000.01 234.427 M2000.01 230.724 Q2005.82 230.724 2008.87 235.33 Q2011.95 239.913 2011.95 248.663 Q2011.95 257.39 2008.87 261.997 Q2005.82 266.58 2000.01 266.58 Q1994.2 266.58 1991.12 261.997 Q1988.06 257.39 1988.06 248.663 Q1988.06 239.913 1991.12 235.33 Q1994.2 230.724 2000.01 230.724 Z" fill="#000000" fill-rule="nonzero" fill-opacity="1" /><path clip-path="url(#clip660)" d="M2020.17 260.029 L2025.05 260.029 L2025.05 265.909 L2020.17 265.909 L2020.17 260.029 Z" fill="#000000" fill-rule="nonzero" fill-opacity="1" /><path clip-path="url(#clip660)" d="M2049.4 247.274 Q2052.76 247.992 2054.64 250.261 Q2056.53 252.529 2056.53 255.862 Q2056.53 260.978 2053.01 263.779 Q2049.5 266.58 2043.01 266.58 Q2040.84 266.58 2038.52 266.14 Q2036.23 265.723 2033.78 264.867 L2033.78 260.353 Q2035.72 261.487 2038.04 262.066 Q2040.35 262.645 2042.88 262.645 Q2047.27 262.645 2049.57 260.909 Q2051.88 259.173 2051.88 255.862 Q2051.88 252.807 2049.73 251.094 Q2047.6 249.358 2043.78 249.358 L2039.75 249.358 L2039.75 245.515 L2043.96 245.515 Q2047.41 245.515 2049.24 244.149 Q2051.07 242.761 2051.07 240.168 Q2051.07 237.506 2049.17 236.094 Q2047.3 234.659 2043.78 234.659 Q2041.86 234.659 2039.66 235.075 Q2037.46 235.492 2034.82 236.372 L2034.82 232.205 Q2037.48 231.464 2039.8 231.094 Q2042.14 230.724 2044.2 230.724 Q2049.52 230.724 2052.62 233.154 Q2055.72 235.562 2055.72 239.682 Q2055.72 242.552 2054.08 244.543 Q2052.44 246.511 2049.4 247.274 Z" fill="#000000" fill-rule="nonzero" fill-opacity="1" /><path clip-path="url(#clip660)" d="M2065.4 260.029 L2070.28 260.029 L2070.28 265.909 L2065.4 265.909 L2065.4 260.029 Z" fill="#000000" fill-rule="nonzero" fill-opacity="1" /><path clip-path="url(#clip660)" d="M2094.64 247.274 Q2097.99 247.992 2099.87 250.261 Q2101.76 252.529 2101.76 255.862 Q2101.76 260.978 2098.25 263.779 Q2094.73 266.58 2088.25 266.58 Q2086.07 266.58 2083.76 266.14 Q2081.46 265.723 2079.01 264.867 L2079.01 260.353 Q2080.95 261.487 2083.27 262.066 Q2085.58 262.645 2088.11 262.645 Q2092.51 262.645 2094.8 260.909 Q2097.11 259.173 2097.11 255.862 Q2097.11 252.807 2094.96 251.094 Q2092.83 249.358 2089.01 249.358 L2084.98 249.358 L2084.98 245.515 L2089.2 245.515 Q2092.64 245.515 2094.47 244.149 Q2096.3 242.761 2096.3 240.168 Q2096.3 237.506 2094.4 236.094 Q2092.53 234.659 2089.01 234.659 Q2087.09 234.659 2084.89 235.075 Q2082.69 235.492 2080.05 236.372 L2080.05 232.205 Q2082.71 231.464 2085.03 231.094 Q2087.37 230.724 2089.43 230.724 Q2094.75 230.724 2097.85 233.154 Q2100.95 235.562 2100.95 239.682 Q2100.95 242.552 2099.31 244.543 Q2097.67 246.511 2094.64 247.274 Z" fill="#000000" fill-rule="nonzero" fill-opacity="1" /><polyline clip-path="url(#clip660)" style="stroke:#c271d2; stroke-linecap:round; stroke-linejoin:round; stroke-width:8; stroke-opacity:1; fill:none" points="1795.86,300.469 1935.09,300.469 "/>
<circle clip-path="url(#clip660)" cx="1865.47" cy="300.469" r="19.3377" fill="#c271d2" fill-rule="evenodd" fill-opacity="1" stroke="#000000" stroke-opacity="1" stroke-width="5.85143"/>
<path clip-path="url(#clip660)" d="M1958.29 291.823 L1962.81 291.823 L1970.91 313.582 L1979.01 291.823 L1983.52 291.823 L1973.8 317.749 L1968.02 317.749 L1958.29 291.823 Z" fill="#000000" fill-rule="nonzero" fill-opacity="1" /><path clip-path="url(#clip660)" d="M2000.01 286.267 Q1996.39 286.267 1994.57 289.832 Q1992.76 293.374 1992.76 300.503 Q1992.76 307.61 1994.57 311.175 Q1996.39 314.716 2000.01 314.716 Q2003.64 314.716 2005.45 311.175 Q2007.27 307.61 2007.27 300.503 Q2007.27 293.374 2005.45 289.832 Q2003.64 286.267 2000.01 286.267 M2000.01 282.564 Q2005.82 282.564 2008.87 287.17 Q2011.95 291.753 2011.95 300.503 Q2011.95 309.23 2008.87 313.837 Q2005.82 318.42 2000.01 318.42 Q1994.2 318.42 1991.12 313.837 Q1988.06 309.23 1988.06 300.503 Q1988.06 291.753 1991.12 287.17 Q1994.2 282.564 2000.01 282.564 Z" fill="#000000" fill-rule="nonzero" fill-opacity="1" /><path clip-path="url(#clip660)" d="M2020.17 311.869 L2025.05 311.869 L2025.05 317.749 L2020.17 317.749 L2020.17 311.869 Z" fill="#000000" fill-rule="nonzero" fill-opacity="1" /><path clip-path="url(#clip660)" d="M2049.4 299.114 Q2052.76 299.832 2054.64 302.101 Q2056.53 304.369 2056.53 307.702 Q2056.53 312.818 2053.01 315.619 Q2049.5 318.42 2043.01 318.42 Q2040.84 318.42 2038.52 317.98 Q2036.23 317.563 2033.78 316.707 L2033.78 312.193 Q2035.72 313.327 2038.04 313.906 Q2040.35 314.485 2042.88 314.485 Q2047.27 314.485 2049.57 312.749 Q2051.88 311.013 2051.88 307.702 Q2051.88 304.647 2049.73 302.934 Q2047.6 301.198 2043.78 301.198 L2039.75 301.198 L2039.75 297.355 L2043.96 297.355 Q2047.41 297.355 2049.24 295.989 Q2051.07 294.601 2051.07 292.008 Q2051.07 289.346 2049.17 287.934 Q2047.3 286.499 2043.78 286.499 Q2041.86 286.499 2039.66 286.915 Q2037.46 287.332 2034.82 288.212 L2034.82 284.045 Q2037.48 283.304 2039.8 282.934 Q2042.14 282.564 2044.2 282.564 Q2049.52 282.564 2052.62 284.994 Q2055.72 287.402 2055.72 291.522 Q2055.72 294.392 2054.08 296.383 Q2052.44 298.351 2049.4 299.114 Z" fill="#000000" fill-rule="nonzero" fill-opacity="1" /><path clip-path="url(#clip660)" d="M2065.4 311.869 L2070.28 311.869 L2070.28 317.749 L2065.4 317.749 L2065.4 311.869 Z" fill="#000000" fill-rule="nonzero" fill-opacity="1" /><path clip-path="url(#clip660)" d="M2084.5 313.813 L2100.82 313.813 L2100.82 317.749 L2078.87 317.749 L2078.87 313.813 Q2081.53 311.059 2086.12 306.429 Q2090.72 301.776 2091.9 300.434 Q2094.15 297.911 2095.03 296.175 Q2095.93 294.415 2095.93 292.726 Q2095.93 289.971 2093.99 288.235 Q2092.07 286.499 2088.96 286.499 Q2086.76 286.499 2084.31 287.263 Q2081.88 288.027 2079.1 289.577 L2079.1 284.855 Q2081.93 283.721 2084.38 283.142 Q2086.83 282.564 2088.87 282.564 Q2094.24 282.564 2097.44 285.249 Q2100.63 287.934 2100.63 292.425 Q2100.63 294.554 2099.82 296.476 Q2099.03 298.374 2096.93 300.966 Q2096.35 301.638 2093.25 304.855 Q2090.14 308.05 2084.5 313.813 Z" fill="#000000" fill-rule="nonzero" fill-opacity="1" /><polyline clip-path="url(#clip660)" style="stroke:#3da44d; stroke-linecap:round; stroke-linejoin:round; stroke-width:8; stroke-opacity:1; fill:none" points="1795.86,352.309 1935.09,352.309 "/>
<path clip-path="url(#clip660)" d="M1958.29 343.663 L1962.81 343.663 L1970.91 365.422 L1979.01 343.663 L1983.52 343.663 L1973.8 369.589 L1968.02 369.589 L1958.29 343.663 Z" fill="#000000" fill-rule="nonzero" fill-opacity="1" /><path clip-path="url(#clip660)" d="M2000.01 338.107 Q1996.39 338.107 1994.57 341.672 Q1992.76 345.214 1992.76 352.343 Q1992.76 359.45 1994.57 363.015 Q1996.39 366.556 2000.01 366.556 Q2003.64 366.556 2005.45 363.015 Q2007.27 359.45 2007.27 352.343 Q2007.27 345.214 2005.45 341.672 Q2003.64 338.107 2000.01 338.107 M2000.01 334.404 Q2005.82 334.404 2008.87 339.01 Q2011.95 343.593 2011.95 352.343 Q2011.95 361.07 2008.87 365.677 Q2005.82 370.26 2000.01 370.26 Q1994.2 370.26 1991.12 365.677 Q1988.06 361.07 1988.06 352.343 Q1988.06 343.593 1991.12 339.01 Q1994.2 334.404 2000.01 334.404 Z" fill="#000000" fill-rule="nonzero" fill-opacity="1" /><path clip-path="url(#clip660)" d="M2020.17 363.709 L2025.05 363.709 L2025.05 369.589 L2020.17 369.589 L2020.17 363.709 Z" fill="#000000" fill-rule="nonzero" fill-opacity="1" /><path clip-path="url(#clip660)" d="M2049.4 350.954 Q2052.76 351.672 2054.64 353.941 Q2056.53 356.209 2056.53 359.542 Q2056.53 364.658 2053.01 367.459 Q2049.5 370.26 2043.01 370.26 Q2040.84 370.26 2038.52 369.82 Q2036.23 369.403 2033.78 368.547 L2033.78 364.033 Q2035.72 365.167 2038.04 365.746 Q2040.35 366.325 2042.88 366.325 Q2047.27 366.325 2049.57 364.589 Q2051.88 362.853 2051.88 359.542 Q2051.88 356.487 2049.73 354.774 Q2047.6 353.038 2043.78 353.038 L2039.75 353.038 L2039.75 349.195 L2043.96 349.195 Q2047.41 349.195 2049.24 347.829 Q2051.07 346.441 2051.07 343.848 Q2051.07 341.186 2049.17 339.774 Q2047.3 338.339 2043.78 338.339 Q2041.86 338.339 2039.66 338.755 Q2037.46 339.172 2034.82 340.052 L2034.82 335.885 Q2037.48 335.144 2039.8 334.774 Q2042.14 334.404 2044.2 334.404 Q2049.52 334.404 2052.62 336.834 Q2055.72 339.242 2055.72 343.362 Q2055.72 346.232 2054.08 348.223 Q2052.44 350.191 2049.4 350.954 Z" fill="#000000" fill-rule="nonzero" fill-opacity="1" /><path clip-path="url(#clip660)" d="M2065.4 363.709 L2070.28 363.709 L2070.28 369.589 L2065.4 369.589 L2065.4 363.709 Z" fill="#000000" fill-rule="nonzero" fill-opacity="1" /><path clip-path="url(#clip660)" d="M2094.64 350.954 Q2097.99 351.672 2099.87 353.941 Q2101.76 356.209 2101.76 359.542 Q2101.76 364.658 2098.25 367.459 Q2094.73 370.26 2088.25 370.26 Q2086.07 370.26 2083.76 369.82 Q2081.46 369.403 2079.01 368.547 L2079.01 364.033 Q2080.95 365.167 2083.27 365.746 Q2085.58 366.325 2088.11 366.325 Q2092.51 366.325 2094.8 364.589 Q2097.11 362.853 2097.11 359.542 Q2097.11 356.487 2094.96 354.774 Q2092.83 353.038 2089.01 353.038 L2084.98 353.038 L2084.98 349.195 L2089.2 349.195 Q2092.64 349.195 2094.47 347.829 Q2096.3 346.441 2096.3 343.848 Q2096.3 341.186 2094.4 339.774 Q2092.53 338.339 2089.01 338.339 Q2087.09 338.339 2084.89 338.755 Q2082.69 339.172 2080.05 340.052 L2080.05 335.885 Q2082.71 335.144 2085.03 334.774 Q2087.37 334.404 2089.43 334.404 Q2094.75 334.404 2097.85 336.834 Q2100.95 339.242 2100.95 343.362 Q2100.95 346.232 2099.31 348.223 Q2097.67 350.191 2094.64 350.954 Z" fill="#000000" fill-rule="nonzero" fill-opacity="1" /><path clip-path="url(#clip660)" d="M2148.85 364.658 L2148.85 355.376 L2141.21 355.376 L2141.21 351.533 L2153.48 351.533 L2153.48 366.371 Q2150.77 368.292 2147.51 369.288 Q2144.24 370.26 2140.54 370.26 Q2132.44 370.26 2127.85 365.538 Q2123.29 360.792 2123.29 352.343 Q2123.29 343.871 2127.85 339.149 Q2132.44 334.404 2140.54 334.404 Q2143.92 334.404 2146.95 335.237 Q2150.01 336.07 2152.57 337.691 L2152.57 342.667 Q2149.98 340.468 2147.07 339.357 Q2144.15 338.246 2140.93 338.246 Q2134.59 338.246 2131.39 341.788 Q2128.22 345.329 2128.22 352.343 Q2128.22 359.334 2131.39 362.876 Q2134.59 366.417 2140.93 366.417 Q2143.41 366.417 2145.35 366.001 Q2147.3 365.561 2148.85 364.658 Z" fill="#000000" fill-rule="nonzero" fill-opacity="1" /><path clip-path="url(#clip660)" d="M2166.69 338.871 L2166.69 351.857 L2172.57 351.857 Q2175.84 351.857 2177.62 350.167 Q2179.4 348.478 2179.4 345.353 Q2179.4 342.251 2177.62 340.561 Q2175.84 338.871 2172.57 338.871 L2166.69 338.871 M2162.02 335.029 L2172.57 335.029 Q2178.38 335.029 2181.35 337.667 Q2184.33 340.283 2184.33 345.353 Q2184.33 350.468 2181.35 353.084 Q2178.38 355.7 2172.57 355.7 L2166.69 355.7 L2166.69 369.589 L2162.02 369.589 L2162.02 335.029 Z" fill="#000000" fill-rule="nonzero" fill-opacity="1" /><path clip-path="url(#clip660)" d="M2190.07 335.029 L2194.77 335.029 L2194.77 356.024 Q2194.77 361.579 2196.79 364.033 Q2198.8 366.464 2203.32 366.464 Q2207.81 366.464 2209.82 364.033 Q2211.83 361.579 2211.83 356.024 L2211.83 335.029 L2216.53 335.029 L2216.53 356.603 Q2216.53 363.362 2213.18 366.811 Q2209.84 370.26 2203.32 370.26 Q2196.76 370.26 2193.41 366.811 Q2190.07 363.362 2190.07 356.603 L2190.07 335.029 Z" fill="#000000" fill-rule="nonzero" fill-opacity="1" /><polyline clip-path="url(#clip660)" style="stroke:#c271d2; stroke-linecap:round; stroke-linejoin:round; stroke-width:8; stroke-opacity:1; fill:none" points="1795.86,404.149 1935.09,404.149 "/>
<path clip-path="url(#clip660)" d="M1958.29 395.503 L1962.81 395.503 L1970.91 417.262 L1979.01 395.503 L1983.52 395.503 L1973.8 421.429 L1968.02 421.429 L1958.29 395.503 Z" fill="#000000" fill-rule="nonzero" fill-opacity="1" /><path clip-path="url(#clip660)" d="M2000.01 389.947 Q1996.39 389.947 1994.57 393.512 Q1992.76 397.054 1992.76 404.183 Q1992.76 411.29 1994.57 414.855 Q1996.39 418.396 2000.01 418.396 Q2003.64 418.396 2005.45 414.855 Q2007.27 411.29 2007.27 404.183 Q2007.27 397.054 2005.45 393.512 Q2003.64 389.947 2000.01 389.947 M2000.01 386.244 Q2005.82 386.244 2008.87 390.85 Q2011.95 395.433 2011.95 404.183 Q2011.95 412.91 2008.87 417.517 Q2005.82 422.1 2000.01 422.1 Q1994.2 422.1 1991.12 417.517 Q1988.06 412.91 1988.06 404.183 Q1988.06 395.433 1991.12 390.85 Q1994.2 386.244 2000.01 386.244 Z" fill="#000000" fill-rule="nonzero" fill-opacity="1" /><path clip-path="url(#clip660)" d="M2020.17 415.549 L2025.05 415.549 L2025.05 421.429 L2020.17 421.429 L2020.17 415.549 Z" fill="#000000" fill-rule="nonzero" fill-opacity="1" /><path clip-path="url(#clip660)" d="M2049.4 402.794 Q2052.76 403.512 2054.64 405.781 Q2056.53 408.049 2056.53 411.382 Q2056.53 416.498 2053.01 419.299 Q2049.5 422.1 2043.01 422.1 Q2040.84 422.1 2038.52 421.66 Q2036.23 421.243 2033.78 420.387 L2033.78 415.873 Q2035.72 417.007 2038.04 417.586 Q2040.35 418.165 2042.88 418.165 Q2047.27 418.165 2049.57 416.429 Q2051.88 414.693 2051.88 411.382 Q2051.88 408.327 2049.73 406.614 Q2047.6 404.878 2043.78 404.878 L2039.75 404.878 L2039.75 401.035 L2043.96 401.035 Q2047.41 401.035 2049.24 399.669 Q2051.07 398.281 2051.07 395.688 Q2051.07 393.026 2049.17 391.614 Q2047.3 390.179 2043.78 390.179 Q2041.86 390.179 2039.66 390.595 Q2037.46 391.012 2034.82 391.892 L2034.82 387.725 Q2037.48 386.984 2039.8 386.614 Q2042.14 386.244 2044.2 386.244 Q2049.52 386.244 2052.62 388.674 Q2055.72 391.082 2055.72 395.202 Q2055.72 398.072 2054.08 400.063 Q2052.44 402.031 2049.4 402.794 Z" fill="#000000" fill-rule="nonzero" fill-opacity="1" /><path clip-path="url(#clip660)" d="M2065.4 415.549 L2070.28 415.549 L2070.28 421.429 L2065.4 421.429 L2065.4 415.549 Z" fill="#000000" fill-rule="nonzero" fill-opacity="1" /><path clip-path="url(#clip660)" d="M2084.5 417.493 L2100.82 417.493 L2100.82 421.429 L2078.87 421.429 L2078.87 417.493 Q2081.53 414.739 2086.12 410.109 Q2090.72 405.456 2091.9 404.114 Q2094.15 401.591 2095.03 399.855 Q2095.93 398.095 2095.93 396.406 Q2095.93 393.651 2093.99 391.915 Q2092.07 390.179 2088.96 390.179 Q2086.76 390.179 2084.31 390.943 Q2081.88 391.707 2079.1 393.257 L2079.1 388.535 Q2081.93 387.401 2084.38 386.822 Q2086.83 386.244 2088.87 386.244 Q2094.24 386.244 2097.44 388.929 Q2100.63 391.614 2100.63 396.105 Q2100.63 398.234 2099.82 400.156 Q2099.03 402.054 2096.93 404.646 Q2096.35 405.318 2093.25 408.535 Q2090.14 411.73 2084.5 417.493 Z" fill="#000000" fill-rule="nonzero" fill-opacity="1" /><path clip-path="url(#clip660)" d="M2148.85 416.498 L2148.85 407.216 L2141.21 407.216 L2141.21 403.373 L2153.48 403.373 L2153.48 418.211 Q2150.77 420.132 2147.51 421.128 Q2144.24 422.1 2140.54 422.1 Q2132.44 422.1 2127.85 417.378 Q2123.29 412.632 2123.29 404.183 Q2123.29 395.711 2127.85 390.989 Q2132.44 386.244 2140.54 386.244 Q2143.92 386.244 2146.95 387.077 Q2150.01 387.91 2152.57 389.531 L2152.57 394.507 Q2149.98 392.308 2147.07 391.197 Q2144.15 390.086 2140.93 390.086 Q2134.59 390.086 2131.39 393.628 Q2128.22 397.169 2128.22 404.183 Q2128.22 411.174 2131.39 414.716 Q2134.59 418.257 2140.93 418.257 Q2143.41 418.257 2145.35 417.841 Q2147.3 417.401 2148.85 416.498 Z" fill="#000000" fill-rule="nonzero" fill-opacity="1" /><path clip-path="url(#clip660)" d="M2166.69 390.711 L2166.69 403.697 L2172.57 403.697 Q2175.84 403.697 2177.62 402.007 Q2179.4 400.318 2179.4 397.193 Q2179.4 394.091 2177.62 392.401 Q2175.84 390.711 2172.57 390.711 L2166.69 390.711 M2162.02 386.869 L2172.57 386.869 Q2178.38 386.869 2181.35 389.507 Q2184.33 392.123 2184.33 397.193 Q2184.33 402.308 2181.35 404.924 Q2178.38 407.54 2172.57 407.54 L2166.69 407.54 L2166.69 421.429 L2162.02 421.429 L2162.02 386.869 Z" fill="#000000" fill-rule="nonzero" fill-opacity="1" /><path clip-path="url(#clip660)" d="M2190.07 386.869 L2194.77 386.869 L2194.77 407.864 Q2194.77 413.419 2196.79 415.873 Q2198.8 418.304 2203.32 418.304 Q2207.81 418.304 2209.82 415.873 Q2211.83 413.419 2211.83 407.864 L2211.83 386.869 L2216.53 386.869 L2216.53 408.443 Q2216.53 415.202 2213.18 418.651 Q2209.84 422.1 2203.32 422.1 Q2196.76 422.1 2193.41 418.651 Q2190.07 415.202 2190.07 408.443 L2190.07 386.869 Z" fill="#000000" fill-rule="nonzero" fill-opacity="1" /></svg>
